<svg xmlns="http://www.w3.org/2000/svg" xmlns:xlink="http://www.w3.org/1999/xlink" contentStyleType="text/css" data-diagram-type="CLASS" height="1355px" preserveAspectRatio="none" style="width:1841px;height:1355px;background:#FFFFFF;" version="1.1" viewBox="0 0 1841 1355" width="1841px" zoomAndPan="magnify"><defs/><g><!--cluster services--><g class="cluster" data-entity="services" data-source-line="1" data-uid="ent0002" id="cluster_services"><path d="M8.5,6.602 L65.9338,6.602 A3.75,3.75 0 0 1 68.4338,9.102 L75.4338,31.6699 L1831.5,31.6699 A2.5,2.5 0 0 1 1834,34.1699 L1834,1346.112 A2.5,2.5 0 0 1 1831.5,1348.612 L8.5,1348.612 A2.5,2.5 0 0 1 6,1346.112 L6,9.102 A2.5,2.5 0 0 1 8.5,6.602" fill="none" style="stroke:#000000;stroke-width:1.5;"/><line style="stroke:#000000;stroke-width:1.5;" x1="6" x2="75.4338" y1="31.6699" y2="31.6699"/><text fill="#000000" font-family="sans-serif" font-size="14" font-weight="bold" lengthAdjust="spacing" textLength="56.4338" x="10" y="23.5679">services</text></g><!--class AuthService--><g class="entity" data-entity="AuthService" data-source-line="2" data-uid="ent0003" id="entity_AuthService"><rect fill="#F1F1F1" height="219.6113" rx="2.5" ry="2.5" style="stroke:#181818;stroke-width:0.5;" width="293.833" x="22.08" y="273.412"/><ellipse cx="125.7427" cy="289.412" fill="#ADD1B2" rx="11" ry="11" style="stroke:#181818;stroke-width:1;"/><path d="M125.2114,296.3339 Q123.4614,296.3339 122.3208,295.5995 Q121.1958,294.8495 120.6333,293.5057 Q120.0864,292.1464 120.0864,290.3495 Q120.0864,288.3182 120.7427,286.8651 Q121.3989,285.412 122.6802,284.6307 Q123.9614,283.8495 125.8364,283.8495 Q126.727,283.8495 127.3989,284.037 Q128.0708,284.2089 128.7583,284.5526 L127.9458,286.5682 Q127.3208,286.2557 126.7739,286.1307 Q126.2427,286.0057 125.7583,286.0057 Q124.5864,286.0057 123.8833,286.537 Q123.1802,287.0682 122.8833,288.0214 Q122.5864,288.9745 122.5864,290.2401 Q122.5864,292.2557 123.3052,293.2245 Q124.0239,294.1776 125.6177,294.1776 Q126.2114,294.1776 126.8364,294.0214 Q127.4614,293.8651 128.2895,293.4901 L128.2895,295.7089 Q127.5552,296.0214 126.7583,296.1776 Q125.977,296.3339 125.2114,296.3339 Z " fill="#000000"/><text fill="#000000" font-family="sans-serif" font-size="14" lengthAdjust="spacing" textLength="78.0077" x="146.2427" y="294.844">AuthService</text><line style="stroke:#181818;stroke-width:0.5;" x1="23.08" x2="314.913" y1="305.412" y2="305.412"/><rect fill="none" height="6" style="stroke:#C82930;stroke-width:1;" width="6" x="30.08" y="317.4459"/><text fill="#000000" font-family="sans-serif" font-size="14" lengthAdjust="spacing" textLength="159.2354" x="42.08" y="324.3779">userDAO: JDBCUserDAO</text><rect fill="none" height="6" style="stroke:#C82930;stroke-width:1;" width="6" x="30.08" y="336.5139"/><text fill="#000000" font-family="sans-serif" font-size="14" lengthAdjust="spacing" textLength="134.1895" x="42.08" y="343.4458">context: AppContext</text><line style="stroke:#181818;stroke-width:0.5;" x1="23.08" x2="314.913" y1="351.5478" y2="351.5478"/><ellipse cx="33.08" cy="366.5818" fill="#84BE84" rx="3" ry="3" style="stroke:#038048;stroke-width:1;"/><text fill="#000000" font-family="sans-serif" font-size="14" lengthAdjust="spacing" textLength="267.805" x="42.08" y="370.5138">AuthService(AppContext, JDBCUserDAO):</text><ellipse cx="33.08" cy="385.6497" fill="#84BE84" rx="3" ry="3" style="stroke:#038048;stroke-width:1;"/><text fill="#000000" font-family="sans-serif" font-size="14" lengthAdjust="spacing" textLength="188.4953" x="42.08" y="389.5817">login(String, String): boolean</text><ellipse cx="33.08" cy="404.7176" fill="#84BE84" rx="3" ry="3" style="stroke:#038048;stroke-width:1;"/><text fill="#000000" font-family="sans-serif" font-size="14" lengthAdjust="spacing" textLength="123.8015" x="42.08" y="408.6496">noUsers(): boolean</text><ellipse cx="33.08" cy="423.7855" fill="#84BE84" rx="3" ry="3" style="stroke:#038048;stroke-width:1;"/><text fill="#000000" font-family="sans-serif" font-size="14" lengthAdjust="spacing" textLength="86.4637" x="42.08" y="427.7175">logout(): void</text><ellipse cx="33.08" cy="442.8534" fill="#84BE84" rx="3" ry="3" style="stroke:#038048;stroke-width:1;"/><text fill="#000000" font-family="sans-serif" font-size="14" lengthAdjust="spacing" textLength="147.6294" x="42.08" y="446.7854">loadSession(): boolean</text><ellipse cx="33.08" cy="461.9214" fill="#84BE84" rx="3" ry="3" style="stroke:#038048;stroke-width:1;"/><text fill="#000000" font-family="sans-serif" font-size="14" lengthAdjust="spacing" textLength="267.833" x="42.08" y="465.8533">register(String, String, boolean): boolean</text><rect fill="#F24D5C" height="6" style="stroke:#C82930;stroke-width:1;" width="6" x="30.08" y="477.9893"/><text fill="#000000" font-family="sans-serif" font-size="14" lengthAdjust="spacing" textLength="153.5094" x="42.08" y="484.9213">saveSession(User): void</text></g><!--class UserPanelService--><g class="entity" data-entity="UserPanelService" data-source-line="13" data-uid="ent0004" id="entity_UserPanelService"><rect fill="#F1F1F1" height="467.4942" rx="2.5" ry="2.5" style="stroke:#181818;stroke-width:0.5;" width="796.2773" x="350.86" y="149.472"/><ellipse cx="687.8459" cy="165.472" fill="#ADD1B2" rx="11" ry="11" style="stroke:#181818;stroke-width:1;"/><path d="M687.3146,172.3939 Q685.5646,172.3939 684.424,171.6595 Q683.299,170.9095 682.7365,169.5657 Q682.1896,168.2064 682.1896,166.4095 Q682.1896,164.3782 682.8459,162.9251 Q683.5021,161.472 684.7834,160.6907 Q686.0646,159.9095 687.9396,159.9095 Q688.8303,159.9095 689.5021,160.097 Q690.174,160.2689 690.8615,160.6126 L690.049,162.6282 Q689.424,162.3157 688.8771,162.1907 Q688.3459,162.0657 687.8615,162.0657 Q686.6896,162.0657 685.9865,162.597 Q685.2834,163.1282 684.9865,164.0814 Q684.6896,165.0345 684.6896,166.3001 Q684.6896,168.3157 685.4084,169.2845 Q686.1271,170.2376 687.7209,170.2376 Q688.3146,170.2376 688.9396,170.0814 Q689.5646,169.9251 690.3928,169.5501 L690.3928,171.7689 Q689.6584,172.0814 688.8615,172.2376 Q688.0803,172.3939 687.3146,172.3939 Z " fill="#000000"/><text fill="#000000" font-family="sans-serif" font-size="14" lengthAdjust="spacing" textLength="113.8056" x="708.3459" y="170.904">UserPanelService</text><line style="stroke:#181818;stroke-width:0.5;" x1="351.86" x2="1146.1373" y1="181.472" y2="181.472"/><rect fill="none" height="6" style="stroke:#C82930;stroke-width:1;" width="6" x="358.86" y="193.5059"/><text fill="#000000" font-family="sans-serif" font-size="14" lengthAdjust="spacing" textLength="230.0051" x="370.86" y="200.4379">stopWordDAO: JDBCStopWordDAO</text><rect fill="none" height="6" style="stroke:#C82930;stroke-width:1;" width="6" x="358.86" y="212.5739"/><text fill="#000000" font-family="sans-serif" font-size="14" lengthAdjust="spacing" textLength="167.0053" x="370.86" y="219.5058">wdmDAO: JDBCWdmDAO</text><rect fill="none" height="6" style="stroke:#C82930;stroke-width:1;" width="6" x="358.86" y="231.6418"/><text fill="#000000" font-family="sans-serif" font-size="14" lengthAdjust="spacing" textLength="233.1131" x="370.86" y="238.5738">gameReportDAO: GameReportDAO</text><rect fill="none" height="6" style="stroke:#C82930;stroke-width:1;" width="6" x="358.86" y="250.7097"/><text fill="#000000" font-family="sans-serif" font-size="14" lengthAdjust="spacing" textLength="159.2354" x="370.86" y="257.6417">userDAO: JDBCUserDAO</text><rect fill="none" height="6" style="stroke:#C82930;stroke-width:1;" width="6" x="358.86" y="269.7776"/><text fill="#000000" font-family="sans-serif" font-size="14" lengthAdjust="spacing" textLength="203.4892" x="370.86" y="276.7096">documentDAO: DocumentDAO</text><rect fill="none" height="6" style="stroke:#C82930;stroke-width:1;" width="6" x="358.86" y="288.8455"/><text fill="#000000" font-family="sans-serif" font-size="14" lengthAdjust="spacing" textLength="161.3914" x="370.86" y="295.7775">appContext: AppContext</text><line style="stroke:#181818;stroke-width:0.5;" x1="351.86" x2="1146.1373" y1="303.8795" y2="303.8795"/><ellipse cx="361.86" cy="318.9134" fill="#84BE84" rx="3" ry="3" style="stroke:#038048;stroke-width:1;"/><text fill="#000000" font-family="sans-serif" font-size="14" lengthAdjust="spacing" textLength="770.2773" x="370.86" y="322.8454">UserPanelService(GameReportDAO, JDBCUserDAO, DocumentDAO, JDBCStopWordDAO, JDBCWdmDAO, AppContext):</text><rect fill="#F24D5C" height="6" style="stroke:#C82930;stroke-width:1;" width="6" x="358.86" y="334.9814"/><text fill="#000000" font-family="sans-serif" font-size="14" lengthAdjust="spacing" textLength="245.1531" x="370.86" y="341.9133">stopWordsParser(String): Set&lt;String&gt;</text><ellipse cx="361.86" cy="357.0493" fill="#84BE84" rx="3" ry="3" style="stroke:#038048;stroke-width:1;"/><text fill="#000000" font-family="sans-serif" font-size="14" lengthAdjust="spacing" textLength="292.1369" x="370.86" y="360.9813">getCurrentUserReports(): List&lt;GameReport&gt;</text><ellipse cx="361.86" cy="376.1172" fill="#84BE84" rx="3" ry="3" style="stroke:#038048;stroke-width:1;"/><text fill="#000000" font-family="sans-serif" font-size="14" lengthAdjust="spacing" textLength="187.6413" x="370.86" y="380.0492">deleteStopword(String): void</text><ellipse cx="361.86" cy="395.1851" fill="#84BE84" rx="3" ry="3" style="stroke:#038048;stroke-width:1;"/><text fill="#000000" font-family="sans-serif" font-size="14" lengthAdjust="spacing" textLength="164.6254" x="370.86" y="399.1171">demoteUser(String): void</text><ellipse cx="361.86" cy="414.253" fill="#84BE84" rx="3" ry="3" style="stroke:#038048;stroke-width:1;"/><text fill="#000000" font-family="sans-serif" font-size="14" lengthAdjust="spacing" textLength="278.6969" x="370.86" y="418.185">getAllDocuments(): Collection&lt;Document&gt;</text><ellipse cx="361.86" cy="433.3209" fill="#84BE84" rx="3" ry="3" style="stroke:#038048;stroke-width:1;"/><text fill="#000000" font-family="sans-serif" font-size="14" lengthAdjust="spacing" textLength="222.0671" x="370.86" y="437.2529">deleteDocument(Document): void</text><ellipse cx="361.86" cy="452.3889" fill="#84BE84" rx="3" ry="3" style="stroke:#038048;stroke-width:1;"/><text fill="#000000" font-family="sans-serif" font-size="14" lengthAdjust="spacing" textLength="254.323" x="370.86" y="456.3208">getAllUsersExceptCurrent(): List&lt;User&gt;</text><ellipse cx="361.86" cy="471.4568" fill="#84BE84" rx="3" ry="3" style="stroke:#038048;stroke-width:1;"/><text fill="#000000" font-family="sans-serif" font-size="14" lengthAdjust="spacing" textLength="207.7732" x="370.86" y="475.3888">symbolicNameOf(String): String</text><ellipse cx="361.86" cy="490.5247" fill="#84BE84" rx="3" ry="3" style="stroke:#038048;stroke-width:1;"/><text fill="#000000" font-family="sans-serif" font-size="14" lengthAdjust="spacing" textLength="183.7913" x="370.86" y="494.4567">getStopwords(): Set&lt;String&gt;</text><ellipse cx="361.86" cy="509.5926" fill="#84BE84" rx="3" ry="3" style="stroke:#038048;stroke-width:1;"/><text fill="#000000" font-family="sans-serif" font-size="14" lengthAdjust="spacing" textLength="180.4733" x="370.86" y="513.5246">addStopWords(String): void</text><ellipse cx="361.86" cy="528.6605" fill="#84BE84" rx="3" ry="3" style="stroke:#038048;stroke-width:1;"/><text fill="#000000" font-family="sans-serif" font-size="14" lengthAdjust="spacing" textLength="218.4412" x="370.86" y="532.5925">addStopwordsFromFile(File): void</text><ellipse cx="361.86" cy="547.7284" fill="#84BE84" rx="3" ry="3" style="stroke:#038048;stroke-width:1;"/><text fill="#000000" font-family="sans-serif" font-size="14" lengthAdjust="spacing" textLength="337.9168" x="370.86" y="551.6604">getUserStatsForCurrentUser(): Map&lt;String, Object&gt;</text><ellipse cx="361.86" cy="566.7964" fill="#84BE84" rx="3" ry="3" style="stroke:#038048;stroke-width:1;"/><text fill="#000000" font-family="sans-serif" font-size="14" lengthAdjust="spacing" textLength="171.3033" x="370.86" y="570.7283">moveDocument(File): void</text><ellipse cx="361.86" cy="585.8643" fill="#84BE84" rx="3" ry="3" style="stroke:#038048;stroke-width:1;"/><text fill="#000000" font-family="sans-serif" font-size="14" lengthAdjust="spacing" textLength="170.9814" x="370.86" y="589.7963">promoteUser(String): void</text><ellipse cx="361.86" cy="604.9322" fill="#84BE84" rx="3" ry="3" style="stroke:#038048;stroke-width:1;"/><text fill="#000000" font-family="sans-serif" font-size="14" lengthAdjust="spacing" textLength="162.1474" x="370.86" y="608.8642">updateWDM(WDM): void</text></g><!--class GameService--><g class="entity" data-entity="GameService" data-source-line="37" data-uid="ent0005" id="entity_GameService"><rect fill="#F1F1F1" height="677.2413" rx="2.5" ry="2.5" style="stroke:#181818;stroke-width:0.5;" width="636.1178" x="1181.94" y="44.602"/><ellipse cx="1452.8811" cy="60.602" fill="#ADD1B2" rx="11" ry="11" style="stroke:#181818;stroke-width:1;"/><path d="M1452.3498,67.5239 Q1450.5998,67.5239 1449.4592,66.7895 Q1448.3342,66.0395 1447.7717,64.6957 Q1447.2248,63.3364 1447.2248,61.5395 Q1447.2248,59.5082 1447.8811,58.0551 Q1448.5373,56.602 1449.8186,55.8207 Q1451.0998,55.0395 1452.9748,55.0395 Q1453.8654,55.0395 1454.5373,55.227 Q1455.2092,55.3989 1455.8967,55.7426 L1455.0842,57.7582 Q1454.4592,57.4457 1453.9123,57.3207 Q1453.3811,57.1957 1452.8967,57.1957 Q1451.7248,57.1957 1451.0217,57.727 Q1450.3186,58.2582 1450.0217,59.2114 Q1449.7248,60.1645 1449.7248,61.4301 Q1449.7248,63.4457 1450.4436,64.4145 Q1451.1623,65.3676 1452.7561,65.3676 Q1453.3498,65.3676 1453.9748,65.2114 Q1454.5998,65.0551 1455.4279,64.6801 L1455.4279,66.8989 Q1454.6936,67.2114 1453.8967,67.3676 Q1453.1154,67.5239 1452.3498,67.5239 Z " fill="#000000"/><text fill="#000000" font-family="sans-serif" font-size="14" lengthAdjust="spacing" textLength="85.7357" x="1473.3811" y="66.034">GameService</text><line style="stroke:#181818;stroke-width:0.5;" x1="1182.94" x2="1817.0578" y1="76.602" y2="76.602"/><rect fill="none" height="6" style="stroke:#C82930;stroke-width:1;" width="6" x="1189.94" y="88.6359"/><text fill="#000000" font-family="sans-serif" font-size="14" lengthAdjust="spacing" textLength="226.5191" x="1201.94" y="95.5679">wdmMap: Map&lt;Document, WDM&gt;</text><rect fill="none" height="6" style="stroke:#C82930;stroke-width:1;" width="6" x="1189.94" y="107.7039"/><text fill="#000000" font-family="sans-serif" font-size="14" lengthAdjust="spacing" textLength="115.2336" x="1201.94" y="114.6358">random: Random</text><rect fill="none" height="6" style="stroke:#C82930;stroke-width:1;" width="6" x="1189.94" y="126.7718"/><text fill="#000000" font-family="sans-serif" font-size="14" lengthAdjust="spacing" textLength="167.0053" x="1201.94" y="133.7038">wdmDAO: JDBCWdmDAO</text><rect fill="none" height="6" style="stroke:#C82930;stroke-width:1;" width="6" x="1189.94" y="145.8397"/><text fill="#000000" font-family="sans-serif" font-size="14" lengthAdjust="spacing" textLength="203.4892" x="1201.94" y="152.7717">documentDAO: DocumentDAO</text><rect fill="none" height="6" style="stroke:#C82930;stroke-width:1;" width="6" x="1189.94" y="164.9076"/><text fill="#000000" font-family="sans-serif" font-size="14" lengthAdjust="spacing" textLength="198.0153" x="1201.94" y="171.8396">stopWordDAO: StopWordDAO</text><rect fill="none" height="6" style="stroke:#C82930;stroke-width:1;" width="6" x="1189.94" y="183.9755"/><text fill="#000000" font-family="sans-serif" font-size="14" lengthAdjust="spacing" textLength="233.1131" x="1201.94" y="190.9075">gameReportDAO: GameReportDAO</text><rect fill="none" height="6" style="stroke:#C82930;stroke-width:1;" width="6" x="1189.94" y="203.0434"/><text fill="#000000" font-family="sans-serif" font-size="14" lengthAdjust="spacing" textLength="146.0755" x="1201.94" y="209.9754">params: GameParams</text><rect fill="none" height="6" style="stroke:#C82930;stroke-width:1;" width="6" x="1189.94" y="222.1114"/><text fill="#000000" font-family="sans-serif" font-size="14" lengthAdjust="spacing" textLength="134.1895" x="1201.94" y="229.0433">context: AppContext</text><line style="stroke:#181818;stroke-width:0.5;" x1="1182.94" x2="1817.0578" y1="237.1453" y2="237.1453"/><ellipse cx="1192.94" cy="252.1793" fill="#84BE84" rx="3" ry="3" style="stroke:#038048;stroke-width:1;"/><text fill="#000000" font-family="sans-serif" font-size="14" lengthAdjust="spacing" textLength="610.1178" x="1201.94" y="256.1113">GameService(AppContext, GameReportDAO, JDBCWdmDAO, DocumentDAO, StopWordDAO):</text><rect fill="#F24D5C" height="6" style="stroke:#C82930;stroke-width:1;" width="6" x="1189.94" y="268.2472"/><text fill="#000000" font-family="sans-serif" font-size="14" lengthAdjust="spacing" textLength="220.2471" x="1201.94" y="275.1792">whichAbsentQuestion(): Question</text><ellipse cx="1192.94" cy="290.3151" fill="#84BE84" rx="3" ry="3" style="stroke:#038048;stroke-width:1;"/><text fill="#000000" font-family="sans-serif" font-size="14" lengthAdjust="spacing" textLength="122.7795" x="1201.94" y="294.2471">init(Difficulty): void</text><rect fill="#F24D5C" height="6" style="stroke:#C82930;stroke-width:1;" width="6" x="1189.94" y="306.383"/><text fill="#000000" font-family="sans-serif" font-size="14" lengthAdjust="spacing" textLength="287.8529" x="1201.94" y="313.315">generateQuestionCount(float, Difficulty): int</text><rect fill="#F24D5C" height="6" style="stroke:#C82930;stroke-width:1;" width="6" x="1189.94" y="325.4509"/><text fill="#000000" font-family="sans-serif" font-size="14" lengthAdjust="spacing" textLength="201.6972" x="1201.94" y="332.3829">generateTimer(float): Duration</text><rect fill="#F24D5C" height="6" style="stroke:#C82930;stroke-width:1;" width="6" x="1189.94" y="344.5189"/><text fill="#000000" font-family="sans-serif" font-size="14" lengthAdjust="spacing" textLength="261.211" x="1201.94" y="351.4508">absoluteFrequencyQuestion(): Question</text><ellipse cx="1192.94" cy="366.5868" fill="#84BE84" rx="3" ry="3" style="stroke:#038048;stroke-width:1;"/><text fill="#000000" font-family="sans-serif" font-size="14" lengthAdjust="spacing" textLength="154.3214" x="1201.94" y="370.5188">getQuestionCount(): int</text><ellipse cx="1192.94" cy="385.6547" fill="#84BE84" rx="3" ry="3" style="stroke:#038048;stroke-width:1;"/><text fill="#000000" font-family="sans-serif" font-size="14" lengthAdjust="spacing" textLength="153.8594" x="1201.94" y="389.5867">getDifficulty(): Difficulty</text><rect fill="#F24D5C" height="6" style="stroke:#C82930;stroke-width:1;" width="6" x="1189.94" y="401.7226"/><text fill="#000000" font-family="sans-serif" font-size="14" lengthAdjust="spacing" textLength="272.621" x="1201.94" y="408.6546">generateAbsentWord(Set&lt;String&gt;): String</text><ellipse cx="1192.94" cy="423.7905" fill="#84BE84" rx="3" ry="3" style="stroke:#038048;stroke-width:1;"/><text fill="#000000" font-family="sans-serif" font-size="14" lengthAdjust="spacing" textLength="229.7252" x="1201.94" y="427.7225">restoreParams(GameParams): void</text><rect fill="#F24D5C" height="6" style="stroke:#C82930;stroke-width:1;" width="6" x="1189.94" y="439.8584"/><text fill="#000000" font-family="sans-serif" font-size="14" lengthAdjust="spacing" textLength="243.137" x="1201.94" y="446.7904">whichDocumentQuestion(): Question</text><ellipse cx="1192.94" cy="461.9264" fill="#84BE84" rx="3" ry="3" style="stroke:#038048;stroke-width:1;"/><text fill="#000000" font-family="sans-serif" font-size="14" lengthAdjust="spacing" textLength="160.7334" x="1201.94" y="465.8583">getTimeLimit(): Duration</text><rect fill="#F24D5C" height="6" style="stroke:#C82930;stroke-width:1;" width="6" x="1189.94" y="477.9943"/><text fill="#000000" font-family="sans-serif" font-size="14" lengthAdjust="spacing" textLength="136.0235" x="1201.94" y="484.9263">loadWdmMap(): void</text><rect fill="#F24D5C" height="6" style="stroke:#C82930;stroke-width:1;" width="6" x="1189.94" y="497.0622"/><text fill="#000000" font-family="sans-serif" font-size="14" lengthAdjust="spacing" textLength="243.095" x="1201.94" y="503.9942">whichLessQuestionSingle(): Question</text><rect fill="#F24D5C" height="6" style="stroke:#C82930;stroke-width:1;" width="6" x="1189.94" y="516.1301"/><text fill="#000000" font-family="sans-serif" font-size="14" lengthAdjust="spacing" textLength="301.2788" x="1201.94" y="523.0621">absoluteFrequencyQuestionSingle(): Question</text><ellipse cx="1192.94" cy="538.198" fill="#84BE84" rx="3" ry="3" style="stroke:#038048;stroke-width:1;"/><text fill="#000000" font-family="sans-serif" font-size="14" lengthAdjust="spacing" textLength="175.8954" x="1201.94" y="542.13">getParams(): GameParams</text><ellipse cx="1192.94" cy="557.2659" fill="#84BE84" rx="3" ry="3" style="stroke:#038048;stroke-width:1;"/><text fill="#000000" font-family="sans-serif" font-size="14" lengthAdjust="spacing" textLength="220.2891" x="1201.94" y="561.1979">getDocuments(): List&lt;Document&gt;</text><rect fill="#F24D5C" height="6" style="stroke:#C82930;stroke-width:1;" width="6" x="1189.94" y="573.3339"/><text fill="#000000" font-family="sans-serif" font-size="14" lengthAdjust="spacing" textLength="203.0272" x="1201.94" y="580.2658">whichLessQuestion(): Question</text><rect fill="#F24D5C" height="6" style="stroke:#C82930;stroke-width:1;" width="6" x="1189.94" y="592.4018"/><text fill="#000000" font-family="sans-serif" font-size="14" lengthAdjust="spacing" textLength="209.2292" x="1201.94" y="599.3338">whichMoreQuestion(): Question</text><ellipse cx="1192.94" cy="614.4697" fill="#84BE84" rx="3" ry="3" style="stroke:#038048;stroke-width:1;"/><text fill="#000000" font-family="sans-serif" font-size="14" lengthAdjust="spacing" textLength="306.9488" x="1201.94" y="618.4017">setupReadingPhase(): Map&lt;Document, String&gt;</text><ellipse cx="1192.94" cy="633.5376" fill="#84BE84" rx="3" ry="3" style="stroke:#038048;stroke-width:1;"/><text fill="#000000" font-family="sans-serif" font-size="14" lengthAdjust="spacing" textLength="240.2671" x="1201.94" y="637.4696">saveGameReport(GameReport): void</text><rect fill="#F24D5C" height="6" style="stroke:#C82930;stroke-width:1;" width="6" x="1189.94" y="649.6055"/><text fill="#000000" font-family="sans-serif" font-size="14" lengthAdjust="spacing" textLength="249.297" x="1201.94" y="656.5375">whichMoreQuestionSingle(): Question</text><ellipse cx="1192.94" cy="671.6734" fill="#84BE84" rx="3" ry="3" style="stroke:#038048;stroke-width:1;"/><text fill="#000000" font-family="sans-serif" font-size="14" lengthAdjust="spacing" textLength="202.7332" x="1201.94" y="675.6054">getQuestions(): List&lt;Question&gt;</text><ellipse cx="1192.94" cy="690.7414" fill="#84BE84" rx="3" ry="3" style="stroke:#038048;stroke-width:1;"/><text fill="#000000" font-family="sans-serif" font-size="14" lengthAdjust="spacing" textLength="173.3473" x="1201.94" y="694.6733">getScorePerQuestion(): int</text><rect fill="#F24D5C" height="6" style="stroke:#C82930;stroke-width:1;" width="6" x="1189.94" y="706.8093"/><text fill="#000000" font-family="sans-serif" font-size="14" lengthAdjust="spacing" textLength="353.8206" x="1201.94" y="713.7413">generateDocuments(float, Difficulty): List&lt;Document&gt;</text></g><!--class LeaderboardService--><g class="entity" data-entity="LeaderboardService" data-source-line="72" data-uid="ent0006" id="entity_LeaderboardService"><rect fill="#F1F1F1" height="181.4754" rx="2.5" ry="2.5" style="stroke:#181818;stroke-width:0.5;" width="468.2443" x="21.88" y="800.912"/><ellipse cx="186.0504" cy="816.912" fill="#ADD1B2" rx="11" ry="11" style="stroke:#181818;stroke-width:1;"/><path d="M185.5192,823.8339 Q183.7692,823.8339 182.6285,823.0995 Q181.5035,822.3495 180.941,821.0057 Q180.3942,819.6464 180.3942,817.8495 Q180.3942,815.8182 181.0504,814.3651 Q181.7067,812.912 182.9879,812.1307 Q184.2692,811.3495 186.1442,811.3495 Q187.0348,811.3495 187.7067,811.537 Q188.3785,811.7089 189.066,812.0526 L188.2535,814.0682 Q187.6285,813.7557 187.0817,813.6307 Q186.5504,813.5057 186.066,813.5057 Q184.8942,813.5057 184.191,814.037 Q183.4879,814.5682 183.191,815.5214 Q182.8942,816.4745 182.8942,817.7401 Q182.8942,819.7557 183.6129,820.7245 Q184.3317,821.6776 185.9254,821.6776 Q186.5192,821.6776 187.1442,821.5214 Q187.7692,821.3651 188.5973,820.9901 L188.5973,823.2089 Q187.8629,823.5214 187.066,823.6776 Q186.2848,823.8339 185.5192,823.8339 Z " fill="#000000"/><text fill="#000000" font-family="sans-serif" font-size="14" lengthAdjust="spacing" textLength="131.4035" x="206.5504" y="822.344">LeaderboardService</text><line style="stroke:#181818;stroke-width:0.5;" x1="22.88" x2="489.1243" y1="832.912" y2="832.912"/><rect fill="none" height="6" style="stroke:#C82930;stroke-width:1;" width="6" x="29.88" y="844.9459"/><text fill="#000000" font-family="sans-serif" font-size="14" lengthAdjust="spacing" textLength="265.103" x="41.88" y="851.8779">gameReportDAO: JDBCGameReportDAO</text><rect fill="none" height="6" style="stroke:#C82930;stroke-width:1;" width="6" x="29.88" y="864.0139"/><text fill="#000000" font-family="sans-serif" font-size="14" lengthAdjust="spacing" textLength="117.1656" x="41.88" y="870.9458">currentUser: User</text><rect fill="none" height="6" style="stroke:#C82930;stroke-width:1;" width="6" x="29.88" y="883.0818"/><text fill="#000000" font-family="sans-serif" font-size="14" lengthAdjust="spacing" textLength="154.7134" x="41.88" y="890.0138">users: Collection&lt;User&gt;</text><line style="stroke:#181818;stroke-width:0.5;" x1="22.88" x2="489.1243" y1="898.1157" y2="898.1157"/><ellipse cx="32.88" cy="913.1497" fill="#84BE84" rx="3" ry="3" style="stroke:#038048;stroke-width:1;"/><text fill="#000000" font-family="sans-serif" font-size="14" lengthAdjust="spacing" textLength="442.2443" x="41.88" y="917.0817">LeaderboardService(AppContext, JDBCGameReportDAO, UserDAO):</text><ellipse cx="32.88" cy="932.2176" fill="#84BE84" rx="3" ry="3" style="stroke:#038048;stroke-width:1;"/><text fill="#000000" font-family="sans-serif" font-size="14" lengthAdjust="spacing" textLength="322.2368" x="41.88" y="936.1496">getGloablLeaderboard(): List&lt;LeaderboardEntry&gt;</text><ellipse cx="32.88" cy="951.2855" fill="#84BE84" rx="3" ry="3" style="stroke:#038048;stroke-width:1;"/><text fill="#000000" font-family="sans-serif" font-size="14" lengthAdjust="spacing" textLength="412.6344" x="41.88" y="955.2175">getLeaderboardByDifficulty(Difficulty): List&lt;LeaderboardEntry&gt;</text><rect fill="#F24D5C" height="6" style="stroke:#C82930;stroke-width:1;" width="6" x="29.88" y="967.3534"/><text fill="#000000" font-family="sans-serif" font-size="14" lengthAdjust="spacing" textLength="369.6966" x="41.88" y="974.2854">getLeaderboardBase(Difficulty): List&lt;LeaderboardEntry&gt;</text></g><!--class GameParams--><g class="entity" data-entity="GameParams" data-source-line="81" data-uid="ent0007" id="entity_GameParams"><rect fill="#F1F1F1" height="219.6113" rx="2.5" ry="2.5" style="stroke:#181818;stroke-width:0.5;" width="314.1749" x="524.91" y="781.842"/><ellipse cx="633.3536" cy="797.842" fill="#ADD1B2" rx="11" ry="11" style="stroke:#181818;stroke-width:1;"/><path d="M632.8223,804.7639 Q631.0723,804.7639 629.9317,804.0295 Q628.8067,803.2795 628.2442,801.9357 Q627.6973,800.5764 627.6973,798.7795 Q627.6973,796.7482 628.3536,795.2951 Q629.0098,793.842 630.2911,793.0607 Q631.5723,792.2795 633.4473,792.2795 Q634.338,792.2795 635.0098,792.467 Q635.6817,792.6389 636.3692,792.9826 L635.5567,794.9982 Q634.9317,794.6857 634.3848,794.5607 Q633.8536,794.4357 633.3692,794.4357 Q632.1973,794.4357 631.4942,794.967 Q630.7911,795.4982 630.4942,796.4514 Q630.1973,797.4045 630.1973,798.6701 Q630.1973,800.6857 630.9161,801.6545 Q631.6348,802.6076 633.2286,802.6076 Q633.8223,802.6076 634.4473,802.4514 Q635.0723,802.2951 635.9005,801.9201 L635.9005,804.1389 Q635.1661,804.4514 634.3692,804.6076 Q633.588,804.7639 632.8223,804.7639 Z " fill="#000000"/><text fill="#000000" font-family="sans-serif" font-size="14" lengthAdjust="spacing" textLength="88.7877" x="653.8536" y="803.274">GameParams</text><line style="stroke:#181818;stroke-width:0.5;" x1="525.91" x2="838.0849" y1="813.842" y2="813.842"/><rect fill="none" height="6" style="stroke:#C82930;stroke-width:1;" width="6" x="532.91" y="825.8759"/><text fill="#000000" font-family="sans-serif" font-size="14" lengthAdjust="spacing" textLength="115.2336" x="544.91" y="832.8079">random: Random</text><rect fill="none" height="6" style="stroke:#C82930;stroke-width:1;" width="6" x="532.91" y="844.9439"/><text fill="#000000" font-family="sans-serif" font-size="14" lengthAdjust="spacing" textLength="188.7193" x="544.91" y="851.8758">documents: List&lt;Document&gt;</text><rect fill="none" height="6" style="stroke:#C82930;stroke-width:1;" width="6" x="532.91" y="864.0118"/><text fill="#000000" font-family="sans-serif" font-size="14" lengthAdjust="spacing" textLength="122.2895" x="544.91" y="870.9438">difficulty: Difficulty</text><rect fill="none" height="6" style="stroke:#C82930;stroke-width:1;" width="6" x="532.91" y="883.0797"/><text fill="#000000" font-family="sans-serif" font-size="14" lengthAdjust="spacing" textLength="101.1216" x="544.91" y="890.0117">timer: Duration</text><rect fill="none" height="6" style="stroke:#C82930;stroke-width:1;" width="6" x="532.91" y="902.1476"/><text fill="#000000" font-family="sans-serif" font-size="14" lengthAdjust="spacing" textLength="122.0375" x="544.91" y="909.0796">questionCount: int</text><line style="stroke:#181818;stroke-width:0.5;" x1="525.91" x2="838.0849" y1="917.1816" y2="917.1816"/><rect fill="#F24D5C" height="6" style="stroke:#C82930;stroke-width:1;" width="6" x="532.91" y="929.2155"/><text fill="#000000" font-family="sans-serif" font-size="14" lengthAdjust="spacing" textLength="159.1934" x="544.91" y="936.1475">GameParams(Difficulty):</text><rect fill="#F24D5C" height="6" style="stroke:#C82930;stroke-width:1;" width="6" x="532.91" y="948.2834"/><text fill="#000000" font-family="sans-serif" font-size="14" lengthAdjust="spacing" textLength="201.6972" x="544.91" y="955.2154">generateTimer(float): Duration</text><rect fill="#F24D5C" height="6" style="stroke:#C82930;stroke-width:1;" width="6" x="532.91" y="967.3514"/><text fill="#000000" font-family="sans-serif" font-size="14" lengthAdjust="spacing" textLength="288.1749" x="544.91" y="974.2833">generateDocuments(float): List&lt;Document&gt;</text><rect fill="#F24D5C" height="6" style="stroke:#C82930;stroke-width:1;" width="6" x="532.91" y="986.4193"/><text fill="#000000" font-family="sans-serif" font-size="14" lengthAdjust="spacing" textLength="222.2071" x="544.91" y="993.3513">generateQuestionCount(float): int</text></g><!--class DifficultyIndex--><g class="entity" data-entity="DifficultyIndex" data-source-line="92" data-uid="ent0008" id="entity_DifficultyIndex"><rect fill="#F1F1F1" height="181.4754" rx="2.5" ry="2.5" style="stroke:#181818;stroke-width:0.5;" width="175.8974" x="874.05" y="800.912"/><ellipse cx="910.8002" cy="816.912" fill="#ADD1B2" rx="11" ry="11" style="stroke:#181818;stroke-width:1;"/><path d="M910.269,823.8339 Q908.519,823.8339 907.3783,823.0995 Q906.2533,822.3495 905.6908,821.0057 Q905.144,819.6464 905.144,817.8495 Q905.144,815.8182 905.8002,814.3651 Q906.4565,812.912 907.7377,812.1307 Q909.019,811.3495 910.894,811.3495 Q911.7846,811.3495 912.4565,811.537 Q913.1283,811.7089 913.8158,812.0526 L913.0033,814.0682 Q912.3783,813.7557 911.8315,813.6307 Q911.3002,813.5057 910.8158,813.5057 Q909.644,813.5057 908.9408,814.037 Q908.2377,814.5682 907.9408,815.5214 Q907.644,816.4745 907.644,817.7401 Q907.644,819.7557 908.3627,820.7245 Q909.0815,821.6776 910.6752,821.6776 Q911.269,821.6776 911.894,821.5214 Q912.519,821.3651 913.3471,820.9901 L913.3471,823.2089 Q912.6127,823.5214 911.8158,823.6776 Q911.0346,823.8339 910.269,823.8339 Z " fill="#000000"/><text fill="#000000" font-family="sans-serif" font-size="14" lengthAdjust="spacing" textLength="95.5636" x="929.6336" y="822.344">DifficultyIndex</text><line style="stroke:#181818;stroke-width:0.5;" x1="875.05" x2="1048.9474" y1="832.912" y2="832.912"/><rect fill="none" height="6" style="stroke:#C82930;stroke-width:1;" width="6" x="882.05" y="844.9459"/><text fill="#000000" font-family="sans-serif" font-size="14" lengthAdjust="spacing" textLength="60.3818" x="894.05" y="851.8779">cap: float</text><rect fill="none" height="6" style="stroke:#C82930;stroke-width:1;" width="6" x="882.05" y="864.0139"/><text fill="#000000" font-family="sans-serif" font-size="14" lengthAdjust="spacing" textLength="72.3237" x="894.05" y="870.9458">value: float</text><line style="stroke:#181818;stroke-width:0.5;" x1="875.05" x2="1048.9474" y1="879.0478" y2="879.0478"/><ellipse cx="885.05" cy="894.0818" fill="#84BE84" rx="3" ry="3" style="stroke:#038048;stroke-width:1;"/><text fill="#000000" font-family="sans-serif" font-size="14" lengthAdjust="spacing" textLength="137.5215" x="894.05" y="898.0138">DifficultyIndex(float):</text><ellipse cx="885.05" cy="913.1497" fill="#84BE84" rx="3" ry="3" style="stroke:#038048;stroke-width:1;"/><text fill="#000000" font-family="sans-serif" font-size="14" lengthAdjust="spacing" textLength="92.4697" x="894.05" y="917.0817">getCap(): float</text><ellipse cx="885.05" cy="932.2176" fill="#84BE84" rx="3" ry="3" style="stroke:#038048;stroke-width:1;"/><text fill="#000000" font-family="sans-serif" font-size="14" lengthAdjust="spacing" textLength="98.1536" x="894.05" y="936.1496">getNext(): float</text><ellipse cx="885.05" cy="951.2855" fill="#84BE84" rx="3" ry="3" style="stroke:#038048;stroke-width:1;"/><text fill="#000000" font-family="sans-serif" font-size="14" lengthAdjust="spacing" textLength="137.8435" x="894.05" y="955.2175">getRemaining(): float</text><ellipse cx="885.05" cy="970.3534" fill="#84BE84" rx="3" ry="3" style="stroke:#038048;stroke-width:1;"/><text fill="#000000" font-family="sans-serif" font-size="14" lengthAdjust="spacing" textLength="149.8974" x="894.05" y="974.2854">getNextRelative(): float</text></g><!--class Question--><g class="entity" data-entity="Question" data-source-line="101" data-uid="ent0009" id="entity_Question"><rect fill="#F1F1F1" height="213.9554" rx="2.5" ry="2.5" style="stroke:#181818;stroke-width:0.5;" width="292.587" x="109.71" y="1090.052"/><ellipse cx="221.7656" cy="1112.758" fill="#ADD1B2" rx="11" ry="11" style="stroke:#181818;stroke-width:1;"/><path d="M218.125,1119.258 L218.125,1107.1174 L225.7812,1107.1174 L225.7812,1109.2424 L220.5,1109.2424 L220.5,1111.8986 L225.5156,1111.8986 L225.5156,1114.0236 L220.5,1114.0236 L220.5,1117.133 L225.7812,1117.133 L225.7812,1119.258 L218.125,1119.258 Z " fill="#000000"/><text fill="#000000" font-family="sans-serif" font-size="12" font-style="italic" lengthAdjust="spacing" textLength="46.1283" x="249.1893" y="1107.8801">&#171;record&#187;</text><text fill="#000000" font-family="sans-serif" font-size="14" lengthAdjust="spacing" textLength="59.9758" x="242.2656" y="1126.362">Question</text><line style="stroke:#181818;stroke-width:0.5;" x1="110.71" x2="401.297" y1="1135.464" y2="1135.464"/><rect fill="none" height="6" style="stroke:#C82930;stroke-width:1;" width="6" x="117.71" y="1147.498"/><text fill="#000000" font-family="sans-serif" font-size="14" lengthAdjust="spacing" textLength="72.1977" x="129.71" y="1154.4299">text: String</text><rect fill="none" height="6" style="stroke:#C82930;stroke-width:1;" width="6" x="117.71" y="1166.5659"/><text fill="#000000" font-family="sans-serif" font-size="14" lengthAdjust="spacing" textLength="140.1115" x="129.71" y="1173.4979">answers: List&lt;String&gt;</text><rect fill="none" height="6" style="stroke:#C82930;stroke-width:1;" width="6" x="117.71" y="1185.6338"/><text fill="#000000" font-family="sans-serif" font-size="14" lengthAdjust="spacing" textLength="157.4294" x="129.71" y="1192.5658">correctAnswerIndex: int</text><line style="stroke:#181818;stroke-width:0.5;" x1="110.71" x2="401.297" y1="1200.6678" y2="1200.6678"/><ellipse cx="120.71" cy="1215.7017" fill="#84BE84" rx="3" ry="3" style="stroke:#038048;stroke-width:1;"/><text fill="#000000" font-family="sans-serif" font-size="14" lengthAdjust="spacing" textLength="221.7451" x="129.71" y="1219.6337">Question(String, List&lt;String&gt;, int):</text><ellipse cx="120.71" cy="1234.7696" fill="#84BE84" rx="3" ry="3" style="stroke:#038048;stroke-width:1;"/><text fill="#000000" font-family="sans-serif" font-size="14" lengthAdjust="spacing" textLength="165.8294" x="129.71" y="1238.7016">correctAnswerIndex(): int</text><ellipse cx="120.71" cy="1253.8376" fill="#84BE84" rx="3" ry="3" style="stroke:#038048;stroke-width:1;"/><text fill="#000000" font-family="sans-serif" font-size="14" lengthAdjust="spacing" textLength="80.5977" x="129.71" y="1257.7695">text(): String</text><ellipse cx="120.71" cy="1272.9055" fill="#84BE84" rx="3" ry="3" style="stroke:#038048;stroke-width:1;"/><text fill="#000000" font-family="sans-serif" font-size="14" lengthAdjust="spacing" textLength="266.587" x="129.71" y="1276.8374">create(String, List&lt;String&gt;, int): Question</text><ellipse cx="120.71" cy="1291.9734" fill="#84BE84" rx="3" ry="3" style="stroke:#038048;stroke-width:1;"/><text fill="#000000" font-family="sans-serif" font-size="14" lengthAdjust="spacing" textLength="148.5114" x="129.71" y="1295.9054">answers(): List&lt;String&gt;</text></g><!--class QuestionType--><g class="entity" data-entity="QuestionType" data-source-line="111" data-uid="ent0010" id="entity_QuestionType"><rect fill="#F1F1F1" height="252.0912" rx="2.5" ry="2.5" style="stroke:#181818;stroke-width:0.5;" width="241.5712" x="437.21" y="1070.982"/><ellipse cx="508.0428" cy="1093.688" fill="#EB937F" rx="11" ry="11" style="stroke:#181818;stroke-width:1;"/><path d="M504.4021,1100.188 L504.4021,1088.0474 L512.0584,1088.0474 L512.0584,1090.1724 L506.7771,1090.1724 L506.7771,1092.8286 L511.7928,1092.8286 L511.7928,1094.9536 L506.7771,1094.9536 L506.7771,1098.063 L512.0584,1098.063 L512.0584,1100.188 L504.4021,1100.188 Z " fill="#000000"/><text fill="#000000" font-family="sans-serif" font-size="12" font-style="italic" lengthAdjust="spacing" textLength="80.1965" x="534.1473" y="1088.8101">&#171;enumeration&#187;</text><text fill="#000000" font-family="sans-serif" font-size="14" lengthAdjust="spacing" textLength="91.4056" x="528.5428" y="1107.292">QuestionType</text><line style="stroke:#181818;stroke-width:0.5;" x1="438.21" x2="677.7812" y1="1116.394" y2="1116.394"/><ellipse cx="448.21" cy="1131.428" fill="none" rx="3" ry="3" style="stroke:#038048;stroke-width:1;"/><text fill="#000000" font-family="sans-serif" font-size="14" lengthAdjust="spacing" textLength="97.4536" x="457.21" y="1135.3599">WHICH_MORE:</text><rect fill="none" height="6" style="stroke:#C82930;stroke-width:1;" width="6" x="445.21" y="1147.4959"/><text fill="#000000" font-family="sans-serif" font-size="14" lengthAdjust="spacing" textLength="82.0257" x="457.21" y="1154.4279">weight: float</text><ellipse cx="448.21" cy="1169.5638" fill="none" rx="3" ry="3" style="stroke:#038048;stroke-width:1;"/><text fill="#000000" font-family="sans-serif" font-size="14" lengthAdjust="spacing" textLength="87.8217" x="457.21" y="1173.4958">WHICH_LESS:</text><ellipse cx="448.21" cy="1188.6317" fill="none" rx="3" ry="3" style="stroke:#038048;stroke-width:1;"/><text fill="#000000" font-family="sans-serif" font-size="14" lengthAdjust="spacing" textLength="136.4715" x="457.21" y="1192.5637">WHICH_DOCUMENT:</text><ellipse cx="448.21" cy="1207.6996" fill="none" rx="3" ry="3" style="stroke:#038048;stroke-width:1;"/><text fill="#000000" font-family="sans-serif" font-size="14" lengthAdjust="spacing" textLength="109.2696" x="457.21" y="1211.6316">WHICH_ABSENT:</text><ellipse cx="448.21" cy="1226.7676" fill="none" rx="3" ry="3" style="stroke:#038048;stroke-width:1;"/><text fill="#000000" font-family="sans-serif" font-size="14" lengthAdjust="spacing" textLength="159.8934" x="457.21" y="1230.6995">ABSOLUTE_FREQUENCY:</text><line style="stroke:#181818;stroke-width:0.5;" x1="438.21" x2="677.7812" y1="1238.8015" y2="1238.8015"/><rect fill="#F24D5C" height="6" style="stroke:#C82930;stroke-width:1;" width="6" x="445.21" y="1250.8355"/><text fill="#000000" font-family="sans-serif" font-size="14" lengthAdjust="spacing" textLength="133.3635" x="457.21" y="1257.7674">QuestionType(float):</text><ellipse cx="448.21" cy="1272.9034" fill="#84BE84" rx="3" ry="3" style="stroke:#038048;stroke-width:1;"/><text fill="#000000" font-family="sans-serif" font-size="14" lengthAdjust="spacing" textLength="197.4692" x="457.21" y="1276.8354">valueOf(String): QuestionType</text><ellipse cx="448.21" cy="1291.9713" fill="#84BE84" rx="3" ry="3" style="stroke:#038048;stroke-width:1;"/><text fill="#000000" font-family="sans-serif" font-size="14" lengthAdjust="spacing" textLength="158.2414" x="457.21" y="1295.9033">values(): QuestionType[]</text><ellipse cx="448.21" cy="1311.0392" fill="#84BE84" rx="3" ry="3" style="stroke:#038048;stroke-width:1;"/><text fill="#000000" font-family="sans-serif" font-size="14" lengthAdjust="spacing" textLength="215.5712" x="457.21" y="1314.9712">getRandomType(): QuestionType</text></g><!--class LeaderboardEntry--><g class="entity" data-entity="LeaderboardEntry" data-source-line="123" data-uid="ent0011" id="entity_LeaderboardEntry"><rect fill="#F1F1F1" height="271.1591" rx="2.5" ry="2.5" style="stroke:#181818;stroke-width:0.5;" width="336.4348" x="713.78" y="1061.452"/><ellipse cx="818.1916" cy="1084.158" fill="#ADD1B2" rx="11" ry="11" style="stroke:#181818;stroke-width:1;"/><path d="M814.551,1090.658 L814.551,1078.5174 L822.2072,1078.5174 L822.2072,1080.6424 L816.926,1080.6424 L816.926,1083.2986 L821.9416,1083.2986 L821.9416,1085.4236 L816.926,1085.4236 L816.926,1088.533 L822.2072,1088.533 L822.2072,1090.658 L814.551,1090.658 Z " fill="#000000"/><text fill="#000000" font-family="sans-serif" font-size="12" font-style="italic" lengthAdjust="spacing" textLength="46.1283" x="875.1832" y="1079.2801">&#171;record&#187;</text><text fill="#000000" font-family="sans-serif" font-size="14" lengthAdjust="spacing" textLength="119.1116" x="838.6916" y="1097.762">LeaderboardEntry</text><line style="stroke:#181818;stroke-width:0.5;" x1="714.78" x2="1049.2148" y1="1106.864" y2="1106.864"/><rect fill="none" height="6" style="stroke:#C82930;stroke-width:1;" width="6" x="721.78" y="1118.898"/><text fill="#000000" font-family="sans-serif" font-size="14" lengthAdjust="spacing" textLength="91.3077" x="733.78" y="1125.8299">totalScore: int</text><rect fill="none" height="6" style="stroke:#C82930;stroke-width:1;" width="6" x="721.78" y="1137.9659"/><text fill="#000000" font-family="sans-serif" font-size="14" lengthAdjust="spacing" textLength="113.3156" x="733.78" y="1144.8979">username: String</text><rect fill="none" height="6" style="stroke:#C82930;stroke-width:1;" width="6" x="721.78" y="1157.0338"/><text fill="#000000" font-family="sans-serif" font-size="14" lengthAdjust="spacing" textLength="114.2676" x="733.78" y="1163.9658">averageScore: int</text><rect fill="none" height="6" style="stroke:#C82930;stroke-width:1;" width="6" x="721.78" y="1176.1017"/><text fill="#000000" font-family="sans-serif" font-size="14" lengthAdjust="spacing" textLength="112.4476" x="733.78" y="1183.0337">gamesPlayed: int</text><rect fill="none" height="6" style="stroke:#C82930;stroke-width:1;" width="6" x="721.78" y="1195.1696"/><text fill="#000000" font-family="sans-serif" font-size="14" lengthAdjust="spacing" textLength="183.1472" x="733.78" y="1202.1016">favouriteDifficulty: Difficulty</text><line style="stroke:#181818;stroke-width:0.5;" x1="714.78" x2="1049.2148" y1="1210.2036" y2="1210.2036"/><ellipse cx="724.78" cy="1225.2376" fill="#84BE84" rx="3" ry="3" style="stroke:#038048;stroke-width:1;"/><text fill="#000000" font-family="sans-serif" font-size="14" lengthAdjust="spacing" textLength="310.4348" x="733.78" y="1229.1695">LeaderboardEntry(String, Difficulty, int, int, int):</text><ellipse cx="724.78" cy="1244.3055" fill="#84BE84" rx="3" ry="3" style="stroke:#038048;stroke-width:1;"/><text fill="#000000" font-family="sans-serif" font-size="14" lengthAdjust="spacing" textLength="191.5472" x="733.78" y="1248.2374">favouriteDifficulty(): Difficulty</text><ellipse cx="724.78" cy="1263.3734" fill="#84BE84" rx="3" ry="3" style="stroke:#038048;stroke-width:1;"/><text fill="#000000" font-family="sans-serif" font-size="14" lengthAdjust="spacing" textLength="122.6675" x="733.78" y="1267.3054">averageScore(): int</text><ellipse cx="724.78" cy="1282.4413" fill="#84BE84" rx="3" ry="3" style="stroke:#038048;stroke-width:1;"/><text fill="#000000" font-family="sans-serif" font-size="14" lengthAdjust="spacing" textLength="99.7076" x="733.78" y="1286.3733">totalScore(): int</text><ellipse cx="724.78" cy="1301.5092" fill="#84BE84" rx="3" ry="3" style="stroke:#038048;stroke-width:1;"/><text fill="#000000" font-family="sans-serif" font-size="14" lengthAdjust="spacing" textLength="121.7155" x="733.78" y="1305.4412">username(): String</text><ellipse cx="724.78" cy="1320.5771" fill="#84BE84" rx="3" ry="3" style="stroke:#038048;stroke-width:1;"/><text fill="#000000" font-family="sans-serif" font-size="14" lengthAdjust="spacing" textLength="120.8475" x="733.78" y="1324.5091">gamesPlayed(): int</text></g><!--SRC=[ZLTjR-8u4FxUNv6FGOK_W50b2dHtJxHqeLMrEfrM9fdIt2LnrdPeqQd__SPE78-TmErAsyBCU5wUcNdiLYpvXnqWaY2EMG8o-lSgmdz9pgICvhLwspMALdvDPV6ygXQyLF2Xnj4Vozl5CtfPpZUZgR6TH7NpVKgLhIffpaqZvwCDaFD3LiOx9RBoC8wQtwDfjESy1rQsHYNNxcJSK-1fNYijF_8ixOGitO6K6I_x9mGSCgb01277rYmuC8aaEuBrfhEWiJwl6kIq_96La5FuhdlY-0ihO0iL5mgXyK0SHqkUr0MKJhDJl7hX8kq4BsbXFZiC3VIOehESXaUDmRivEILUZFX0qvb6NdPN5pewYLANx9HcRfIioo_ejyjKFZ8XkoOWf3jGi-RBZO7k06fH2u5UTTWcAzF_DNPlvZ9jh5F8GO6k-XsTEwzjexH1mHKyUo4x9SQQvxcjmaHPy3o7H67FPrPE8rbPR3_qtPc1NNqaKDb2kkorgl4cJyMUvrdoWFLiNWaQveFrPkiocOL0iJIrtPO3jRLgS_nEyE8koo7MFuACTKuxnPIyuu80hoFUisfcbsIp_njXQI8N_EY025rM6EiyudMLCWKlo_iO_rk5NIRTN7-FYCGZeO5riZlYRHDPXtPZS26mhAOsQpgEC9aRenQiJ7anZRRczwKLkhW8tbw6E_c_orSnmGhPQ1xDvwlpL8e9lcN9stmlCVxt6gHgsSz-Da1cPOOpcxs-PacTgvDh2QO39GXiYhLVy1hR-efSYi1uHx9IUIUUiWARR2nHkwnHriH39jXBdjSAxWJygg5CJcSpmn7q8tU1ZCube1NkcvT8K_oBOG2t9Vuw2Op1HOjdxA2bK1WaRIylPQmhNsT5PhBr2jTNq8kPiRZdUOsNYVMqmxnm8NtV5t0Rj3Uvj1MDWdbfqAFKPYY8ajf0Mhs4ZCKz0dSM3WcghhR0KipmyOr9iDJXrelIbhvLtSYJYx475urwldpxtPLe9Trziajquq7G4i9PTaWDJNu0tITvEwsnSX1xpaGQFg7wgjvBAY2oy64LK4NlX7raETwU6X_aNIQzEytUG2qoNx3MVKxox40aibMfn8aS8ghR4zdFFcB3JYQX4pqpltkOGk_clOLyGaIUnrRROtTAv79WGuo-ynFmZrOgJO4U1MZfBqfeTjP-YpalZEJeJ7uN-7laObFSN1NVoXG-kdaDvDQ77J9zRHfHApYol0OgQXvl3VC5qWUS-07n5Wg6LrDvE7Da2paYSmHVtTI246JgrF51D9iXn-Ecfz7DJLTIj_Bs7MCWRFbehD7fwclkrkx6C6nSodUpGVHKzuSDxboYviR4uEN0lXxGnYEgLoqU91mU4e1zl9GgPJ_po6iIxBQMfcXHgelkrDEf0esJ5a8pSmwiYMVcDVywUldwRV7rv_rckx9mlKDsU5D-rnghzMgtyyyjDuld-zN3ao-Tt-w83BzjrizFgvztszNtvzN3ueVLc3cZZsIQ9xMHSQ3yyoyoQcRdJMb3BhoP2gbdUBP2gwvnRezCszmFDsjSiTnSIvGTD5sNI63X51wnLmVecUlBGJxcx0Gf5R-o8wz5XlnndhYkXwnw3ompOIHuCC9T3RxSLj4RRv9lx37Jvty0]--></g></svg>