<svg xmlns="http://www.w3.org/2000/svg" xmlns:xlink="http://www.w3.org/1999/xlink" contentStyleType="text/css" data-diagram-type="CLASS" height="526.8px" preserveAspectRatio="none" style="width:511px;height:526px;background:#FFFFFF;" version="1.1" viewBox="0 0 511 526" width="511.8px" zoomAndPan="magnify"><defs/><g><!--cluster utility--><g class="cluster" data-entity="utility" data-source-line="1" data-uid="ent0002" id="cluster_utility"><path d="M5.1,3.9612 L30.7739,3.9612 A2.25,2.25 0 0 1 32.2739,5.4612 L36.4739,19.0019 L506.1,19.0019 A1.5,1.5 0 0 1 507.6,20.5019 L507.6,521.6472 A1.5,1.5 0 0 1 506.1,523.1472 L5.1,523.1472 A1.5,1.5 0 0 1 3.6,521.6472 L3.6,5.4612 A1.5,1.5 0 0 1 5.1,3.9612" fill="none" style="stroke:#000000;stroke-width:0.9;"/><line style="stroke:#000000;stroke-width:0.9;" x1="3.6" x2="36.4739" y1="19.0019" y2="19.0019"/><text fill="#000000" font-family="sans-serif" font-size="8.4" font-weight="bold" lengthAdjust="spacing" textLength="25.0739" x="6" y="14.1408">utility</text></g><!--class Config--><g class="entity" data-entity="Config" data-source-line="2" data-uid="ent0003" id="entity_Config"><rect fill="#F1F1F1" height="63.1223" rx="1.5" ry="1.5" style="stroke:#181818;stroke-width:0.3;" width="87.5625" x="83.418" y="61.0812"/><ellipse cx="111.7469" cy="70.6812" fill="#ADD1B2" rx="6.6" ry="6.6" style="stroke:#181818;stroke-width:0.6;"/><path d="M111.4282,74.8343 Q110.3782,74.8343 109.6938,74.3937 Q109.0188,73.9437 108.6813,73.1374 Q108.3532,72.3218 108.3532,71.2437 Q108.3532,70.0249 108.7469,69.1531 Q109.1407,68.2812 109.9094,67.8124 Q110.6782,67.3437 111.8032,67.3437 Q112.3375,67.3437 112.7407,67.4562 Q113.1438,67.5593 113.5563,67.7656 L113.0688,68.9749 Q112.6938,68.7874 112.3657,68.7124 Q112.0469,68.6374 111.7563,68.6374 Q111.0532,68.6374 110.6313,68.9562 Q110.2094,69.2749 110.0313,69.8468 Q109.8532,70.4187 109.8532,71.1781 Q109.8532,72.3874 110.2844,72.9687 Q110.7157,73.5406 111.6719,73.5406 Q112.0282,73.5406 112.4032,73.4468 Q112.7782,73.3531 113.275,73.1281 L113.275,74.4593 Q112.8344,74.6468 112.3563,74.7406 Q111.8875,74.8343 111.4282,74.8343 Z " fill="#000000"/><text fill="#000000" font-family="sans-serif" font-size="8.4" lengthAdjust="spacing" textLength="25.8047" x="124.0469" y="73.9404">Config</text><line style="stroke:#181818;stroke-width:0.3;" x1="84.018" x2="170.3805" y1="80.2812" y2="80.2812"/><rect fill="none" height="3.6" style="stroke:#C82930;stroke-width:0.6;" width="3.6" x="88.218" y="87.5016"/><text fill="#000000" font-family="sans-serif" font-size="8.4" lengthAdjust="spacing" textLength="71.9625" x="95.418" y="91.6608">PROPS: Properties</text><line style="stroke:#181818;stroke-width:0.3;" x1="84.018" x2="170.3805" y1="96.5219" y2="96.5219"/><ellipse cx="90.018" cy="105.5423" fill="#84BE84" rx="1.8" ry="1.8" style="stroke:#038048;stroke-width:0.6;"/><text fill="#000000" font-family="sans-serif" font-size="8.4" lengthAdjust="spacing" textLength="33.0959" x="95.418" y="107.9015">Config():</text><ellipse cx="90.018" cy="116.9831" fill="#84BE84" rx="1.8" ry="1.8" style="stroke:#038048;stroke-width:0.6;"/><text fill="#000000" font-family="sans-serif" font-size="8.4" lengthAdjust="spacing" textLength="68.8714" x="95.418" y="119.3423">get(Props): String</text></g><!--class Resources--><g class="entity" data-entity="Resources" data-source-line="7" data-uid="ent0004" id="entity_Resources"><rect fill="#F1F1F1" height="131.7668" rx="1.5" ry="1.5" style="stroke:#181818;stroke-width:0.3;" width="158.1139" x="192.144" y="26.7612"/><ellipse cx="248.3902" cy="36.3612" fill="#ADD1B2" rx="6.6" ry="6.6" style="stroke:#181818;stroke-width:0.6;"/><path d="M248.0715,40.5143 Q247.0215,40.5143 246.3371,40.0737 Q245.6621,39.6237 245.3246,38.8174 Q244.9965,38.0018 244.9965,36.9237 Q244.9965,35.7049 245.3902,34.8331 Q245.784,33.9612 246.5527,33.4924 Q247.3215,33.0237 248.4465,33.0237 Q248.9808,33.0237 249.384,33.1362 Q249.7871,33.2393 250.1996,33.4456 L249.7121,34.6549 Q249.3371,34.4674 249.009,34.3924 Q248.6902,34.3174 248.3996,34.3174 Q247.6965,34.3174 247.2746,34.6362 Q246.8527,34.9549 246.6746,35.5268 Q246.4965,36.0987 246.4965,36.8581 Q246.4965,38.0674 246.9277,38.6487 Q247.359,39.2206 248.3152,39.2206 Q248.6715,39.2206 249.0465,39.1268 Q249.4215,39.0331 249.9183,38.8081 L249.9183,40.1393 Q249.4777,40.3268 248.9996,40.4206 Q248.5308,40.5143 248.0715,40.5143 Z " fill="#000000"/><text fill="#000000" font-family="sans-serif" font-size="8.4" lengthAdjust="spacing" textLength="40.5214" x="260.6902" y="39.6204">Resources</text><line style="stroke:#181818;stroke-width:0.3;" x1="192.744" x2="349.6579" y1="45.9612" y2="45.9612"/><rect fill="none" height="3.6" style="stroke:#C82930;stroke-width:0.6;" width="3.6" x="196.944" y="53.1816"/><text fill="#000000" font-family="sans-serif" font-size="8.4" lengthAdjust="spacing" textLength="104.9324" x="204.144" y="57.3408">VOCABULARY: List&lt;String&gt;</text><polygon fill="none" points="198.744,64.0223,196.344,67.6223,201.144,67.6223" style="stroke:#1963A0;stroke-width:0.6;"/><text fill="#000000" font-family="sans-serif" font-size="8.4" lengthAdjust="spacing" textLength="67.6533" x="204.144" y="68.7815">RES_PATH: String</text><line style="stroke:#181818;stroke-width:0.3;" x1="192.744" x2="349.6579" y1="73.6427" y2="73.6427"/><rect fill="#F24D5C" height="3.6" style="stroke:#C82930;stroke-width:0.6;" width="3.6" x="196.944" y="80.8631"/><text fill="#000000" font-family="sans-serif" font-size="8.4" lengthAdjust="spacing" textLength="47.8126" x="204.144" y="85.0223">Resources():</text><ellipse cx="198.744" cy="94.1038" fill="#84BE84" rx="1.8" ry="1.8" style="stroke:#038048;stroke-width:0.6;"/><text fill="#000000" font-family="sans-serif" font-size="8.4" lengthAdjust="spacing" textLength="88.5189" x="204.144" y="96.463">getStyle(String): String</text><ellipse cx="198.744" cy="105.5446" fill="#84BE84" rx="1.8" ry="1.8" style="stroke:#038048;stroke-width:0.6;"/><text fill="#000000" font-family="sans-serif" font-size="8.4" lengthAdjust="spacing" textLength="142.5139" x="204.144" y="107.9038">getDocumentContent(String): String</text><ellipse cx="198.744" cy="116.9853" fill="#84BE84" rx="1.8" ry="1.8" style="stroke:#038048;stroke-width:0.6;"/><text fill="#000000" font-family="sans-serif" font-size="8.4" lengthAdjust="spacing" textLength="113.1392" x="204.144" y="119.3445">getVocabulary(): List&lt;String&gt;</text><ellipse cx="198.744" cy="128.4261" fill="#84BE84" rx="1.8" ry="1.8" style="stroke:#038048;stroke-width:0.6;"/><text fill="#000000" font-family="sans-serif" font-size="8.4" lengthAdjust="spacing" textLength="114.9452" x="204.144" y="130.7853">getDocPath(Document): Path</text><ellipse cx="198.744" cy="139.8668" fill="#84BE84" rx="1.8" ry="1.8" style="stroke:#038048;stroke-width:0.6;"/><text fill="#000000" font-family="sans-serif" font-size="8.4" lengthAdjust="spacing" textLength="117.0788" x="204.144" y="142.226">getAsset(String): InputStream</text><ellipse cx="198.744" cy="151.3076" fill="#84BE84" rx="1.8" ry="1.8" style="stroke:#038048;stroke-width:0.6;"/><text fill="#000000" font-family="sans-serif" font-size="8.4" lengthAdjust="spacing" textLength="89.4849" x="204.144" y="153.6668">getDocsDirPath(): Path</text></g><!--class SystemLogger--><g class="entity" data-entity="SystemLogger" data-source-line="18" data-uid="ent0005" id="entity_SystemLogger"><rect fill="#F1F1F1" height="74.563" rx="1.5" ry="1.5" style="stroke:#181818;stroke-width:0.3;" width="124.0436" x="371.178" y="55.3632"/><ellipse cx="402.3671" cy="64.9632" fill="#ADD1B2" rx="6.6" ry="6.6" style="stroke:#181818;stroke-width:0.6;"/><path d="M402.0483,69.1163 Q400.9983,69.1163 400.314,68.6757 Q399.639,68.2257 399.3015,67.4194 Q398.9733,66.6038 398.9733,65.5257 Q398.9733,64.3069 399.3671,63.4351 Q399.7608,62.5632 400.5296,62.0944 Q401.2983,61.6257 402.4233,61.6257 Q402.9577,61.6257 403.3608,61.7382 Q403.764,61.8413 404.1765,62.0476 L403.689,63.2569 Q403.314,63.0694 402.9858,62.9944 Q402.6671,62.9194 402.3765,62.9194 Q401.6733,62.9194 401.2515,63.2382 Q400.8296,63.5569 400.6515,64.1288 Q400.4733,64.7007 400.4733,65.4601 Q400.4733,66.6694 400.9046,67.2507 Q401.3358,67.8226 402.2921,67.8226 Q402.6483,67.8226 403.0233,67.7288 Q403.3983,67.6351 403.8952,67.4101 L403.8952,68.7413 Q403.4546,68.9288 402.9765,69.0226 Q402.5077,69.1163 402.0483,69.1163 Z " fill="#000000"/><text fill="#000000" font-family="sans-serif" font-size="8.4" lengthAdjust="spacing" textLength="56.5654" x="414.6671" y="68.2224">SystemLogger</text><line style="stroke:#181818;stroke-width:0.3;" x1="371.778" x2="494.6216" y1="74.5632" y2="74.5632"/><rect fill="none" height="3.6" style="stroke:#C82930;stroke-width:0.6;" width="3.6" x="375.978" y="81.7836"/><text fill="#000000" font-family="sans-serif" font-size="8.4" lengthAdjust="spacing" textLength="58.2454" x="383.178" y="85.9428">logger: Logger</text><line style="stroke:#181818;stroke-width:0.3;" x1="371.778" x2="494.6216" y1="90.8039" y2="90.8039"/><ellipse cx="377.778" cy="99.8243" fill="#84BE84" rx="1.8" ry="1.8" style="stroke:#038048;stroke-width:0.6;"/><text fill="#000000" font-family="sans-serif" font-size="8.4" lengthAdjust="spacing" textLength="63.8566" x="383.178" y="102.1835">SystemLogger():</text><ellipse cx="377.778" cy="111.2651" fill="#84BE84" rx="1.8" ry="1.8" style="stroke:#038048;stroke-width:0.6;"/><text fill="#000000" font-family="sans-serif" font-size="8.4" lengthAdjust="spacing" textLength="80.3709" x="383.178" y="113.6243">log(Throwable): void</text><ellipse cx="377.778" cy="122.7058" fill="#84BE84" rx="1.8" ry="1.8" style="stroke:#038048;stroke-width:0.6;"/><text fill="#000000" font-family="sans-serif" font-size="8.4" lengthAdjust="spacing" textLength="108.4436" x="383.178" y="125.065">log(String, Throwable): void</text></g><!--class ViewLoader--><g class="entity" data-entity="ViewLoader" data-source-line="24" data-uid="ent0006" id="entity_ViewLoader"><rect fill="#F1F1F1" height="97.4445" rx="1.5" ry="1.5" style="stroke:#181818;stroke-width:0.3;" width="228.2116" x="13.092" y="227.1492"/><ellipse cx="101.5899" cy="236.7492" fill="#ADD1B2" rx="6.6" ry="6.6" style="stroke:#181818;stroke-width:0.6;"/><path d="M101.2711,240.9023 Q100.2211,240.9023 99.5368,240.4617 Q98.8618,240.0117 98.5243,239.2054 Q98.1961,238.3898 98.1961,237.3117 Q98.1961,236.0929 98.5899,235.2211 Q98.9836,234.3492 99.7524,233.8804 Q100.5211,233.4117 101.6461,233.4117 Q102.1805,233.4117 102.5836,233.5242 Q102.9868,233.6273 103.3993,233.8336 L102.9118,235.0429 Q102.5368,234.8554 102.2086,234.7804 Q101.8899,234.7054 101.5993,234.7054 Q100.8961,234.7054 100.4743,235.0242 Q100.0524,235.3429 99.8743,235.9148 Q99.6961,236.4867 99.6961,237.2461 Q99.6961,238.4554 100.1274,239.0367 Q100.5586,239.6086 101.5149,239.6086 Q101.8711,239.6086 102.2461,239.5148 Q102.6211,239.4211 103.118,239.1961 L103.118,240.5273 Q102.6774,240.7148 102.1993,240.8086 Q101.7305,240.9023 101.2711,240.9023 Z " fill="#000000"/><text fill="#000000" font-family="sans-serif" font-size="8.4" lengthAdjust="spacing" textLength="46.1158" x="113.8899" y="240.0084">ViewLoader</text><line style="stroke:#181818;stroke-width:0.3;" x1="13.692" x2="240.7036" y1="246.3492" y2="246.3492"/><rect fill="none" height="3.6" style="stroke:#C82930;stroke-width:0.6;" width="3.6" x="17.892" y="253.5696"/><text fill="#000000" font-family="sans-serif" font-size="8.4" lengthAdjust="spacing" textLength="177.8189" x="25.092" y="257.7288">controllerFactory: Callback&lt;Class&lt;?&gt;, Object&gt;</text><rect fill="none" height="3.6" style="stroke:#C82930;stroke-width:0.6;" width="3.6" x="17.892" y="265.0103"/><text fill="#000000" font-family="sans-serif" font-size="8.4" lengthAdjust="spacing" textLength="48.367" x="25.092" y="269.1695">stage: Stage</text><line style="stroke:#181818;stroke-width:0.3;" x1="13.692" x2="240.7036" y1="274.0307" y2="274.0307"/><ellipse cx="19.692" cy="283.0511" fill="#84BE84" rx="1.8" ry="1.8" style="stroke:#038048;stroke-width:0.6;"/><text fill="#000000" font-family="sans-serif" font-size="8.4" lengthAdjust="spacing" textLength="53.407" x="25.092" y="285.4103">ViewLoader():</text><ellipse cx="19.692" cy="294.4918" fill="#84BE84" rx="1.8" ry="1.8" style="stroke:#038048;stroke-width:0.6;"/><text fill="#000000" font-family="sans-serif" font-size="8.4" lengthAdjust="spacing" textLength="61.8322" x="25.092" y="296.851">load(View): void</text><ellipse cx="19.692" cy="305.9326" fill="#84BE84" rx="1.8" ry="1.8" style="stroke:#038048;stroke-width:0.6;"/><text fill="#000000" font-family="sans-serif" font-size="8.4" lengthAdjust="spacing" textLength="82.4709" x="25.092" y="308.2918">setStage(Stage): void</text><ellipse cx="19.692" cy="317.3733" fill="#84BE84" rx="1.8" ry="1.8" style="stroke:#038048;stroke-width:0.6;"/><text fill="#000000" font-family="sans-serif" font-size="8.4" lengthAdjust="spacing" textLength="212.6116" x="25.092" y="319.7325">setControllerFactory(Callback&lt;Class&lt;?&gt;, Object&gt;): void</text></g><!--class Props--><g class="entity" data-entity="Props" data-source-line="32" data-uid="ent0007" id="entity_Props"><rect fill="#F1F1F1" height="151.2547" rx="1.5" ry="1.5" style="stroke:#181818;stroke-width:0.3;" width="117.5168" x="262.242" y="200.2452"/><ellipse cx="295.5914" cy="213.8688" fill="#EB937F" rx="6.6" ry="6.6" style="stroke:#181818;stroke-width:0.6;"/><path d="M293.4071,217.7688 L293.4071,210.4844 L298.0008,210.4844 L298.0008,211.7594 L294.8321,211.7594 L294.8321,213.3532 L297.8414,213.3532 L297.8414,214.6282 L294.8321,214.6282 L294.8321,216.4938 L298.0008,216.4938 L298.0008,217.7688 L293.4071,217.7688 Z " fill="#000000"/><text fill="#000000" font-family="sans-serif" font-size="7.2" font-style="italic" lengthAdjust="spacing" textLength="48.1179" x="306.6914" y="210.942">&#171;enumeration&#187;</text><text fill="#000000" font-family="sans-serif" font-size="8.4" lengthAdjust="spacing" textLength="22.8227" x="319.339" y="222.0312">Props</text><line style="stroke:#181818;stroke-width:0.3;" x1="262.842" x2="379.1588" y1="227.4924" y2="227.4924"/><ellipse cx="268.842" cy="236.5128" fill="none" rx="1.8" ry="1.8" style="stroke:#038048;stroke-width:0.6;"/><text fill="#000000" font-family="sans-serif" font-size="8.4" lengthAdjust="spacing" textLength="56.557" x="274.242" y="238.872">SESSION_FILE:</text><ellipse cx="268.842" cy="247.9535" fill="none" rx="1.8" ry="1.8" style="stroke:#038048;stroke-width:0.6;"/><text fill="#000000" font-family="sans-serif" font-size="8.4" lengthAdjust="spacing" textLength="97.7756" x="274.242" y="250.3127">PW_CHAR_MIN_LENGTH:</text><ellipse cx="268.842" cy="259.3943" fill="none" rx="1.8" ry="1.8" style="stroke:#038048;stroke-width:0.6;"/><text fill="#000000" font-family="sans-serif" font-size="8.4" lengthAdjust="spacing" textLength="72.2817" x="274.242" y="261.7535">DOCUMENTS_DIR:</text><ellipse cx="268.842" cy="270.835" fill="none" rx="1.8" ry="1.8" style="stroke:#038048;stroke-width:0.6;"/><text fill="#000000" font-family="sans-serif" font-size="8.4" lengthAdjust="spacing" textLength="33.3395" x="274.242" y="273.1942">DB_URL:</text><rect fill="none" height="3.6" style="stroke:#C82930;stroke-width:0.6;" width="3.6" x="267.042" y="280.4758"/><text fill="#000000" font-family="sans-serif" font-size="8.4" lengthAdjust="spacing" textLength="41.5798" x="274.242" y="284.635">key: String</text><ellipse cx="268.842" cy="293.7165" fill="none" rx="1.8" ry="1.8" style="stroke:#038048;stroke-width:0.6;"/><text fill="#000000" font-family="sans-serif" font-size="8.4" lengthAdjust="spacing" textLength="101.9168" x="274.242" y="296.0757">USR_CHAR_MAX_LENGTH:</text><line style="stroke:#181818;stroke-width:0.3;" x1="262.842" x2="379.1588" y1="300.9369" y2="300.9369"/><rect fill="#F24D5C" height="3.6" style="stroke:#C82930;stroke-width:0.6;" width="3.6" x="267.042" y="308.1573"/><text fill="#000000" font-family="sans-serif" font-size="8.4" lengthAdjust="spacing" textLength="53.7514" x="274.242" y="312.3165">Props(String):</text><ellipse cx="268.842" cy="321.398" fill="#84BE84" rx="1.8" ry="1.8" style="stroke:#038048;stroke-width:0.6;"/><text fill="#000000" font-family="sans-serif" font-size="8.4" lengthAdjust="spacing" textLength="62.9242" x="274.242" y="323.7572">values(): Props[]</text><ellipse cx="268.842" cy="332.8388" fill="#84BE84" rx="1.8" ry="1.8" style="stroke:#038048;stroke-width:0.6;"/><text fill="#000000" font-family="sans-serif" font-size="8.4" lengthAdjust="spacing" textLength="46.0486" x="274.242" y="335.198">get(): String</text><ellipse cx="268.842" cy="344.2795" fill="#84BE84" rx="1.8" ry="1.8" style="stroke:#038048;stroke-width:0.6;"/><text fill="#000000" font-family="sans-serif" font-size="8.4" lengthAdjust="spacing" textLength="86.4609" x="274.242" y="346.6387">valueOf(String): Props</text></g><!--class View--><g class="entity" data-entity="View" data-source-line="44" data-uid="ent0008" id="entity_View"><rect fill="#F1F1F1" height="162.6955" rx="1.5" ry="1.5" style="stroke:#181818;stroke-width:0.3;" width="97.7853" x="400.506" y="194.5272"/><ellipse cx="424.2963" cy="208.1508" fill="#EB937F" rx="6.6" ry="6.6" style="stroke:#181818;stroke-width:0.6;"/><path d="M422.1119,212.0508 L422.1119,204.7664 L426.7057,204.7664 L426.7057,206.0414 L423.5369,206.0414 L423.5369,207.6352 L426.5463,207.6352 L426.5463,208.9102 L423.5369,208.9102 L423.5369,210.7758 L426.7057,210.7758 L426.7057,212.0508 L422.1119,212.0508 Z " fill="#000000"/><text fill="#000000" font-family="sans-serif" font-size="7.2" font-style="italic" lengthAdjust="spacing" textLength="48.1179" x="434.783" y="205.224">&#171;enumeration&#187;</text><text fill="#000000" font-family="sans-serif" font-size="8.4" lengthAdjust="spacing" textLength="18.5471" x="449.5684" y="216.3132">View</text><line style="stroke:#181818;stroke-width:0.3;" x1="401.106" x2="497.6913" y1="221.7744" y2="221.7744"/><ellipse cx="407.106" cy="230.7948" fill="none" rx="1.8" ry="1.8" style="stroke:#038048;stroke-width:0.6;"/><text fill="#000000" font-family="sans-serif" font-size="8.4" lengthAdjust="spacing" textLength="24.6539" x="412.506" y="233.154">AUTH:</text><ellipse cx="407.106" cy="242.2355" fill="none" rx="1.8" ry="1.8" style="stroke:#038048;stroke-width:0.6;"/><text fill="#000000" font-family="sans-serif" font-size="8.4" lengthAdjust="spacing" textLength="61.4625" x="412.506" y="244.5947">LEADERBOARD:</text><ellipse cx="407.106" cy="253.6763" fill="none" rx="1.8" ry="1.8" style="stroke:#038048;stroke-width:0.6;"/><text fill="#000000" font-family="sans-serif" font-size="8.4" lengthAdjust="spacing" textLength="26.0231" x="412.506" y="256.0355">GAME:</text><ellipse cx="407.106" cy="265.117" fill="none" rx="1.8" ry="1.8" style="stroke:#038048;stroke-width:0.6;"/><text fill="#000000" font-family="sans-serif" font-size="8.4" lengthAdjust="spacing" textLength="52.5334" x="412.506" y="267.4762">USER_PANEL:</text><ellipse cx="407.106" cy="276.5578" fill="none" rx="1.8" ry="1.8" style="stroke:#038048;stroke-width:0.6;"/><text fill="#000000" font-family="sans-serif" font-size="8.4" lengthAdjust="spacing" textLength="33.6839" x="412.506" y="278.917">REPORT:</text><ellipse cx="407.106" cy="287.9985" fill="none" rx="1.8" ry="1.8" style="stroke:#038048;stroke-width:0.6;"/><text fill="#000000" font-family="sans-serif" font-size="8.4" lengthAdjust="spacing" textLength="27.0647" x="412.506" y="290.3577">MENU:</text><rect fill="none" height="3.6" style="stroke:#C82930;stroke-width:0.6;" width="3.6" x="405.306" y="297.6393"/><text fill="#000000" font-family="sans-serif" font-size="8.4" lengthAdjust="spacing" textLength="69.5349" x="412.506" y="301.7985">viewName: String</text><line style="stroke:#181818;stroke-width:0.3;" x1="401.106" x2="497.6913" y1="306.6597" y2="306.6597"/><rect fill="#F24D5C" height="3.6" style="stroke:#C82930;stroke-width:0.6;" width="3.6" x="405.306" y="313.88"/><text fill="#000000" font-family="sans-serif" font-size="8.4" lengthAdjust="spacing" textLength="49.4758" x="412.506" y="318.0392">View(String):</text><ellipse cx="407.106" cy="327.1208" fill="#84BE84" rx="1.8" ry="1.8" style="stroke:#038048;stroke-width:0.6;"/><text fill="#000000" font-family="sans-serif" font-size="8.4" lengthAdjust="spacing" textLength="58.6486" x="412.506" y="329.48">values(): View[]</text><ellipse cx="407.106" cy="338.5615" fill="#84BE84" rx="1.8" ry="1.8" style="stroke:#038048;stroke-width:0.6;"/><text fill="#000000" font-family="sans-serif" font-size="8.4" lengthAdjust="spacing" textLength="46.0486" x="412.506" y="340.9207">get(): String</text><ellipse cx="407.106" cy="350.0023" fill="#84BE84" rx="1.8" ry="1.8" style="stroke:#038048;stroke-width:0.6;"/><text fill="#000000" font-family="sans-serif" font-size="8.4" lengthAdjust="spacing" textLength="82.1853" x="412.506" y="352.3615">valueOf(String): View</text></g><!--class Popup--><g class="entity" data-entity="Popup" data-source-line="57" data-uid="ent0009" id="entity_Popup"><rect fill="#F1F1F1" height="120.326" rx="1.5" ry="1.5" style="stroke:#181818;stroke-width:0.3;" width="102.4053" x="75.996" y="393.2232"/><ellipse cx="111.8051" cy="402.8232" fill="#ADD1B2" rx="6.6" ry="6.6" style="stroke:#181818;stroke-width:0.6;"/><path d="M111.4863,406.9763 Q110.4363,406.9763 109.752,406.5357 Q109.077,406.0857 108.7395,405.2794 Q108.4113,404.4638 108.4113,403.3857 Q108.4113,402.1669 108.8051,401.2951 Q109.1988,400.4232 109.9676,399.9544 Q110.7363,399.4857 111.8613,399.4857 Q112.3957,399.4857 112.7988,399.5982 Q113.202,399.7013 113.6145,399.9076 L113.127,401.1169 Q112.752,400.9294 112.4238,400.8544 Q112.1051,400.7794 111.8145,400.7794 Q111.1113,400.7794 110.6895,401.0982 Q110.2676,401.4169 110.0895,401.9888 Q109.9113,402.5607 109.9113,403.3201 Q109.9113,404.5294 110.3426,405.1107 Q110.7738,405.6826 111.7301,405.6826 Q112.0863,405.6826 112.4613,405.5888 Q112.8363,405.4951 113.3332,405.2701 L113.3332,406.6013 Q112.8926,406.7888 112.4145,406.8826 Q111.9457,406.9763 111.4863,406.9763 Z " fill="#000000"/><text fill="#000000" font-family="sans-serif" font-size="8.4" lengthAdjust="spacing" textLength="25.6871" x="124.1051" y="406.0824">Popup</text><line style="stroke:#181818;stroke-width:0.3;" x1="76.596" x2="177.8013" y1="412.4232" y2="412.4232"/><rect fill="none" height="3.6" style="stroke:#C82930;stroke-width:0.6;" width="3.6" x="80.796" y="419.6436"/><text fill="#000000" font-family="sans-serif" font-size="8.4" lengthAdjust="spacing" textLength="48.367" x="87.996" y="423.8028">stage: Stage</text><rect fill="none" height="3.6" style="stroke:#C82930;stroke-width:0.6;" width="3.6" x="80.796" y="431.0843"/><text fill="#000000" font-family="sans-serif" font-size="8.4" lengthAdjust="spacing" textLength="41.1262" x="87.996" y="435.2435">root: VBox</text><line style="stroke:#181818;stroke-width:0.3;" x1="76.596" x2="177.8013" y1="440.1047" y2="440.1047"/><ellipse cx="82.596" cy="449.1251" fill="#84BE84" rx="1.8" ry="1.8" style="stroke:#038048;stroke-width:0.6;"/><text fill="#000000" font-family="sans-serif" font-size="8.4" lengthAdjust="spacing" textLength="56.6158" x="87.996" y="451.4843">Popup(String):</text><ellipse cx="82.596" cy="460.5658" fill="#84BE84" rx="1.8" ry="1.8" style="stroke:#038048;stroke-width:0.6;"/><text fill="#000000" font-family="sans-serif" font-size="8.4" lengthAdjust="spacing" textLength="86.2677" x="87.996" y="462.925">Popup(String, int, int):</text><ellipse cx="82.596" cy="472.0066" fill="#84BE84" rx="1.8" ry="1.8" style="stroke:#038048;stroke-width:0.6;"/><text fill="#000000" font-family="sans-serif" font-size="8.4" lengthAdjust="spacing" textLength="81.2781" x="87.996" y="474.3658">addAll(Node): Popup</text><ellipse cx="82.596" cy="483.4473" fill="#84BE84" rx="1.8" ry="1.8" style="stroke:#038048;stroke-width:0.6;"/><text fill="#000000" font-family="sans-serif" font-size="8.4" lengthAdjust="spacing" textLength="47.0566" x="87.996" y="485.8065">show(): void</text><ellipse cx="82.596" cy="494.8881" fill="#84BE84" rx="1.8" ry="1.8" style="stroke:#038048;stroke-width:0.6;"/><text fill="#000000" font-family="sans-serif" font-size="8.4" lengthAdjust="spacing" textLength="66.931" x="87.996" y="497.2473">getStage(): Stage</text><ellipse cx="82.596" cy="506.3288" fill="#84BE84" rx="1.8" ry="1.8" style="stroke:#038048;stroke-width:0.6;"/><text fill="#000000" font-family="sans-serif" font-size="8.4" lengthAdjust="spacing" textLength="86.8053" x="87.996" y="508.688">addAll(Node[]): Popup</text></g><!--SRC=[bLDTRvim57tlh_0ZqP8_WA9C16WRYG0o8TjKLSW1bx0wEB9DCZHbltt6uPjsqdZ0kkTUdtjyVNn6yJjACIX4HZ9H_du0yei9uXoOD7_BKd27ljIXDjDLl00-zFn01pwZPyn4XdbTbsAXLI2VwI0GBCjJbRZrc27cj60nvZNveaCw_hrd6klGCU0F7JWP5yixsKgb_m1e1v5lx9u7JLJtG9G4QtTqDarRD2vEE1VoF48kdnVkQOmE1K6ibAAc4Xeo7ucZrf3AmYhk2WpESQ_79ZyNKY33w3GWuLR6556Ve3-oeEG2dnoQffYrLz87ky4H5Kl5QgrB9QZjZenUqO5WsUH2iwINkWkSWmzB-Zhs6Ruw52Kz5HtKQOZbS1ab1BD750lAIXsOY923TDlIh8YMNrTpu1r-ubYiwZrSI2DMro2NLXfAj8f_g9XNboohDFMVvCnnS-tptjDpuhmuALTpi5og23CaCfg3rQhrgygtrzfSXnq46y-D7ZUEtM3-jyXyDc2qtRYHOxjFqh1rnlBCS6kxko2oDh05rr48dMQAxxWSsJ8COCrdV1_nNH0frFkvYtjvxRt7iRjLhVVM-L9j6G-X6lm_Pb2bnoCmmawGOnkM3TUU0Qq6UZAsxMJ2m8Ro1Rksqo3GzZsuQo8vcx0Pn4MsSj49VtGCTUHAo_-TkDenSRTFpyMvDRQAnYViWtEGvKBzMkDFJBm0Z58X-wtfhve29Ob1YERIfFAk8cpCUwHNRUZdjF7wRFWqUYGlhmEQsyFjBm00]--></g></svg>