<svg xmlns="http://www.w3.org/2000/svg" xmlns:xlink="http://www.w3.org/1999/xlink" contentStyleType="text/css" data-diagram-type="CLASS" height="878px" preserveAspectRatio="none" style="width:853px;height:878px;background:#FFFFFF;" version="1.1" viewBox="0 0 853 878" width="853px" zoomAndPan="magnify"><defs/><g><!--cluster utility--><g class="cluster" data-entity="utility" data-source-line="2" data-uid="ent0002" id="cluster_utility"><path d="M8.5,6.602 L51.2898,6.602 A3.75,3.75 0 0 1 53.7898,9.102 L60.7898,31.6699 L843.5,31.6699 A2.5,2.5 0 0 1 846,34.1699 L846,869.412 A2.5,2.5 0 0 1 843.5,871.912 L8.5,871.912 A2.5,2.5 0 0 1 6,869.412 L6,9.102 A2.5,2.5 0 0 1 8.5,6.602" fill="none" style="stroke:#000000;stroke-width:1.5;"/><line style="stroke:#000000;stroke-width:1.5;" x1="6" x2="60.7898" y1="31.6699" y2="31.6699"/><text fill="#000000" font-family="sans-serif" font-size="14" font-weight="bold" lengthAdjust="spacing" textLength="41.7898" x="10" y="23.5679">utility</text></g><!--class Config--><g class="entity" data-entity="Config" data-source-line="3" data-uid="ent0003" id="entity_Config"><rect fill="#F1F1F1" height="105.2038" rx="2.5" ry="2.5" style="stroke:#181818;stroke-width:0.5;" width="145.9376" x="139.03" y="101.802"/><ellipse cx="186.2449" cy="117.802" fill="#ADD1B2" rx="11" ry="11" style="stroke:#181818;stroke-width:1;"/><path d="M185.7136,124.7239 Q183.9636,124.7239 182.823,123.9895 Q181.698,123.2395 181.1355,121.8957 Q180.5886,120.5364 180.5886,118.7395 Q180.5886,116.7082 181.2449,115.2551 Q181.9011,113.802 183.1824,113.0207 Q184.4636,112.2395 186.3386,112.2395 Q187.2292,112.2395 187.9011,112.427 Q188.573,112.5989 189.2605,112.9426 L188.448,114.9582 Q187.823,114.6457 187.2761,114.5207 Q186.7449,114.3957 186.2605,114.3957 Q185.0886,114.3957 184.3855,114.927 Q183.6824,115.4582 183.3855,116.4114 Q183.0886,117.3645 183.0886,118.6301 Q183.0886,120.6457 183.8074,121.6145 Q184.5261,122.5676 186.1199,122.5676 Q186.7136,122.5676 187.3386,122.4114 Q187.9636,122.2551 188.7917,121.8801 L188.7917,124.0989 Q188.0574,124.4114 187.2605,124.5676 Q186.4792,124.7239 185.7136,124.7239 Z " fill="#000000"/><text fill="#000000" font-family="sans-serif" font-size="14" lengthAdjust="spacing" textLength="43.0078" x="206.7449" y="123.234">Config</text><line style="stroke:#181818;stroke-width:0.5;" x1="140.03" x2="283.9676" y1="133.802" y2="133.802"/><rect fill="none" height="6" style="stroke:#C82930;stroke-width:1;" width="6" x="147.03" y="145.8359"/><text fill="#000000" font-family="sans-serif" font-size="14" lengthAdjust="spacing" textLength="119.9376" x="159.03" y="152.7679">PROPS: Properties</text><line style="stroke:#181818;stroke-width:0.5;" x1="140.03" x2="283.9676" y1="160.8699" y2="160.8699"/><ellipse cx="150.03" cy="175.9039" fill="#84BE84" rx="3" ry="3" style="stroke:#038048;stroke-width:1;"/><text fill="#000000" font-family="sans-serif" font-size="14" lengthAdjust="spacing" textLength="55.1598" x="159.03" y="179.8358">Config():</text><ellipse cx="150.03" cy="194.9718" fill="#84BE84" rx="3" ry="3" style="stroke:#038048;stroke-width:1;"/><text fill="#000000" font-family="sans-serif" font-size="14" lengthAdjust="spacing" textLength="114.7856" x="159.03" y="198.9038">get(Props): String</text></g><!--class Resources--><g class="entity" data-entity="Resources" data-source-line="8" data-uid="ent0004" id="entity_Resources"><rect fill="#F1F1F1" height="219.6113" rx="2.5" ry="2.5" style="stroke:#181818;stroke-width:0.5;" width="263.5231" x="320.24" y="44.602"/><ellipse cx="413.9837" cy="60.602" fill="#ADD1B2" rx="11" ry="11" style="stroke:#181818;stroke-width:1;"/><path d="M413.4524,67.5239 Q411.7024,67.5239 410.5618,66.7895 Q409.4368,66.0395 408.8743,64.6957 Q408.3274,63.3364 408.3274,61.5395 Q408.3274,59.5082 408.9837,58.0551 Q409.6399,56.602 410.9212,55.8207 Q412.2024,55.0395 414.0774,55.0395 Q414.9681,55.0395 415.6399,55.227 Q416.3118,55.3989 416.9993,55.7426 L416.1868,57.7582 Q415.5618,57.4457 415.0149,57.3207 Q414.4837,57.1957 413.9993,57.1957 Q412.8274,57.1957 412.1243,57.727 Q411.4212,58.2582 411.1243,59.2114 Q410.8274,60.1645 410.8274,61.4301 Q410.8274,63.4457 411.5462,64.4145 Q412.2649,65.3676 413.8587,65.3676 Q414.4524,65.3676 415.0774,65.2114 Q415.7024,65.0551 416.5306,64.6801 L416.5306,66.8989 Q415.7962,67.2114 414.9993,67.3676 Q414.2181,67.5239 413.4524,67.5239 Z " fill="#000000"/><text fill="#000000" font-family="sans-serif" font-size="14" lengthAdjust="spacing" textLength="67.5357" x="434.4837" y="66.034">Resources</text><line style="stroke:#181818;stroke-width:0.5;" x1="321.24" x2="582.7631" y1="76.602" y2="76.602"/><rect fill="none" height="6" style="stroke:#C82930;stroke-width:1;" width="6" x="328.24" y="88.6359"/><text fill="#000000" font-family="sans-serif" font-size="14" lengthAdjust="spacing" textLength="174.8873" x="340.24" y="95.5679">VOCABULARY: List&lt;String&gt;</text><polygon fill="none" points="331.24,106.7039,327.24,112.7039,335.24,112.7039" style="stroke:#1963A0;stroke-width:1;"/><text fill="#000000" font-family="sans-serif" font-size="14" lengthAdjust="spacing" textLength="112.7556" x="340.24" y="114.6358">RES_PATH: String</text><line style="stroke:#181818;stroke-width:0.5;" x1="321.24" x2="582.7631" y1="122.7378" y2="122.7378"/><rect fill="#F24D5C" height="6" style="stroke:#C82930;stroke-width:1;" width="6" x="328.24" y="134.7718"/><text fill="#000000" font-family="sans-serif" font-size="14" lengthAdjust="spacing" textLength="79.6877" x="340.24" y="141.7038">Resources():</text><ellipse cx="331.24" cy="156.8397" fill="#84BE84" rx="3" ry="3" style="stroke:#038048;stroke-width:1;"/><text fill="#000000" font-family="sans-serif" font-size="14" lengthAdjust="spacing" textLength="147.5314" x="340.24" y="160.7717">getStyle(String): String</text><ellipse cx="331.24" cy="175.9076" fill="#84BE84" rx="3" ry="3" style="stroke:#038048;stroke-width:1;"/><text fill="#000000" font-family="sans-serif" font-size="14" lengthAdjust="spacing" textLength="237.5231" x="340.24" y="179.8396">getDocumentContent(String): String</text><ellipse cx="331.24" cy="194.9755" fill="#84BE84" rx="3" ry="3" style="stroke:#038048;stroke-width:1;"/><text fill="#000000" font-family="sans-serif" font-size="14" lengthAdjust="spacing" textLength="188.5653" x="340.24" y="198.9075">getVocabulary(): List&lt;String&gt;</text><ellipse cx="331.24" cy="214.0434" fill="#84BE84" rx="3" ry="3" style="stroke:#038048;stroke-width:1;"/><text fill="#000000" font-family="sans-serif" font-size="14" lengthAdjust="spacing" textLength="191.5753" x="340.24" y="217.9754">getDocPath(Document): Path</text><ellipse cx="331.24" cy="233.1114" fill="#84BE84" rx="3" ry="3" style="stroke:#038048;stroke-width:1;"/><text fill="#000000" font-family="sans-serif" font-size="14" lengthAdjust="spacing" textLength="195.1313" x="340.24" y="237.0433">getAsset(String): InputStream</text><ellipse cx="331.24" cy="252.1793" fill="#84BE84" rx="3" ry="3" style="stroke:#038048;stroke-width:1;"/><text fill="#000000" font-family="sans-serif" font-size="14" lengthAdjust="spacing" textLength="149.1414" x="340.24" y="256.1113">getDocsDirPath(): Path</text></g><!--class SystemLogger--><g class="entity" data-entity="SystemLogger" data-source-line="19" data-uid="ent0005" id="entity_SystemLogger"><rect fill="#F1F1F1" height="124.2717" rx="2.5" ry="2.5" style="stroke:#181818;stroke-width:0.5;" width="206.7393" x="618.63" y="92.272"/><ellipse cx="670.6118" cy="108.272" fill="#ADD1B2" rx="11" ry="11" style="stroke:#181818;stroke-width:1;"/><path d="M670.0806,115.1939 Q668.3306,115.1939 667.19,114.4595 Q666.065,113.7095 665.5025,112.3657 Q664.9556,111.0064 664.9556,109.2095 Q664.9556,107.1782 665.6118,105.7251 Q666.2681,104.272 667.5493,103.4907 Q668.8306,102.7095 670.7056,102.7095 Q671.5962,102.7095 672.2681,102.897 Q672.94,103.0689 673.6275,103.4126 L672.815,105.4282 Q672.19,105.1157 671.6431,104.9907 Q671.1118,104.8657 670.6275,104.8657 Q669.4556,104.8657 668.7525,105.397 Q668.0493,105.9282 667.7525,106.8814 Q667.4556,107.8345 667.4556,109.1001 Q667.4556,111.1157 668.1743,112.0845 Q668.8931,113.0376 670.4868,113.0376 Q671.0806,113.0376 671.7056,112.8814 Q672.3306,112.7251 673.1587,112.3501 L673.1587,114.5689 Q672.4243,114.8814 671.6275,115.0376 Q670.8462,115.1939 670.0806,115.1939 Z " fill="#000000"/><text fill="#000000" font-family="sans-serif" font-size="14" lengthAdjust="spacing" textLength="94.2757" x="691.1118" y="113.704">SystemLogger</text><line style="stroke:#181818;stroke-width:0.5;" x1="619.63" x2="824.3693" y1="124.272" y2="124.272"/><rect fill="none" height="6" style="stroke:#C82930;stroke-width:1;" width="6" x="626.63" y="136.3059"/><text fill="#000000" font-family="sans-serif" font-size="14" lengthAdjust="spacing" textLength="97.0756" x="638.63" y="143.2379">logger: Logger</text><line style="stroke:#181818;stroke-width:0.5;" x1="619.63" x2="824.3693" y1="151.3399" y2="151.3399"/><ellipse cx="629.63" cy="166.3739" fill="#84BE84" rx="3" ry="3" style="stroke:#038048;stroke-width:1;"/><text fill="#000000" font-family="sans-serif" font-size="14" lengthAdjust="spacing" textLength="106.4276" x="638.63" y="170.3058">SystemLogger():</text><ellipse cx="629.63" cy="185.4418" fill="#84BE84" rx="3" ry="3" style="stroke:#038048;stroke-width:1;"/><text fill="#000000" font-family="sans-serif" font-size="14" lengthAdjust="spacing" textLength="133.9515" x="638.63" y="189.3738">log(Throwable): void</text><ellipse cx="629.63" cy="204.5097" fill="#84BE84" rx="3" ry="3" style="stroke:#038048;stroke-width:1;"/><text fill="#000000" font-family="sans-serif" font-size="14" lengthAdjust="spacing" textLength="180.7393" x="638.63" y="208.4417">log(String, Throwable): void</text></g><!--class ViewLoader--><g class="entity" data-entity="ViewLoader" data-source-line="25" data-uid="ent0006" id="entity_ViewLoader"><rect fill="#F1F1F1" height="162.4075" rx="2.5" ry="2.5" style="stroke:#181818;stroke-width:0.5;" width="380.3527" x="21.82" y="378.582"/><ellipse cx="169.3165" cy="394.582" fill="#ADD1B2" rx="11" ry="11" style="stroke:#181818;stroke-width:1;"/><path d="M168.7852,401.5039 Q167.0352,401.5039 165.8946,400.7695 Q164.7696,400.0195 164.2071,398.6757 Q163.6602,397.3164 163.6602,395.5195 Q163.6602,393.4882 164.3165,392.0351 Q164.9727,390.582 166.254,389.8007 Q167.5352,389.0195 169.4102,389.0195 Q170.3009,389.0195 170.9727,389.207 Q171.6446,389.3789 172.3321,389.7226 L171.5196,391.7382 Q170.8946,391.4257 170.3477,391.3007 Q169.8165,391.1757 169.3321,391.1757 Q168.1602,391.1757 167.4571,391.707 Q166.754,392.2382 166.4571,393.1914 Q166.1602,394.1445 166.1602,395.4101 Q166.1602,397.4257 166.879,398.3945 Q167.5977,399.3476 169.1915,399.3476 Q169.7852,399.3476 170.4102,399.1914 Q171.0352,399.0351 171.8634,398.6601 L171.8634,400.8789 Q171.129,401.1914 170.3321,401.3476 Q169.5509,401.5039 168.7852,401.5039 Z " fill="#000000"/><text fill="#000000" font-family="sans-serif" font-size="14" lengthAdjust="spacing" textLength="76.8597" x="189.8165" y="400.014">ViewLoader</text><line style="stroke:#181818;stroke-width:0.5;" x1="22.82" x2="401.1727" y1="410.582" y2="410.582"/><rect fill="none" height="6" style="stroke:#C82930;stroke-width:1;" width="6" x="29.82" y="422.6159"/><text fill="#000000" font-family="sans-serif" font-size="14" lengthAdjust="spacing" textLength="296.3649" x="41.82" y="429.5479">controllerFactory: Callback&lt;Class&lt;?&gt;, Object&gt;</text><rect fill="none" height="6" style="stroke:#C82930;stroke-width:1;" width="6" x="29.82" y="441.6839"/><text fill="#000000" font-family="sans-serif" font-size="14" lengthAdjust="spacing" textLength="80.6117" x="41.82" y="448.6158">stage: Stage</text><line style="stroke:#181818;stroke-width:0.5;" x1="22.82" x2="401.1727" y1="456.7178" y2="456.7178"/><ellipse cx="32.82" cy="471.7518" fill="#84BE84" rx="3" ry="3" style="stroke:#038048;stroke-width:1;"/><text fill="#000000" font-family="sans-serif" font-size="14" lengthAdjust="spacing" textLength="89.0116" x="41.82" y="475.6838">ViewLoader():</text><ellipse cx="32.82" cy="490.8197" fill="#84BE84" rx="3" ry="3" style="stroke:#038048;stroke-width:1;"/><text fill="#000000" font-family="sans-serif" font-size="14" lengthAdjust="spacing" textLength="103.0536" x="41.82" y="494.7517">load(View): void</text><ellipse cx="32.82" cy="509.8876" fill="#84BE84" rx="3" ry="3" style="stroke:#038048;stroke-width:1;"/><text fill="#000000" font-family="sans-serif" font-size="14" lengthAdjust="spacing" textLength="137.4515" x="41.82" y="513.8196">setStage(Stage): void</text><ellipse cx="32.82" cy="528.9555" fill="#84BE84" rx="3" ry="3" style="stroke:#038048;stroke-width:1;"/><text fill="#000000" font-family="sans-serif" font-size="14" lengthAdjust="spacing" textLength="354.3527" x="41.82" y="532.8875">setControllerFactory(Callback&lt;Class&lt;?&gt;, Object&gt;): void</text></g><!--class Props--><g class="entity" data-entity="Props" data-source-line="33" data-uid="ent0007" id="entity_Props"><rect fill="#F1F1F1" height="252.0912" rx="2.5" ry="2.5" style="stroke:#181818;stroke-width:0.5;" width="195.8613" x="437.07" y="333.742"/><ellipse cx="492.6524" cy="356.448" fill="#EB937F" rx="11" ry="11" style="stroke:#181818;stroke-width:1;"/><path d="M489.0118,362.948 L489.0118,350.8074 L496.668,350.8074 L496.668,352.9324 L491.3868,352.9324 L491.3868,355.5886 L496.4024,355.5886 L496.4024,357.7136 L491.3868,357.7136 L491.3868,360.823 L496.668,360.823 L496.668,362.948 L489.0118,362.948 Z " fill="#000000"/><text fill="#000000" font-family="sans-serif" font-size="12" font-style="italic" lengthAdjust="spacing" textLength="80.1965" x="511.1524" y="351.5701">&#171;enumeration&#187;</text><text fill="#000000" font-family="sans-serif" font-size="14" lengthAdjust="spacing" textLength="38.0379" x="532.2317" y="370.052">Props</text><line style="stroke:#181818;stroke-width:0.5;" x1="438.07" x2="631.9313" y1="379.154" y2="379.154"/><ellipse cx="448.07" cy="394.188" fill="none" rx="3" ry="3" style="stroke:#038048;stroke-width:1;"/><text fill="#000000" font-family="sans-serif" font-size="14" lengthAdjust="spacing" textLength="94.2616" x="457.07" y="398.1199">SESSION_FILE:</text><ellipse cx="448.07" cy="413.2559" fill="none" rx="3" ry="3" style="stroke:#038048;stroke-width:1;"/><text fill="#000000" font-family="sans-serif" font-size="14" lengthAdjust="spacing" textLength="162.9593" x="457.07" y="417.1879">PW_CHAR_MIN_LENGTH:</text><ellipse cx="448.07" cy="432.3238" fill="none" rx="3" ry="3" style="stroke:#038048;stroke-width:1;"/><text fill="#000000" font-family="sans-serif" font-size="14" lengthAdjust="spacing" textLength="120.4695" x="457.07" y="436.2558">DOCUMENTS_DIR:</text><ellipse cx="448.07" cy="451.3917" fill="none" rx="3" ry="3" style="stroke:#038048;stroke-width:1;"/><text fill="#000000" font-family="sans-serif" font-size="14" lengthAdjust="spacing" textLength="55.5658" x="457.07" y="455.3237">DB_URL:</text><rect fill="none" height="6" style="stroke:#C82930;stroke-width:1;" width="6" x="445.07" y="467.4596"/><text fill="#000000" font-family="sans-serif" font-size="14" lengthAdjust="spacing" textLength="69.2997" x="457.07" y="474.3916">key: String</text><ellipse cx="448.07" cy="489.5276" fill="none" rx="3" ry="3" style="stroke:#038048;stroke-width:1;"/><text fill="#000000" font-family="sans-serif" font-size="14" lengthAdjust="spacing" textLength="169.8613" x="457.07" y="493.4595">USR_CHAR_MAX_LENGTH:</text><line style="stroke:#181818;stroke-width:0.5;" x1="438.07" x2="631.9313" y1="501.5615" y2="501.5615"/><rect fill="#F24D5C" height="6" style="stroke:#C82930;stroke-width:1;" width="6" x="445.07" y="513.5955"/><text fill="#000000" font-family="sans-serif" font-size="14" lengthAdjust="spacing" textLength="89.5857" x="457.07" y="520.5274">Props(String):</text><ellipse cx="448.07" cy="535.6634" fill="#84BE84" rx="3" ry="3" style="stroke:#038048;stroke-width:1;"/><text fill="#000000" font-family="sans-serif" font-size="14" lengthAdjust="spacing" textLength="104.8736" x="457.07" y="539.5954">values(): Props[]</text><ellipse cx="448.07" cy="554.7313" fill="#84BE84" rx="3" ry="3" style="stroke:#038048;stroke-width:1;"/><text fill="#000000" font-family="sans-serif" font-size="14" lengthAdjust="spacing" textLength="76.7477" x="457.07" y="558.6633">get(): String</text><ellipse cx="448.07" cy="573.7992" fill="#84BE84" rx="3" ry="3" style="stroke:#038048;stroke-width:1;"/><text fill="#000000" font-family="sans-serif" font-size="14" lengthAdjust="spacing" textLength="144.1015" x="457.07" y="577.7312">valueOf(String): Props</text></g><!--class View--><g class="entity" data-entity="View" data-source-line="45" data-uid="ent0008" id="entity_View"><rect fill="#F1F1F1" height="271.1591" rx="2.5" ry="2.5" style="stroke:#181818;stroke-width:0.5;" width="162.9754" x="667.51" y="324.212"/><ellipse cx="707.1605" cy="346.918" fill="#EB937F" rx="11" ry="11" style="stroke:#181818;stroke-width:1;"/><path d="M703.5199,353.418 L703.5199,341.2774 L711.1761,341.2774 L711.1761,343.4024 L705.8949,343.4024 L705.8949,346.0586 L710.9105,346.0586 L710.9105,348.1836 L705.8949,348.1836 L705.8949,351.293 L711.1761,351.293 L711.1761,353.418 L703.5199,353.418 Z " fill="#000000"/><text fill="#000000" font-family="sans-serif" font-size="12" font-style="italic" lengthAdjust="spacing" textLength="80.1965" x="724.6384" y="342.0401">&#171;enumeration&#187;</text><text fill="#000000" font-family="sans-serif" font-size="14" lengthAdjust="spacing" textLength="30.9119" x="749.2807" y="360.522">View</text><line style="stroke:#181818;stroke-width:0.5;" x1="668.51" x2="829.4854" y1="369.624" y2="369.624"/><ellipse cx="678.51" cy="384.658" fill="none" rx="3" ry="3" style="stroke:#038048;stroke-width:1;"/><text fill="#000000" font-family="sans-serif" font-size="14" lengthAdjust="spacing" textLength="41.0898" x="687.51" y="388.5899">AUTH:</text><ellipse cx="678.51" cy="403.7259" fill="none" rx="3" ry="3" style="stroke:#038048;stroke-width:1;"/><text fill="#000000" font-family="sans-serif" font-size="14" lengthAdjust="spacing" textLength="102.4376" x="687.51" y="407.6579">LEADERBOARD:</text><ellipse cx="678.51" cy="422.7938" fill="none" rx="3" ry="3" style="stroke:#038048;stroke-width:1;"/><text fill="#000000" font-family="sans-serif" font-size="14" lengthAdjust="spacing" textLength="43.3718" x="687.51" y="426.7258">GAME:</text><ellipse cx="678.51" cy="441.8617" fill="none" rx="3" ry="3" style="stroke:#038048;stroke-width:1;"/><text fill="#000000" font-family="sans-serif" font-size="14" lengthAdjust="spacing" textLength="87.5556" x="687.51" y="445.7937">USER_PANEL:</text><ellipse cx="678.51" cy="460.9296" fill="none" rx="3" ry="3" style="stroke:#038048;stroke-width:1;"/><text fill="#000000" font-family="sans-serif" font-size="14" lengthAdjust="spacing" textLength="56.1398" x="687.51" y="464.8616">REPORT:</text><ellipse cx="678.51" cy="479.9976" fill="none" rx="3" ry="3" style="stroke:#038048;stroke-width:1;"/><text fill="#000000" font-family="sans-serif" font-size="14" lengthAdjust="spacing" textLength="45.1078" x="687.51" y="483.9295">MENU:</text><rect fill="none" height="6" style="stroke:#C82930;stroke-width:1;" width="6" x="675.51" y="496.0655"/><text fill="#000000" font-family="sans-serif" font-size="14" lengthAdjust="spacing" textLength="115.8915" x="687.51" y="502.9974">viewName: String</text><line style="stroke:#181818;stroke-width:0.5;" x1="668.51" x2="829.4854" y1="511.0994" y2="511.0994"/><rect fill="#F24D5C" height="6" style="stroke:#C82930;stroke-width:1;" width="6" x="675.51" y="523.1334"/><text fill="#000000" font-family="sans-serif" font-size="14" lengthAdjust="spacing" textLength="82.4597" x="687.51" y="530.0654">View(String):</text><ellipse cx="678.51" cy="545.2013" fill="#84BE84" rx="3" ry="3" style="stroke:#038048;stroke-width:1;"/><text fill="#000000" font-family="sans-serif" font-size="14" lengthAdjust="spacing" textLength="97.7476" x="687.51" y="549.1333">values(): View[]</text><ellipse cx="678.51" cy="564.2692" fill="#84BE84" rx="3" ry="3" style="stroke:#038048;stroke-width:1;"/><text fill="#000000" font-family="sans-serif" font-size="14" lengthAdjust="spacing" textLength="76.7477" x="687.51" y="568.2012">get(): String</text><ellipse cx="678.51" cy="583.3371" fill="#84BE84" rx="3" ry="3" style="stroke:#038048;stroke-width:1;"/><text fill="#000000" font-family="sans-serif" font-size="14" lengthAdjust="spacing" textLength="136.9754" x="687.51" y="587.2691">valueOf(String): View</text></g><!--class Popup--><g class="entity" data-entity="Popup" data-source-line="58" data-uid="ent0009" id="entity_Popup"><rect fill="#F1F1F1" height="200.5433" rx="2.5" ry="2.5" style="stroke:#181818;stroke-width:0.5;" width="170.6755" x="126.66" y="655.372"/><ellipse cx="186.3418" cy="671.372" fill="#ADD1B2" rx="11" ry="11" style="stroke:#181818;stroke-width:1;"/><path d="M185.8106,678.2939 Q184.0606,678.2939 182.9199,677.5595 Q181.7949,676.8095 181.2324,675.4657 Q180.6856,674.1064 180.6856,672.3095 Q180.6856,670.2782 181.3418,668.8251 Q181.9981,667.372 183.2793,666.5907 Q184.5606,665.8095 186.4356,665.8095 Q187.3262,665.8095 187.9981,665.997 Q188.6699,666.1689 189.3574,666.5126 L188.5449,668.5282 Q187.9199,668.2157 187.3731,668.0907 Q186.8418,667.9657 186.3574,667.9657 Q185.1856,667.9657 184.4824,668.497 Q183.7793,669.0282 183.4824,669.9814 Q183.1856,670.9345 183.1856,672.2001 Q183.1856,674.2157 183.9043,675.1845 Q184.6231,676.1376 186.2168,676.1376 Q186.8106,676.1376 187.4356,675.9814 Q188.0606,675.8251 188.8887,675.4501 L188.8887,677.6689 Q188.1543,677.9814 187.3574,678.1376 Q186.5762,678.2939 185.8106,678.2939 Z " fill="#000000"/><text fill="#000000" font-family="sans-serif" font-size="14" lengthAdjust="spacing" textLength="42.8118" x="206.8418" y="676.804">Popup</text><line style="stroke:#181818;stroke-width:0.5;" x1="127.66" x2="296.3355" y1="687.372" y2="687.372"/><rect fill="none" height="6" style="stroke:#C82930;stroke-width:1;" width="6" x="134.66" y="699.4059"/><text fill="#000000" font-family="sans-serif" font-size="14" lengthAdjust="spacing" textLength="80.6117" x="146.66" y="706.3379">stage: Stage</text><rect fill="none" height="6" style="stroke:#C82930;stroke-width:1;" width="6" x="134.66" y="718.4739"/><text fill="#000000" font-family="sans-serif" font-size="14" lengthAdjust="spacing" textLength="68.5437" x="146.66" y="725.4058">root: VBox</text><line style="stroke:#181818;stroke-width:0.5;" x1="127.66" x2="296.3355" y1="733.5078" y2="733.5078"/><ellipse cx="137.66" cy="748.5418" fill="#84BE84" rx="3" ry="3" style="stroke:#038048;stroke-width:1;"/><text fill="#000000" font-family="sans-serif" font-size="14" lengthAdjust="spacing" textLength="94.3596" x="146.66" y="752.4738">Popup(String):</text><ellipse cx="137.66" cy="767.6097" fill="#84BE84" rx="3" ry="3" style="stroke:#038048;stroke-width:1;"/><text fill="#000000" font-family="sans-serif" font-size="14" lengthAdjust="spacing" textLength="143.7794" x="146.66" y="771.5417">Popup(String, int, int):</text><ellipse cx="137.66" cy="786.6776" fill="#84BE84" rx="3" ry="3" style="stroke:#038048;stroke-width:1;"/><text fill="#000000" font-family="sans-serif" font-size="14" lengthAdjust="spacing" textLength="135.4635" x="146.66" y="790.6096">addAll(Node): Popup</text><ellipse cx="137.66" cy="805.7455" fill="#84BE84" rx="3" ry="3" style="stroke:#038048;stroke-width:1;"/><text fill="#000000" font-family="sans-serif" font-size="14" lengthAdjust="spacing" textLength="78.4277" x="146.66" y="809.6775">show(): void</text><ellipse cx="137.66" cy="824.8134" fill="#84BE84" rx="3" ry="3" style="stroke:#038048;stroke-width:1;"/><text fill="#000000" font-family="sans-serif" font-size="14" lengthAdjust="spacing" textLength="111.5516" x="146.66" y="828.7454">getStage(): Stage</text><ellipse cx="137.66" cy="843.8814" fill="#84BE84" rx="3" ry="3" style="stroke:#038048;stroke-width:1;"/><text fill="#000000" font-family="sans-serif" font-size="14" lengthAdjust="spacing" textLength="144.6755" x="146.66" y="847.8133">addAll(Node[]): Popup</text></g><!--SRC=[bLDTRvim57tlh_0ZqP8_WA9C16WRYG0o8TjKLSW1bx0wEB9DCZHbltt6uPjsqdZ0kkTUdtjyVNn6yJjACIX4HZ9H_du0yei9uXoOD7_BKd27ljIXDjDLl00-zFn01pwZPyn4XdbTbsAXLI2VwI0GBCjJbRZrc27cj60nvZNveaCw_hrd6klGCU0F7JWP5yixsKgb_m1e1v5lx9u7JLJtG9G4QtTqDarRD2vEE1VoF48kdnVkQOmE1K6ibAAc4Xeo7ucZrf3AmYhk2WpESQ_79ZyNKY33w3GWuLR6556Ve3-oeEG2dnoQffYrLz87ky4H5Kl5QgrB9QZjZenUqO5WsUH2iwINkWkSWmzB-Zhs6Ruw52Kz5HtKQOZbS1ab1BD750lAIXsOY923TDlIh8YMNrTpu1r-ubYiwZrSI2DMro2NLXfAj8f_g9XNboohDFMVvCnnS-tptjDpuhmuALTpi5og23CaCfg3rQhrgygtrzfSXnq46y-D7ZUEtM3-jyXyDc2qtRYHOxjFqh1rnlBCS6kxko2oDh05rr48dMQAxxWSsJ8COCrdV1_nNH0frFkvYtjvxRt7iRjLhVVM-L9j6G-X6lm_Pb2bnoCmmawGOnkM3TUU0Qq6UZAsxMJ2m8Ro1Rksqo3GzZsuQo8vcx0Pn4MsSj49VtGCTUHAo_-TkDenSRTFpyMvDRQAnYViWtEGvKBzMkDFJBm0Z58X-wtfhve29Ob1YERIfFAk8cpCUwHNRUZdjF7wRFWqUYGlhmEQsyFjBm00]--></g></svg>