<svg xmlns="http://www.w3.org/2000/svg" xmlns:xlink="http://www.w3.org/1999/xlink" contentStyleType="text/css" data-diagram-type="CLASS" height="733.2px" preserveAspectRatio="none" style="width:991px;height:733px;background:#FFFFFF;" version="1.1" viewBox="0 0 991 733" width="991.8px" zoomAndPan="magnify"><defs/><g><!--cluster models--><g class="cluster" data-entity="models" data-source-line="1" data-uid="ent0002" id="cluster_models"><path d="M5.1,3.9612 L36.1835,3.9612 A2.25,2.25 0 0 1 37.6835,5.4612 L41.8835,19.0019 L986.1,19.0019 A1.5,1.5 0 0 1 987.6,20.5019 L987.6,727.5852 A1.5,1.5 0 0 1 986.1,729.0852 L5.1,729.0852 A1.5,1.5 0 0 1 3.6,727.5852 L3.6,5.4612 A1.5,1.5 0 0 1 5.1,3.9612" fill="none" style="stroke:#000000;stroke-width:0.9;"/><line style="stroke:#000000;stroke-width:0.9;" x1="3.6" x2="41.8835" y1="19.0019" y2="19.0019"/><text fill="#000000" font-family="sans-serif" font-size="8.4" font-weight="bold" lengthAdjust="spacing" textLength="30.4835" x="6" y="14.1408">models</text></g><!--cluster interfaces--><g class="cluster" data-entity="interfaces" data-source-line="112" data-uid="ent0011" id="cluster_interfaces"><path d="M19.5,85.7472 L62.335,85.7472 A2.25,2.25 0 0 1 63.835,87.2472 L68.035,100.7879 L137.7,100.7879 A1.5,1.5 0 0 1 139.2,102.2879 L139.2,176.3712 A1.5,1.5 0 0 1 137.7,177.8712 L19.5,177.8712 A1.5,1.5 0 0 1 18,176.3712 L18,87.2472 A1.5,1.5 0 0 1 19.5,85.7472" fill="none" style="stroke:#000000;stroke-width:0.9;"/><line style="stroke:#000000;stroke-width:0.9;" x1="18" x2="68.035" y1="100.7879" y2="100.7879"/><text fill="#000000" font-family="sans-serif" font-size="8.4" font-weight="bold" lengthAdjust="spacing" textLength="42.235" x="20.4" y="95.9268">interfaces</text></g><!--class GameSessionState--><g class="entity" data-entity="GameSessionState" data-source-line="2" data-uid="ent0003" id="entity_GameSessionState"><rect fill="#F1F1F1" height="211.852" rx="1.5" ry="1.5" style="stroke:#181818;stroke-width:0.3;" width="425.2414" x="150.978" y="32.4852"/><ellipse cx="324.3576" cy="42.0852" fill="#ADD1B2" rx="6.6" ry="6.6" style="stroke:#181818;stroke-width:0.6;"/><path d="M324.0389,46.2383 Q322.9889,46.2383 322.3045,45.7977 Q321.6295,45.3477 321.292,44.5414 Q320.9639,43.7258 320.9639,42.6477 Q320.9639,41.4289 321.3576,40.5571 Q321.7514,39.6852 322.5201,39.2164 Q323.2889,38.7477 324.4139,38.7477 Q324.9482,38.7477 325.3514,38.8602 Q325.7545,38.9633 326.167,39.1696 L325.6795,40.3789 Q325.3045,40.1914 324.9764,40.1164 Q324.6576,40.0414 324.367,40.0414 Q323.6639,40.0414 323.242,40.3602 Q322.8201,40.6789 322.642,41.2508 Q322.4639,41.8227 322.4639,42.5821 Q322.4639,43.7914 322.8951,44.3727 Q323.3264,44.9446 324.2826,44.9446 Q324.6389,44.9446 325.0139,44.8508 Q325.3889,44.7571 325.8857,44.5321 L325.8857,45.8633 Q325.4451,46.0508 324.967,46.1446 Q324.4982,46.2383 324.0389,46.2383 Z " fill="#000000"/><text fill="#000000" font-family="sans-serif" font-size="8.4" lengthAdjust="spacing" textLength="73.3821" x="336.6576" y="45.3444">GameSessionState</text><line style="stroke:#181818;stroke-width:0.3;" x1="151.578" x2="575.6194" y1="51.6852" y2="51.6852"/><rect fill="none" height="3.6" style="stroke:#C82930;stroke-width:0.6;" width="3.6" x="155.778" y="58.9056"/><text fill="#000000" font-family="sans-serif" font-size="8.4" lengthAdjust="spacing" textLength="101.1524" x="162.978" y="63.0648">getScorePerQuestion : int</text><rect fill="none" height="3.6" style="stroke:#C82930;stroke-width:0.6;" width="3.6" x="155.778" y="70.3463"/><text fill="#000000" font-family="sans-serif" font-size="8.4" lengthAdjust="spacing" textLength="104.4536" x="162.978" y="74.5055">questions : List&lt;Question&gt;</text><rect fill="none" height="3.6" style="stroke:#C82930;stroke-width:0.6;" width="3.6" x="155.778" y="81.7871"/><text fill="#000000" font-family="sans-serif" font-size="8.4" lengthAdjust="spacing" textLength="137.9359" x="162.978" y="85.9463">questionStartTime : LocalDateTime</text><rect fill="none" height="3.6" style="stroke:#C82930;stroke-width:0.6;" width="3.6" x="155.778" y="93.2278"/><text fill="#000000" font-family="sans-serif" font-size="8.4" lengthAdjust="spacing" textLength="104.504" x="162.978" y="97.387">currentQuestionIndex : int</text><rect fill="none" height="3.6" style="stroke:#C82930;stroke-width:0.6;" width="3.6" x="155.778" y="104.6686"/><text fill="#000000" font-family="sans-serif" font-size="8.4" lengthAdjust="spacing" textLength="174.669" x="162.978" y="108.8278">domandaRisposte : Map&lt;Question, Integer&gt;</text><rect fill="none" height="3.6" style="stroke:#C82930;stroke-width:0.6;" width="3.6" x="155.778" y="116.1093"/><text fill="#000000" font-family="sans-serif" font-size="8.4" lengthAdjust="spacing" textLength="90.3333" x="162.978" y="120.2685">serialVersionUID : long</text><rect fill="none" height="3.6" style="stroke:#C82930;stroke-width:0.6;" width="3.6" x="155.778" y="127.5501"/><text fill="#000000" font-family="sans-serif" font-size="8.4" lengthAdjust="spacing" textLength="42.4114" x="162.978" y="131.7093">user : User</text><rect fill="none" height="3.6" style="stroke:#C82930;stroke-width:0.6;" width="3.6" x="155.778" y="138.9908"/><text fill="#000000" font-family="sans-serif" font-size="8.4" lengthAdjust="spacing" textLength="112.2152" x="162.978" y="143.15">gameParams : GameParams</text><line style="stroke:#181818;stroke-width:0.3;" x1="151.578" x2="575.6194" y1="148.0112" y2="148.0112"/><ellipse cx="157.578" cy="157.0316" fill="#84BE84" rx="1.8" ry="1.8" style="stroke:#038048;stroke-width:0.6;"/><text fill="#000000" font-family="sans-serif" font-size="8.4" lengthAdjust="spacing" textLength="409.6414" x="162.978" y="159.3908">GameSessionState(User, List&lt;Question&gt;, Map&lt;Question,Integer&gt;, int, LocalDateTime, int, GameParams)</text><ellipse cx="157.578" cy="168.4723" fill="#84BE84" rx="1.8" ry="1.8" style="stroke:#038048;stroke-width:0.6;"/><text fill="#000000" font-family="sans-serif" font-size="8.4" lengthAdjust="spacing" textLength="107.36" x="162.978" y="170.8315">currentQuestionIndex(): int</text><ellipse cx="157.578" cy="179.9131" fill="#84BE84" rx="1.8" ry="1.8" style="stroke:#038048;stroke-width:0.6;"/><text fill="#000000" font-family="sans-serif" font-size="8.4" lengthAdjust="spacing" textLength="109.4936" x="162.978" y="182.2723">questions() : List&lt;Question&gt;</text><ellipse cx="157.578" cy="191.3538" fill="#84BE84" rx="1.8" ry="1.8" style="stroke:#038048;stroke-width:0.6;"/><text fill="#000000" font-family="sans-serif" font-size="8.4" lengthAdjust="spacing" textLength="92.6684" x="162.978" y="193.713">scorePerQuestion() : int</text><ellipse cx="157.578" cy="202.7946" fill="#84BE84" rx="1.8" ry="1.8" style="stroke:#038048;stroke-width:0.6;"/><text fill="#000000" font-family="sans-serif" font-size="8.4" lengthAdjust="spacing" textLength="115.0712" x="162.978" y="205.1538">gameParams(): GameParams</text><ellipse cx="157.578" cy="214.2353" fill="#84BE84" rx="1.8" ry="1.8" style="stroke:#038048;stroke-width:0.6;"/><text fill="#000000" font-family="sans-serif" font-size="8.4" lengthAdjust="spacing" textLength="45.2674" x="162.978" y="216.5945">user(): User</text><ellipse cx="157.578" cy="225.6761" fill="#84BE84" rx="1.8" ry="1.8" style="stroke:#038048;stroke-width:0.6;"/><text fill="#000000" font-family="sans-serif" font-size="8.4" lengthAdjust="spacing" textLength="140.7919" x="162.978" y="228.0353">questionStartTime(): LocalDateTime</text><ellipse cx="157.578" cy="237.1168" fill="#84BE84" rx="1.8" ry="1.8" style="stroke:#038048;stroke-width:0.6;"/><text fill="#000000" font-family="sans-serif" font-size="8.4" lengthAdjust="spacing" textLength="177.5249" x="162.978" y="239.476">domandaRisposte(): Map&lt;Question, Integer&gt;</text></g><!--class Difficulty--><g class="entity" data-entity="Difficulty" data-source-line="20" data-uid="ent0004" id="entity_Difficulty"><rect fill="#F1F1F1" height="139.814" rx="1.5" ry="1.5" style="stroke:#181818;stroke-width:0.3;" width="157.0134" x="597.096" y="68.5032"/><ellipse cx="650.1938" cy="82.1268" fill="#EB937F" rx="6.6" ry="6.6" style="stroke:#181818;stroke-width:0.6;"/><path d="M648.0094,86.0268 L648.0094,78.7424 L652.6031,78.7424 L652.6031,80.0174 L649.4344,80.0174 L649.4344,81.6112 L652.4438,81.6112 L652.4438,82.8862 L649.4344,82.8862 L649.4344,84.7518 L652.6031,84.7518 L652.6031,86.0268 L648.0094,86.0268 Z " fill="#000000"/><text fill="#000000" font-family="sans-serif" font-size="7.2" font-style="italic" lengthAdjust="spacing" textLength="48.1179" x="661.2938" y="79.2">&#171;enumeration&#187;</text><text fill="#000000" font-family="sans-serif" font-size="8.4" lengthAdjust="spacing" textLength="34.9523" x="667.8766" y="90.2892">Difficulty</text><line style="stroke:#181818;stroke-width:0.3;" x1="597.696" x2="753.5094" y1="95.7504" y2="95.7504"/><ellipse cx="603.696" cy="104.7708" fill="none" rx="1.8" ry="1.8" style="stroke:#038048;stroke-width:0.6;"/><text fill="#000000" font-family="sans-serif" font-size="8.4" lengthAdjust="spacing" textLength="25.1999" x="609.096" y="107.13">HARD:</text><ellipse cx="603.696" cy="116.2115" fill="none" rx="1.8" ry="1.8" style="stroke:#038048;stroke-width:0.6;"/><text fill="#000000" font-family="sans-serif" font-size="8.4" lengthAdjust="spacing" textLength="37.2791" x="609.096" y="118.5707">MEDIUM:</text><ellipse cx="603.696" cy="127.6523" fill="none" rx="1.8" ry="1.8" style="stroke:#038048;stroke-width:0.6;"/><text fill="#000000" font-family="sans-serif" font-size="8.4" lengthAdjust="spacing" textLength="21.6551" x="609.096" y="130.0115">EASY:</text><rect fill="none" height="3.6" style="stroke:#C82930;stroke-width:0.6;" width="3.6" x="601.896" y="137.293"/><text fill="#000000" font-family="sans-serif" font-size="8.4" lengthAdjust="spacing" textLength="47.023" x="609.096" y="141.4522">label: String</text><line style="stroke:#181818;stroke-width:0.3;" x1="597.696" x2="753.5094" y1="146.3134" y2="146.3134"/><rect fill="#F24D5C" height="3.6" style="stroke:#C82930;stroke-width:0.6;" width="3.6" x="601.896" y="153.5338"/><text fill="#000000" font-family="sans-serif" font-size="8.4" lengthAdjust="spacing" textLength="65.8809" x="609.096" y="157.693">Difficulty(String):</text><ellipse cx="603.696" cy="166.7745" fill="#84BE84" rx="1.8" ry="1.8" style="stroke:#038048;stroke-width:0.6;"/><text fill="#000000" font-family="sans-serif" font-size="8.4" lengthAdjust="spacing" textLength="75.0537" x="609.096" y="169.1337">values(): Difficulty[]</text><ellipse cx="603.696" cy="178.2153" fill="#84BE84" rx="1.8" ry="1.8" style="stroke:#038048;stroke-width:0.6;"/><text fill="#000000" font-family="sans-serif" font-size="8.4" lengthAdjust="spacing" textLength="64.8646" x="609.096" y="180.5745">toString(): String</text><ellipse cx="603.696" cy="189.656" fill="#84BE84" rx="1.8" ry="1.8" style="stroke:#038048;stroke-width:0.6;"/><text fill="#000000" font-family="sans-serif" font-size="8.4" lengthAdjust="spacing" textLength="141.4134" x="609.096" y="192.0152">getMaxScoreDifficulty(Difficulty): int</text><ellipse cx="603.696" cy="201.0968" fill="#84BE84" rx="1.8" ry="1.8" style="stroke:#038048;stroke-width:0.6;"/><text fill="#000000" font-family="sans-serif" font-size="8.4" lengthAdjust="spacing" textLength="98.5904" x="609.096" y="203.456">valueOf(String): Difficulty</text></g><!--class AppContext--><g class="entity" data-entity="AppContext" data-source-line="31" data-uid="ent0005" id="entity_AppContext"><rect fill="#F1F1F1" height="223.2928" rx="1.5" ry="1.5" style="stroke:#181818;stroke-width:0.3;" width="202.8101" x="775.194" y="26.7612"/><ellipse cx="850.7853" cy="36.3612" fill="#ADD1B2" rx="6.6" ry="6.6" style="stroke:#181818;stroke-width:0.6;"/><path d="M850.4666,40.5143 Q849.4166,40.5143 848.7322,40.0737 Q848.0572,39.6237 847.7197,38.8174 Q847.3916,38.0018 847.3916,36.9237 Q847.3916,35.7049 847.7853,34.8331 Q848.1791,33.9612 848.9478,33.4924 Q849.7166,33.0237 850.8416,33.0237 Q851.376,33.0237 851.7791,33.1362 Q852.1822,33.2393 852.5947,33.4456 L852.1072,34.6549 Q851.7322,34.4674 851.4041,34.3924 Q851.0853,34.3174 850.7947,34.3174 Q850.0916,34.3174 849.6697,34.6362 Q849.2478,34.9549 849.0697,35.5268 Q848.8916,36.0987 848.8916,36.8581 Q848.8916,38.0674 849.3228,38.6487 Q849.7541,39.2206 850.7103,39.2206 Q851.0666,39.2206 851.4416,39.1268 Q851.8166,39.0331 852.3135,38.8081 L852.3135,40.1393 Q851.8728,40.3268 851.3947,40.4206 Q850.926,40.5143 850.4666,40.5143 Z " fill="#000000"/><text fill="#000000" font-family="sans-serif" font-size="8.4" lengthAdjust="spacing" textLength="46.5274" x="863.0853" y="39.6204">AppContext</text><line style="stroke:#181818;stroke-width:0.3;" x1="775.794" x2="977.4041" y1="45.9612" y2="45.9612"/><rect fill="none" height="3.6" style="stroke:#C82930;stroke-width:0.6;" width="3.6" x="779.994" y="53.1816"/><text fill="#000000" font-family="sans-serif" font-size="8.4" lengthAdjust="spacing" textLength="97.3892" x="787.194" y="57.3408">authService: AuthService</text><ellipse cx="781.794" cy="66.4223" fill="none" rx="1.8" ry="1.8" style="stroke:#038048;stroke-width:0.6;"/><text fill="#000000" font-family="sans-serif" font-size="8.4" lengthAdjust="spacing" textLength="140.0526" x="787.194" y="68.7815">userPanelService: UserPanelService</text><rect fill="none" height="3.6" style="stroke:#C82930;stroke-width:0.6;" width="3.6" x="779.994" y="76.0631"/><text fill="#000000" font-family="sans-serif" font-size="8.4" lengthAdjust="spacing" textLength="153.0138" x="787.194" y="80.2223">interruptedSession: GameSessionState</text><rect fill="none" height="3.6" style="stroke:#C82930;stroke-width:0.6;" width="3.6" x="779.994" y="87.5038"/><text fill="#000000" font-family="sans-serif" font-size="8.4" lengthAdjust="spacing" textLength="70.2993" x="787.194" y="91.663">currentUser: User</text><rect fill="none" height="3.6" style="stroke:#C82930;stroke-width:0.6;" width="3.6" x="779.994" y="98.9446"/><text fill="#000000" font-family="sans-serif" font-size="8.4" lengthAdjust="spacing" textLength="162.069" x="787.194" y="103.1038">leaderboardService : LeaderboardService</text><rect fill="none" height="3.6" style="stroke:#C82930;stroke-width:0.6;" width="3.6" x="779.994" y="110.3853"/><text fill="#000000" font-family="sans-serif" font-size="8.4" lengthAdjust="spacing" textLength="108.5528" x="787.194" y="114.5445">gameService : GameService</text><rect fill="none" height="3.6" style="stroke:#C82930;stroke-width:0.6;" width="3.6" x="779.994" y="121.8261"/><text fill="#000000" font-family="sans-serif" font-size="8.4" lengthAdjust="spacing" textLength="65.1586" x="787.194" y="125.9853">repo: Repository</text><ellipse cx="781.794" cy="135.0668" fill="none" rx="1.8" ry="1.8" style="stroke:#038048;stroke-width:0.6;"/><text fill="#000000" font-family="sans-serif" font-size="8.4" lengthAdjust="spacing" textLength="79.8501" x="787.194" y="137.426">getRepo: Repository</text><line style="stroke:#181818;stroke-width:0.3;" x1="775.794" x2="977.4041" y1="142.2872" y2="142.2872"/><ellipse cx="781.794" cy="151.3076" fill="#84BE84" rx="1.8" ry="1.8" style="stroke:#038048;stroke-width:0.6;"/><text fill="#000000" font-family="sans-serif" font-size="8.4" lengthAdjust="spacing" textLength="96.0872" x="787.194" y="153.6668">AppContext(Repository):</text><ellipse cx="781.794" cy="162.7483" fill="#84BE84" rx="1.8" ry="1.8" style="stroke:#038048;stroke-width:0.6;"/><text fill="#000000" font-family="sans-serif" font-size="8.4" lengthAdjust="spacing" textLength="125.2939" x="787.194" y="165.1075">getGameService(): GameService</text><ellipse cx="781.794" cy="174.1891" fill="#84BE84" rx="1.8" ry="1.8" style="stroke:#038048;stroke-width:0.6;"/><text fill="#000000" font-family="sans-serif" font-size="8.4" lengthAdjust="spacing" textLength="158.9778" x="787.194" y="176.5483">getUserPanelService(): UserPanelService</text><ellipse cx="781.794" cy="185.6298" fill="#84BE84" rx="1.8" ry="1.8" style="stroke:#038048;stroke-width:0.6;"/><text fill="#000000" font-family="sans-serif" font-size="8.4" lengthAdjust="spacing" textLength="105.092" x="787.194" y="187.989">setCurrentUser(User): void</text><ellipse cx="781.794" cy="197.0706" fill="#84BE84" rx="1.8" ry="1.8" style="stroke:#038048;stroke-width:0.6;"/><text fill="#000000" font-family="sans-serif" font-size="8.4" lengthAdjust="spacing" textLength="187.2101" x="787.194" y="199.4298">setInterruptedSession(GameSessionState): void</text><ellipse cx="781.794" cy="208.5113" fill="#84BE84" rx="1.8" ry="1.8" style="stroke:#038048;stroke-width:0.6;"/><text fill="#000000" font-family="sans-serif" font-size="8.4" lengthAdjust="spacing" textLength="171.6702" x="787.194" y="210.8705">getInterruptedSession(): GameSessionState</text><ellipse cx="781.794" cy="219.9521" fill="#84BE84" rx="1.8" ry="1.8" style="stroke:#038048;stroke-width:0.6;"/><text fill="#000000" font-family="sans-serif" font-size="8.4" lengthAdjust="spacing" textLength="89.5521" x="787.194" y="222.3113">getCurrentUser(): User</text><ellipse cx="781.794" cy="231.3928" fill="#84BE84" rx="1.8" ry="1.8" style="stroke:#038048;stroke-width:0.6;"/><text fill="#000000" font-family="sans-serif" font-size="8.4" lengthAdjust="spacing" textLength="180.0953" x="787.194" y="233.752">getLeaderboardService(): LeaderboardService</text><ellipse cx="781.794" cy="242.8336" fill="#84BE84" rx="1.8" ry="1.8" style="stroke:#038048;stroke-width:0.6;"/><text fill="#000000" font-family="sans-serif" font-size="8.4" lengthAdjust="spacing" textLength="116.0203" x="787.194" y="245.1928">getAuthService(): AuthService</text></g><!--class Document--><g class="entity" data-entity="Document" data-source-line="50" data-uid="ent0006" id="entity_Document"><rect fill="#F1F1F1" height="139.814" rx="1.5" ry="1.5" style="stroke:#181818;stroke-width:0.3;" width="149.4703" x="240.864" y="331.8192"/><ellipse cx="292.423" cy="345.4428" fill="#ADD1B2" rx="6.6" ry="6.6" style="stroke:#181818;stroke-width:0.6;"/><path d="M290.2387,349.3428 L290.2387,342.0584 L294.8324,342.0584 L294.8324,343.3334 L291.6637,343.3334 L291.6637,344.9272 L294.673,344.9272 L294.673,346.2022 L291.6637,346.2022 L291.6637,348.0678 L294.8324,348.0678 L294.8324,349.3428 L290.2387,349.3428 Z " fill="#000000"/><text fill="#000000" font-family="sans-serif" font-size="7.2" font-style="italic" lengthAdjust="spacing" textLength="27.677" x="311.5106" y="342.516">&#171;record&#187;</text><text fill="#000000" font-family="sans-serif" font-size="8.4" lengthAdjust="spacing" textLength="41.2522" x="304.723" y="353.6052">Document</text><line style="stroke:#181818;stroke-width:0.3;" x1="241.464" x2="389.7343" y1="359.0664" y2="359.0664"/><rect fill="none" height="3.6" style="stroke:#C82930;stroke-width:0.6;" width="3.6" x="245.664" y="366.2868"/><text fill="#000000" font-family="sans-serif" font-size="8.4" lengthAdjust="spacing" textLength="77.7417" x="252.864" y="370.446">wordCount: Integer</text><rect fill="none" height="3.6" style="stroke:#C82930;stroke-width:0.6;" width="3.6" x="245.664" y="377.7275"/><text fill="#000000" font-family="sans-serif" font-size="8.4" lengthAdjust="spacing" textLength="62.5294" x="252.864" y="381.8867">filename: String</text><rect fill="none" height="3.6" style="stroke:#C82930;stroke-width:0.6;" width="3.6" x="245.664" y="389.1683"/><text fill="#000000" font-family="sans-serif" font-size="8.4" lengthAdjust="spacing" textLength="43.2094" x="252.864" y="393.3275">title: String</text><line style="stroke:#181818;stroke-width:0.3;" x1="241.464" x2="389.7343" y1="398.1887" y2="398.1887"/><ellipse cx="247.464" cy="407.209" fill="#84BE84" rx="1.8" ry="1.8" style="stroke:#038048;stroke-width:0.6;"/><text fill="#000000" font-family="sans-serif" font-size="8.4" lengthAdjust="spacing" textLength="133.8703" x="252.864" y="409.5682">Document(String, String, Integer):</text><ellipse cx="247.464" cy="418.6498" fill="#84BE84" rx="1.8" ry="1.8" style="stroke:#038048;stroke-width:0.6;"/><text fill="#000000" font-family="sans-serif" font-size="8.4" lengthAdjust="spacing" textLength="59.2786" x="252.864" y="421.009">hashCode(): int</text><ellipse cx="247.464" cy="430.0905" fill="#84BE84" rx="1.8" ry="1.8" style="stroke:#038048;stroke-width:0.6;"/><text fill="#000000" font-family="sans-serif" font-size="8.4" lengthAdjust="spacing" textLength="48.2494" x="252.864" y="432.4497">title(): String</text><ellipse cx="247.464" cy="441.5313" fill="#84BE84" rx="1.8" ry="1.8" style="stroke:#038048;stroke-width:0.6;"/><text fill="#000000" font-family="sans-serif" font-size="8.4" lengthAdjust="spacing" textLength="67.5693" x="252.864" y="443.8905">filename(): String</text><ellipse cx="247.464" cy="452.972" fill="#84BE84" rx="1.8" ry="1.8" style="stroke:#038048;stroke-width:0.6;"/><text fill="#000000" font-family="sans-serif" font-size="8.4" lengthAdjust="spacing" textLength="93.3068" x="252.864" y="455.3312">equals(Object): boolean</text><ellipse cx="247.464" cy="464.4128" fill="#84BE84" rx="1.8" ry="1.8" style="stroke:#038048;stroke-width:0.6;"/><text fill="#000000" font-family="sans-serif" font-size="8.4" lengthAdjust="spacing" textLength="82.7817" x="252.864" y="466.772">wordCount(): Integer</text></g><!--class GameReport--><g class="entity" data-entity="GameReport" data-source-line="62" data-uid="ent0007" id="entity_GameReport"><rect fill="#F1F1F1" height="231.34" rx="1.5" ry="1.5" style="stroke:#181818;stroke-width:0.3;" width="371.0532" x="411.474" y="286.0572"/><ellipse cx="569.3851" cy="299.6808" fill="#ADD1B2" rx="6.6" ry="6.6" style="stroke:#181818;stroke-width:0.6;"/><path d="M567.2007,303.5808 L567.2007,296.2964 L571.7945,296.2964 L571.7945,297.5714 L568.6257,297.5714 L568.6257,299.1652 L571.6351,299.1652 L571.6351,300.4402 L568.6257,300.4402 L568.6257,302.3058 L571.7945,302.3058 L571.7945,303.5808 L567.2007,303.5808 Z " fill="#000000"/><text fill="#000000" font-family="sans-serif" font-size="7.2" font-style="italic" lengthAdjust="spacing" textLength="27.677" x="592.9121" y="296.754">&#171;record&#187;</text><text fill="#000000" font-family="sans-serif" font-size="8.4" lengthAdjust="spacing" textLength="50.131" x="581.6851" y="307.8432">GameReport</text><line style="stroke:#181818;stroke-width:0.3;" x1="412.074" x2="781.9272" y1="313.3044" y2="313.3044"/><rect fill="none" height="3.6" style="stroke:#C82930;stroke-width:0.6;" width="3.6" x="416.274" y="320.5248"/><text fill="#000000" font-family="sans-serif" font-size="8.4" lengthAdjust="spacing" textLength="77.9601" x="423.474" y="324.684">usedTime: Duration</text><rect fill="none" height="3.6" style="stroke:#C82930;stroke-width:0.6;" width="3.6" x="416.274" y="331.9655"/><text fill="#000000" font-family="sans-serif" font-size="8.4" lengthAdjust="spacing" textLength="105.4532" x="423.474" y="336.1247">timestamp: LocalDateTime</text><rect fill="none" height="3.6" style="stroke:#C82930;stroke-width:0.6;" width="3.6" x="416.274" y="343.4063"/><text fill="#000000" font-family="sans-serif" font-size="8.4" lengthAdjust="spacing" textLength="73.2225" x="423.474" y="347.5655">questionCount: int</text><rect fill="none" height="3.6" style="stroke:#C82930;stroke-width:0.6;" width="3.6" x="416.274" y="354.847"/><text fill="#000000" font-family="sans-serif" font-size="8.4" lengthAdjust="spacing" textLength="75.8517" x="423.474" y="359.0062">maxTime: Duration</text><rect fill="none" height="3.6" style="stroke:#C82930;stroke-width:0.6;" width="3.6" x="416.274" y="366.2878"/><text fill="#000000" font-family="sans-serif" font-size="8.4" lengthAdjust="spacing" textLength="36.1703" x="423.474" y="370.447">score: int</text><rect fill="none" height="3.6" style="stroke:#C82930;stroke-width:0.6;" width="3.6" x="416.274" y="377.7285"/><text fill="#000000" font-family="sans-serif" font-size="8.4" lengthAdjust="spacing" textLength="40.2274" x="423.474" y="381.8877">user: User</text><rect fill="none" height="3.6" style="stroke:#C82930;stroke-width:0.6;" width="3.6" x="416.274" y="389.1693"/><text fill="#000000" font-family="sans-serif" font-size="8.4" lengthAdjust="spacing" textLength="113.2316" x="423.474" y="393.3285">documents: List&lt;Document&gt;</text><rect fill="none" height="3.6" style="stroke:#C82930;stroke-width:0.6;" width="3.6" x="416.274" y="400.61"/><text fill="#000000" font-family="sans-serif" font-size="8.4" lengthAdjust="spacing" textLength="73.3737" x="423.474" y="404.7692">difficulty: Difficulty</text><line style="stroke:#181818;stroke-width:0.3;" x1="412.074" x2="781.9272" y1="409.6304" y2="409.6304"/><ellipse cx="418.074" cy="418.6508" fill="#84BE84" rx="1.8" ry="1.8" style="stroke:#038048;stroke-width:0.6;"/><text fill="#000000" font-family="sans-serif" font-size="8.4" lengthAdjust="spacing" textLength="355.4532" x="423.474" y="421.01">GameReport(User, List&lt;Document&gt;, LocalDateTime, Difficulty, Duration, Duration, int, int):</text><ellipse cx="418.074" cy="430.0915" fill="#84BE84" rx="1.8" ry="1.8" style="stroke:#038048;stroke-width:0.6;"/><text fill="#000000" font-family="sans-serif" font-size="8.4" lengthAdjust="spacing" textLength="78.4137" x="423.474" y="432.4507">difficulty(): Difficulty</text><ellipse cx="418.074" cy="441.5323" fill="#84BE84" rx="1.8" ry="1.8" style="stroke:#038048;stroke-width:0.6;"/><text fill="#000000" font-family="sans-serif" font-size="8.4" lengthAdjust="spacing" textLength="41.2102" x="423.474" y="443.8915">score(): int</text><ellipse cx="418.074" cy="452.973" fill="#84BE84" rx="1.8" ry="1.8" style="stroke:#038048;stroke-width:0.6;"/><text fill="#000000" font-family="sans-serif" font-size="8.4" lengthAdjust="spacing" textLength="78.2625" x="423.474" y="455.3322">questionCount(): int</text><ellipse cx="418.074" cy="464.4138" fill="#84BE84" rx="1.8" ry="1.8" style="stroke:#038048;stroke-width:0.6;"/><text fill="#000000" font-family="sans-serif" font-size="8.4" lengthAdjust="spacing" textLength="110.4932" x="423.474" y="466.773">timestamp(): LocalDateTime</text><ellipse cx="418.074" cy="475.8545" fill="#84BE84" rx="1.8" ry="1.8" style="stroke:#038048;stroke-width:0.6;"/><text fill="#000000" font-family="sans-serif" font-size="8.4" lengthAdjust="spacing" textLength="83.0001" x="423.474" y="478.2137">usedTime(): Duration</text><ellipse cx="418.074" cy="487.2953" fill="#84BE84" rx="1.8" ry="1.8" style="stroke:#038048;stroke-width:0.6;"/><text fill="#000000" font-family="sans-serif" font-size="8.4" lengthAdjust="spacing" textLength="118.2715" x="423.474" y="489.6545">documents(): List&lt;Document&gt;</text><ellipse cx="418.074" cy="498.736" fill="#84BE84" rx="1.8" ry="1.8" style="stroke:#038048;stroke-width:0.6;"/><text fill="#000000" font-family="sans-serif" font-size="8.4" lengthAdjust="spacing" textLength="80.8917" x="423.474" y="501.0952">maxTime(): Duration</text><ellipse cx="418.074" cy="510.1768" fill="#84BE84" rx="1.8" ry="1.8" style="stroke:#038048;stroke-width:0.6;"/><text fill="#000000" font-family="sans-serif" font-size="8.4" lengthAdjust="spacing" textLength="45.2674" x="423.474" y="512.536">user(): User</text></g><!--class WDM--><g class="entity" data-entity="WDM" data-source-line="81" data-uid="ent0008" id="entity_WDM"><rect fill="#F1F1F1" height="97.4445" rx="1.5" ry="1.5" style="stroke:#181818;stroke-width:0.3;" width="174.5022" x="803.748" y="353.0052"/><ellipse cx="877.6677" cy="362.6052" fill="#ADD1B2" rx="6.6" ry="6.6" style="stroke:#181818;stroke-width:0.6;"/><path d="M877.349,366.7583 Q876.299,366.7583 875.6146,366.3177 Q874.9396,365.8677 874.6021,365.0614 Q874.274,364.2458 874.274,363.1677 Q874.274,361.9489 874.6677,361.0771 Q875.0615,360.2052 875.8302,359.7364 Q876.599,359.2677 877.724,359.2677 Q878.2584,359.2677 878.6615,359.3802 Q879.0646,359.4833 879.4771,359.6896 L878.9896,360.8989 Q878.6146,360.7114 878.2865,360.6364 Q877.9677,360.5614 877.6771,360.5614 Q876.974,360.5614 876.5521,360.8802 Q876.1302,361.1989 875.9521,361.7708 Q875.774,362.3427 875.774,363.1021 Q875.774,364.3114 876.2052,364.8927 Q876.6365,365.4646 877.5927,365.4646 Q877.949,365.4646 878.324,365.3708 Q878.699,365.2771 879.1959,365.0521 L879.1959,366.3833 Q878.7552,366.5708 878.2771,366.6646 Q877.8084,366.7583 877.349,366.7583 Z " fill="#000000"/><text fill="#000000" font-family="sans-serif" font-size="8.4" lengthAdjust="spacing" textLength="21.5627" x="889.9677" y="365.8644">WDM</text><line style="stroke:#181818;stroke-width:0.3;" x1="804.348" x2="977.6502" y1="372.2052" y2="372.2052"/><rect fill="none" height="3.6" style="stroke:#C82930;stroke-width:0.6;" width="3.6" x="808.548" y="379.4256"/><text fill="#000000" font-family="sans-serif" font-size="8.4" lengthAdjust="spacing" textLength="113.1392" x="815.748" y="383.5848">words: Map&lt;String, Integer&gt;</text><rect fill="none" height="3.6" style="stroke:#C82930;stroke-width:0.6;" width="3.6" x="808.548" y="390.8663"/><text fill="#000000" font-family="sans-serif" font-size="8.4" lengthAdjust="spacing" textLength="85.9737" x="815.748" y="395.0255">document: Document</text><line style="stroke:#181818;stroke-width:0.3;" x1="804.348" x2="977.6502" y1="399.8867" y2="399.8867"/><ellipse cx="810.348" cy="408.9071" fill="#84BE84" rx="1.8" ry="1.8" style="stroke:#038048;stroke-width:0.6;"/><text fill="#000000" font-family="sans-serif" font-size="8.4" lengthAdjust="spacing" textLength="102.5552" x="815.748" y="411.2663">WDM(String, Set&lt;String&gt;):</text><ellipse cx="810.348" cy="420.3478" fill="#84BE84" rx="1.8" ry="1.8" style="stroke:#038048;stroke-width:0.6;"/><text fill="#000000" font-family="sans-serif" font-size="8.4" lengthAdjust="spacing" textLength="158.9022" x="815.748" y="422.707">WDM(Document, Map&lt;String, Integer&gt;):</text><ellipse cx="810.348" cy="431.7886" fill="#84BE84" rx="1.8" ry="1.8" style="stroke:#038048;stroke-width:0.6;"/><text fill="#000000" font-family="sans-serif" font-size="8.4" lengthAdjust="spacing" textLength="132.3247" x="815.748" y="434.1478">getWords(): Map&lt;String, Integer&gt;</text><ellipse cx="810.348" cy="443.2293" fill="#84BE84" rx="1.8" ry="1.8" style="stroke:#038048;stroke-width:0.6;"/><text fill="#000000" font-family="sans-serif" font-size="8.4" lengthAdjust="spacing" textLength="104.9156" x="815.748" y="445.5885">getDocument(): Document</text></g><!--class JdbcRepository--><g class="entity" data-entity="JdbcRepository" data-source-line="90" data-uid="ent0009" id="entity_JdbcRepository"><rect fill="#F1F1F1" height="86.0038" rx="1.5" ry="1.5" style="stroke:#181818;stroke-width:0.3;" width="142.1707" x="244.512" y="593.4372"/><ellipse cx="283.5845" cy="603.0372" fill="#ADD1B2" rx="6.6" ry="6.6" style="stroke:#181818;stroke-width:0.6;"/><path d="M283.2657,607.1903 Q282.2157,607.1903 281.5313,606.7497 Q280.8563,606.2997 280.5188,605.4934 Q280.1907,604.6778 280.1907,603.5997 Q280.1907,602.3809 280.5845,601.5091 Q280.9782,600.6372 281.747,600.1684 Q282.5157,599.6997 283.6407,599.6997 Q284.1751,599.6997 284.5782,599.8122 Q284.9813,599.9153 285.3938,600.1216 L284.9063,601.3309 Q284.5313,601.1434 284.2032,601.0684 Q283.8845,600.9934 283.5938,600.9934 Q282.8907,600.9934 282.4688,601.3122 Q282.047,601.6309 281.8688,602.2028 Q281.6907,602.7747 281.6907,603.5341 Q281.6907,604.7434 282.122,605.3247 Q282.5532,605.8966 283.5095,605.8966 Q283.8657,605.8966 284.2407,605.8028 Q284.6157,605.7091 285.1126,605.4841 L285.1126,606.8153 Q284.672,607.0028 284.1938,607.0966 Q283.7251,607.1903 283.2657,607.1903 Z " fill="#000000"/><text fill="#000000" font-family="sans-serif" font-size="8.4" lengthAdjust="spacing" textLength="58.9258" x="295.8845" y="606.2964">JdbcRepository</text><line style="stroke:#181818;stroke-width:0.3;" x1="245.112" x2="386.0827" y1="612.6372" y2="612.6372"/><rect fill="none" height="3.6" style="stroke:#C82930;stroke-width:0.6;" width="3.6" x="249.312" y="619.8576"/><text fill="#000000" font-family="sans-serif" font-size="8.4" lengthAdjust="spacing" textLength="126.5707" x="256.512" y="624.0168">daos: Map&lt;String, JdbcDAO&lt;?&gt;&gt;</text><rect fill="none" height="3.6" style="stroke:#C82930;stroke-width:0.6;" width="3.6" x="249.312" y="631.2983"/><text fill="#000000" font-family="sans-serif" font-size="8.4" lengthAdjust="spacing" textLength="68.9469" x="256.512" y="635.4575">conn: Connection</text><line style="stroke:#181818;stroke-width:0.3;" x1="245.112" x2="386.0827" y1="640.3187" y2="640.3187"/><ellipse cx="251.112" cy="649.3391" fill="#84BE84" rx="1.8" ry="1.8" style="stroke:#038048;stroke-width:0.6;"/><text fill="#000000" font-family="sans-serif" font-size="8.4" lengthAdjust="spacing" textLength="66.217" x="256.512" y="651.6983">JdbcRepository():</text><ellipse cx="251.112" cy="660.7798" fill="#84BE84" rx="1.8" ry="1.8" style="stroke:#038048;stroke-width:0.6;"/><text fill="#000000" font-family="sans-serif" font-size="8.4" lengthAdjust="spacing" textLength="86.8389" x="256.512" y="663.139">getDAO(String): TDAO</text><ellipse cx="251.112" cy="672.2206" fill="#84BE84" rx="1.8" ry="1.8" style="stroke:#038048;stroke-width:0.6;"/><text fill="#000000" font-family="sans-serif" font-size="8.4" lengthAdjust="spacing" textLength="46.1998" x="256.512" y="674.5798">close(): void</text></g><!--class User--><g class="entity" data-entity="User" data-source-line="97" data-uid="ent0010" id="entity_User"><rect fill="#F1F1F1" height="166.089" rx="1.5" ry="1.5" style="stroke:#181818;stroke-width:0.3;" width="129.5456" x="407.43" y="553.3932"/><ellipse cx="460.4674" cy="562.9932" fill="#ADD1B2" rx="6.6" ry="6.6" style="stroke:#181818;stroke-width:0.6;"/><path d="M460.1487,567.1463 Q459.0987,567.1463 458.4143,566.7057 Q457.7393,566.2557 457.4018,565.4494 Q457.0737,564.6338 457.0737,563.5557 Q457.0737,562.3369 457.4674,561.4651 Q457.8612,560.5932 458.6299,560.1244 Q459.3987,559.6557 460.5237,559.6557 Q461.058,559.6557 461.4612,559.7682 Q461.8643,559.8713 462.2768,560.0776 L461.7893,561.2869 Q461.4143,561.0994 461.0862,561.0244 Q460.7674,560.9494 460.4768,560.9494 Q459.7737,560.9494 459.3518,561.2682 Q458.9299,561.5869 458.7518,562.1588 Q458.5737,562.7307 458.5737,563.4901 Q458.5737,564.6994 459.0049,565.2807 Q459.4362,565.8526 460.3924,565.8526 Q460.7487,565.8526 461.1237,565.7588 Q461.4987,565.6651 461.9955,565.4401 L461.9955,566.7713 Q461.5549,566.9588 461.0768,567.0526 Q460.608,567.1463 460.1487,567.1463 Z " fill="#000000"/><text fill="#000000" font-family="sans-serif" font-size="8.4" lengthAdjust="spacing" textLength="18.3707" x="472.7674" y="566.2524">User</text><line style="stroke:#181818;stroke-width:0.3;" x1="408.03" x2="536.3756" y1="572.5932" y2="572.5932"/><rect fill="none" height="3.6" style="stroke:#C82930;stroke-width:0.6;" width="3.6" x="412.23" y="579.8136"/><text fill="#000000" font-family="sans-serif" font-size="8.4" lengthAdjust="spacing" textLength="68.5101" x="419.43" y="583.9728">isAdmin: boolean</text><rect fill="none" height="3.6" style="stroke:#C82930;stroke-width:0.6;" width="3.6" x="412.23" y="591.2543"/><text fill="#000000" font-family="sans-serif" font-size="8.4" lengthAdjust="spacing" textLength="66.3178" x="419.43" y="595.4135">password: String</text><rect fill="none" height="3.6" style="stroke:#C82930;stroke-width:0.6;" width="3.6" x="412.23" y="602.6951"/><text fill="#000000" font-family="sans-serif" font-size="8.4" lengthAdjust="spacing" textLength="50.5678" x="419.43" y="606.8543">name: String</text><line style="stroke:#181818;stroke-width:0.3;" x1="408.03" x2="536.3756" y1="611.7154" y2="611.7154"/><ellipse cx="414.03" cy="620.7358" fill="#84BE84" rx="1.8" ry="1.8" style="stroke:#038048;stroke-width:0.6;"/><text fill="#000000" font-family="sans-serif" font-size="8.4" lengthAdjust="spacing" textLength="113.9456" x="419.43" y="623.095">User(String, String, boolean):</text><ellipse cx="414.03" cy="632.1766" fill="#84BE84" rx="1.8" ry="1.8" style="stroke:#038048;stroke-width:0.6;"/><text fill="#000000" font-family="sans-serif" font-size="8.4" lengthAdjust="spacing" textLength="69.7365" x="419.43" y="634.5358">getName(): String</text><ellipse cx="414.03" cy="643.6173" fill="#84BE84" rx="1.8" ry="1.8" style="stroke:#038048;stroke-width:0.6;"/><text fill="#000000" font-family="sans-serif" font-size="8.4" lengthAdjust="spacing" textLength="95.8352" x="419.43" y="645.9765">setAdmin(boolean): void</text><ellipse cx="414.03" cy="655.0581" fill="#84BE84" rx="1.8" ry="1.8" style="stroke:#038048;stroke-width:0.6;"/><text fill="#000000" font-family="sans-serif" font-size="8.4" lengthAdjust="spacing" textLength="85.2765" x="419.43" y="657.4173">setName(String): void</text><ellipse cx="414.03" cy="666.4988" fill="#84BE84" rx="1.8" ry="1.8" style="stroke:#038048;stroke-width:0.6;"/><text fill="#000000" font-family="sans-serif" font-size="8.4" lengthAdjust="spacing" textLength="73.5501" x="419.43" y="668.858">isAdmin(): boolean</text><ellipse cx="414.03" cy="677.9396" fill="#84BE84" rx="1.8" ry="1.8" style="stroke:#038048;stroke-width:0.6;"/><text fill="#000000" font-family="sans-serif" font-size="8.4" lengthAdjust="spacing" textLength="93.3068" x="419.43" y="680.2988">equals(Object): boolean</text><ellipse cx="414.03" cy="689.3803" fill="#84BE84" rx="1.8" ry="1.8" style="stroke:#038048;stroke-width:0.6;"/><text fill="#000000" font-family="sans-serif" font-size="8.4" lengthAdjust="spacing" textLength="59.2786" x="419.43" y="691.7395">hashCode(): int</text><ellipse cx="414.03" cy="700.8211" fill="#84BE84" rx="1.8" ry="1.8" style="stroke:#038048;stroke-width:0.6;"/><text fill="#000000" font-family="sans-serif" font-size="8.4" lengthAdjust="spacing" textLength="84.2097" x="419.43" y="703.1803">getPassword(): String</text><ellipse cx="414.03" cy="712.2618" fill="#84BE84" rx="1.8" ry="1.8" style="stroke:#038048;stroke-width:0.6;"/><text fill="#000000" font-family="sans-serif" font-size="8.4" lengthAdjust="spacing" textLength="99.7496" x="419.43" y="714.621">setPassword(String): void</text></g><!--class Repository--><g class="entity" data-entity="Repository" data-source-line="113" data-uid="ent0012" id="entity_Repository"><rect fill="#F1F1F1" height="59.7287" rx="1.5" ry="1.5" style="stroke:#181818;stroke-width:0.3;" width="102.4389" x="27.378" y="108.5472"/><ellipse cx="56.4587" cy="122.1708" fill="#B4A7E5" rx="6.6" ry="6.6" style="stroke:#181818;stroke-width:0.6;"/><path d="M54.0775,126.0708 L54.0775,125.0489 L55.4931,124.8895 L55.4931,119.9677 L54.0775,119.8083 L54.0775,118.7864 L58.3618,118.7864 L58.3618,119.8083 L56.9087,119.9677 L56.9087,124.8895 L58.3618,125.0489 L58.3618,126.0708 L54.0775,126.0708 Z " fill="#000000"/><text fill="#000000" font-family="sans-serif" font-size="7.2" font-style="italic" lengthAdjust="spacing" textLength="34.9778" x="70.8585" y="119.244">&#171;interface&#187;</text><text fill="#000000" font-family="sans-serif" font-size="8.4" font-style="italic" lengthAdjust="spacing" textLength="39.1775" x="68.7587" y="130.3332">Repository</text><line style="stroke:#181818;stroke-width:0.3;" x1="27.978" x2="129.2169" y1="135.7944" y2="135.7944"/><line style="stroke:#181818;stroke-width:0.3;" x1="27.978" x2="129.2169" y1="140.5944" y2="140.5944"/><ellipse cx="33.978" cy="149.6148" fill="#84BE84" rx="1.8" ry="1.8" style="stroke:#038048;stroke-width:0.6;"/><text fill="#000000" font-family="sans-serif" font-size="8.4" lengthAdjust="spacing" textLength="86.8389" x="39.378" y="151.974">getDAO(String): TDAO</text><ellipse cx="33.978" cy="161.0555" fill="#84BE84" rx="1.8" ry="1.8" style="stroke:#038048;stroke-width:0.6;"/><text fill="#000000" font-family="sans-serif" font-size="8.4" lengthAdjust="spacing" textLength="46.1998" x="39.378" y="163.4147">close(): void</text></g><!--SRC=[XLTVR-Cs37_lfz2Z0wTVm0Wo1CsXox1Sk-Qwm-6m1yLcKkzioIV9NGz3l_ieHVyiERSyDBP8YkIF_97fGEjlz0oavmrqalnxG_1JTrHASazxE82KBMS7HHLOuIqvWphKNC0ZY3z6a0eLI4LQfgpykpsKUFfxAzNAQQqJ1RnMg4zj3rgHrxJReXlzRlNgKGXWofdlM0Dl4qyDxobhw5Ch1owLlcPF1-zkINPCmHc4yoj1jBJx4uJEwNctHVsEixELZYZ6asVySeaY0ezKq5vdSkzVZBJCy2cqvJB9U3cDo0Mqr4aifqdRi-1dOHtDmL0i0WvbGBnOp6DU4fbKp6Y66qAg-kOiLusD5dXmoho8MfvNiKoBfDL-KgLtynVOs9DjUpgrzTYf7sIrCaSWgEcszTetOr0g3agqxBoehDzVDqzRzxp_iDqzxztRXytXIsNjEtg4hY8NMoj_fHq6fmCDjt_zomeLl-XgySGAQR6dRuOPKL3XSL8nu-BXv6EEF4KmN8Yu6OOxZXYzAPjr6HqLJu2mjegB7mkN4ntLom74Qrj3HJRX9Ihc8sNGUPtdvCJUW-624EEWeB6DNcLTFwMglcX2eGve0-B8gMZitRf1iyE8S47jFhnPkS1SAn8o3iX7kgw1fqcZJfgbQ-WiSsGBgBkGaM4sAh_ojWaAkmoT8WLdQdEUjLbSmTJenq5CwOV2fwjev00RSix3RYoYBj6gQTCuLgeMoRZbDLAHASrA0TZlJI1awQMsjPV4VLkQ-oxz1mtl-CXKvKHMS6exO0Z9X5-t17rta73kXSgNErnTqt5eD3D-kcip0NmVQIUBX-FVK2iK7Zd7jcLMwiFKTd6WxpSnABg6kXJY2Yn17ky91zOwsmLX7k3pU9bxyPFP5VZ7muciRhHfvPKyRZrEMjeFyqlMpN5RYh1SU_esUv_P9B7Yc9A-iLd9AidIoNrksTmh8s6nc14Rx_FRprSfxWIR-xNbv50plk8yov25iStpA1r2CxRPlepd-UVjthS5FWUYW5fTdjT-YMcvStlvBP7GQJtXawncTPAwL9waOG1yrjPkDy_Q6pNFxaLoYMN39SFVccCTvf9FTdfS-CWRofF0jUPsyx3wPUrYhpd3xODBZo590z0wfCr3MAEVyCtzREguDBNn8pWkWgwC3ypCrtHUsJ7WespbfkbRDfqFjsJ0spJqoRJA1fY9zUFS_C5TOcuklCTaqnWhds8aio4LsT3w-KYRdveOtgFDPIv4Byi3iRKVxFyIvcV3YTRW_f_G7tyOBImzASEv7vR_KzbhrGqLVhzv_my0]--></g></svg>