<svg xmlns="http://www.w3.org/2000/svg" xmlns:xlink="http://www.w3.org/1999/xlink" contentStyleType="text/css" data-diagram-type="CLASS" height="1197px" preserveAspectRatio="none" style="width:1708px;height:1197px;background:#FFFFFF;" version="1.1" viewBox="0 0 1708 1197" width="1708px" zoomAndPan="magnify"><defs/><g><!--cluster models--><g class="cluster" data-entity="models" data-source-line="2" data-uid="ent0002" id="cluster_models"><path d="M8.5,6.602 L60.3058,6.602 A3.75,3.75 0 0 1 62.8058,9.102 L69.8058,31.6699 L1698.5,31.6699 A2.5,2.5 0 0 1 1701,34.1699 L1701,1187.912 A2.5,2.5 0 0 1 1698.5,1190.412 L8.5,1190.412 A2.5,2.5 0 0 1 6,1187.912 L6,9.102 A2.5,2.5 0 0 1 8.5,6.602" fill="none" style="stroke:#000000;stroke-width:1.5;"/><line style="stroke:#000000;stroke-width:1.5;" x1="6" x2="69.8058" y1="31.6699" y2="31.6699"/><text fill="#000000" font-family="sans-serif" font-size="14" font-weight="bold" lengthAdjust="spacing" textLength="50.8058" x="10" y="23.5679">models</text></g><!--class GameParams--><g class="entity" data-entity="GameParams" data-source-line="3" data-uid="ent0003" id="entity_GameParams"><rect fill="#F1F1F1" height="219.6113" rx="2.5" ry="2.5" style="stroke:#181818;stroke-width:0.5;" width="314.1749" x="218.91" y="60.842"/><ellipse cx="327.3536" cy="76.842" fill="#ADD1B2" rx="11" ry="11" style="stroke:#181818;stroke-width:1;"/><path d="M326.8223,83.7639 Q325.0723,83.7639 323.9317,83.0295 Q322.8067,82.2795 322.2442,80.9357 Q321.6973,79.5764 321.6973,77.7795 Q321.6973,75.7482 322.3536,74.2951 Q323.0098,72.842 324.2911,72.0607 Q325.5723,71.2795 327.4473,71.2795 Q328.338,71.2795 329.0098,71.467 Q329.6817,71.6389 330.3692,71.9826 L329.5567,73.9982 Q328.9317,73.6857 328.3848,73.5607 Q327.8536,73.4357 327.3692,73.4357 Q326.1973,73.4357 325.4942,73.967 Q324.7911,74.4982 324.4942,75.4514 Q324.1973,76.4045 324.1973,77.6701 Q324.1973,79.6857 324.9161,80.6545 Q325.6348,81.6076 327.2286,81.6076 Q327.8223,81.6076 328.4473,81.4514 Q329.0723,81.2951 329.9005,80.9201 L329.9005,83.1389 Q329.1661,83.4514 328.3692,83.6076 Q327.588,83.7639 326.8223,83.7639 Z " fill="#000000"/><text fill="#000000" font-family="sans-serif" font-size="14" lengthAdjust="spacing" textLength="88.7877" x="347.8536" y="82.274">GameParams</text><line style="stroke:#181818;stroke-width:0.5;" x1="219.91" x2="532.0849" y1="92.842" y2="92.842"/><rect fill="none" height="6" style="stroke:#C82930;stroke-width:1;" width="6" x="226.91" y="104.8759"/><text fill="#000000" font-family="sans-serif" font-size="14" lengthAdjust="spacing" textLength="115.2336" x="238.91" y="111.8079">random: Random</text><rect fill="none" height="6" style="stroke:#C82930;stroke-width:1;" width="6" x="226.91" y="123.9439"/><text fill="#000000" font-family="sans-serif" font-size="14" lengthAdjust="spacing" textLength="188.7193" x="238.91" y="130.8758">documents: List&lt;Document&gt;</text><rect fill="none" height="6" style="stroke:#C82930;stroke-width:1;" width="6" x="226.91" y="143.0118"/><text fill="#000000" font-family="sans-serif" font-size="14" lengthAdjust="spacing" textLength="122.2895" x="238.91" y="149.9438">difficulty: Difficulty</text><rect fill="none" height="6" style="stroke:#C82930;stroke-width:1;" width="6" x="226.91" y="162.0797"/><text fill="#000000" font-family="sans-serif" font-size="14" lengthAdjust="spacing" textLength="101.1216" x="238.91" y="169.0117">timer: Duration</text><rect fill="none" height="6" style="stroke:#C82930;stroke-width:1;" width="6" x="226.91" y="181.1476"/><text fill="#000000" font-family="sans-serif" font-size="14" lengthAdjust="spacing" textLength="122.0375" x="238.91" y="188.0796">questionCount: int</text><line style="stroke:#181818;stroke-width:0.5;" x1="219.91" x2="532.0849" y1="196.1816" y2="196.1816"/><rect fill="#F24D5C" height="6" style="stroke:#C82930;stroke-width:1;" width="6" x="226.91" y="208.2155"/><text fill="#000000" font-family="sans-serif" font-size="14" lengthAdjust="spacing" textLength="159.1934" x="238.91" y="215.1475">GameParams(Difficulty):</text><rect fill="#F24D5C" height="6" style="stroke:#C82930;stroke-width:1;" width="6" x="226.91" y="227.2834"/><text fill="#000000" font-family="sans-serif" font-size="14" lengthAdjust="spacing" textLength="201.6972" x="238.91" y="234.2154">generateTimer(float): Duration</text><rect fill="#F24D5C" height="6" style="stroke:#C82930;stroke-width:1;" width="6" x="226.91" y="246.3514"/><text fill="#000000" font-family="sans-serif" font-size="14" lengthAdjust="spacing" textLength="288.1749" x="238.91" y="253.2833">generateDocuments(float): List&lt;Document&gt;</text><rect fill="#F24D5C" height="6" style="stroke:#C82930;stroke-width:1;" width="6" x="226.91" y="265.4193"/><text fill="#000000" font-family="sans-serif" font-size="14" lengthAdjust="spacing" textLength="222.2071" x="238.91" y="272.3513">generateQuestionCount(float): int</text></g><!--class DifficultyIndex--><g class="entity" data-entity="DifficultyIndex" data-source-line="14" data-uid="ent0004" id="entity_DifficultyIndex"><rect fill="#F1F1F1" height="181.4754" rx="2.5" ry="2.5" style="stroke:#181818;stroke-width:0.5;" width="175.8974" x="568.05" y="79.912"/><ellipse cx="604.8002" cy="95.912" fill="#ADD1B2" rx="11" ry="11" style="stroke:#181818;stroke-width:1;"/><path d="M604.269,102.8339 Q602.519,102.8339 601.3783,102.0995 Q600.2533,101.3495 599.6908,100.0057 Q599.144,98.6464 599.144,96.8495 Q599.144,94.8182 599.8002,93.3651 Q600.4565,91.912 601.7377,91.1307 Q603.019,90.3495 604.894,90.3495 Q605.7846,90.3495 606.4565,90.537 Q607.1283,90.7089 607.8158,91.0526 L607.0033,93.0682 Q606.3783,92.7557 605.8315,92.6307 Q605.3002,92.5057 604.8158,92.5057 Q603.644,92.5057 602.9408,93.037 Q602.2377,93.5682 601.9408,94.5214 Q601.644,95.4745 601.644,96.7401 Q601.644,98.7557 602.3627,99.7245 Q603.0815,100.6776 604.6752,100.6776 Q605.269,100.6776 605.894,100.5214 Q606.519,100.3651 607.3471,99.9901 L607.3471,102.2089 Q606.6127,102.5214 605.8158,102.6776 Q605.0346,102.8339 604.269,102.8339 Z " fill="#000000"/><text fill="#000000" font-family="sans-serif" font-size="14" lengthAdjust="spacing" textLength="95.5636" x="623.6336" y="101.344">DifficultyIndex</text><line style="stroke:#181818;stroke-width:0.5;" x1="569.05" x2="742.9474" y1="111.912" y2="111.912"/><rect fill="none" height="6" style="stroke:#C82930;stroke-width:1;" width="6" x="576.05" y="123.9459"/><text fill="#000000" font-family="sans-serif" font-size="14" lengthAdjust="spacing" textLength="60.3818" x="588.05" y="130.8779">cap: float</text><rect fill="none" height="6" style="stroke:#C82930;stroke-width:1;" width="6" x="576.05" y="143.0139"/><text fill="#000000" font-family="sans-serif" font-size="14" lengthAdjust="spacing" textLength="72.3237" x="588.05" y="149.9458">value: float</text><line style="stroke:#181818;stroke-width:0.5;" x1="569.05" x2="742.9474" y1="158.0478" y2="158.0478"/><ellipse cx="579.05" cy="173.0818" fill="#84BE84" rx="3" ry="3" style="stroke:#038048;stroke-width:1;"/><text fill="#000000" font-family="sans-serif" font-size="14" lengthAdjust="spacing" textLength="137.5215" x="588.05" y="177.0138">DifficultyIndex(float):</text><ellipse cx="579.05" cy="192.1497" fill="#84BE84" rx="3" ry="3" style="stroke:#038048;stroke-width:1;"/><text fill="#000000" font-family="sans-serif" font-size="14" lengthAdjust="spacing" textLength="92.4697" x="588.05" y="196.0817">getCap(): float</text><ellipse cx="579.05" cy="211.2176" fill="#84BE84" rx="3" ry="3" style="stroke:#038048;stroke-width:1;"/><text fill="#000000" font-family="sans-serif" font-size="14" lengthAdjust="spacing" textLength="98.1536" x="588.05" y="215.1496">getNext(): float</text><ellipse cx="579.05" cy="230.2855" fill="#84BE84" rx="3" ry="3" style="stroke:#038048;stroke-width:1;"/><text fill="#000000" font-family="sans-serif" font-size="14" lengthAdjust="spacing" textLength="137.8435" x="588.05" y="234.2175">getRemaining(): float</text><ellipse cx="579.05" cy="249.3534" fill="#84BE84" rx="3" ry="3" style="stroke:#038048;stroke-width:1;"/><text fill="#000000" font-family="sans-serif" font-size="14" lengthAdjust="spacing" textLength="149.8974" x="588.05" y="253.2854">getNextRelative(): float</text></g><!--class Question--><g class="entity" data-entity="Question" data-source-line="23" data-uid="ent0005" id="entity_Question"><rect fill="#F1F1F1" height="213.9554" rx="2.5" ry="2.5" style="stroke:#181818;stroke-width:0.5;" width="292.587" x="778.71" y="63.672"/><ellipse cx="890.7656" cy="86.378" fill="#ADD1B2" rx="11" ry="11" style="stroke:#181818;stroke-width:1;"/><path d="M887.125,92.878 L887.125,80.7374 L894.7812,80.7374 L894.7812,82.8624 L889.5,82.8624 L889.5,85.5186 L894.5156,85.5186 L894.5156,87.6436 L889.5,87.6436 L889.5,90.753 L894.7812,90.753 L894.7812,92.878 L887.125,92.878 Z " fill="#000000"/><text fill="#000000" font-family="sans-serif" font-size="12" font-style="italic" lengthAdjust="spacing" textLength="46.1283" x="918.1893" y="81.5001">&#171;record&#187;</text><text fill="#000000" font-family="sans-serif" font-size="14" lengthAdjust="spacing" textLength="59.9758" x="911.2656" y="99.982">Question</text><line style="stroke:#181818;stroke-width:0.5;" x1="779.71" x2="1070.297" y1="109.084" y2="109.084"/><rect fill="none" height="6" style="stroke:#C82930;stroke-width:1;" width="6" x="786.71" y="121.118"/><text fill="#000000" font-family="sans-serif" font-size="14" lengthAdjust="spacing" textLength="72.1977" x="798.71" y="128.0499">text: String</text><rect fill="none" height="6" style="stroke:#C82930;stroke-width:1;" width="6" x="786.71" y="140.1859"/><text fill="#000000" font-family="sans-serif" font-size="14" lengthAdjust="spacing" textLength="140.1115" x="798.71" y="147.1179">answers: List&lt;String&gt;</text><rect fill="none" height="6" style="stroke:#C82930;stroke-width:1;" width="6" x="786.71" y="159.2538"/><text fill="#000000" font-family="sans-serif" font-size="14" lengthAdjust="spacing" textLength="157.4294" x="798.71" y="166.1858">correctAnswerIndex: int</text><line style="stroke:#181818;stroke-width:0.5;" x1="779.71" x2="1070.297" y1="174.2878" y2="174.2878"/><ellipse cx="789.71" cy="189.3217" fill="#84BE84" rx="3" ry="3" style="stroke:#038048;stroke-width:1;"/><text fill="#000000" font-family="sans-serif" font-size="14" lengthAdjust="spacing" textLength="221.7451" x="798.71" y="193.2537">Question(String, List&lt;String&gt;, int):</text><ellipse cx="789.71" cy="208.3896" fill="#84BE84" rx="3" ry="3" style="stroke:#038048;stroke-width:1;"/><text fill="#000000" font-family="sans-serif" font-size="14" lengthAdjust="spacing" textLength="165.8294" x="798.71" y="212.3216">correctAnswerIndex(): int</text><ellipse cx="789.71" cy="227.4576" fill="#84BE84" rx="3" ry="3" style="stroke:#038048;stroke-width:1;"/><text fill="#000000" font-family="sans-serif" font-size="14" lengthAdjust="spacing" textLength="80.5977" x="798.71" y="231.3895">text(): String</text><ellipse cx="789.71" cy="246.5255" fill="#84BE84" rx="3" ry="3" style="stroke:#038048;stroke-width:1;"/><text fill="#000000" font-family="sans-serif" font-size="14" lengthAdjust="spacing" textLength="266.587" x="798.71" y="250.4574">create(String, List&lt;String&gt;, int): Question</text><ellipse cx="789.71" cy="265.5934" fill="#84BE84" rx="3" ry="3" style="stroke:#038048;stroke-width:1;"/><text fill="#000000" font-family="sans-serif" font-size="14" lengthAdjust="spacing" textLength="148.5114" x="798.71" y="269.5254">answers(): List&lt;String&gt;</text></g><!--class QuestionType--><g class="entity" data-entity="QuestionType" data-source-line="33" data-uid="ent0006" id="entity_QuestionType"><rect fill="#F1F1F1" height="252.0912" rx="2.5" ry="2.5" style="stroke:#181818;stroke-width:0.5;" width="241.5712" x="1106.21" y="44.602"/><ellipse cx="1177.0428" cy="67.308" fill="#EB937F" rx="11" ry="11" style="stroke:#181818;stroke-width:1;"/><path d="M1173.4021,73.808 L1173.4021,61.6674 L1181.0584,61.6674 L1181.0584,63.7924 L1175.7771,63.7924 L1175.7771,66.4486 L1180.7928,66.4486 L1180.7928,68.5736 L1175.7771,68.5736 L1175.7771,71.683 L1181.0584,71.683 L1181.0584,73.808 L1173.4021,73.808 Z " fill="#000000"/><text fill="#000000" font-family="sans-serif" font-size="12" font-style="italic" lengthAdjust="spacing" textLength="80.1965" x="1203.1473" y="62.4301">&#171;enumeration&#187;</text><text fill="#000000" font-family="sans-serif" font-size="14" lengthAdjust="spacing" textLength="91.4056" x="1197.5428" y="80.912">QuestionType</text><line style="stroke:#181818;stroke-width:0.5;" x1="1107.21" x2="1346.7812" y1="90.014" y2="90.014"/><ellipse cx="1117.21" cy="105.048" fill="none" rx="3" ry="3" style="stroke:#038048;stroke-width:1;"/><text fill="#000000" font-family="sans-serif" font-size="14" lengthAdjust="spacing" textLength="97.4536" x="1126.21" y="108.9799">WHICH_MORE:</text><rect fill="none" height="6" style="stroke:#C82930;stroke-width:1;" width="6" x="1114.21" y="121.1159"/><text fill="#000000" font-family="sans-serif" font-size="14" lengthAdjust="spacing" textLength="82.0257" x="1126.21" y="128.0479">weight: float</text><ellipse cx="1117.21" cy="143.1838" fill="none" rx="3" ry="3" style="stroke:#038048;stroke-width:1;"/><text fill="#000000" font-family="sans-serif" font-size="14" lengthAdjust="spacing" textLength="87.8217" x="1126.21" y="147.1158">WHICH_LESS:</text><ellipse cx="1117.21" cy="162.2517" fill="none" rx="3" ry="3" style="stroke:#038048;stroke-width:1;"/><text fill="#000000" font-family="sans-serif" font-size="14" lengthAdjust="spacing" textLength="136.4715" x="1126.21" y="166.1837">WHICH_DOCUMENT:</text><ellipse cx="1117.21" cy="181.3196" fill="none" rx="3" ry="3" style="stroke:#038048;stroke-width:1;"/><text fill="#000000" font-family="sans-serif" font-size="14" lengthAdjust="spacing" textLength="109.2696" x="1126.21" y="185.2516">WHICH_ABSENT:</text><ellipse cx="1117.21" cy="200.3876" fill="none" rx="3" ry="3" style="stroke:#038048;stroke-width:1;"/><text fill="#000000" font-family="sans-serif" font-size="14" lengthAdjust="spacing" textLength="159.8934" x="1126.21" y="204.3195">ABSOLUTE_FREQUENCY:</text><line style="stroke:#181818;stroke-width:0.5;" x1="1107.21" x2="1346.7812" y1="212.4215" y2="212.4215"/><rect fill="#F24D5C" height="6" style="stroke:#C82930;stroke-width:1;" width="6" x="1114.21" y="224.4555"/><text fill="#000000" font-family="sans-serif" font-size="14" lengthAdjust="spacing" textLength="133.3635" x="1126.21" y="231.3874">QuestionType(float):</text><ellipse cx="1117.21" cy="246.5234" fill="#84BE84" rx="3" ry="3" style="stroke:#038048;stroke-width:1;"/><text fill="#000000" font-family="sans-serif" font-size="14" lengthAdjust="spacing" textLength="197.4692" x="1126.21" y="250.4554">valueOf(String): QuestionType</text><ellipse cx="1117.21" cy="265.5913" fill="#84BE84" rx="3" ry="3" style="stroke:#038048;stroke-width:1;"/><text fill="#000000" font-family="sans-serif" font-size="14" lengthAdjust="spacing" textLength="158.2414" x="1126.21" y="269.5233">values(): QuestionType[]</text><ellipse cx="1117.21" cy="284.6592" fill="#84BE84" rx="3" ry="3" style="stroke:#038048;stroke-width:1;"/><text fill="#000000" font-family="sans-serif" font-size="14" lengthAdjust="spacing" textLength="215.5712" x="1126.21" y="288.5912">getRandomType(): QuestionType</text></g><!--class GameSessionState--><g class="entity" data-entity="GameSessionState" data-source-line="45" data-uid="ent0007" id="entity_GameSessionState"><rect fill="#F1F1F1" height="353.0867" rx="2.5" ry="2.5" style="stroke:#181818;stroke-width:0.5;" width="708.7356" x="21.63" y="366.222"/><ellipse cx="310.596" cy="382.222" fill="#ADD1B2" rx="11" ry="11" style="stroke:#181818;stroke-width:1;"/><path d="M310.0648,389.1439 Q308.3148,389.1439 307.1742,388.4095 Q306.0492,387.6595 305.4867,386.3157 Q304.9398,384.9564 304.9398,383.1595 Q304.9398,381.1282 305.596,379.6751 Q306.2523,378.222 307.5335,377.4407 Q308.8148,376.6595 310.6898,376.6595 Q311.5804,376.6595 312.2523,376.847 Q312.9242,377.0189 313.6117,377.3626 L312.7992,379.3782 Q312.1742,379.0657 311.6273,378.9407 Q311.096,378.8157 310.6117,378.8157 Q309.4398,378.8157 308.7367,379.347 Q308.0335,379.8782 307.7367,380.8314 Q307.4398,381.7845 307.4398,383.0501 Q307.4398,385.0657 308.1585,386.0345 Q308.8773,386.9876 310.471,386.9876 Q311.0648,386.9876 311.6898,386.8314 Q312.3148,386.6751 313.1429,386.3001 L313.1429,388.5189 Q312.4085,388.8314 311.6117,388.9876 Q310.8304,389.1439 310.0648,389.1439 Z " fill="#000000"/><text fill="#000000" font-family="sans-serif" font-size="14" lengthAdjust="spacing" textLength="122.3035" x="331.096" y="387.654">GameSessionState</text><line style="stroke:#181818;stroke-width:0.5;" x1="22.63" x2="729.3656" y1="398.222" y2="398.222"/><rect fill="none" height="6" style="stroke:#C82930;stroke-width:1;" width="6" x="29.63" y="410.2559"/><text fill="#000000" font-family="sans-serif" font-size="14" lengthAdjust="spacing" textLength="168.5874" x="41.63" y="417.1879">getScorePerQuestion : int</text><rect fill="none" height="6" style="stroke:#C82930;stroke-width:1;" width="6" x="29.63" y="429.3239"/><text fill="#000000" font-family="sans-serif" font-size="14" lengthAdjust="spacing" textLength="174.0893" x="41.63" y="436.2558">questions : List&lt;Question&gt;</text><rect fill="none" height="6" style="stroke:#C82930;stroke-width:1;" width="6" x="29.63" y="448.3918"/><text fill="#000000" font-family="sans-serif" font-size="14" lengthAdjust="spacing" textLength="229.8931" x="41.63" y="455.3238">questionStartTime : LocalDateTime</text><rect fill="none" height="6" style="stroke:#C82930;stroke-width:1;" width="6" x="29.63" y="467.4597"/><text fill="#000000" font-family="sans-serif" font-size="14" lengthAdjust="spacing" textLength="174.1733" x="41.63" y="474.3917">currentQuestionIndex : int</text><rect fill="none" height="6" style="stroke:#C82930;stroke-width:1;" width="6" x="29.63" y="486.5276"/><text fill="#000000" font-family="sans-serif" font-size="14" lengthAdjust="spacing" textLength="291.1149" x="41.63" y="493.4596">domandaRisposte : Map&lt;Question, Integer&gt;</text><rect fill="none" height="6" style="stroke:#C82930;stroke-width:1;" width="6" x="29.63" y="505.5955"/><text fill="#000000" font-family="sans-serif" font-size="14" lengthAdjust="spacing" textLength="150.5554" x="41.63" y="512.5275">serialVersionUID : long</text><rect fill="none" height="6" style="stroke:#C82930;stroke-width:1;" width="6" x="29.63" y="524.6634"/><text fill="#000000" font-family="sans-serif" font-size="14" lengthAdjust="spacing" textLength="70.6857" x="41.63" y="531.5954">user : User</text><rect fill="none" height="6" style="stroke:#C82930;stroke-width:1;" width="6" x="29.63" y="543.7314"/><text fill="#000000" font-family="sans-serif" font-size="14" lengthAdjust="spacing" textLength="187.0253" x="41.63" y="550.6633">gameParams : GameParams</text><line style="stroke:#181818;stroke-width:0.5;" x1="22.63" x2="729.3656" y1="558.7653" y2="558.7653"/><ellipse cx="32.63" cy="573.7993" fill="#84BE84" rx="3" ry="3" style="stroke:#038048;stroke-width:1;"/><text fill="#000000" font-family="sans-serif" font-size="14" lengthAdjust="spacing" textLength="682.7356" x="41.63" y="577.7313">GameSessionState(User, List&lt;Question&gt;, Map&lt;Question,Integer&gt;, int, LocalDateTime, int, GameParams)</text><ellipse cx="32.63" cy="592.8672" fill="#84BE84" rx="3" ry="3" style="stroke:#038048;stroke-width:1;"/><text fill="#000000" font-family="sans-serif" font-size="14" lengthAdjust="spacing" textLength="178.9333" x="41.63" y="596.7992">currentQuestionIndex(): int</text><ellipse cx="32.63" cy="611.9351" fill="#84BE84" rx="3" ry="3" style="stroke:#038048;stroke-width:1;"/><text fill="#000000" font-family="sans-serif" font-size="14" lengthAdjust="spacing" textLength="182.4893" x="41.63" y="615.8671">questions() : List&lt;Question&gt;</text><ellipse cx="32.63" cy="631.003" fill="#84BE84" rx="3" ry="3" style="stroke:#038048;stroke-width:1;"/><text fill="#000000" font-family="sans-serif" font-size="14" lengthAdjust="spacing" textLength="154.4474" x="41.63" y="634.935">scorePerQuestion() : int</text><ellipse cx="32.63" cy="650.0709" fill="#84BE84" rx="3" ry="3" style="stroke:#038048;stroke-width:1;"/><text fill="#000000" font-family="sans-serif" font-size="14" lengthAdjust="spacing" textLength="191.7853" x="41.63" y="654.0029">gameParams(): GameParams</text><ellipse cx="32.63" cy="669.1389" fill="#84BE84" rx="3" ry="3" style="stroke:#038048;stroke-width:1;"/><text fill="#000000" font-family="sans-serif" font-size="14" lengthAdjust="spacing" textLength="75.4457" x="41.63" y="673.0708">user(): User</text><ellipse cx="32.63" cy="688.2068" fill="#84BE84" rx="3" ry="3" style="stroke:#038048;stroke-width:1;"/><text fill="#000000" font-family="sans-serif" font-size="14" lengthAdjust="spacing" textLength="234.6531" x="41.63" y="692.1388">questionStartTime(): LocalDateTime</text><ellipse cx="32.63" cy="707.2747" fill="#84BE84" rx="3" ry="3" style="stroke:#038048;stroke-width:1;"/><text fill="#000000" font-family="sans-serif" font-size="14" lengthAdjust="spacing" textLength="295.8749" x="41.63" y="711.2067">domandaRisposte(): Map&lt;Question, Integer&gt;</text></g><!--class Difficulty--><g class="entity" data-entity="Difficulty" data-source-line="63" data-uid="ent0008" id="entity_Difficulty"><rect fill="#F1F1F1" height="233.0233" rx="2.5" ry="2.5" style="stroke:#181818;stroke-width:0.5;" width="261.6891" x="765.16" y="426.252"/><ellipse cx="853.6563" cy="448.958" fill="#EB937F" rx="11" ry="11" style="stroke:#181818;stroke-width:1;"/><path d="M850.0156,455.458 L850.0156,443.3174 L857.6719,443.3174 L857.6719,445.4424 L852.3906,445.4424 L852.3906,448.0986 L857.4063,448.0986 L857.4063,450.2236 L852.3906,450.2236 L852.3906,453.333 L857.6719,453.333 L857.6719,455.458 L850.0156,455.458 Z " fill="#000000"/><text fill="#000000" font-family="sans-serif" font-size="12" font-style="italic" lengthAdjust="spacing" textLength="80.1965" x="872.1563" y="444.0801">&#171;enumeration&#187;</text><text fill="#000000" font-family="sans-serif" font-size="14" lengthAdjust="spacing" textLength="58.2538" x="883.1277" y="462.562">Difficulty</text><line style="stroke:#181818;stroke-width:0.5;" x1="766.16" x2="1025.8491" y1="471.664" y2="471.664"/><ellipse cx="776.16" cy="486.698" fill="none" rx="3" ry="3" style="stroke:#038048;stroke-width:1;"/><text fill="#000000" font-family="sans-serif" font-size="14" lengthAdjust="spacing" textLength="41.9998" x="785.16" y="490.6299">HARD:</text><ellipse cx="776.16" cy="505.7659" fill="none" rx="3" ry="3" style="stroke:#038048;stroke-width:1;"/><text fill="#000000" font-family="sans-serif" font-size="14" lengthAdjust="spacing" textLength="62.1318" x="785.16" y="509.6979">MEDIUM:</text><ellipse cx="776.16" cy="524.8338" fill="none" rx="3" ry="3" style="stroke:#038048;stroke-width:1;"/><text fill="#000000" font-family="sans-serif" font-size="14" lengthAdjust="spacing" textLength="36.0919" x="785.16" y="528.7658">EASY:</text><rect fill="none" height="6" style="stroke:#C82930;stroke-width:1;" width="6" x="773.16" y="540.9017"/><text fill="#000000" font-family="sans-serif" font-size="14" lengthAdjust="spacing" textLength="78.3717" x="785.16" y="547.8337">label: String</text><line style="stroke:#181818;stroke-width:0.5;" x1="766.16" x2="1025.8491" y1="555.9357" y2="555.9357"/><rect fill="#F24D5C" height="6" style="stroke:#C82930;stroke-width:1;" width="6" x="773.16" y="567.9696"/><text fill="#000000" font-family="sans-serif" font-size="14" lengthAdjust="spacing" textLength="109.8016" x="785.16" y="574.9016">Difficulty(String):</text><ellipse cx="776.16" cy="590.0376" fill="#84BE84" rx="3" ry="3" style="stroke:#038048;stroke-width:1;"/><text fill="#000000" font-family="sans-serif" font-size="14" lengthAdjust="spacing" textLength="125.0895" x="785.16" y="593.9695">values(): Difficulty[]</text><ellipse cx="776.16" cy="609.1055" fill="#84BE84" rx="3" ry="3" style="stroke:#038048;stroke-width:1;"/><text fill="#000000" font-family="sans-serif" font-size="14" lengthAdjust="spacing" textLength="108.1076" x="785.16" y="613.0374">toString(): String</text><ellipse cx="776.16" cy="628.1734" fill="#84BE84" rx="3" ry="3" style="stroke:#038048;stroke-width:1;"/><text fill="#000000" font-family="sans-serif" font-size="14" lengthAdjust="spacing" textLength="235.6891" x="785.16" y="632.1054">getMaxScoreDifficulty(Difficulty): int</text><ellipse cx="776.16" cy="647.2413" fill="#84BE84" rx="3" ry="3" style="stroke:#038048;stroke-width:1;"/><text fill="#000000" font-family="sans-serif" font-size="14" lengthAdjust="spacing" textLength="164.3173" x="785.16" y="651.1733">valueOf(String): Difficulty</text></g><!--class AppContext--><g class="entity" data-entity="AppContext" data-source-line="74" data-uid="ent0009" id="entity_AppContext"><rect fill="#F1F1F1" height="372.1546" rx="2.5" ry="2.5" style="stroke:#181818;stroke-width:0.5;" width="338.0168" x="1061.99" y="356.692"/><ellipse cx="1187.9756" cy="372.692" fill="#ADD1B2" rx="11" ry="11" style="stroke:#181818;stroke-width:1;"/><path d="M1187.4443,379.6139 Q1185.6943,379.6139 1184.5537,378.8795 Q1183.4287,378.1295 1182.8662,376.7857 Q1182.3193,375.4264 1182.3193,373.6295 Q1182.3193,371.5982 1182.9756,370.1451 Q1183.6318,368.692 1184.9131,367.9107 Q1186.1943,367.1295 1188.0693,367.1295 Q1188.9599,367.1295 1189.6318,367.317 Q1190.3037,367.4889 1190.9912,367.8326 L1190.1787,369.8482 Q1189.5537,369.5357 1189.0068,369.4107 Q1188.4756,369.2857 1187.9912,369.2857 Q1186.8193,369.2857 1186.1162,369.817 Q1185.4131,370.3482 1185.1162,371.3014 Q1184.8193,372.2545 1184.8193,373.5201 Q1184.8193,375.5357 1185.5381,376.5045 Q1186.2568,377.4576 1187.8506,377.4576 Q1188.4443,377.4576 1189.0693,377.3014 Q1189.6943,377.1451 1190.5224,376.7701 L1190.5224,378.9889 Q1189.7881,379.3014 1188.9912,379.4576 Q1188.2099,379.6139 1187.4443,379.6139 Z " fill="#000000"/><text fill="#000000" font-family="sans-serif" font-size="14" lengthAdjust="spacing" textLength="77.5457" x="1208.4756" y="378.124">AppContext</text><line style="stroke:#181818;stroke-width:0.5;" x1="1062.99" x2="1399.0068" y1="388.692" y2="388.692"/><rect fill="none" height="6" style="stroke:#C82930;stroke-width:1;" width="6" x="1069.99" y="400.7259"/><text fill="#000000" font-family="sans-serif" font-size="14" lengthAdjust="spacing" textLength="162.3154" x="1081.99" y="407.6579">authService: AuthService</text><ellipse cx="1072.99" cy="422.7939" fill="none" rx="3" ry="3" style="stroke:#038048;stroke-width:1;"/><text fill="#000000" font-family="sans-serif" font-size="14" lengthAdjust="spacing" textLength="233.4211" x="1081.99" y="426.7258">userPanelService: UserPanelService</text><rect fill="none" height="6" style="stroke:#C82930;stroke-width:1;" width="6" x="1069.99" y="438.8618"/><text fill="#000000" font-family="sans-serif" font-size="14" lengthAdjust="spacing" textLength="255.023" x="1081.99" y="445.7938">interruptedSession: GameSessionState</text><rect fill="none" height="6" style="stroke:#C82930;stroke-width:1;" width="6" x="1069.99" y="457.9297"/><text fill="#000000" font-family="sans-serif" font-size="14" lengthAdjust="spacing" textLength="117.1656" x="1081.99" y="464.8617">currentUser: User</text><rect fill="none" height="6" style="stroke:#C82930;stroke-width:1;" width="6" x="1069.99" y="476.9976"/><text fill="#000000" font-family="sans-serif" font-size="14" lengthAdjust="spacing" textLength="270.115" x="1081.99" y="483.9296">leaderboardService : LeaderboardService</text><rect fill="none" height="6" style="stroke:#C82930;stroke-width:1;" width="6" x="1069.99" y="496.0655"/><text fill="#000000" font-family="sans-serif" font-size="14" lengthAdjust="spacing" textLength="180.9213" x="1081.99" y="502.9975">gameService : GameService</text><rect fill="none" height="6" style="stroke:#C82930;stroke-width:1;" width="6" x="1069.99" y="515.1334"/><text fill="#000000" font-family="sans-serif" font-size="14" lengthAdjust="spacing" textLength="108.5976" x="1081.99" y="522.0654">repo: Repository</text><ellipse cx="1072.99" cy="537.2014" fill="none" rx="3" ry="3" style="stroke:#038048;stroke-width:1;"/><text fill="#000000" font-family="sans-serif" font-size="14" lengthAdjust="spacing" textLength="133.0835" x="1081.99" y="541.1333">getRepo: Repository</text><line style="stroke:#181818;stroke-width:0.5;" x1="1062.99" x2="1399.0068" y1="549.2353" y2="549.2353"/><ellipse cx="1072.99" cy="564.2693" fill="#84BE84" rx="3" ry="3" style="stroke:#038048;stroke-width:1;"/><text fill="#000000" font-family="sans-serif" font-size="14" lengthAdjust="spacing" textLength="160.1454" x="1081.99" y="568.2013">AppContext(Repository):</text><ellipse cx="1072.99" cy="583.3372" fill="#84BE84" rx="3" ry="3" style="stroke:#038048;stroke-width:1;"/><text fill="#000000" font-family="sans-serif" font-size="14" lengthAdjust="spacing" textLength="208.8232" x="1081.99" y="587.2692">getGameService(): GameService</text><ellipse cx="1072.99" cy="602.4051" fill="#84BE84" rx="3" ry="3" style="stroke:#038048;stroke-width:1;"/><text fill="#000000" font-family="sans-serif" font-size="14" lengthAdjust="spacing" textLength="264.963" x="1081.99" y="606.3371">getUserPanelService(): UserPanelService</text><ellipse cx="1072.99" cy="621.473" fill="#84BE84" rx="3" ry="3" style="stroke:#038048;stroke-width:1;"/><text fill="#000000" font-family="sans-serif" font-size="14" lengthAdjust="spacing" textLength="175.1533" x="1081.99" y="625.405">setCurrentUser(User): void</text><ellipse cx="1072.99" cy="640.5409" fill="#84BE84" rx="3" ry="3" style="stroke:#038048;stroke-width:1;"/><text fill="#000000" font-family="sans-serif" font-size="14" lengthAdjust="spacing" textLength="312.0168" x="1081.99" y="644.4729">setInterruptedSession(GameSessionState): void</text><ellipse cx="1072.99" cy="659.6089" fill="#84BE84" rx="3" ry="3" style="stroke:#038048;stroke-width:1;"/><text fill="#000000" font-family="sans-serif" font-size="14" lengthAdjust="spacing" textLength="286.1169" x="1081.99" y="663.5408">getInterruptedSession(): GameSessionState</text><ellipse cx="1072.99" cy="678.6768" fill="#84BE84" rx="3" ry="3" style="stroke:#038048;stroke-width:1;"/><text fill="#000000" font-family="sans-serif" font-size="14" lengthAdjust="spacing" textLength="149.2534" x="1081.99" y="682.6088">getCurrentUser(): User</text><ellipse cx="1072.99" cy="697.7447" fill="#84BE84" rx="3" ry="3" style="stroke:#038048;stroke-width:1;"/><text fill="#000000" font-family="sans-serif" font-size="14" lengthAdjust="spacing" textLength="300.1588" x="1081.99" y="701.6767">getLeaderboardService(): LeaderboardService</text><ellipse cx="1072.99" cy="716.8126" fill="#84BE84" rx="3" ry="3" style="stroke:#038048;stroke-width:1;"/><text fill="#000000" font-family="sans-serif" font-size="14" lengthAdjust="spacing" textLength="193.3672" x="1081.99" y="720.7446">getAuthService(): AuthService</text></g><!--class Document--><g class="entity" data-entity="Document" data-source-line="93" data-uid="ent0010" id="entity_Document"><rect fill="#F1F1F1" height="233.0233" rx="2.5" ry="2.5" style="stroke:#181818;stroke-width:0.5;" width="249.1171" x="1435.44" y="426.252"/><ellipse cx="1521.3717" cy="448.958" fill="#ADD1B2" rx="11" ry="11" style="stroke:#181818;stroke-width:1;"/><path d="M1517.7311,455.458 L1517.7311,443.3174 L1525.3873,443.3174 L1525.3873,445.4424 L1520.1061,445.4424 L1520.1061,448.0986 L1525.1217,448.0986 L1525.1217,450.2236 L1520.1061,450.2236 L1520.1061,453.333 L1525.3873,453.333 L1525.3873,455.458 L1517.7311,455.458 Z " fill="#000000"/><text fill="#000000" font-family="sans-serif" font-size="12" font-style="italic" lengthAdjust="spacing" textLength="46.1283" x="1553.1844" y="444.0801">&#171;record&#187;</text><text fill="#000000" font-family="sans-serif" font-size="14" lengthAdjust="spacing" textLength="68.7537" x="1541.8717" y="462.562">Document</text><line style="stroke:#181818;stroke-width:0.5;" x1="1436.44" x2="1683.5571" y1="471.664" y2="471.664"/><rect fill="none" height="6" style="stroke:#C82930;stroke-width:1;" width="6" x="1443.44" y="483.698"/><text fill="#000000" font-family="sans-serif" font-size="14" lengthAdjust="spacing" textLength="129.5695" x="1455.44" y="490.6299">wordCount: Integer</text><rect fill="none" height="6" style="stroke:#C82930;stroke-width:1;" width="6" x="1443.44" y="502.7659"/><text fill="#000000" font-family="sans-serif" font-size="14" lengthAdjust="spacing" textLength="104.2156" x="1455.44" y="509.6979">filename: String</text><rect fill="none" height="6" style="stroke:#C82930;stroke-width:1;" width="6" x="1443.44" y="521.8338"/><text fill="#000000" font-family="sans-serif" font-size="14" lengthAdjust="spacing" textLength="72.0157" x="1455.44" y="528.7658">title: String</text><line style="stroke:#181818;stroke-width:0.5;" x1="1436.44" x2="1683.5571" y1="536.8678" y2="536.8678"/><ellipse cx="1446.44" cy="551.9017" fill="#84BE84" rx="3" ry="3" style="stroke:#038048;stroke-width:1;"/><text fill="#000000" font-family="sans-serif" font-size="14" lengthAdjust="spacing" textLength="223.1171" x="1455.44" y="555.8337">Document(String, String, Integer):</text><ellipse cx="1446.44" cy="570.9696" fill="#84BE84" rx="3" ry="3" style="stroke:#038048;stroke-width:1;"/><text fill="#000000" font-family="sans-serif" font-size="14" lengthAdjust="spacing" textLength="98.7976" x="1455.44" y="574.9016">hashCode(): int</text><ellipse cx="1446.44" cy="590.0376" fill="#84BE84" rx="3" ry="3" style="stroke:#038048;stroke-width:1;"/><text fill="#000000" font-family="sans-serif" font-size="14" lengthAdjust="spacing" textLength="80.4157" x="1455.44" y="593.9695">title(): String</text><ellipse cx="1446.44" cy="609.1055" fill="#84BE84" rx="3" ry="3" style="stroke:#038048;stroke-width:1;"/><text fill="#000000" font-family="sans-serif" font-size="14" lengthAdjust="spacing" textLength="112.6156" x="1455.44" y="613.0374">filename(): String</text><ellipse cx="1446.44" cy="628.1734" fill="#84BE84" rx="3" ry="3" style="stroke:#038048;stroke-width:1;"/><text fill="#000000" font-family="sans-serif" font-size="14" lengthAdjust="spacing" textLength="155.5114" x="1455.44" y="632.1054">equals(Object): boolean</text><ellipse cx="1446.44" cy="647.2413" fill="#84BE84" rx="3" ry="3" style="stroke:#038048;stroke-width:1;"/><text fill="#000000" font-family="sans-serif" font-size="14" lengthAdjust="spacing" textLength="137.9695" x="1455.44" y="651.1733">wordCount(): Integer</text></g><!--class GameReport--><g class="entity" data-entity="GameReport" data-source-line="105" data-uid="ent0011" id="entity_GameReport"><rect fill="#F1F1F1" height="385.5666" rx="2.5" ry="2.5" style="stroke:#181818;stroke-width:0.5;" width="618.422" x="66.79" y="788.842"/><ellipse cx="329.9752" cy="811.548" fill="#ADD1B2" rx="11" ry="11" style="stroke:#181818;stroke-width:1;"/><path d="M326.3345,818.048 L326.3345,805.9074 L333.9908,805.9074 L333.9908,808.0324 L328.7095,808.0324 L328.7095,810.6886 L333.7252,810.6886 L333.7252,812.8136 L328.7095,812.8136 L328.7095,815.923 L333.9908,815.923 L333.9908,818.048 L326.3345,818.048 Z " fill="#000000"/><text fill="#000000" font-family="sans-serif" font-size="12" font-style="italic" lengthAdjust="spacing" textLength="46.1283" x="369.1868" y="806.6701">&#171;record&#187;</text><text fill="#000000" font-family="sans-serif" font-size="14" lengthAdjust="spacing" textLength="83.5517" x="350.4752" y="825.152">GameReport</text><line style="stroke:#181818;stroke-width:0.5;" x1="67.79" x2="684.212" y1="834.254" y2="834.254"/><rect fill="none" height="6" style="stroke:#C82930;stroke-width:1;" width="6" x="74.79" y="846.288"/><text fill="#000000" font-family="sans-serif" font-size="14" lengthAdjust="spacing" textLength="129.9335" x="86.79" y="853.2199">usedTime: Duration</text><rect fill="none" height="6" style="stroke:#C82930;stroke-width:1;" width="6" x="74.79" y="865.3559"/><text fill="#000000" font-family="sans-serif" font-size="14" lengthAdjust="spacing" textLength="175.7553" x="86.79" y="872.2879">timestamp: LocalDateTime</text><rect fill="none" height="6" style="stroke:#C82930;stroke-width:1;" width="6" x="74.79" y="884.4238"/><text fill="#000000" font-family="sans-serif" font-size="14" lengthAdjust="spacing" textLength="122.0375" x="86.79" y="891.3558">questionCount: int</text><rect fill="none" height="6" style="stroke:#C82930;stroke-width:1;" width="6" x="74.79" y="903.4917"/><text fill="#000000" font-family="sans-serif" font-size="14" lengthAdjust="spacing" textLength="126.4195" x="86.79" y="910.4237">maxTime: Duration</text><rect fill="none" height="6" style="stroke:#C82930;stroke-width:1;" width="6" x="74.79" y="922.5596"/><text fill="#000000" font-family="sans-serif" font-size="14" lengthAdjust="spacing" textLength="60.2838" x="86.79" y="929.4916">score: int</text><rect fill="none" height="6" style="stroke:#C82930;stroke-width:1;" width="6" x="74.79" y="941.6276"/><text fill="#000000" font-family="sans-serif" font-size="14" lengthAdjust="spacing" textLength="67.0457" x="86.79" y="948.5595">user: User</text><rect fill="none" height="6" style="stroke:#C82930;stroke-width:1;" width="6" x="74.79" y="960.6955"/><text fill="#000000" font-family="sans-serif" font-size="14" lengthAdjust="spacing" textLength="188.7193" x="86.79" y="967.6274">documents: List&lt;Document&gt;</text><rect fill="none" height="6" style="stroke:#C82930;stroke-width:1;" width="6" x="74.79" y="979.7634"/><text fill="#000000" font-family="sans-serif" font-size="14" lengthAdjust="spacing" textLength="122.2895" x="86.79" y="986.6954">difficulty: Difficulty</text><line style="stroke:#181818;stroke-width:0.5;" x1="67.79" x2="684.212" y1="994.7973" y2="994.7973"/><ellipse cx="77.79" cy="1009.8313" fill="#84BE84" rx="3" ry="3" style="stroke:#038048;stroke-width:1;"/><text fill="#000000" font-family="sans-serif" font-size="14" lengthAdjust="spacing" textLength="592.422" x="86.79" y="1013.7633">GameReport(User, List&lt;Document&gt;, LocalDateTime, Difficulty, Duration, Duration, int, int):</text><ellipse cx="77.79" cy="1028.8992" fill="#84BE84" rx="3" ry="3" style="stroke:#038048;stroke-width:1;"/><text fill="#000000" font-family="sans-serif" font-size="14" lengthAdjust="spacing" textLength="130.6895" x="86.79" y="1032.8312">difficulty(): Difficulty</text><ellipse cx="77.79" cy="1047.9671" fill="#84BE84" rx="3" ry="3" style="stroke:#038048;stroke-width:1;"/><text fill="#000000" font-family="sans-serif" font-size="14" lengthAdjust="spacing" textLength="68.6837" x="86.79" y="1051.8991">score(): int</text><ellipse cx="77.79" cy="1067.0351" fill="#84BE84" rx="3" ry="3" style="stroke:#038048;stroke-width:1;"/><text fill="#000000" font-family="sans-serif" font-size="14" lengthAdjust="spacing" textLength="130.4375" x="86.79" y="1070.967">questionCount(): int</text><ellipse cx="77.79" cy="1086.103" fill="#84BE84" rx="3" ry="3" style="stroke:#038048;stroke-width:1;"/><text fill="#000000" font-family="sans-serif" font-size="14" lengthAdjust="spacing" textLength="184.1553" x="86.79" y="1090.035">timestamp(): LocalDateTime</text><ellipse cx="77.79" cy="1105.1709" fill="#84BE84" rx="3" ry="3" style="stroke:#038048;stroke-width:1;"/><text fill="#000000" font-family="sans-serif" font-size="14" lengthAdjust="spacing" textLength="138.3335" x="86.79" y="1109.1029">usedTime(): Duration</text><ellipse cx="77.79" cy="1124.2388" fill="#84BE84" rx="3" ry="3" style="stroke:#038048;stroke-width:1;"/><text fill="#000000" font-family="sans-serif" font-size="14" lengthAdjust="spacing" textLength="197.1192" x="86.79" y="1128.1708">documents(): List&lt;Document&gt;</text><ellipse cx="77.79" cy="1143.3067" fill="#84BE84" rx="3" ry="3" style="stroke:#038048;stroke-width:1;"/><text fill="#000000" font-family="sans-serif" font-size="14" lengthAdjust="spacing" textLength="134.8195" x="86.79" y="1147.2387">maxTime(): Duration</text><ellipse cx="77.79" cy="1162.3746" fill="#84BE84" rx="3" ry="3" style="stroke:#038048;stroke-width:1;"/><text fill="#000000" font-family="sans-serif" font-size="14" lengthAdjust="spacing" textLength="75.4457" x="86.79" y="1166.3066">user(): User</text></g><!--class WDM--><g class="entity" data-entity="WDM" data-source-line="124" data-uid="ent0012" id="entity_WDM"><rect fill="#F1F1F1" height="162.4075" rx="2.5" ry="2.5" style="stroke:#181818;stroke-width:0.5;" width="290.837" x="720.58" y="900.422"/><ellipse cx="843.7796" cy="916.422" fill="#ADD1B2" rx="11" ry="11" style="stroke:#181818;stroke-width:1;"/><path d="M843.2483,923.3439 Q841.4983,923.3439 840.3577,922.6095 Q839.2327,921.8595 838.6702,920.5157 Q838.1233,919.1564 838.1233,917.3595 Q838.1233,915.3282 838.7796,913.8751 Q839.4358,912.422 840.7171,911.6407 Q841.9983,910.8595 843.8733,910.8595 Q844.7639,910.8595 845.4358,911.047 Q846.1077,911.2189 846.7952,911.5626 L845.9827,913.5782 Q845.3577,913.2657 844.8108,913.1407 Q844.2796,913.0157 843.7952,913.0157 Q842.6233,913.0157 841.9202,913.547 Q841.2171,914.0782 840.9202,915.0314 Q840.6233,915.9845 840.6233,917.2501 Q840.6233,919.2657 841.3421,920.2345 Q842.0608,921.1876 843.6546,921.1876 Q844.2483,921.1876 844.8733,921.0314 Q845.4983,920.8751 846.3264,920.5001 L846.3264,922.7189 Q845.5921,923.0314 844.7952,923.1876 Q844.0139,923.3439 843.2483,923.3439 Z " fill="#000000"/><text fill="#000000" font-family="sans-serif" font-size="14" lengthAdjust="spacing" textLength="35.9379" x="864.2796" y="921.854">WDM</text><line style="stroke:#181818;stroke-width:0.5;" x1="721.58" x2="1010.417" y1="932.422" y2="932.422"/><rect fill="none" height="6" style="stroke:#C82930;stroke-width:1;" width="6" x="728.58" y="944.4559"/><text fill="#000000" font-family="sans-serif" font-size="14" lengthAdjust="spacing" textLength="188.5653" x="740.58" y="951.3879">words: Map&lt;String, Integer&gt;</text><rect fill="none" height="6" style="stroke:#C82930;stroke-width:1;" width="6" x="728.58" y="963.5239"/><text fill="#000000" font-family="sans-serif" font-size="14" lengthAdjust="spacing" textLength="143.2894" x="740.58" y="970.4558">document: Document</text><line style="stroke:#181818;stroke-width:0.5;" x1="721.58" x2="1010.417" y1="978.5578" y2="978.5578"/><ellipse cx="731.58" cy="993.5918" fill="#84BE84" rx="3" ry="3" style="stroke:#038048;stroke-width:1;"/><text fill="#000000" font-family="sans-serif" font-size="14" lengthAdjust="spacing" textLength="170.9253" x="740.58" y="997.5238">WDM(String, Set&lt;String&gt;):</text><ellipse cx="731.58" cy="1012.6597" fill="#84BE84" rx="3" ry="3" style="stroke:#038048;stroke-width:1;"/><text fill="#000000" font-family="sans-serif" font-size="14" lengthAdjust="spacing" textLength="264.837" x="740.58" y="1016.5917">WDM(Document, Map&lt;String, Integer&gt;):</text><ellipse cx="731.58" cy="1031.7276" fill="#84BE84" rx="3" ry="3" style="stroke:#038048;stroke-width:1;"/><text fill="#000000" font-family="sans-serif" font-size="14" lengthAdjust="spacing" textLength="220.5412" x="740.58" y="1035.6596">getWords(): Map&lt;String, Integer&gt;</text><ellipse cx="731.58" cy="1050.7955" fill="#84BE84" rx="3" ry="3" style="stroke:#038048;stroke-width:1;"/><text fill="#000000" font-family="sans-serif" font-size="14" lengthAdjust="spacing" textLength="174.8593" x="740.58" y="1054.7275">getDocument(): Document</text></g><!--class User--><g class="entity" data-entity="User" data-source-line="133" data-uid="ent0013" id="entity_User"><rect fill="#F1F1F1" height="276.815" rx="2.5" ry="2.5" style="stroke:#181818;stroke-width:0.5;" width="215.9093" x="1046.05" y="843.222"/><ellipse cx="1134.4457" cy="859.222" fill="#ADD1B2" rx="11" ry="11" style="stroke:#181818;stroke-width:1;"/><path d="M1133.9144,866.1439 Q1132.1644,866.1439 1131.0238,865.4095 Q1129.8988,864.6595 1129.3363,863.3157 Q1128.7894,861.9564 1128.7894,860.1595 Q1128.7894,858.1282 1129.4457,856.6751 Q1130.1019,855.222 1131.3832,854.4407 Q1132.6644,853.6595 1134.5394,853.6595 Q1135.4301,853.6595 1136.1019,853.847 Q1136.7738,854.0189 1137.4613,854.3626 L1136.6488,856.3782 Q1136.0238,856.0657 1135.4769,855.9407 Q1134.9457,855.8157 1134.4613,855.8157 Q1133.2894,855.8157 1132.5863,856.347 Q1131.8832,856.8782 1131.5863,857.8314 Q1131.2894,858.7845 1131.2894,860.0501 Q1131.2894,862.0657 1132.0082,863.0345 Q1132.7269,863.9876 1134.3207,863.9876 Q1134.9144,863.9876 1135.5394,863.8314 Q1136.1644,863.6751 1136.9926,863.3001 L1136.9926,865.5189 Q1136.2582,865.8314 1135.4613,865.9876 Q1134.6801,866.1439 1133.9144,866.1439 Z " fill="#000000"/><text fill="#000000" font-family="sans-serif" font-size="14" lengthAdjust="spacing" textLength="30.6179" x="1154.9457" y="864.654">User</text><line style="stroke:#181818;stroke-width:0.5;" x1="1047.05" x2="1260.9593" y1="875.222" y2="875.222"/><rect fill="none" height="6" style="stroke:#C82930;stroke-width:1;" width="6" x="1054.05" y="887.2559"/><text fill="#000000" font-family="sans-serif" font-size="14" lengthAdjust="spacing" textLength="114.1836" x="1066.05" y="894.1879">isAdmin: boolean</text><rect fill="none" height="6" style="stroke:#C82930;stroke-width:1;" width="6" x="1054.05" y="906.3239"/><text fill="#000000" font-family="sans-serif" font-size="14" lengthAdjust="spacing" textLength="110.5296" x="1066.05" y="913.2558">password: String</text><rect fill="none" height="6" style="stroke:#C82930;stroke-width:1;" width="6" x="1054.05" y="925.3918"/><text fill="#000000" font-family="sans-serif" font-size="14" lengthAdjust="spacing" textLength="84.2797" x="1066.05" y="932.3238">name: String</text><line style="stroke:#181818;stroke-width:0.5;" x1="1047.05" x2="1260.9593" y1="940.4257" y2="940.4257"/><ellipse cx="1057.05" cy="955.4597" fill="#84BE84" rx="3" ry="3" style="stroke:#038048;stroke-width:1;"/><text fill="#000000" font-family="sans-serif" font-size="14" lengthAdjust="spacing" textLength="189.9093" x="1066.05" y="959.3917">User(String, String, boolean):</text><ellipse cx="1057.05" cy="974.5276" fill="#84BE84" rx="3" ry="3" style="stroke:#038048;stroke-width:1;"/><text fill="#000000" font-family="sans-serif" font-size="14" lengthAdjust="spacing" textLength="116.2276" x="1066.05" y="978.4596">getName(): String</text><ellipse cx="1057.05" cy="993.5955" fill="#84BE84" rx="3" ry="3" style="stroke:#038048;stroke-width:1;"/><text fill="#000000" font-family="sans-serif" font-size="14" lengthAdjust="spacing" textLength="159.7254" x="1066.05" y="997.5275">setAdmin(boolean): void</text><ellipse cx="1057.05" cy="1012.6634" fill="#84BE84" rx="3" ry="3" style="stroke:#038048;stroke-width:1;"/><text fill="#000000" font-family="sans-serif" font-size="14" lengthAdjust="spacing" textLength="142.1275" x="1066.05" y="1016.5954">setName(String): void</text><ellipse cx="1057.05" cy="1031.7314" fill="#84BE84" rx="3" ry="3" style="stroke:#038048;stroke-width:1;"/><text fill="#000000" font-family="sans-serif" font-size="14" lengthAdjust="spacing" textLength="122.5835" x="1066.05" y="1035.6633">isAdmin(): boolean</text><ellipse cx="1057.05" cy="1050.7993" fill="#84BE84" rx="3" ry="3" style="stroke:#038048;stroke-width:1;"/><text fill="#000000" font-family="sans-serif" font-size="14" lengthAdjust="spacing" textLength="155.5114" x="1066.05" y="1054.7313">equals(Object): boolean</text><ellipse cx="1057.05" cy="1069.8672" fill="#84BE84" rx="3" ry="3" style="stroke:#038048;stroke-width:1;"/><text fill="#000000" font-family="sans-serif" font-size="14" lengthAdjust="spacing" textLength="98.7976" x="1066.05" y="1073.7992">hashCode(): int</text><ellipse cx="1057.05" cy="1088.9351" fill="#84BE84" rx="3" ry="3" style="stroke:#038048;stroke-width:1;"/><text fill="#000000" font-family="sans-serif" font-size="14" lengthAdjust="spacing" textLength="140.3495" x="1066.05" y="1092.8671">getPassword(): String</text><ellipse cx="1057.05" cy="1108.003" fill="#84BE84" rx="3" ry="3" style="stroke:#038048;stroke-width:1;"/><text fill="#000000" font-family="sans-serif" font-size="14" lengthAdjust="spacing" textLength="166.2494" x="1066.05" y="1111.935">setPassword(String): void</text></g><!--SRC=[fLVRRkCs47tFL-XHXfmV4083hkrk3CHnreuRB8fYmLXZHwrkIrAveCY_TqZn9fBEI_qYQoxapE6SuQWZnt_86PAwBQ1YoRzN2VwE5M4i-KPgU22Kr5fyxOZIPNawbSU-uX-JN6afQOgspfETV2fXqHxx6XhEykIkPFncgTvdMc_MoHExfbBoiWQAyfuINhQDalxgWOdNHTitF4_AXYl56Hf0ItWKRkcfQWcV1DxQI0V2Z64qFct-tTtKkEYzFntSR1Rhfe1t1Lxco_KQQfyZwV94YfJWbLGzkA8CO-4BqgMJG7eFxpmYta5DogPipXTSTb0XCgymLW-v80Gb_qXqsidDJKBXsD8YcSrCIbgRxZd5RQO3XCFBR2hGCVbnt2zF1fKIaOQz0TM5eRmq72t5xVXScaYyBDXPH9jEN3rNU3ZReHC5FCUlGZNvA0yLO3g9XAXHwclZzVZHWS19266eEGlMzSXiTFXPydIxNjp-t6ntAmtN6vJd5pu-jS7gRhNVZ_sMsyLXixf_74ldl-qT6RvjxmwFgv-_xrRV3wlxnG-jaNMsFIbS7114dAwDnC5L_lcNKsgIypArs1AVNb_P0sEettCy4GCGBhF7auK7eARiN7fhthD4dOUscda6k2pbeWa8m_P8ggLg2hguUYoVXcltWQRkJfWAvaDs9UjQniKo6zAPxQR9kk5m1ghtPK1BKls1fOBQmtg9zbLhohn7DKeE-D29siwQEprLeUdZamhFgPVnT1oH3aWMydISj9BPVIQQ414OnZmoYAUJEEPPmhmJavPs1PkgM3d8LM0Z50QSB3n4IR_W53F_a8JP5wVayDKsuY_OQeqCCzI-j_FTKl_Vh9RhmqQ_hURx7vh05Nc6okj0baPsTKCYtWwsGTz2Mcp8ksI64vHx_pfu1spsxbINYFEkMxIDw9MceLjHkWE4jUGjjHSywVdB7kXhUSIBQMvVdCDy80rKnkRWITGw62vGsdSS2bNeUL3rOwgAXKOKge0KG9zRGWkrjYZGGEWGpffziszwSi5SSMun6Lla7LjTmEEaqSRFKXTqa3co1Mzmcv5aDXg_jcLX3TO1EgaFpjZd7FMPNC1q62ES8CRqasF39JH2W2Kvux1B3wTAXAbVDADPGuzUyLb3Qyq5hf-AvgPAtz1HZOPAfHIdie868V764Dox0ezpBuIzB70aziOAOHdmKoyRAE1NJogMRf__nba5bSzjYsMhXmiJfl1p0_sySa4HPoYEWbw0nUhTUy9CiS5TOFl1r4p6xZzvLxY36xAw4Ax182s6SyP9tSKlsOjJUatUe-l9cyGrx7tI_uzlYSnHffE8MkuUl_tCARcLe7A_T3bfr5B_0oIpMQJnRuvC8nJn3UvBjvy_BJUcBF2_9GgOqTLEdAZNsmwpX4UdsOXFB8_QUEUI6vBQ1l0alFNT7FMNPeRT4syHnOOXGv6sIL4sBxyPA8wPu4isB-go6PFlEkbmDP6Nrmg2xZ1yAiN8ZOrQhfoQ7RqsBhtCDUpeL4Xfq16-xXVnbeJXFQXSOY4QNHZ8vzNdVm00]--></g></svg>