<svg xmlns="http://www.w3.org/2000/svg" xmlns:xlink="http://www.w3.org/1999/xlink" contentStyleType="text/css" data-diagram-type="SEQUENCE" height="930px" preserveAspectRatio="none" style="width:657px;height:930px;background:#FFFFFF;" version="1.1" viewBox="0 0 657 930" width="657px" zoomAndPan="magnify"><defs/><g><g><title>Utente</title><rect fill="#FFFFFF" height="743.4143" style="stroke:#181818;stroke-width:1;" width="10" x="25.3929" y="94.0679"/></g><g><title>GameController</title><rect fill="#FFFFFF" height="680.0023" style="stroke:#181818;stroke-width:1;" width="10" x="120.3906" y="157.4799"/></g><g><title>GameController</title><rect fill="#3375E0" height="337.3541" style="stroke:#181818;stroke-width:1;" width="10" x="125.3906" y="225.892"/></g><g><title>GameController</title><rect fill="#3375E0" height="265.9421" style="stroke:#181818;stroke-width:1;" width="10" x="130.3906" y="265.598"/></g><g><title>GameController</title><rect fill="#3375E0" height="113.118" style="stroke:#181818;stroke-width:1;" width="10" x="135.3906" y="418.4221"/></g><g><title>GameController</title><rect fill="#3375E0" height="30" style="stroke:#181818;stroke-width:1;" width="10" x="125.3906" y="736.7762"/></g><g><title>GameService</title><rect fill="#FFFFFF" height="31.706" style="stroke:#181818;stroke-width:1;" width="10" x="328.6488" y="194.186"/></g><g><title>GameService</title><rect fill="#FFFFFF" height="76.412" style="stroke:#181818;stroke-width:1;" width="10" x="328.6488" y="302.304"/></g><g><title>GameService</title><rect fill="#3375E0" height="76.412" style="stroke:#181818;stroke-width:1;" width="10" x="328.6488" y="455.1281"/></g><g><title>GameService</title><rect fill="#FFFFFF" height="91.706" style="stroke:#181818;stroke-width:1;" width="10" x="328.6488" y="736.7762"/></g><g><title>Database</title><rect fill="#FFFFFF" height="30" style="stroke:#181818;stroke-width:1;" width="10" x="547.6519" y="798.4822"/></g><g><title>View</title><rect fill="#FFFFFF" height="719.7083" style="stroke:#181818;stroke-width:1;" width="10" x="614.1318" y="117.7739"/></g><rect fill="none" height="51.412" style="stroke:#000000;stroke-width:1.5;" width="595.8019" x="55.7858" y="578.2461"/><g><title>Utente</title><rect fill="#000000" fill-opacity="0.00000" height="762.4143" width="8" x="26.3929" y="84.0679"/><line style="stroke:#181818;stroke-width:0.5;stroke-dasharray:5.0,5.0;" x1="30" x2="30" y1="84.0679" y2="846.4822"/></g><g><title>GameController</title><rect fill="#000000" fill-opacity="0.00000" height="762.4143" width="8" x="121.3906" y="84.0679"/><line style="stroke:#181818;stroke-width:0.5;stroke-dasharray:5.0,5.0;" x1="124.7858" x2="124.7858" y1="84.0679" y2="846.4822"/></g><g><title>GameService</title><rect fill="#000000" fill-opacity="0.00000" height="762.4143" width="8" x="329.6488" y="84.0679"/><line style="stroke:#181818;stroke-width:0.5;stroke-dasharray:5.0,5.0;" x1="332.781" x2="332.781" y1="84.0679" y2="846.4822"/></g><g><title>Database</title><rect fill="#000000" fill-opacity="0.00000" height="762.4143" width="8" x="548.6519" y="84.0679"/><line style="stroke:#181818;stroke-width:0.5;stroke-dasharray:5.0,5.0;" x1="552.6281" x2="552.6281" y1="84.0679" y2="846.4822"/></g><g><title>View</title><rect fill="#000000" fill-opacity="0.00000" height="762.4143" width="8" x="615.1318" y="84.0679"/><line style="stroke:#181818;stroke-width:0.5;stroke-dasharray:5.0,5.0;" x1="618.6758" x2="618.6758" y1="84.0679" y2="846.4822"/></g><g class="participant participant-head" data-participant="Utente"><text fill="#000000" font-family="sans-serif" font-size="14" lengthAdjust="spacing" textLength="44.7858" x="5" y="79.9659">Utente</text><ellipse cx="30.3929" cy="13.5" fill="#E2E2F0" rx="8" ry="8" style="stroke:#181818;stroke-width:0.5;"/><path d="M30.3929,21.5 L30.3929,48.5 M17.3929,29.5 L43.3929,29.5 M30.3929,48.5 L17.3929,63.5 M30.3929,48.5 L43.3929,63.5" fill="none" style="stroke:#181818;stroke-width:0.5;"/></g><g class="participant participant-tail" data-participant="Utente"><text fill="#000000" font-family="sans-serif" font-size="14" lengthAdjust="spacing" textLength="44.7858" x="5" y="860.4482">Utente</text><ellipse cx="30.3929" cy="873.0501" fill="#E2E2F0" rx="8" ry="8" style="stroke:#181818;stroke-width:0.5;"/><path d="M30.3929,881.0501 L30.3929,908.0501 M17.3929,889.0501 L43.3929,889.0501 M30.3929,908.0501 L17.3929,923.0501 M30.3929,908.0501 L43.3929,923.0501" fill="none" style="stroke:#181818;stroke-width:0.5;"/></g><g class="participant participant-head" data-participant="GameController"><rect fill="#E2E2F0" height="33.0679" rx="2.5" ry="2.5" style="stroke:#181818;stroke-width:0.5;" width="119.2096" x="65.7858" y="50"/><text fill="#000000" font-family="sans-serif" font-size="14" lengthAdjust="spacing" textLength="105.2096" x="72.7858" y="71.9659">GameController</text></g><g class="participant participant-tail" data-participant="GameController"><rect fill="#E2E2F0" height="33.0679" rx="2.5" ry="2.5" style="stroke:#181818;stroke-width:0.5;" width="119.2096" x="65.7858" y="845.4822"/><text fill="#000000" font-family="sans-serif" font-size="14" lengthAdjust="spacing" textLength="105.2096" x="72.7858" y="867.4482">GameController</text></g><g class="participant participant-head" data-participant="GameService"><rect fill="#E2E2F0" height="33.0679" rx="2.5" ry="2.5" style="stroke:#181818;stroke-width:0.5;" width="99.7357" x="283.781" y="50"/><text fill="#000000" font-family="sans-serif" font-size="14" lengthAdjust="spacing" textLength="85.7357" x="290.781" y="71.9659">GameService</text></g><g class="participant participant-tail" data-participant="GameService"><rect fill="#E2E2F0" height="33.0679" rx="2.5" ry="2.5" style="stroke:#181818;stroke-width:0.5;" width="99.7357" x="283.781" y="845.4822"/><text fill="#000000" font-family="sans-serif" font-size="14" lengthAdjust="spacing" textLength="85.7357" x="290.781" y="867.4482">GameService</text></g><g class="participant participant-head" data-participant="DB"><text fill="#000000" font-family="sans-serif" font-size="14" lengthAdjust="spacing" textLength="62.0478" x="518.6281" y="79.9659">Database</text><path d="M534.6519,29 C534.6519,19 552.6519,19 552.6519,19 C552.6519,19 570.6519,19 570.6519,29 L570.6519,55 C570.6519,65 552.6519,65 552.6519,65 C552.6519,65 534.6519,65 534.6519,55 L534.6519,29" fill="#E2E2F0" style="stroke:#181818;stroke-width:1.5;"/><path d="M534.6519,29 C534.6519,39 552.6519,39 552.6519,39 C552.6519,39 570.6519,39 570.6519,29" fill="none" style="stroke:#181818;stroke-width:1.5;"/></g><g class="participant participant-tail" data-participant="DB"><text fill="#000000" font-family="sans-serif" font-size="14" lengthAdjust="spacing" textLength="62.0478" x="518.6281" y="860.4482">Database</text><path d="M534.6519,874.5501 C534.6519,864.5501 552.6519,864.5501 552.6519,864.5501 C552.6519,864.5501 570.6519,864.5501 570.6519,874.5501 L570.6519,900.5501 C570.6519,910.5501 552.6519,910.5501 552.6519,910.5501 C552.6519,910.5501 534.6519,910.5501 534.6519,900.5501 L534.6519,874.5501" fill="#E2E2F0" style="stroke:#181818;stroke-width:1.5;"/><path d="M534.6519,874.5501 C534.6519,884.5501 552.6519,884.5501 552.6519,884.5501 C552.6519,884.5501 570.6519,884.5501 570.6519,874.5501" fill="none" style="stroke:#181818;stroke-width:1.5;"/></g><g class="participant participant-head" data-participant="View"><rect fill="#E2E2F0" height="33.0679" rx="2.5" ry="2.5" style="stroke:#181818;stroke-width:0.5;" width="44.9119" x="596.6758" y="50"/><text fill="#000000" font-family="sans-serif" font-size="14" lengthAdjust="spacing" textLength="30.9119" x="603.6758" y="71.9659">View</text></g><g class="participant participant-tail" data-participant="View"><rect fill="#E2E2F0" height="33.0679" rx="2.5" ry="2.5" style="stroke:#181818;stroke-width:0.5;" width="44.9119" x="596.6758" y="845.4822"/><text fill="#000000" font-family="sans-serif" font-size="14" lengthAdjust="spacing" textLength="30.9119" x="603.6758" y="867.4482">View</text></g><g><title>Utente</title><rect fill="#FFFFFF" height="743.4143" style="stroke:#181818;stroke-width:1;" width="10" x="25.3929" y="94.0679"/></g><g><title>GameController</title><rect fill="#FFFFFF" height="680.0023" style="stroke:#181818;stroke-width:1;" width="10" x="120.3906" y="157.4799"/></g><g><title>GameController</title><rect fill="#3375E0" height="337.3541" style="stroke:#181818;stroke-width:1;" width="10" x="125.3906" y="225.892"/></g><g><title>GameController</title><rect fill="#3375E0" height="265.9421" style="stroke:#181818;stroke-width:1;" width="10" x="130.3906" y="265.598"/></g><g><title>GameController</title><rect fill="#3375E0" height="113.118" style="stroke:#181818;stroke-width:1;" width="10" x="135.3906" y="418.4221"/></g><g><title>GameController</title><rect fill="#3375E0" height="30" style="stroke:#181818;stroke-width:1;" width="10" x="125.3906" y="736.7762"/></g><g><title>GameService</title><rect fill="#FFFFFF" height="31.706" style="stroke:#181818;stroke-width:1;" width="10" x="328.6488" y="194.186"/></g><g><title>GameService</title><rect fill="#FFFFFF" height="76.412" style="stroke:#181818;stroke-width:1;" width="10" x="328.6488" y="302.304"/></g><g><title>GameService</title><rect fill="#3375E0" height="76.412" style="stroke:#181818;stroke-width:1;" width="10" x="328.6488" y="455.1281"/></g><g><title>GameService</title><rect fill="#FFFFFF" height="91.706" style="stroke:#181818;stroke-width:1;" width="10" x="328.6488" y="736.7762"/></g><g><title>Database</title><rect fill="#FFFFFF" height="30" style="stroke:#181818;stroke-width:1;" width="10" x="547.6519" y="798.4822"/></g><g><title>View</title><rect fill="#FFFFFF" height="719.7083" style="stroke:#181818;stroke-width:1;" width="10" x="614.1318" y="117.7739"/></g><g class="message" data-participant-1="Utente" data-participant-2="View"><polygon fill="#181818" points="602.1318,113.7739,612.1318,117.7739,602.1318,121.7739,606.1318,117.7739" style="stroke:#181818;stroke-width:1;"/><line style="stroke:#181818;stroke-width:1;" x1="35.3929" x2="608.1318" y1="117.7739" y2="117.7739"/><text fill="#000000" font-family="sans-serif" font-size="13" lengthAdjust="spacing" textLength="115.7781" x="42.3929" y="111.9649">Seleziona Difficolt&#225;</text></g><g class="message" data-participant-1="GameController" data-participant-2="GameController"><line style="stroke:#181818;stroke-width:1;" x1="125.3906" x2="172.3906" y1="144.4799" y2="144.4799"/><line style="stroke:#181818;stroke-width:1;" x1="172.3906" x2="172.3906" y1="144.4799" y2="157.4799"/><line style="stroke:#181818;stroke-width:1;" x1="131.3906" x2="172.3906" y1="157.4799" y2="157.4799"/><polygon fill="#181818" points="141.3906,153.4799,131.3906,157.4799,141.3906,161.4799,137.3906,157.4799" style="stroke:#181818;stroke-width:1;"/><text fill="#000000" font-family="sans-serif" font-size="13" lengthAdjust="spacing" textLength="129.2071" x="137.3906" y="138.6709">onDifficultySelected()</text></g><g class="message" data-participant-1="GameController" data-participant-2="GameService"><polygon fill="#181818" points="316.6488,190.186,326.6488,194.186,316.6488,198.186,320.6488,194.186" style="stroke:#181818;stroke-width:1;"/><line style="stroke:#181818;stroke-width:1;" x1="130.3906" x2="322.6488" y1="194.186" y2="194.186"/><text fill="#000000" font-family="sans-serif" font-size="13" lengthAdjust="spacing" textLength="79.8331" x="137.3906" y="188.377">init(difficulty)</text></g><g class="message" data-participant-1="GameController" data-participant-2="View"><polygon fill="#181818" points="602.1318,221.892,612.1318,225.892,602.1318,229.892,606.1318,225.892" style="stroke:#181818;stroke-width:1;"/><line style="stroke:#181818;stroke-width:1;" x1="135.3906" x2="608.1318" y1="225.892" y2="225.892"/><text fill="#000000" font-family="sans-serif" font-size="13" lengthAdjust="spacing" textLength="142.7271" x="142.3906" y="220.083">loadPane(readingPane)</text></g><g class="message" data-participant-1="GameController" data-participant-2="GameController"><line style="stroke:#181818;stroke-width:1;" x1="135.3906" x2="182.3906" y1="252.598" y2="252.598"/><line style="stroke:#181818;stroke-width:1;" x1="182.3906" x2="182.3906" y1="252.598" y2="265.598"/><line style="stroke:#181818;stroke-width:1;" x1="141.3906" x2="182.3906" y1="265.598" y2="265.598"/><polygon fill="#181818" points="151.3906,261.598,141.3906,265.598,151.3906,269.598,147.3906,265.598" style="stroke:#181818;stroke-width:1;"/><text fill="#000000" font-family="sans-serif" font-size="13" lengthAdjust="spacing" textLength="148.0961" x="147.3906" y="246.789">readingSetupServiceFX()</text></g><g class="message" data-participant-1="GameController" data-participant-2="GameService"><polygon fill="#181818" points="316.6488,298.304,326.6488,302.304,316.6488,306.304,320.6488,302.304" style="stroke:#181818;stroke-width:1;"/><line style="stroke:#181818;stroke-width:1;" x1="140.3906" x2="322.6488" y1="302.304" y2="302.304"/><text fill="#000000" font-family="sans-serif" font-size="13" lengthAdjust="spacing" textLength="128.9211" x="147.3906" y="296.495">setupReadingPhase()</text></g><g class="message" data-participant-1="GameService" data-participant-2="GameService"><line style="stroke:#181818;stroke-width:1;" x1="338.6488" x2="380.6488" y1="334.01" y2="334.01"/><line style="stroke:#181818;stroke-width:1;" x1="380.6488" x2="380.6488" y1="334.01" y2="347.01"/><line style="stroke:#181818;stroke-width:1;" x1="339.6488" x2="380.6488" y1="347.01" y2="347.01"/><polygon fill="#181818" points="349.6488,343.01,339.6488,347.01,349.6488,351.01,345.6488,347.01" style="stroke:#181818;stroke-width:1;"/><text fill="#000000" font-family="sans-serif" font-size="13" lengthAdjust="spacing" textLength="185.0032" x="345.6488" y="328.201">preparazione documenti scelti</text></g><g class="message" data-participant-1="GameService" data-participant-2="GameController"><polygon fill="#181818" points="151.3906,374.716,141.3906,378.716,151.3906,382.716,147.3906,378.716" style="stroke:#181818;stroke-width:1;"/><line style="stroke:#181818;stroke-width:1;stroke-dasharray:2.0,2.0;" x1="145.3906" x2="332.6488" y1="378.716" y2="378.716"/><text fill="#000000" font-family="sans-serif" font-size="13" lengthAdjust="spacing" textLength="145.8602" x="157.3906" y="372.907">Map&lt;Document,String&gt;</text></g><g class="message" data-participant-1="GameController" data-participant-2="GameController"><line style="stroke:#181818;stroke-width:1;" x1="140.3906" x2="187.3906" y1="405.4221" y2="405.4221"/><line style="stroke:#181818;stroke-width:1;" x1="187.3906" x2="187.3906" y1="405.4221" y2="418.4221"/><line style="stroke:#181818;stroke-width:1;" x1="146.3906" x2="187.3906" y1="418.4221" y2="418.4221"/><polygon fill="#181818" points="156.3906,414.4221,146.3906,418.4221,156.3906,422.4221,152.3906,418.4221" style="stroke:#181818;stroke-width:1;"/><text fill="#000000" font-family="sans-serif" font-size="13" lengthAdjust="spacing" textLength="154.2582" x="152.3906" y="399.6131">questionSetupServiceFX()</text></g><g class="message" data-participant-1="GameController" data-participant-2="GameService"><polygon fill="#181818" points="316.6488,451.1281,326.6488,455.1281,316.6488,459.1281,320.6488,455.1281" style="stroke:#181818;stroke-width:1;"/><line style="stroke:#181818;stroke-width:1;" x1="145.3906" x2="322.6488" y1="455.1281" y2="455.1281"/><text fill="#000000" font-family="sans-serif" font-size="13" lengthAdjust="spacing" textLength="89.7391" x="152.3906" y="449.3191">getQuestions()</text></g><g class="message" data-participant-1="GameService" data-participant-2="GameService"><line style="stroke:#181818;stroke-width:1;" x1="338.6488" x2="380.6488" y1="486.8341" y2="486.8341"/><line style="stroke:#181818;stroke-width:1;" x1="380.6488" x2="380.6488" y1="486.8341" y2="499.8341"/><line style="stroke:#181818;stroke-width:1;" x1="339.6488" x2="380.6488" y1="499.8341" y2="499.8341"/><polygon fill="#181818" points="349.6488,495.8341,339.6488,499.8341,349.6488,503.8341,345.6488,499.8341" style="stroke:#181818;stroke-width:1;"/><text fill="#000000" font-family="sans-serif" font-size="13" lengthAdjust="spacing" textLength="138.0991" x="345.6488" y="481.0251">generazione domande</text></g><g class="message" data-participant-1="GameService" data-participant-2="GameController"><polygon fill="#181818" points="146.3906,527.5401,136.3906,531.5401,146.3906,535.5401,142.3906,531.5401" style="stroke:#181818;stroke-width:1;"/><line style="stroke:#181818;stroke-width:1;stroke-dasharray:2.0,2.0;" x1="140.3906" x2="332.6488" y1="531.5401" y2="531.5401"/><text fill="#000000" font-family="sans-serif" font-size="13" lengthAdjust="spacing" textLength="86.9701" x="152.3906" y="525.7311">lista domande</text></g><g class="message" data-participant-1="GameController" data-participant-2="View"><polygon fill="#181818" points="602.1318,559.2461,612.1318,563.2461,602.1318,567.2461,606.1318,563.2461" style="stroke:#181818;stroke-width:1;"/><line style="stroke:#181818;stroke-width:1;" x1="130.3906" x2="608.1318" y1="563.2461" y2="563.2461"/><text fill="#000000" font-family="sans-serif" font-size="13" lengthAdjust="spacing" textLength="148.8891" x="137.3906" y="557.4371">loadPane(questionPane)</text></g><path d="M55.7858,578.2461 L129.1258,578.2461 L129.1258,587.9521 L119.1258,597.9521 L55.7858,597.9521 L55.7858,578.2461" fill="#EEEEEE" style="stroke:#000000;stroke-width:1.5;"/><rect fill="none" height="51.412" style="stroke:#000000;stroke-width:1.5;" width="595.8019" x="55.7858" y="578.2461"/><text fill="#000000" font-family="sans-serif" font-size="13" font-weight="bold" lengthAdjust="spacing" textLength="28.34" x="70.7858" y="593.1431">loop</text><text fill="#000000" font-family="sans-serif" font-size="11" font-weight="bold" lengthAdjust="spacing" textLength="103.3113" x="144.1258" y="592.005">[for each question]</text><g class="message" data-participant-1="GameController" data-participant-2="View"><polygon fill="#181818" points="602.1318,617.6582,612.1318,621.6582,602.1318,625.6582,606.1318,621.6582" style="stroke:#181818;stroke-width:1;"/><line style="stroke:#181818;stroke-width:1;" x1="130.3906" x2="608.1318" y1="621.6582" y2="621.6582"/><text fill="#000000" font-family="sans-serif" font-size="13" lengthAdjust="spacing" textLength="95.8361" x="137.3906" y="615.8492">showQuestion()</text></g><g class="message" data-participant-1="GameController" data-participant-2="View"><polygon fill="#181818" points="602.1318,656.3642,612.1318,660.3642,602.1318,664.3642,606.1318,660.3642" style="stroke:#181818;stroke-width:1;"/><line style="stroke:#181818;stroke-width:1;" x1="130.3906" x2="608.1318" y1="660.3642" y2="660.3642"/><text fill="#000000" font-family="sans-serif" font-size="13" lengthAdjust="spacing" textLength="133.9781" x="137.3906" y="654.5552">loadPane(reportPane)</text></g><g class="message" data-participant-1="GameController" data-participant-2="GameController"><line style="stroke:#181818;stroke-width:1;" x1="130.3906" x2="172.3906" y1="692.0702" y2="692.0702"/><line style="stroke:#181818;stroke-width:1;" x1="172.3906" x2="172.3906" y1="692.0702" y2="705.0702"/><line style="stroke:#181818;stroke-width:1;" x1="131.3906" x2="172.3906" y1="705.0702" y2="705.0702"/><polygon fill="#181818" points="141.3906,701.0702,131.3906,705.0702,141.3906,709.0702,137.3906,705.0702" style="stroke:#181818;stroke-width:1;"/><text fill="#000000" font-family="sans-serif" font-size="13" lengthAdjust="spacing" textLength="104.5201" x="137.3906" y="686.2612">generateReport()</text></g><g class="message" data-participant-1="GameController" data-participant-2="GameService"><polygon fill="#181818" points="316.6488,732.7762,326.6488,736.7762,316.6488,740.7762,320.6488,736.7762" style="stroke:#181818;stroke-width:1;"/><line style="stroke:#181818;stroke-width:1;" x1="135.3906" x2="322.6488" y1="736.7762" y2="736.7762"/><text fill="#000000" font-family="sans-serif" font-size="13" lengthAdjust="spacing" textLength="112.8401" x="142.3906" y="730.9672">saveGameReport()</text></g><g class="message" data-participant-1="GameService" data-participant-2="DB"><polygon fill="#181818" points="535.6519,794.4822,545.6519,798.4822,535.6519,802.4822,539.6519,798.4822" style="stroke:#181818;stroke-width:1;"/><line style="stroke:#181818;stroke-width:1;" x1="338.6488" x2="541.6519" y1="798.4822" y2="798.4822"/><text fill="#000000" font-family="sans-serif" font-size="13" lengthAdjust="spacing" textLength="42.8091" x="345.6488" y="792.6732">insert()</text></g><!--SRC=[hPJVIiCm5CRl-nG1RpfG48O8GtOngru9kg9uUqpEja2MrEHqGz_6P_75JBksM__PCUnDGvBlbtE-SnBWP2nx8TI4GGAM99S9Q68FiCPReyaQfT2sbcAq6yan443m3WvPL0x0iMXMs_ygSHi09xa1mlAiOFTd5zDydKrOZ0g_fD708hbOI6uK_NplTJcb7bKcRinCcD4xUQheCqDoGX6Ezfn6Ojt48ZsFarfIA2fY0rJQqAOKIIa3uWaqXXP1IBtCngD0O2Ub9qPsDXvVNzrT7fDzSKoCb2O5zlwjF_q1zDu6bm7dHGuhN-Vm3oTAMOkIMFID0LcLaGd3qxNl0SaSHqMoBkrAxX6IcwXGdSTaVIpJFY-FyEeZHKS-b7ytQudqNB1TZqyrLgzVIzIujsiDMk2mIqewWcfxmvw3pkynhbymtEIbevrTVa1InYHiuHyUlsDLrI5W_kiznAtCjdJLcufQ12SKgdqj4sDf5-zGovJr89pdgd0qV6rWWzbC9HYA-8II77HFDCjVB8Vri_nxF5piQ1Ry0W00]--></g></svg>