<svg xmlns="http://www.w3.org/2000/svg" xmlns:xlink="http://www.w3.org/1999/xlink" contentStyleType="text/css" data-diagram-type="SEQUENCE" height="523px" preserveAspectRatio="none" style="width:818px;height:523px;background:#FFFFFF;" version="1.1" viewBox="0 0 818 523" width="818px" zoomAndPan="magnify"><defs/><g><g><title>Amministratore</title><rect fill="#FFFFFF" height="53.706" style="stroke:#181818;stroke-width:1;" width="10" x="69.7998" y="94.0679"/></g><g><title>UserPanelController</title><rect fill="#FFFFFF" height="243.9421" style="stroke:#181818;stroke-width:1;" width="10" x="208.2394" y="187.4799"/></g><g><title>UserPanelService</title><rect fill="#FFFFFF" height="207.2361" style="stroke:#181818;stroke-width:1;" width="10" x="355.7819" y="224.186"/></g><g><title>Database</title><rect fill="#FFFFFF" height="31.706" style="stroke:#181818;stroke-width:1;" width="10" x="464.355" y="255.892"/></g><g><title>View</title><rect fill="#FFFFFF" height="313.6481" style="stroke:#181818;stroke-width:1;" width="10" x="530.8348" y="117.7739"/></g><g><title>View</title><rect fill="#3375E0" height="34.706" style="stroke:#181818;stroke-width:1;" width="10" x="535.8348" y="346.01"/></g><rect fill="none" height="89.118" style="stroke:#000000;stroke-width:1.5;" width="802.065" x="10" y="302.598"/><g><title>Amministratore</title><rect fill="#000000" fill-opacity="0.00000" height="356.3541" width="8" x="70.7998" y="84.0679"/><line style="stroke:#181818;stroke-width:0.5;stroke-dasharray:5.0,5.0;" x1="74" x2="74" y1="84.0679" y2="440.4221"/></g><g><title>UserPanelController</title><rect fill="#000000" fill-opacity="0.00000" height="356.3541" width="8" x="209.2394" y="84.0679"/><line style="stroke:#181818;stroke-width:0.5;stroke-dasharray:5.0,5.0;" x1="212.5996" x2="212.5996" y1="84.0679" y2="440.4221"/></g><g><title>UserPanelService</title><rect fill="#000000" fill-opacity="0.00000" height="356.3541" width="8" x="356.7819" y="84.0679"/><line style="stroke:#181818;stroke-width:0.5;stroke-dasharray:5.0,5.0;" x1="359.8791" x2="359.8791" y1="84.0679" y2="440.4221"/></g><g><title>Database</title><rect fill="#000000" fill-opacity="0.00000" height="356.3541" width="8" x="465.355" y="84.0679"/><line style="stroke:#181818;stroke-width:0.5;stroke-dasharray:5.0,5.0;" x1="469.3311" x2="469.3311" y1="84.0679" y2="440.4221"/></g><g><title>View</title><rect fill="#000000" fill-opacity="0.00000" height="356.3541" width="8" x="531.8348" y="84.0679"/><line style="stroke:#181818;stroke-width:0.5;stroke-dasharray:5.0,5.0;" x1="535.3789" x2="535.3789" y1="84.0679" y2="440.4221"/></g><g class="participant participant-head" data-participant="Amministratore"><text fill="#000000" font-family="sans-serif" font-size="14" lengthAdjust="spacing" textLength="103.5996" x="20" y="79.9659">Amministratore</text><ellipse cx="74.7998" cy="13.5" fill="#E2E2F0" rx="8" ry="8" style="stroke:#181818;stroke-width:0.5;"/><path d="M74.7998,21.5 L74.7998,48.5 M61.7998,29.5 L87.7998,29.5 M74.7998,48.5 L61.7998,63.5 M74.7998,48.5 L87.7998,63.5" fill="none" style="stroke:#181818;stroke-width:0.5;"/></g><g class="participant participant-tail" data-participant="Amministratore"><text fill="#000000" font-family="sans-serif" font-size="14" lengthAdjust="spacing" textLength="103.5996" x="20" y="454.388">Amministratore</text><ellipse cx="74.7998" cy="466.99" fill="#E2E2F0" rx="8" ry="8" style="stroke:#181818;stroke-width:0.5;"/><path d="M74.7998,474.99 L74.7998,501.99 M61.7998,482.99 L87.7998,482.99 M74.7998,501.99 L61.7998,516.99 M74.7998,501.99 L87.7998,516.99" fill="none" style="stroke:#181818;stroke-width:0.5;"/></g><g class="participant participant-head" data-participant="UserPanelController"><rect fill="#E2E2F0" height="33.0679" rx="2.5" ry="2.5" style="stroke:#181818;stroke-width:0.5;" width="147.2795" x="139.5996" y="50"/><text fill="#000000" font-family="sans-serif" font-size="14" lengthAdjust="spacing" textLength="133.2795" x="146.5996" y="71.9659">UserPanelController</text></g><g class="participant participant-tail" data-participant="UserPanelController"><rect fill="#E2E2F0" height="33.0679" rx="2.5" ry="2.5" style="stroke:#181818;stroke-width:0.5;" width="147.2795" x="139.5996" y="439.4221"/><text fill="#000000" font-family="sans-serif" font-size="14" lengthAdjust="spacing" textLength="133.2795" x="146.5996" y="461.388">UserPanelController</text></g><g class="participant participant-head" data-participant="UserPanelService"><rect fill="#E2E2F0" height="33.0679" rx="2.5" ry="2.5" style="stroke:#181818;stroke-width:0.5;" width="127.8056" x="296.8791" y="50"/><text fill="#000000" font-family="sans-serif" font-size="14" lengthAdjust="spacing" textLength="113.8056" x="303.8791" y="71.9659">UserPanelService</text></g><g class="participant participant-tail" data-participant="UserPanelService"><rect fill="#E2E2F0" height="33.0679" rx="2.5" ry="2.5" style="stroke:#181818;stroke-width:0.5;" width="127.8056" x="296.8791" y="439.4221"/><text fill="#000000" font-family="sans-serif" font-size="14" lengthAdjust="spacing" textLength="113.8056" x="303.8791" y="461.388">UserPanelService</text></g><g class="participant participant-head" data-participant="DB"><text fill="#000000" font-family="sans-serif" font-size="14" lengthAdjust="spacing" textLength="62.0478" x="435.3311" y="79.9659">Database</text><path d="M451.355,29 C451.355,19 469.355,19 469.355,19 C469.355,19 487.355,19 487.355,29 L487.355,55 C487.355,65 469.355,65 469.355,65 C469.355,65 451.355,65 451.355,55 L451.355,29" fill="#E2E2F0" style="stroke:#181818;stroke-width:1.5;"/><path d="M451.355,29 C451.355,39 469.355,39 469.355,39 C469.355,39 487.355,39 487.355,29" fill="none" style="stroke:#181818;stroke-width:1.5;"/></g><g class="participant participant-tail" data-participant="DB"><text fill="#000000" font-family="sans-serif" font-size="14" lengthAdjust="spacing" textLength="62.0478" x="435.3311" y="454.388">Database</text><path d="M451.355,468.49 C451.355,458.49 469.355,458.49 469.355,458.49 C469.355,458.49 487.355,458.49 487.355,468.49 L487.355,494.49 C487.355,504.49 469.355,504.49 469.355,504.49 C469.355,504.49 451.355,504.49 451.355,494.49 L451.355,468.49" fill="#E2E2F0" style="stroke:#181818;stroke-width:1.5;"/><path d="M451.355,468.49 C451.355,478.49 469.355,478.49 469.355,478.49 C469.355,478.49 487.355,478.49 487.355,468.49" fill="none" style="stroke:#181818;stroke-width:1.5;"/></g><g class="participant participant-head" data-participant="View"><rect fill="#E2E2F0" height="33.0679" rx="2.5" ry="2.5" style="stroke:#181818;stroke-width:0.5;" width="44.9119" x="513.3789" y="50"/><text fill="#000000" font-family="sans-serif" font-size="14" lengthAdjust="spacing" textLength="30.9119" x="520.3789" y="71.9659">View</text></g><g class="participant participant-tail" data-participant="View"><rect fill="#E2E2F0" height="33.0679" rx="2.5" ry="2.5" style="stroke:#181818;stroke-width:0.5;" width="44.9119" x="513.3789" y="439.4221"/><text fill="#000000" font-family="sans-serif" font-size="14" lengthAdjust="spacing" textLength="30.9119" x="520.3789" y="461.388">View</text></g><g><title>Amministratore</title><rect fill="#FFFFFF" height="53.706" style="stroke:#181818;stroke-width:1;" width="10" x="69.7998" y="94.0679"/></g><g><title>UserPanelController</title><rect fill="#FFFFFF" height="243.9421" style="stroke:#181818;stroke-width:1;" width="10" x="208.2394" y="187.4799"/></g><g><title>UserPanelService</title><rect fill="#FFFFFF" height="207.2361" style="stroke:#181818;stroke-width:1;" width="10" x="355.7819" y="224.186"/></g><g><title>Database</title><rect fill="#FFFFFF" height="31.706" style="stroke:#181818;stroke-width:1;" width="10" x="464.355" y="255.892"/></g><g><title>View</title><rect fill="#FFFFFF" height="313.6481" style="stroke:#181818;stroke-width:1;" width="10" x="530.8348" y="117.7739"/></g><g><title>View</title><rect fill="#3375E0" height="34.706" style="stroke:#181818;stroke-width:1;" width="10" x="535.8348" y="346.01"/></g><g class="message" data-participant-1="Amministratore" data-participant-2="View"><polygon fill="#181818" points="518.8348,113.7739,528.8348,117.7739,518.8348,121.7739,522.8348,117.7739" style="stroke:#181818;stroke-width:1;"/><line style="stroke:#181818;stroke-width:1;" x1="79.7998" x2="524.8348" y1="117.7739" y2="117.7739"/><text fill="#000000" font-family="sans-serif" font-size="13" lengthAdjust="spacing" textLength="183.7812" x="86.7998" y="111.9649">Clicca su 'Promuovi/Retrocedi'</text></g><g class="message" data-participant-1="UserPanelController" data-participant-2="UserPanelController"><line style="stroke:#181818;stroke-width:1;" x1="213.2394" x2="260.2394" y1="174.4799" y2="174.4799"/><line style="stroke:#181818;stroke-width:1;" x1="260.2394" x2="260.2394" y1="174.4799" y2="187.4799"/><line style="stroke:#181818;stroke-width:1;" x1="219.2394" x2="260.2394" y1="187.4799" y2="187.4799"/><polygon fill="#181818" points="229.2394,183.4799,219.2394,187.4799,229.2394,191.4799,225.2394,187.4799" style="stroke:#181818;stroke-width:1;"/><text fill="#000000" font-family="sans-serif" font-size="13" lengthAdjust="spacing" textLength="89.6871" x="225.2394" y="168.6709">handleAdmin()</text></g><g class="message" data-participant-1="UserPanelController" data-participant-2="UserPanelService"><polygon fill="#181818" points="343.7819,220.186,353.7819,224.186,343.7819,228.186,347.7819,224.186" style="stroke:#181818;stroke-width:1;"/><line style="stroke:#181818;stroke-width:1;" x1="218.2394" x2="349.7819" y1="224.186" y2="224.186"/><text fill="#000000" font-family="sans-serif" font-size="13" lengthAdjust="spacing" textLength="89.5051" x="225.2394" y="218.377">promoteUser()</text></g><g class="message" data-participant-1="UserPanelService" data-participant-2="DB"><polygon fill="#181818" points="452.355,251.892,462.355,255.892,452.355,259.892,456.355,255.892" style="stroke:#181818;stroke-width:1;"/><line style="stroke:#181818;stroke-width:1;" x1="365.7819" x2="458.355" y1="255.892" y2="255.892"/><text fill="#000000" font-family="sans-serif" font-size="13" lengthAdjust="spacing" textLength="58.0581" x="372.7819" y="250.083">selectBy()</text></g><g class="message" data-participant-1="DB" data-participant-2="UserPanelService"><polygon fill="#181818" points="376.7819,283.598,366.7819,287.598,376.7819,291.598,372.7819,287.598" style="stroke:#181818;stroke-width:1;"/><line style="stroke:#181818;stroke-width:1;stroke-dasharray:2.0,2.0;" x1="370.7819" x2="468.355" y1="287.598" y2="287.598"/><text fill="#000000" font-family="sans-serif" font-size="13" lengthAdjust="spacing" textLength="28.431" x="382.7819" y="281.789">User</text></g><path d="M10,302.598 L76.983,302.598 L76.983,312.304 L66.983,322.304 L10,322.304 L10,302.598" fill="#EEEEEE" style="stroke:#000000;stroke-width:1.5;"/><rect fill="none" height="89.118" style="stroke:#000000;stroke-width:1.5;" width="802.065" x="10" y="302.598"/><text fill="#000000" font-family="sans-serif" font-size="13" font-weight="bold" lengthAdjust="spacing" textLength="21.983" x="25" y="317.495">opt</text><text fill="#000000" font-family="sans-serif" font-size="11" font-weight="bold" lengthAdjust="spacing" textLength="97.6243" x="91.983" y="316.3569">[User Inesistente]</text><g class="message" data-participant-1="UserPanelController" data-participant-2="View"><polygon fill="#181818" points="523.8348,342.01,533.8348,346.01,523.8348,350.01,527.8348,346.01" style="stroke:#181818;stroke-width:1;"/><line style="stroke:#181818;stroke-width:1;" x1="218.2394" x2="529.8348" y1="346.01" y2="346.01"/><text fill="#000000" font-family="sans-serif" font-size="13" lengthAdjust="spacing" textLength="79.4951" x="225.2394" y="340.201">showDialog()</text></g><g class="message" data-participant-1="View" data-participant-2="Amministratore"><polygon fill="#181818" points="85.7998,376.716,75.7998,380.716,85.7998,384.716,81.7998,380.716" style="stroke:#181818;stroke-width:1;"/><line style="stroke:#181818;stroke-width:1;stroke-dasharray:2.0,2.0;" x1="79.7998" x2="529.8348" y1="380.716" y2="380.716"/><text fill="#000000" font-family="sans-serif" font-size="13" lengthAdjust="spacing" textLength="169.3382" x="91.7998" y="374.907">Dialog("Utente inesistente")</text></g><path d="M550,359.01 L550,386.01 L801,386.01 L801,369.01 L791,359.01 L550,359.01" fill="#FEFFDD" style="stroke:#181818;stroke-width:0.5;"/><path d="M791,359.01 L791,369.01 L801,369.01 L791,359.01" fill="#FEFFDD" style="stroke:#181818;stroke-width:0.5;"/><text fill="#000000" font-family="sans-serif" font-size="13" lengthAdjust="spacing" textLength="230.2302" x="556" y="377.907">Mostra messaggio di errore all'utente</text><g class="message" data-participant-1="UserPanelService" data-participant-2="DB"><polygon fill="#181818" points="457.355,418.4221,467.355,422.4221,457.355,426.4221,461.355,422.4221" style="stroke:#181818;stroke-width:1;"/><line style="stroke:#181818;stroke-width:1;" x1="365.7819" x2="463.355" y1="422.4221" y2="422.4221"/><text fill="#000000" font-family="sans-serif" font-size="13" lengthAdjust="spacing" textLength="79.5731" x="372.7819" y="416.6131">updateUser()</text></g><!--SRC=[XLB1QiCm3BtxAqHsw7Oe6vGno67GDZliC2WRtLspHIfmx60xBVlxoMcsj2LbEjcI_DxJar4d7s3PDEmufe1o8zLYIAovHPTW6obiq95TUvU2jvR2TFs3mfurAOC9lp0I5DLmAW0ZLAkpPvzC1wLG9zvZeai1vrUOF_Vz9QmjQuqGEvXjWcywl-VxTn9PcWpFHhWZkg5h-6fYgimoaIvXXyvOMXf1kBqREQQC-GzsyAY4LjJxHBamYVbhvcKYerKhA26I9PrMtwUlnMAfpIS8vK5EdJeYpRuzhWzU7KKnXrmY1H9NniYkPkgTFrICrjT2djlFR8URnUBfyUMXh_I9BEXYeIKC0CMsPmKU5HH7q1Ef_JPX22UsGU1wb_vIETvy1eU6OiIwPW-6WKB8P6Zjh1k7oq7Ez41A3jSzxbhvoxyx-W40]--></g></svg>