<svg xmlns="http://www.w3.org/2000/svg" xmlns:xlink="http://www.w3.org/1999/xlink" contentStyleType="text/css" data-diagram-type="SEQUENCE" height="766px" preserveAspectRatio="none" style="width:883px;height:766px;background:#FFFFFF;" version="1.1" viewBox="0 0 883 766" width="883px" zoomAndPan="magnify"><defs/><g><g><title>Amministratore</title><rect fill="#FFFFFF" height="579.9842" style="stroke:#181818;stroke-width:1;" width="10" x="69.7998" y="94.0679"/></g><g><title>UserPanelController</title><rect fill="#FFFFFF" height="507.5721" style="stroke:#181818;stroke-width:1;" width="10" x="208.2394" y="157.4799"/></g><g><title>UserPanelController</title><rect fill="#3375E0" height="234.9421" style="stroke:#181818;stroke-width:1;" width="10" x="213.2394" y="157.4799"/></g><g><title>UserPanelService</title><rect fill="#FFFFFF" height="479.8661" style="stroke:#181818;stroke-width:1;" width="10" x="355.7819" y="194.186"/></g><g><title>UserPanelService</title><rect fill="#3375E0" height="63.412" style="stroke:#181818;stroke-width:1;" width="10" x="360.7819" y="194.186"/></g><g><title>UserPanelService</title><rect fill="#3375E0" height="248.924" style="stroke:#181818;stroke-width:1;" width="10" x="360.7819" y="392.4221"/></g><g><title>Database/DAO</title><rect fill="#FFFFFF" height="31.706" style="stroke:#181818;stroke-width:1;" width="10" x="506.236" y="225.892"/></g><g><title>Database/DAO</title><rect fill="#FFFFFF" height="31.706" style="stroke:#181818;stroke-width:1;" width="10" x="506.236" y="424.1281"/></g><g><title>View</title><rect fill="#FFFFFF" height="579.9842" style="stroke:#181818;stroke-width:1;" width="10" x="590.3698" y="94.0679"/></g><rect fill="none" height="89.118" style="stroke:#000000;stroke-width:1.5;" width="867.208" x="10" y="272.598"/><rect fill="none" height="163.512" style="stroke:#000000;stroke-width:1.5;" width="286.0347" x="286.8791" y="470.8341"/><rect fill="#FFA500" height="80.3939" style="stroke:none;stroke-width:1;" width="286.0347" x="286.8791" y="553.9521"/><g><title>Amministratore</title><rect fill="#000000" fill-opacity="0.00000" height="598.9842" width="8" x="70.7998" y="84.0679"/><line style="stroke:#181818;stroke-width:0.5;stroke-dasharray:5.0,5.0;" x1="74" x2="74" y1="84.0679" y2="683.0521"/></g><g><title>UserPanelController</title><rect fill="#000000" fill-opacity="0.00000" height="598.9842" width="8" x="209.2394" y="84.0679"/><line style="stroke:#181818;stroke-width:0.5;stroke-dasharray:5.0,5.0;" x1="212.5996" x2="212.5996" y1="84.0679" y2="683.0521"/></g><g><title>UserPanelService</title><rect fill="#000000" fill-opacity="0.00000" height="598.9842" width="8" x="356.7819" y="84.0679"/><line style="stroke:#181818;stroke-width:0.5;stroke-dasharray:5.0,5.0;" x1="359.8791" x2="359.8791" y1="84.0679" y2="683.0521"/></g><g><title>Database/DAO</title><rect fill="#000000" fill-opacity="0.00000" height="598.9842" width="8" x="507.236" y="84.0679"/><line style="stroke:#181818;stroke-width:0.5;stroke-dasharray:5.0,5.0;" x1="510.5582" x2="510.5582" y1="84.0679" y2="683.0521"/></g><g><title>View</title><rect fill="#000000" fill-opacity="0.00000" height="598.9842" width="8" x="591.3698" y="84.0679"/><line style="stroke:#181818;stroke-width:0.5;stroke-dasharray:5.0,5.0;" x1="594.9138" x2="594.9138" y1="84.0679" y2="683.0521"/></g><g class="participant participant-head" data-participant="Amministratore"><text fill="#000000" font-family="sans-serif" font-size="14" lengthAdjust="spacing" textLength="103.5996" x="20" y="79.9659">Amministratore</text><ellipse cx="74.7998" cy="13.5" fill="#E2E2F0" rx="8" ry="8" style="stroke:#181818;stroke-width:0.5;"/><path d="M74.7998,21.5 L74.7998,48.5 M61.7998,29.5 L87.7998,29.5 M74.7998,48.5 L61.7998,63.5 M74.7998,48.5 L87.7998,63.5" fill="none" style="stroke:#181818;stroke-width:0.5;"/></g><g class="participant participant-tail" data-participant="Amministratore"><text fill="#000000" font-family="sans-serif" font-size="14" lengthAdjust="spacing" textLength="103.5996" x="20" y="697.018">Amministratore</text><ellipse cx="74.7998" cy="709.62" fill="#E2E2F0" rx="8" ry="8" style="stroke:#181818;stroke-width:0.5;"/><path d="M74.7998,717.62 L74.7998,744.62 M61.7998,725.62 L87.7998,725.62 M74.7998,744.62 L61.7998,759.62 M74.7998,744.62 L87.7998,759.62" fill="none" style="stroke:#181818;stroke-width:0.5;"/></g><g class="participant participant-head" data-participant="UserPanelController"><rect fill="#E2E2F0" height="33.0679" rx="2.5" ry="2.5" style="stroke:#181818;stroke-width:0.5;" width="147.2795" x="139.5996" y="50"/><text fill="#000000" font-family="sans-serif" font-size="14" lengthAdjust="spacing" textLength="133.2795" x="146.5996" y="71.9659">UserPanelController</text></g><g class="participant participant-tail" data-participant="UserPanelController"><rect fill="#E2E2F0" height="33.0679" rx="2.5" ry="2.5" style="stroke:#181818;stroke-width:0.5;" width="147.2795" x="139.5996" y="682.0521"/><text fill="#000000" font-family="sans-serif" font-size="14" lengthAdjust="spacing" textLength="133.2795" x="146.5996" y="704.018">UserPanelController</text></g><g class="participant participant-head" data-participant="UserPanelService"><rect fill="#E2E2F0" height="33.0679" rx="2.5" ry="2.5" style="stroke:#181818;stroke-width:0.5;" width="127.8056" x="296.8791" y="50"/><text fill="#000000" font-family="sans-serif" font-size="14" lengthAdjust="spacing" textLength="113.8056" x="303.8791" y="71.9659">UserPanelService</text></g><g class="participant participant-tail" data-participant="UserPanelService"><rect fill="#E2E2F0" height="33.0679" rx="2.5" ry="2.5" style="stroke:#181818;stroke-width:0.5;" width="127.8056" x="296.8791" y="682.0521"/><text fill="#000000" font-family="sans-serif" font-size="14" lengthAdjust="spacing" textLength="113.8056" x="303.8791" y="704.018">UserPanelService</text></g><g class="participant participant-head" data-participant="DB"><text fill="#000000" font-family="sans-serif" font-size="14" lengthAdjust="spacing" textLength="97.3556" x="459.5582" y="79.9659">Database/DAO</text><path d="M493.236,29 C493.236,19 511.236,19 511.236,19 C511.236,19 529.236,19 529.236,29 L529.236,55 C529.236,65 511.236,65 511.236,65 C511.236,65 493.236,65 493.236,55 L493.236,29" fill="#E2E2F0" style="stroke:#181818;stroke-width:1.5;"/><path d="M493.236,29 C493.236,39 511.236,39 511.236,39 C511.236,39 529.236,39 529.236,29" fill="none" style="stroke:#181818;stroke-width:1.5;"/></g><g class="participant participant-tail" data-participant="DB"><text fill="#000000" font-family="sans-serif" font-size="14" lengthAdjust="spacing" textLength="97.3556" x="459.5582" y="697.018">Database/DAO</text><path d="M493.236,711.12 C493.236,701.12 511.236,701.12 511.236,701.12 C511.236,701.12 529.236,701.12 529.236,711.12 L529.236,737.12 C529.236,747.12 511.236,747.12 511.236,747.12 C511.236,747.12 493.236,747.12 493.236,737.12 L493.236,711.12" fill="#E2E2F0" style="stroke:#181818;stroke-width:1.5;"/><path d="M493.236,711.12 C493.236,721.12 511.236,721.12 511.236,721.12 C511.236,721.12 529.236,721.12 529.236,711.12" fill="none" style="stroke:#181818;stroke-width:1.5;"/></g><g class="participant participant-head" data-participant="View"><rect fill="#E2E2F0" height="33.0679" rx="2.5" ry="2.5" style="stroke:#181818;stroke-width:0.5;" width="44.9119" x="572.9138" y="50"/><text fill="#000000" font-family="sans-serif" font-size="14" lengthAdjust="spacing" textLength="30.9119" x="579.9138" y="71.9659">View</text></g><g class="participant participant-tail" data-participant="View"><rect fill="#E2E2F0" height="33.0679" rx="2.5" ry="2.5" style="stroke:#181818;stroke-width:0.5;" width="44.9119" x="572.9138" y="682.0521"/><text fill="#000000" font-family="sans-serif" font-size="14" lengthAdjust="spacing" textLength="30.9119" x="579.9138" y="704.018">View</text></g><g><title>Amministratore</title><rect fill="#FFFFFF" height="579.9842" style="stroke:#181818;stroke-width:1;" width="10" x="69.7998" y="94.0679"/></g><g><title>UserPanelController</title><rect fill="#FFFFFF" height="507.5721" style="stroke:#181818;stroke-width:1;" width="10" x="208.2394" y="157.4799"/></g><g><title>UserPanelController</title><rect fill="#3375E0" height="234.9421" style="stroke:#181818;stroke-width:1;" width="10" x="213.2394" y="157.4799"/></g><g><title>UserPanelService</title><rect fill="#FFFFFF" height="479.8661" style="stroke:#181818;stroke-width:1;" width="10" x="355.7819" y="194.186"/></g><g><title>UserPanelService</title><rect fill="#3375E0" height="63.412" style="stroke:#181818;stroke-width:1;" width="10" x="360.7819" y="194.186"/></g><g><title>UserPanelService</title><rect fill="#3375E0" height="248.924" style="stroke:#181818;stroke-width:1;" width="10" x="360.7819" y="392.4221"/></g><g><title>Database/DAO</title><rect fill="#FFFFFF" height="31.706" style="stroke:#181818;stroke-width:1;" width="10" x="506.236" y="225.892"/></g><g><title>Database/DAO</title><rect fill="#FFFFFF" height="31.706" style="stroke:#181818;stroke-width:1;" width="10" x="506.236" y="424.1281"/></g><g><title>View</title><rect fill="#FFFFFF" height="579.9842" style="stroke:#181818;stroke-width:1;" width="10" x="590.3698" y="94.0679"/></g><g class="message" data-participant-1="Amministratore" data-participant-2="View"><polygon fill="#181818" points="578.3698,113.7739,588.3698,117.7739,578.3698,121.7739,582.3698,117.7739" style="stroke:#181818;stroke-width:1;"/><line style="stroke:#181818;stroke-width:1;" x1="79.7998" x2="584.3698" y1="117.7739" y2="117.7739"/><text fill="#000000" font-family="sans-serif" font-size="13" lengthAdjust="spacing" textLength="141.4141" x="86.7998" y="111.9649">"Carica un documento"</text></g><g class="message" data-participant-1="UserPanelController" data-participant-2="UserPanelController"><line style="stroke:#181818;stroke-width:1;" x1="213.2394" x2="260.2394" y1="144.4799" y2="144.4799"/><line style="stroke:#181818;stroke-width:1;" x1="260.2394" x2="260.2394" y1="144.4799" y2="157.4799"/><line style="stroke:#181818;stroke-width:1;" x1="219.2394" x2="260.2394" y1="157.4799" y2="157.4799"/><polygon fill="#181818" points="229.2394,153.4799,219.2394,157.4799,229.2394,161.4799,225.2394,157.4799" style="stroke:#181818;stroke-width:1;"/><text fill="#000000" font-family="sans-serif" font-size="13" lengthAdjust="spacing" textLength="117.0391" x="225.2394" y="138.6709">handleDocumenti()</text></g><g class="message" data-participant-1="UserPanelController" data-participant-2="UserPanelService"><polygon fill="#181818" points="348.7819,190.186,358.7819,194.186,348.7819,198.186,352.7819,194.186" style="stroke:#181818;stroke-width:1;"/><line style="stroke:#181818;stroke-width:1;" x1="223.2394" x2="354.7819" y1="194.186" y2="194.186"/><text fill="#000000" font-family="sans-serif" font-size="13" lengthAdjust="spacing" textLength="105.5991" x="230.2394" y="188.377">moveDocument()</text></g><g class="message" data-participant-1="UserPanelService" data-participant-2="DB"><polygon fill="#181818" points="494.236,221.892,504.236,225.892,494.236,229.892,498.236,225.892" style="stroke:#181818;stroke-width:1;"/><line style="stroke:#181818;stroke-width:1;" x1="370.7819" x2="500.236" y1="225.892" y2="225.892"/><text fill="#000000" font-family="sans-serif" font-size="13" lengthAdjust="spacing" textLength="58.9681" x="377.7819" y="220.083">SelectBy()</text></g><g class="message" data-participant-1="DB" data-participant-2="UserPanelService"><polygon fill="#181818" points="376.7819,253.598,366.7819,257.598,376.7819,261.598,372.7819,257.598" style="stroke:#181818;stroke-width:1;"/><line style="stroke:#181818;stroke-width:1;stroke-dasharray:2.0,2.0;" x1="370.7819" x2="510.236" y1="257.598" y2="257.598"/><text fill="#000000" font-family="sans-serif" font-size="13" lengthAdjust="spacing" textLength="63.8431" x="382.7819" y="251.789">Document</text></g><path d="M10,272.598 L76.983,272.598 L76.983,282.304 L66.983,292.304 L10,292.304 L10,272.598" fill="#EEEEEE" style="stroke:#000000;stroke-width:1.5;"/><rect fill="none" height="89.118" style="stroke:#000000;stroke-width:1.5;" width="867.208" x="10" y="272.598"/><text fill="#000000" font-family="sans-serif" font-size="13" font-weight="bold" lengthAdjust="spacing" textLength="21.983" x="25" y="287.495">opt</text><text fill="#000000" font-family="sans-serif" font-size="11" font-weight="bold" lengthAdjust="spacing" textLength="142.691" x="91.983" y="286.3569">[Documento gi&#225; presente]</text><g class="message" data-participant-1="UserPanelController" data-participant-2="View"><polygon fill="#181818" points="578.3698,312.01,588.3698,316.01,578.3698,320.01,582.3698,316.01" style="stroke:#181818;stroke-width:1;"/><line style="stroke:#181818;stroke-width:1;" x1="223.2394" x2="584.3698" y1="316.01" y2="316.01"/><text fill="#000000" font-family="sans-serif" font-size="13" lengthAdjust="spacing" textLength="79.4951" x="230.2394" y="310.201">showDialog()</text></g><g class="message" data-participant-1="View" data-participant-2="Amministratore"><polygon fill="#181818" points="90.7998,346.716,80.7998,350.716,90.7998,354.716,86.7998,350.716" style="stroke:#181818;stroke-width:1;"/><line style="stroke:#181818;stroke-width:1;" x1="84.7998" x2="589.3698" y1="350.716" y2="350.716"/><text fill="#000000" font-family="sans-serif" font-size="13" lengthAdjust="spacing" textLength="209.1832" x="96.7998" y="344.907">Dialog("Documento gi&#225; presente")</text></g><path d="M605,329.01 L605,356.01 L866,356.01 L866,339.01 L856,329.01 L605,329.01" fill="#FEFFDD" style="stroke:#181818;stroke-width:0.5;"/><path d="M856,329.01 L856,339.01 L866,339.01 L856,329.01" fill="#FEFFDD" style="stroke:#181818;stroke-width:0.5;"/><text fill="#000000" font-family="sans-serif" font-size="13" lengthAdjust="spacing" textLength="240.8382" x="611" y="347.907">"Mostra messaggio di errore all'utente"</text><g class="message" data-participant-1="UserPanelController" data-participant-2="UserPanelService"><polygon fill="#181818" points="348.7819,388.4221,358.7819,392.4221,348.7819,396.4221,352.7819,392.4221" style="stroke:#181818;stroke-width:1;"/><line style="stroke:#181818;stroke-width:1;" x1="218.2394" x2="354.7819" y1="392.4221" y2="392.4221"/><text fill="#000000" font-family="sans-serif" font-size="13" lengthAdjust="spacing" textLength="84.5131" x="225.2394" y="386.6131">updateWDM()</text></g><g class="message" data-participant-1="UserPanelService" data-participant-2="DB"><polygon fill="#181818" points="494.236,420.1281,504.236,424.1281,494.236,428.1281,498.236,424.1281" style="stroke:#181818;stroke-width:1;"/><line style="stroke:#181818;stroke-width:1;" x1="370.7819" x2="500.236" y1="424.1281" y2="424.1281"/><text fill="#000000" font-family="sans-serif" font-size="13" lengthAdjust="spacing" textLength="58.0581" x="377.7819" y="418.3191">selectBy()</text></g><g class="message" data-participant-1="DB" data-participant-2="UserPanelService"><polygon fill="#181818" points="381.7819,451.8341,371.7819,455.8341,381.7819,459.8341,377.7819,455.8341" style="stroke:#181818;stroke-width:1;"/><line style="stroke:#181818;stroke-width:1;stroke-dasharray:2.0,2.0;" x1="375.7819" x2="510.236" y1="455.8341" y2="455.8341"/><text fill="#000000" font-family="sans-serif" font-size="13" lengthAdjust="spacing" textLength="33.371" x="387.7819" y="450.0251">WDM</text></g><path d="M286.8791,470.8341 L349.1821,470.8341 L349.1821,480.5401 L339.1821,490.5401 L286.8791,490.5401 L286.8791,470.8341" fill="#EEEEEE" style="stroke:#000000;stroke-width:1.5;"/><rect fill="none" height="163.512" style="stroke:#000000;stroke-width:1.5;" width="286.0347" x="286.8791" y="470.8341"/><text fill="#000000" font-family="sans-serif" font-size="13" font-weight="bold" lengthAdjust="spacing" textLength="17.303" x="301.8791" y="485.7311">alt</text><text fill="#000000" font-family="sans-serif" font-size="11" font-weight="bold" lengthAdjust="spacing" textLength="107.9092" x="364.1821" y="484.593">[WDM gi&#225; presente]</text><g class="message" data-participant-1="UserPanelService" data-participant-2="DB"><polygon fill="#181818" points="499.236,510.2461,509.236,514.2461,499.236,518.2461,503.236,514.2461" style="stroke:#181818;stroke-width:1;"/><line style="stroke:#181818;stroke-width:1;" x1="370.7819" x2="505.236" y1="514.2461" y2="514.2461"/><text fill="#000000" font-family="sans-serif" font-size="13" lengthAdjust="spacing" textLength="116.4541" x="377.7819" y="508.4371">DocumentUpdate()</text></g><g class="message" data-participant-1="UserPanelService" data-participant-2="DB"><polygon fill="#181818" points="499.236,541.9521,509.236,545.9521,499.236,549.9521,503.236,545.9521" style="stroke:#181818;stroke-width:1;"/><line style="stroke:#181818;stroke-width:1;" x1="370.7819" x2="505.236" y1="545.9521" y2="545.9521"/><text fill="#000000" font-family="sans-serif" font-size="13" lengthAdjust="spacing" textLength="85.9821" x="377.7819" y="540.1431">WDMUpdate()</text></g><line style="stroke:#000000;stroke-width:1;stroke-dasharray:2.0,2.0;" x1="286.8791" x2="572.9138" y1="554.9521" y2="554.9521"/><text fill="#000000" font-family="sans-serif" font-size="11" font-weight="bold" lengthAdjust="spacing" textLength="29.2158" x="291.8791" y="566.7111">[else]</text><g class="message" data-participant-1="UserPanelService" data-participant-2="DB"><polygon fill="#181818" points="499.236,590.6401,509.236,594.6401,499.236,598.6401,503.236,594.6401" style="stroke:#181818;stroke-width:1;"/><line style="stroke:#181818;stroke-width:1;" x1="370.7819" x2="505.236" y1="594.6401" y2="594.6401"/><text fill="#000000" font-family="sans-serif" font-size="13" lengthAdjust="spacing" textLength="107.7051" x="377.7819" y="588.831">DocumentInsert()</text></g><g class="message" data-participant-1="UserPanelService" data-participant-2="DB"><polygon fill="#181818" points="499.236,622.3461,509.236,626.3461,499.236,630.3461,503.236,626.3461" style="stroke:#181818;stroke-width:1;"/><line style="stroke:#181818;stroke-width:1;" x1="370.7819" x2="505.236" y1="626.3461" y2="626.3461"/><text fill="#000000" font-family="sans-serif" font-size="13" lengthAdjust="spacing" textLength="77.2331" x="377.7819" y="620.5371">WDMInsert()</text></g><g class="message" data-participant-1="UserPanelController" data-participant-2="View"><polygon fill="#181818" points="578.3698,661.0521,588.3698,665.0521,578.3698,669.0521,582.3698,665.0521" style="stroke:#181818;stroke-width:1;"/><line style="stroke:#181818;stroke-width:1;" x1="213.2394" x2="584.3698" y1="665.0521" y2="665.0521"/><text fill="#000000" font-family="sans-serif" font-size="13" lengthAdjust="spacing" textLength="86.7491" x="220.2394" y="659.2431">aggiorna vista</text></g><!--SRC=[bLHBJiCm4Dtx5ADq0Imga2g4r0LIsx1WKO5K5TP3CaejENPakwqu3cVXOepJ93GbIOjNzlpUctcJOEADXLcUIosTjyWl4WLQBnDPeFQmTcHVKPDQ6EsjKOfijtz5TYSJ4Ybw_4174CNLxJQUlKI03k9vA_LDqbu8JBpSeQTJ4esz36ixOVnOcc4AqGAjJ12s6bAJR7FItaIYWtN8wJ9FOOCwLHHNsVBwvXUxg_j1BumcauVxfxkp3AfnmJGtkmQx4xeURA_dBsRjOC1upXskI57Yvv_7zLaCzeqxEK5DIAJKJ-Z8nyLCuPiq0vdy_eB2akCN2U3JCv1AHhSn-rYYCXbp3E6bdVrjuPdP8IZgWOeEsU5emyIip3Q-COKJBKse1ZavXrac3QGIoDgmLgZKrTQNTPeSqcbPIl15N2uhR0l-4kWzNd93NLCStgYBfNN_bPOPdIY7oWVhYMQzYFNarsM3ZDiRoKMR85ByInWPYpeZ28_sKlI1F6kEyDLE304rWK6ceQqTtiDo8wn6sF7EuHdXVW00]--></g></svg>