<svg xmlns="http://www.w3.org/2000/svg" xmlns:xlink="http://www.w3.org/1999/xlink" contentStyleType="text/css" data-diagram-type="SEQUENCE" height="620px" preserveAspectRatio="none" style="width:618px;height:620px;background:#FFFFFF;" version="1.1" viewBox="0 0 618 620" width="618px" zoomAndPan="magnify"><defs/><g><g><title>Amministratore</title><rect fill="#FFFFFF" height="433.7662" style="stroke:#181818;stroke-width:1;" width="10" x="54.7998" y="94.0679"/></g><g><title>UserPanelController</title><rect fill="#FFFFFF" height="143.118" style="stroke:#181818;stroke-width:1;" width="10" x="193.2394" y="157.4799"/></g><g><title>UserPanelController</title><rect fill="#3375E0" height="37.706" style="stroke:#181818;stroke-width:1;" width="10" x="198.2394" y="194.186"/></g><g><title>UserPanelController</title><rect fill="#FFFFFF" height="155.8241" style="stroke:#181818;stroke-width:1;" width="10" x="193.2394" y="372.01"/></g><g><title>UserPanelService</title><rect fill="#FFFFFF" height="66.706" style="stroke:#181818;stroke-width:1;" width="10" x="373.4815" y="233.892"/></g><g><title>Database/DAO</title><rect fill="#FFFFFF" height="30" style="stroke:#181818;stroke-width:1;" width="10" x="501.0626" y="270.598"/></g><g><title>View</title><rect fill="#FFFFFF" height="433.7662" style="stroke:#181818;stroke-width:1;" width="10" x="585.1964" y="94.0679"/></g><rect fill="none" height="96.118" style="stroke:#000000;stroke-width:1.5;" width="263.1617" x="304.5788" y="423.716"/><g><title>Amministratore</title><rect fill="#000000" fill-opacity="0.00000" height="452.7662" width="8" x="55.7998" y="84.0679"/><line style="stroke:#181818;stroke-width:0.5;stroke-dasharray:5.0,5.0;" x1="59" x2="59" y1="84.0679" y2="536.8341"/></g><g><title>UserPanelController</title><rect fill="#000000" fill-opacity="0.00000" height="452.7662" width="8" x="194.2394" y="84.0679"/><line style="stroke:#181818;stroke-width:0.5;stroke-dasharray:5.0,5.0;" x1="197.5996" x2="197.5996" y1="84.0679" y2="536.8341"/></g><g><title>UserPanelService</title><rect fill="#000000" fill-opacity="0.00000" height="452.7662" width="8" x="374.4815" y="84.0679"/><line style="stroke:#181818;stroke-width:0.5;stroke-dasharray:5.0,5.0;" x1="377.5788" x2="377.5788" y1="84.0679" y2="536.8341"/></g><g><title>Database/DAO</title><rect fill="#000000" fill-opacity="0.00000" height="452.7662" width="8" x="502.0626" y="84.0679"/><line style="stroke:#181818;stroke-width:0.5;stroke-dasharray:5.0,5.0;" x1="505.3848" x2="505.3848" y1="84.0679" y2="536.8341"/></g><g><title>View</title><rect fill="#000000" fill-opacity="0.00000" height="452.7662" width="8" x="586.1964" y="84.0679"/><line style="stroke:#181818;stroke-width:0.5;stroke-dasharray:5.0,5.0;" x1="589.7404" x2="589.7404" y1="84.0679" y2="536.8341"/></g><g class="participant participant-head" data-participant="Amministratore"><text fill="#000000" font-family="sans-serif" font-size="14" lengthAdjust="spacing" textLength="103.5996" x="5" y="79.9659">Amministratore</text><ellipse cx="59.7998" cy="13.5" fill="#E2E2F0" rx="8" ry="8" style="stroke:#181818;stroke-width:0.5;"/><path d="M59.7998,21.5 L59.7998,48.5 M46.7998,29.5 L72.7998,29.5 M59.7998,48.5 L46.7998,63.5 M59.7998,48.5 L72.7998,63.5" fill="none" style="stroke:#181818;stroke-width:0.5;"/></g><g class="participant participant-tail" data-participant="Amministratore"><text fill="#000000" font-family="sans-serif" font-size="14" lengthAdjust="spacing" textLength="103.5996" x="5" y="550.8">Amministratore</text><ellipse cx="59.7998" cy="563.402" fill="#E2E2F0" rx="8" ry="8" style="stroke:#181818;stroke-width:0.5;"/><path d="M59.7998,571.402 L59.7998,598.402 M46.7998,579.402 L72.7998,579.402 M59.7998,598.402 L46.7998,613.402 M59.7998,598.402 L72.7998,613.402" fill="none" style="stroke:#181818;stroke-width:0.5;"/></g><g class="participant participant-head" data-participant="UserPanelController"><rect fill="#E2E2F0" height="33.0679" rx="2.5" ry="2.5" style="stroke:#181818;stroke-width:0.5;" width="147.2795" x="124.5996" y="50"/><text fill="#000000" font-family="sans-serif" font-size="14" lengthAdjust="spacing" textLength="133.2795" x="131.5996" y="71.9659">UserPanelController</text></g><g class="participant participant-tail" data-participant="UserPanelController"><rect fill="#E2E2F0" height="33.0679" rx="2.5" ry="2.5" style="stroke:#181818;stroke-width:0.5;" width="147.2795" x="124.5996" y="535.8341"/><text fill="#000000" font-family="sans-serif" font-size="14" lengthAdjust="spacing" textLength="133.2795" x="131.5996" y="557.8">UserPanelController</text></g><g class="participant participant-head" data-participant="UserPanelService"><rect fill="#E2E2F0" height="33.0679" rx="2.5" ry="2.5" style="stroke:#181818;stroke-width:0.5;" width="127.8056" x="314.5788" y="50"/><text fill="#000000" font-family="sans-serif" font-size="14" lengthAdjust="spacing" textLength="113.8056" x="321.5788" y="71.9659">UserPanelService</text></g><g class="participant participant-tail" data-participant="UserPanelService"><rect fill="#E2E2F0" height="33.0679" rx="2.5" ry="2.5" style="stroke:#181818;stroke-width:0.5;" width="127.8056" x="314.5788" y="535.8341"/><text fill="#000000" font-family="sans-serif" font-size="14" lengthAdjust="spacing" textLength="113.8056" x="321.5788" y="557.8">UserPanelService</text></g><g class="participant participant-head" data-participant="DB"><text fill="#000000" font-family="sans-serif" font-size="14" lengthAdjust="spacing" textLength="97.3556" x="454.3848" y="79.9659">Database/DAO</text><path d="M488.0626,29 C488.0626,19 506.0626,19 506.0626,19 C506.0626,19 524.0626,19 524.0626,29 L524.0626,55 C524.0626,65 506.0626,65 506.0626,65 C506.0626,65 488.0626,65 488.0626,55 L488.0626,29" fill="#E2E2F0" style="stroke:#181818;stroke-width:1.5;"/><path d="M488.0626,29 C488.0626,39 506.0626,39 506.0626,39 C506.0626,39 524.0626,39 524.0626,29" fill="none" style="stroke:#181818;stroke-width:1.5;"/></g><g class="participant participant-tail" data-participant="DB"><text fill="#000000" font-family="sans-serif" font-size="14" lengthAdjust="spacing" textLength="97.3556" x="454.3848" y="550.8">Database/DAO</text><path d="M488.0626,564.902 C488.0626,554.902 506.0626,554.902 506.0626,554.902 C506.0626,554.902 524.0626,554.902 524.0626,564.902 L524.0626,590.902 C524.0626,600.902 506.0626,600.902 506.0626,600.902 C506.0626,600.902 488.0626,600.902 488.0626,590.902 L488.0626,564.902" fill="#E2E2F0" style="stroke:#181818;stroke-width:1.5;"/><path d="M488.0626,564.902 C488.0626,574.902 506.0626,574.902 506.0626,574.902 C506.0626,574.902 524.0626,574.902 524.0626,564.902" fill="none" style="stroke:#181818;stroke-width:1.5;"/></g><g class="participant participant-head" data-participant="View"><rect fill="#E2E2F0" height="33.0679" rx="2.5" ry="2.5" style="stroke:#181818;stroke-width:0.5;" width="44.9119" x="567.7404" y="50"/><text fill="#000000" font-family="sans-serif" font-size="14" lengthAdjust="spacing" textLength="30.9119" x="574.7404" y="71.9659">View</text></g><g class="participant participant-tail" data-participant="View"><rect fill="#E2E2F0" height="33.0679" rx="2.5" ry="2.5" style="stroke:#181818;stroke-width:0.5;" width="44.9119" x="567.7404" y="535.8341"/><text fill="#000000" font-family="sans-serif" font-size="14" lengthAdjust="spacing" textLength="30.9119" x="574.7404" y="557.8">View</text></g><g><title>Amministratore</title><rect fill="#FFFFFF" height="433.7662" style="stroke:#181818;stroke-width:1;" width="10" x="54.7998" y="94.0679"/></g><g><title>UserPanelController</title><rect fill="#FFFFFF" height="143.118" style="stroke:#181818;stroke-width:1;" width="10" x="193.2394" y="157.4799"/></g><g><title>UserPanelController</title><rect fill="#3375E0" height="37.706" style="stroke:#181818;stroke-width:1;" width="10" x="198.2394" y="194.186"/></g><g><title>UserPanelController</title><rect fill="#FFFFFF" height="155.8241" style="stroke:#181818;stroke-width:1;" width="10" x="193.2394" y="372.01"/></g><g><title>UserPanelService</title><rect fill="#FFFFFF" height="66.706" style="stroke:#181818;stroke-width:1;" width="10" x="373.4815" y="233.892"/></g><g><title>Database/DAO</title><rect fill="#FFFFFF" height="30" style="stroke:#181818;stroke-width:1;" width="10" x="501.0626" y="270.598"/></g><g><title>View</title><rect fill="#FFFFFF" height="433.7662" style="stroke:#181818;stroke-width:1;" width="10" x="585.1964" y="94.0679"/></g><g class="message" data-participant-1="Amministratore" data-participant-2="View"><polygon fill="#181818" points="573.1964,113.7739,583.1964,117.7739,573.1964,121.7739,577.1964,117.7739" style="stroke:#181818;stroke-width:1;"/><line style="stroke:#181818;stroke-width:1;" x1="64.7998" x2="579.1964" y1="117.7739" y2="117.7739"/><text fill="#000000" font-family="sans-serif" font-size="13" lengthAdjust="spacing" textLength="222.0532" x="71.7998" y="111.9649">"Inserisce stopwords manualmente"</text></g><g class="message" data-participant-1="UserPanelController" data-participant-2="UserPanelController"><line style="stroke:#181818;stroke-width:1;" x1="198.2394" x2="245.2394" y1="144.4799" y2="144.4799"/><line style="stroke:#181818;stroke-width:1;" x1="245.2394" x2="245.2394" y1="144.4799" y2="157.4799"/><line style="stroke:#181818;stroke-width:1;" x1="204.2394" x2="245.2394" y1="157.4799" y2="157.4799"/><polygon fill="#181818" points="214.2394,153.4799,204.2394,157.4799,214.2394,161.4799,210.2394,157.4799" style="stroke:#181818;stroke-width:1;"/><text fill="#000000" font-family="sans-serif" font-size="13" lengthAdjust="spacing" textLength="117.0781" x="210.2394" y="138.6709">handleStopWords()</text></g><g class="message" data-participant-1="UserPanelController" data-participant-2="UserPanelService"><polygon fill="#181818" points="366.4815,190.186,376.4815,194.186,366.4815,198.186,370.4815,194.186" style="stroke:#181818;stroke-width:1;"/><line style="stroke:#181818;stroke-width:1;" x1="208.2394" x2="372.4815" y1="194.186" y2="194.186"/><text fill="#000000" font-family="sans-serif" font-size="13" lengthAdjust="spacing" textLength="98.3191" x="215.2394" y="188.377">addStopWords()</text></g><g class="message" data-participant-1="UserPanelService" data-participant-2="UserPanelService"><line style="stroke:#181818;stroke-width:1;" x1="378.4815" x2="425.4815" y1="220.892" y2="220.892"/><line style="stroke:#181818;stroke-width:1;" x1="425.4815" x2="425.4815" y1="220.892" y2="233.892"/><line style="stroke:#181818;stroke-width:1;" x1="384.4815" x2="425.4815" y1="233.892" y2="233.892"/><polygon fill="#181818" points="394.4815,229.892,384.4815,233.892,394.4815,237.892,390.4815,233.892" style="stroke:#181818;stroke-width:1;"/><text fill="#000000" font-family="sans-serif" font-size="13" lengthAdjust="spacing" textLength="113.5811" x="390.4815" y="215.083">stopWordsParser()</text></g><g class="message" data-participant-1="UserPanelService" data-participant-2="DB"><polygon fill="#181818" points="489.0626,266.598,499.0626,270.598,489.0626,274.598,493.0626,270.598" style="stroke:#181818;stroke-width:1;"/><line style="stroke:#181818;stroke-width:1;" x1="383.4815" x2="495.0626" y1="270.598" y2="270.598"/><text fill="#000000" font-family="sans-serif" font-size="13" lengthAdjust="spacing" textLength="42.8091" x="390.4815" y="264.789">insert()</text></g><g class="message" data-participant-1="Amministratore" data-participant-2="View"><polygon fill="#181818" points="573.1964,328.304,583.1964,332.304,573.1964,336.304,577.1964,332.304" style="stroke:#181818;stroke-width:1;"/><line style="stroke:#181818;stroke-width:1;" x1="64.7998" x2="579.1964" y1="332.304" y2="332.304"/><text fill="#000000" font-family="sans-serif" font-size="13" lengthAdjust="spacing" textLength="152.8281" x="71.7998" y="326.495">"Carica file di stopwords"</text></g><g class="message" data-participant-1="UserPanelController" data-participant-2="UserPanelController"><line style="stroke:#181818;stroke-width:1;" x1="198.2394" x2="245.2394" y1="359.01" y2="359.01"/><line style="stroke:#181818;stroke-width:1;" x1="245.2394" x2="245.2394" y1="359.01" y2="372.01"/><line style="stroke:#181818;stroke-width:1;" x1="204.2394" x2="245.2394" y1="372.01" y2="372.01"/><polygon fill="#181818" points="214.2394,368.01,204.2394,372.01,214.2394,376.01,210.2394,372.01" style="stroke:#181818;stroke-width:1;"/><text fill="#000000" font-family="sans-serif" font-size="13" lengthAdjust="spacing" textLength="117.0781" x="210.2394" y="353.201">handleStopWords()</text></g><g class="message" data-participant-1="UserPanelController" data-participant-2="UserPanelService"><polygon fill="#181818" points="366.4815,404.716,376.4815,408.716,366.4815,412.716,370.4815,408.716" style="stroke:#181818;stroke-width:1;"/><line style="stroke:#181818;stroke-width:1;" x1="203.2394" x2="372.4815" y1="408.716" y2="408.716"/><text fill="#000000" font-family="sans-serif" font-size="13" lengthAdjust="spacing" textLength="151.2422" x="210.2394" y="402.907">addStopWordsFromFile()</text></g><path d="M304.5788,423.716 L377.9188,423.716 L377.9188,433.4221 L367.9188,443.4221 L304.5788,443.4221 L304.5788,423.716" fill="#EEEEEE" style="stroke:#000000;stroke-width:1.5;"/><rect fill="none" height="96.118" style="stroke:#000000;stroke-width:1.5;" width="263.1617" x="304.5788" y="423.716"/><text fill="#000000" font-family="sans-serif" font-size="13" font-weight="bold" lengthAdjust="spacing" textLength="28.34" x="319.5788" y="438.6131">loop</text><text fill="#000000" font-family="sans-serif" font-size="11" font-weight="bold" lengthAdjust="spacing" textLength="75.3165" x="392.9188" y="437.475">[for each line]</text><g class="message" data-participant-1="UserPanelService" data-participant-2="UserPanelService"><line style="stroke:#181818;stroke-width:1;" x1="378.4815" x2="420.4815" y1="467.1281" y2="467.1281"/><line style="stroke:#181818;stroke-width:1;" x1="420.4815" x2="420.4815" y1="467.1281" y2="480.1281"/><line style="stroke:#181818;stroke-width:1;" x1="379.4815" x2="420.4815" y1="480.1281" y2="480.1281"/><polygon fill="#181818" points="389.4815,476.1281,379.4815,480.1281,389.4815,484.1281,385.4815,480.1281" style="stroke:#181818;stroke-width:1;"/><text fill="#000000" font-family="sans-serif" font-size="13" lengthAdjust="spacing" textLength="113.5811" x="385.4815" y="461.3191">stopWordsParser()</text></g><g class="message" data-participant-1="UserPanelService" data-participant-2="DB"><polygon fill="#181818" points="494.0626,507.8341,504.0626,511.8341,494.0626,515.8341,498.0626,511.8341" style="stroke:#181818;stroke-width:1;"/><line style="stroke:#181818;stroke-width:1;" x1="378.4815" x2="500.0626" y1="511.8341" y2="511.8341"/><text fill="#000000" font-family="sans-serif" font-size="13" lengthAdjust="spacing" textLength="42.8091" x="385.4815" y="506.0251">insert()</text></g><!--SRC=[jPF1QiCm38RlVWgHNRR3sA2CGG-3jbbXfnNAjhDcgrJWsC7ssjUV4jeqsTok5EPJB4MVVkbFK2SVO59Lx3YcW78ZLMD8hBb6b-0jKbYW8plpBWLlBOLyVabXmvgKmOIV60cASlTqLqvU2y08vNHG-iwqLGfruWqc-YcYYxUl3PDm-zI6OGp5YnC573L1JBxU-c0YLEY-q5Ra4XKgCq5JdmkFOOtEM5eAwQCXNTySTEGsyITyjnKOep7dKk5gD7fyUBxlqVUOBBeTl0KlC4XMy4ePEYdyTtBlNwvdEPKkt2mwDV2kM0pDDkg-XTCYUcaX7RTuXe4rmeejWU63p__hxTdMGj_RUV3LN8GAtNfVmqf-Bnbp3POTAP1piQd7YeVka3FV]--></g></svg>