<svg xmlns="http://www.w3.org/2000/svg" xmlns:xlink="http://www.w3.org/1999/xlink" contentStyleType="text/css" data-diagram-type="CLASS" height="172px" preserveAspectRatio="none" style="width:722px;height:172px;background:#FFFFFF;" version="1.1" viewBox="0 0 722 172" width="722px" zoomAndPan="magnify"><defs/><g><!--cluster it.unisa.diem.wordageddon_g16--><g class="cluster" data-entity="it.unisa.diem.wordageddon_g16" data-source-line="2" data-uid="ent0002" id="cluster_it.unisa.diem.wordageddon_g16"><path d="M8.5,6.602 L232.0011,6.602 A3.75,3.75 0 0 1 234.5011,9.102 L241.5011,31.6699 L712.5,31.6699 A2.5,2.5 0 0 1 715,34.1699 L715,163.302 A2.5,2.5 0 0 1 712.5,165.802 L8.5,165.802 A2.5,2.5 0 0 1 6,163.302 L6,9.102 A2.5,2.5 0 0 1 8.5,6.602" fill="none" style="stroke:#000000;stroke-width:1.5;"/><line style="stroke:#000000;stroke-width:1.5;" x1="6" x2="241.5011" y1="31.6699" y2="31.6699"/><text fill="#000000" font-family="sans-serif" font-size="14" font-weight="bold" lengthAdjust="spacing" textLength="222.5011" x="10" y="23.5679">it.unisa.diem.wordageddon_g16</text></g><!--class WordageddonApp--><g class="entity" data-entity="WordageddonApp" data-source-line="8" data-uid="ent0008" id="entity_WordageddonApp"><rect fill="#F1F1F1" height="105.2038" rx="2.5" ry="2.5" style="stroke:#181818;stroke-width:0.5;" width="158.9015" x="21.55" y="44.602"/><ellipse cx="39.3184" cy="60.602" fill="#ADD1B2" rx="11" ry="11" style="stroke:#181818;stroke-width:1;"/><path d="M38.7871,67.5239 Q37.0371,67.5239 35.8965,66.7895 Q34.7715,66.0395 34.209,64.6957 Q33.6621,63.3364 33.6621,61.5395 Q33.6621,59.5082 34.3184,58.0551 Q34.9746,56.602 36.2559,55.8207 Q37.5371,55.0395 39.4121,55.0395 Q40.3028,55.0395 40.9746,55.227 Q41.6465,55.3989 42.334,55.7426 L41.5215,57.7582 Q40.8965,57.4457 40.3496,57.3207 Q39.8184,57.1957 39.334,57.1957 Q38.1621,57.1957 37.459,57.727 Q36.7559,58.2582 36.459,59.2114 Q36.1621,60.1645 36.1621,61.4301 Q36.1621,63.4457 36.8809,64.4145 Q37.5996,65.3676 39.1934,65.3676 Q39.7871,65.3676 40.4121,65.2114 Q41.0371,65.0551 41.8653,64.6801 L41.8653,66.8989 Q41.1309,67.2114 40.334,67.3676 Q39.5528,67.5239 38.7871,67.5239 Z " fill="#000000"/><text fill="#000000" font-family="sans-serif" font-size="14" lengthAdjust="spacing" textLength="120.7496" x="53.9336" y="66.034">WordageddonApp</text><line style="stroke:#181818;stroke-width:0.5;" x1="22.55" x2="179.4515" y1="76.602" y2="76.602"/><line style="stroke:#181818;stroke-width:0.5;" x1="22.55" x2="179.4515" y1="84.602" y2="84.602"/><ellipse cx="32.55" cy="99.6359" fill="#84BE84" rx="3" ry="3" style="stroke:#038048;stroke-width:1;"/><text fill="#000000" font-family="sans-serif" font-size="14" lengthAdjust="spacing" textLength="132.9015" x="41.55" y="103.5679">WordageddonApp():</text><ellipse cx="32.55" cy="118.7039" fill="#84BE84" rx="3" ry="3" style="stroke:#038048;stroke-width:1;"/><text fill="#000000" font-family="sans-serif" font-size="14" lengthAdjust="spacing" textLength="111.1456" x="41.55" y="122.6358">start(Stage): void</text><ellipse cx="32.55" cy="137.7718" fill="#84BE84" rx="3" ry="3" style="stroke:#038048;stroke-width:1;"/><text fill="#000000" font-family="sans-serif" font-size="14" lengthAdjust="spacing" textLength="125.4115" x="41.55" y="141.7038">main(String[]): void</text></g><path d="M218.43,68.132 L295.5757,68.132 A3.75,3.75 0 0 1 298.0757,70.632 L305.0757,93.1999 L309.5757,93.1999 A2.5,2.5 0 0 1 312.0757,95.6999 L312.0757,123.7678 A2.5,2.5 0 0 1 309.5757,126.2678 L218.43,126.2678 A2.5,2.5 0 0 1 215.93,123.7678 L215.93,70.632 A2.5,2.5 0 0 1 218.43,68.132" fill="#F1F1F1" style="stroke:#181818;stroke-width:0.5;"/><line style="stroke:#181818;stroke-width:0.5;" x1="215.93" x2="305.0757" y1="93.1999" y2="93.1999"/><text fill="#000000" font-family="sans-serif" font-size="14" font-weight="bold" lengthAdjust="spacing" textLength="76.1457" x="219.93" y="85.0979">controllers</text><path d="M349.65,68.132 L368.3459,68.132 A3.75,3.75 0 0 1 370.8459,70.632 L377.8459,93.1999 L382.3459,93.1999 A2.5,2.5 0 0 1 384.8459,95.6999 L384.8459,123.7678 A2.5,2.5 0 0 1 382.3459,126.2678 L349.65,126.2678 A2.5,2.5 0 0 1 347.15,123.7678 L347.15,70.632 A2.5,2.5 0 0 1 349.65,68.132" fill="#F1F1F1" style="stroke:#181818;stroke-width:0.5;"/><line style="stroke:#181818;stroke-width:0.5;" x1="347.15" x2="377.8459" y1="93.1999" y2="93.1999"/><text fill="#000000" font-family="sans-serif" font-size="14" font-weight="bold" lengthAdjust="spacing" textLength="17.6959" x="351.15" y="85.0979">db</text><path d="M422.1,68.132 L473.9058,68.132 A3.75,3.75 0 0 1 476.4058,70.632 L483.4058,93.1999 L487.9058,93.1999 A2.5,2.5 0 0 1 490.4058,95.6999 L490.4058,123.7678 A2.5,2.5 0 0 1 487.9058,126.2678 L422.1,126.2678 A2.5,2.5 0 0 1 419.6,123.7678 L419.6,70.632 A2.5,2.5 0 0 1 422.1,68.132" fill="#F1F1F1" style="stroke:#181818;stroke-width:0.5;"/><line style="stroke:#181818;stroke-width:0.5;" x1="419.6" x2="483.4058" y1="93.1999" y2="93.1999"/><text fill="#000000" font-family="sans-serif" font-size="14" font-weight="bold" lengthAdjust="spacing" textLength="50.8058" x="423.6" y="85.0979">models</text><path d="M528.28,68.132 L585.7138,68.132 A3.75,3.75 0 0 1 588.2138,70.632 L595.2138,93.1999 L599.7138,93.1999 A2.5,2.5 0 0 1 602.2138,95.6999 L602.2138,123.7678 A2.5,2.5 0 0 1 599.7138,126.2678 L528.28,126.2678 A2.5,2.5 0 0 1 525.78,123.7678 L525.78,70.632 A2.5,2.5 0 0 1 528.28,68.132" fill="#F1F1F1" style="stroke:#181818;stroke-width:0.5;"/><line style="stroke:#181818;stroke-width:0.5;" x1="525.78" x2="595.2138" y1="93.1999" y2="93.1999"/><text fill="#000000" font-family="sans-serif" font-size="14" font-weight="bold" lengthAdjust="spacing" textLength="56.4338" x="529.78" y="85.0979">services</text><path d="M639.61,68.132 L682.3998,68.132 A3.75,3.75 0 0 1 684.8998,70.632 L691.8998,93.1999 L696.3998,93.1999 A2.5,2.5 0 0 1 698.8998,95.6999 L698.8998,123.7678 A2.5,2.5 0 0 1 696.3998,126.2678 L639.61,126.2678 A2.5,2.5 0 0 1 637.11,123.7678 L637.11,70.632 A2.5,2.5 0 0 1 639.61,68.132" fill="#F1F1F1" style="stroke:#181818;stroke-width:0.5;"/><line style="stroke:#181818;stroke-width:0.5;" x1="637.11" x2="691.8998" y1="93.1999" y2="93.1999"/><text fill="#000000" font-family="sans-serif" font-size="14" font-weight="bold" lengthAdjust="spacing" textLength="41.7898" x="641.11" y="85.0979">utility</text><!--SRC=[NSw_2i903CVnlK-HqI8KN1ow-GmT74GateKIl7_aqegKlhitrAhD-FtyXcHI2EWf9pJKKK91ZG8X1gfAUc1FmDeCWJCsbiatpoYsL6jZkFM78qmLbFjiJGmgqJcIFCr_Ok-RuACbjrrbaf4DRVEWx5XVIpKESuRpzv5JIiiV0FiDxEfsbQmekkkqQDt26Dckv9534U7GNww_E5Vp6m00]--></g></svg>