<svg xmlns="http://www.w3.org/2000/svg" xmlns:xlink="http://www.w3.org/1999/xlink" contentStyleType="text/css" data-diagram-type="CLASS" height="125px" preserveAspectRatio="none" style="width:528px;height:125px;background:#FFFFFF;" version="1.1" viewBox="0 0 528 125" width="528px" zoomAndPan="magnify"><defs/><g><!--cluster it.unisa.diem.wordageddon_g16--><g class="cluster" data-entity="it.unisa.diem.wordageddon_g16" data-source-line="2" data-uid="ent0002" id="cluster_it.unisa.diem.wordageddon_g16"><path d="M8.5,6.602 L232.0011,6.602 A3.75,3.75 0 0 1 234.5011,9.102 L241.5011,31.6699 L518.5,31.6699 A2.5,2.5 0 0 1 521,34.1699 L521,116.242 A2.5,2.5 0 0 1 518.5,118.742 L8.5,118.742 A2.5,2.5 0 0 1 6,116.242 L6,9.102 A2.5,2.5 0 0 1 8.5,6.602" fill="none" style="stroke:#000000;stroke-width:1.5;"/><line style="stroke:#000000;stroke-width:1.5;" x1="6" x2="241.5011" y1="31.6699" y2="31.6699"/><text fill="#000000" font-family="sans-serif" font-size="14" font-weight="bold" lengthAdjust="spacing" textLength="222.5011" x="10" y="23.5679">it.unisa.diem.wordageddon_g16</text></g><path d="M24.43,44.602 L101.5757,44.602 A3.75,3.75 0 0 1 104.0757,47.102 L111.0757,69.6699 L115.5757,69.6699 A2.5,2.5 0 0 1 118.0757,72.1699 L118.0757,100.2378 A2.5,2.5 0 0 1 115.5757,102.7378 L24.43,102.7378 A2.5,2.5 0 0 1 21.93,100.2378 L21.93,47.102 A2.5,2.5 0 0 1 24.43,44.602" fill="#F1F1F1" style="stroke:#181818;stroke-width:0.5;"/><line style="stroke:#181818;stroke-width:0.5;" x1="21.93" x2="111.0757" y1="69.6699" y2="69.6699"/><text fill="#000000" font-family="sans-serif" font-size="14" font-weight="bold" lengthAdjust="spacing" textLength="76.1457" x="25.93" y="61.5679">controllers</text><path d="M155.65,44.602 L174.3459,44.602 A3.75,3.75 0 0 1 176.8459,47.102 L183.8459,69.6699 L188.3459,69.6699 A2.5,2.5 0 0 1 190.8459,72.1699 L190.8459,100.2378 A2.5,2.5 0 0 1 188.3459,102.7378 L155.65,102.7378 A2.5,2.5 0 0 1 153.15,100.2378 L153.15,47.102 A2.5,2.5 0 0 1 155.65,44.602" fill="#F1F1F1" style="stroke:#181818;stroke-width:0.5;"/><line style="stroke:#181818;stroke-width:0.5;" x1="153.15" x2="183.8459" y1="69.6699" y2="69.6699"/><text fill="#000000" font-family="sans-serif" font-size="14" font-weight="bold" lengthAdjust="spacing" textLength="17.6959" x="157.15" y="61.5679">db</text><path d="M228.1,44.602 L279.9058,44.602 A3.75,3.75 0 0 1 282.4058,47.102 L289.4058,69.6699 L293.9058,69.6699 A2.5,2.5 0 0 1 296.4058,72.1699 L296.4058,100.2378 A2.5,2.5 0 0 1 293.9058,102.7378 L228.1,102.7378 A2.5,2.5 0 0 1 225.6,100.2378 L225.6,47.102 A2.5,2.5 0 0 1 228.1,44.602" fill="#F1F1F1" style="stroke:#181818;stroke-width:0.5;"/><line style="stroke:#181818;stroke-width:0.5;" x1="225.6" x2="289.4058" y1="69.6699" y2="69.6699"/><text fill="#000000" font-family="sans-serif" font-size="14" font-weight="bold" lengthAdjust="spacing" textLength="50.8058" x="229.6" y="61.5679">models</text><path d="M334.28,44.602 L391.7138,44.602 A3.75,3.75 0 0 1 394.2138,47.102 L401.2138,69.6699 L405.7138,69.6699 A2.5,2.5 0 0 1 408.2138,72.1699 L408.2138,100.2378 A2.5,2.5 0 0 1 405.7138,102.7378 L334.28,102.7378 A2.5,2.5 0 0 1 331.78,100.2378 L331.78,47.102 A2.5,2.5 0 0 1 334.28,44.602" fill="#F1F1F1" style="stroke:#181818;stroke-width:0.5;"/><line style="stroke:#181818;stroke-width:0.5;" x1="331.78" x2="401.2138" y1="69.6699" y2="69.6699"/><text fill="#000000" font-family="sans-serif" font-size="14" font-weight="bold" lengthAdjust="spacing" textLength="56.4338" x="335.78" y="61.5679">services</text><path d="M445.61,44.602 L488.3998,44.602 A3.75,3.75 0 0 1 490.8998,47.102 L497.8998,69.6699 L502.3998,69.6699 A2.5,2.5 0 0 1 504.8998,72.1699 L504.8998,100.2378 A2.5,2.5 0 0 1 502.3998,102.7378 L445.61,102.7378 A2.5,2.5 0 0 1 443.11,100.2378 L443.11,47.102 A2.5,2.5 0 0 1 445.61,44.602" fill="#F1F1F1" style="stroke:#181818;stroke-width:0.5;"/><line style="stroke:#181818;stroke-width:0.5;" x1="443.11" x2="497.8998" y1="69.6699" y2="69.6699"/><text fill="#000000" font-family="sans-serif" font-size="14" font-weight="bold" lengthAdjust="spacing" textLength="41.7898" x="447.11" y="61.5679">utility</text><!--SRC=[NSf13i8m34JHVK-H4qHYmqKu03BngB98xCfnGQZgtSc61PdbczyHIQcXRrHmmqPEOPxK5CkW9wr84dbNwPHPqFBRd8SoczxNopKTInhxjSKqt6g5z-FyU_WnGJD6dQiEVqd1p7j8bVWCFRy0]--></g></svg>