<svg xmlns="http://www.w3.org/2000/svg" xmlns:xlink="http://www.w3.org/1999/xlink" contentStyleType="text/css" data-diagram-type="SEQUENCE" height="774px" preserveAspectRatio="none" style="width:680px;height:774px;background:#FFFFFF;" version="1.1" viewBox="0 0 680 774" width="680px" zoomAndPan="magnify"><defs/><g><g><title>Utente</title><rect fill="#FFFFFF" height="586.5721" style="stroke:#181818;stroke-width:1;" width="10" x="40.3929" y="94.0679"/></g><g><title>AuthController</title><rect fill="#3375E0" height="345.336" style="stroke:#181818;stroke-width:1;" width="10" x="131.5266" y="220.892"/></g><g><title>AppContext</title><rect fill="#FFFFFF" height="31.706" style="stroke:#181818;stroke-width:1;" width="10" x="275.1738" y="149.4799"/></g><g><title>AppContext</title><rect fill="#FFFFFF" height="30" style="stroke:#181818;stroke-width:1;" width="10" x="275.1738" y="411.1281"/></g><g><title>AuthService</title><rect fill="#FFFFFF" height="95.118" style="stroke:#181818;stroke-width:1;" width="10" x="427.6659" y="257.598"/></g><g><title>AuthService</title><rect fill="#3375E0" height="63.412" style="stroke:#181818;stroke-width:1;" width="10" x="432.6659" y="257.598"/></g><g><title>AuthService</title><rect fill="#FFFFFF" height="106.412" style="stroke:#181818;stroke-width:1;" width="10" x="427.6659" y="411.1281"/></g><g><title>Database</title><rect fill="#FFFFFF" height="31.706" style="stroke:#181818;stroke-width:1;" width="10" x="570.06" y="289.304"/></g><g><title>View</title><rect fill="#FFFFFF" height="587.5721" style="stroke:#181818;stroke-width:1;" width="10" x="636.5398" y="94.0679"/></g><g><title>View</title><rect fill="#FFFFFF" height="164.0999" style="stroke:#181818;stroke-width:1;" width="10" x="641.5398" y="517.5401"/></g><g><title>View</title><rect fill="#3375E0" height="30" style="stroke:#181818;stroke-width:1;" width="10" x="646.5398" y="597.934"/></g><rect fill="none" height="305.924" style="stroke:#000000;stroke-width:1.5;" width="663.9957" x="10" y="367.716"/><g><title>Utente</title><rect fill="#000000" fill-opacity="0.00000" height="606.5721" width="8" x="41.3929" y="84.0679"/><line style="stroke:#181818;stroke-width:0.5;stroke-dasharray:5.0,5.0;" x1="45" x2="45" y1="84.0679" y2="690.6401"/></g><g><title>AuthController</title><rect fill="#000000" fill-opacity="0.00000" height="606.5721" width="8" x="132.5266" y="84.0679"/><line style="stroke:#181818;stroke-width:0.5;stroke-dasharray:5.0,5.0;" x1="135.7858" x2="135.7858" y1="84.0679" y2="690.6401"/></g><g><title>AppContext</title><rect fill="#000000" fill-opacity="0.00000" height="606.5721" width="8" x="276.1738" y="84.0679"/><line style="stroke:#181818;stroke-width:0.5;stroke-dasharray:5.0,5.0;" x1="279.4009" x2="279.4009" y1="84.0679" y2="690.6401"/></g><g><title>AuthService</title><rect fill="#000000" fill-opacity="0.00000" height="606.5721" width="8" x="428.6659" y="84.0679"/><line style="stroke:#181818;stroke-width:0.5;stroke-dasharray:5.0,5.0;" x1="432.662" x2="432.662" y1="84.0679" y2="690.6401"/></g><g><title>Database</title><rect fill="#000000" fill-opacity="0.00000" height="606.5721" width="8" x="571.06" y="84.0679"/><line style="stroke:#181818;stroke-width:0.5;stroke-dasharray:5.0,5.0;" x1="575.0361" x2="575.0361" y1="84.0679" y2="690.6401"/></g><g><title>View</title><rect fill="#000000" fill-opacity="0.00000" height="606.5721" width="8" x="637.5398" y="84.0679"/><line style="stroke:#181818;stroke-width:0.5;stroke-dasharray:5.0,5.0;" x1="641.0838" x2="641.0838" y1="84.0679" y2="690.6401"/></g><g class="participant participant-head" data-participant="Utente"><text fill="#000000" font-family="sans-serif" font-size="14" lengthAdjust="spacing" textLength="44.7858" x="20" y="79.9659">Utente</text><ellipse cx="45.3929" cy="13.5" fill="#E2E2F0" rx="8" ry="8" style="stroke:#181818;stroke-width:0.5;"/><path d="M45.3929,21.5 L45.3929,48.5 M32.3929,29.5 L58.3929,29.5 M45.3929,48.5 L32.3929,63.5 M45.3929,48.5 L58.3929,63.5" fill="none" style="stroke:#181818;stroke-width:0.5;"/></g><g class="participant participant-tail" data-participant="Utente"><text fill="#000000" font-family="sans-serif" font-size="14" lengthAdjust="spacing" textLength="44.7858" x="20" y="704.606">Utente</text><ellipse cx="45.3929" cy="717.208" fill="#E2E2F0" rx="8" ry="8" style="stroke:#181818;stroke-width:0.5;"/><path d="M45.3929,725.208 L45.3929,752.208 M32.3929,733.208 L58.3929,733.208 M45.3929,752.208 L32.3929,767.208 M45.3929,752.208 L58.3929,767.208" fill="none" style="stroke:#181818;stroke-width:0.5;"/></g><g class="participant participant-head" data-participant="AuthController"><rect fill="#E2E2F0" height="33.0679" rx="2.5" ry="2.5" style="stroke:#181818;stroke-width:0.5;" width="111.4816" x="80.7858" y="50"/><text fill="#000000" font-family="sans-serif" font-size="14" lengthAdjust="spacing" textLength="97.4816" x="87.7858" y="71.9659">AuthController</text></g><g class="participant participant-tail" data-participant="AuthController"><rect fill="#E2E2F0" height="33.0679" rx="2.5" ry="2.5" style="stroke:#181818;stroke-width:0.5;" width="111.4816" x="80.7858" y="689.6401"/><text fill="#000000" font-family="sans-serif" font-size="14" lengthAdjust="spacing" textLength="97.4816" x="87.7858" y="711.606">AuthController</text></g><g class="participant participant-head" data-participant="AppContext"><rect fill="#E2E2F0" height="33.0679" rx="2.5" ry="2.5" style="stroke:#181818;stroke-width:0.5;" width="91.5457" x="234.4009" y="50"/><text fill="#000000" font-family="sans-serif" font-size="14" lengthAdjust="spacing" textLength="77.5457" x="241.4009" y="71.9659">AppContext</text></g><g class="participant participant-tail" data-participant="AppContext"><rect fill="#E2E2F0" height="33.0679" rx="2.5" ry="2.5" style="stroke:#181818;stroke-width:0.5;" width="91.5457" x="234.4009" y="689.6401"/><text fill="#000000" font-family="sans-serif" font-size="14" lengthAdjust="spacing" textLength="77.5457" x="241.4009" y="711.606">AppContext</text></g><g class="participant participant-head" data-participant="AuthService"><rect fill="#E2E2F0" height="33.0679" rx="2.5" ry="2.5" style="stroke:#181818;stroke-width:0.5;" width="92.0077" x="386.662" y="50"/><text fill="#000000" font-family="sans-serif" font-size="14" lengthAdjust="spacing" textLength="78.0077" x="393.662" y="71.9659">AuthService</text></g><g class="participant participant-tail" data-participant="AuthService"><rect fill="#E2E2F0" height="33.0679" rx="2.5" ry="2.5" style="stroke:#181818;stroke-width:0.5;" width="92.0077" x="386.662" y="689.6401"/><text fill="#000000" font-family="sans-serif" font-size="14" lengthAdjust="spacing" textLength="78.0077" x="393.662" y="711.606">AuthService</text></g><g class="participant participant-head" data-participant="DB"><text fill="#000000" font-family="sans-serif" font-size="14" lengthAdjust="spacing" textLength="62.0478" x="541.0361" y="79.9659">Database</text><path d="M557.06,29 C557.06,19 575.06,19 575.06,19 C575.06,19 593.06,19 593.06,29 L593.06,55 C593.06,65 575.06,65 575.06,65 C575.06,65 557.06,65 557.06,55 L557.06,29" fill="#E2E2F0" style="stroke:#181818;stroke-width:1.5;"/><path d="M557.06,29 C557.06,39 575.06,39 575.06,39 C575.06,39 593.06,39 593.06,29" fill="none" style="stroke:#181818;stroke-width:1.5;"/></g><g class="participant participant-tail" data-participant="DB"><text fill="#000000" font-family="sans-serif" font-size="14" lengthAdjust="spacing" textLength="62.0478" x="541.0361" y="704.606">Database</text><path d="M557.06,718.708 C557.06,708.708 575.06,708.708 575.06,708.708 C575.06,708.708 593.06,708.708 593.06,718.708 L593.06,744.708 C593.06,754.708 575.06,754.708 575.06,754.708 C575.06,754.708 557.06,754.708 557.06,744.708 L557.06,718.708" fill="#E2E2F0" style="stroke:#181818;stroke-width:1.5;"/><path d="M557.06,718.708 C557.06,728.708 575.06,728.708 575.06,728.708 C575.06,728.708 593.06,728.708 593.06,718.708" fill="none" style="stroke:#181818;stroke-width:1.5;"/></g><g class="participant participant-head" data-participant="View"><rect fill="#E2E2F0" height="33.0679" rx="2.5" ry="2.5" style="stroke:#181818;stroke-width:0.5;" width="44.9119" x="619.0838" y="50"/><text fill="#000000" font-family="sans-serif" font-size="14" lengthAdjust="spacing" textLength="30.9119" x="626.0838" y="71.9659">View</text></g><g class="participant participant-tail" data-participant="View"><rect fill="#E2E2F0" height="33.0679" rx="2.5" ry="2.5" style="stroke:#181818;stroke-width:0.5;" width="44.9119" x="619.0838" y="689.6401"/><text fill="#000000" font-family="sans-serif" font-size="14" lengthAdjust="spacing" textLength="30.9119" x="626.0838" y="711.606">View</text></g><g><title>Utente</title><rect fill="#FFFFFF" height="586.5721" style="stroke:#181818;stroke-width:1;" width="10" x="40.3929" y="94.0679"/></g><g><title>AuthController</title><rect fill="#3375E0" height="345.336" style="stroke:#181818;stroke-width:1;" width="10" x="131.5266" y="220.892"/></g><g><title>AppContext</title><rect fill="#FFFFFF" height="31.706" style="stroke:#181818;stroke-width:1;" width="10" x="275.1738" y="149.4799"/></g><g><title>AppContext</title><rect fill="#FFFFFF" height="30" style="stroke:#181818;stroke-width:1;" width="10" x="275.1738" y="411.1281"/></g><g><title>AuthService</title><rect fill="#FFFFFF" height="95.118" style="stroke:#181818;stroke-width:1;" width="10" x="427.6659" y="257.598"/></g><g><title>AuthService</title><rect fill="#3375E0" height="63.412" style="stroke:#181818;stroke-width:1;" width="10" x="432.6659" y="257.598"/></g><g><title>AuthService</title><rect fill="#FFFFFF" height="106.412" style="stroke:#181818;stroke-width:1;" width="10" x="427.6659" y="411.1281"/></g><g><title>Database</title><rect fill="#FFFFFF" height="31.706" style="stroke:#181818;stroke-width:1;" width="10" x="570.06" y="289.304"/></g><g><title>View</title><rect fill="#FFFFFF" height="587.5721" style="stroke:#181818;stroke-width:1;" width="10" x="636.5398" y="94.0679"/></g><g><title>View</title><rect fill="#FFFFFF" height="164.0999" style="stroke:#181818;stroke-width:1;" width="10" x="641.5398" y="517.5401"/></g><g><title>View</title><rect fill="#3375E0" height="30" style="stroke:#181818;stroke-width:1;" width="10" x="646.5398" y="597.934"/></g><g class="message" data-participant-1="Utente" data-participant-2="View"><polygon fill="#181818" points="624.5398,113.7739,634.5398,117.7739,624.5398,121.7739,628.5398,117.7739" style="stroke:#181818;stroke-width:1;"/><line style="stroke:#181818;stroke-width:1;" x1="50.3929" x2="630.5398" y1="117.7739" y2="117.7739"/><text fill="#000000" font-family="sans-serif" font-size="13" lengthAdjust="spacing" textLength="191.9061" x="57.3929" y="111.9649">inserisce username e password</text></g><g class="message" data-participant-1="AuthController" data-participant-2="AppContext"><polygon fill="#181818" points="263.1738,145.4799,273.1738,149.4799,263.1738,153.4799,267.1738,149.4799" style="stroke:#181818;stroke-width:1;"/><line style="stroke:#181818;stroke-width:1;" x1="136.5266" x2="269.1738" y1="149.4799" y2="149.4799"/><text fill="#000000" font-family="sans-serif" font-size="13" lengthAdjust="spacing" textLength="100.2561" x="143.5266" y="143.6709">getAuthService()</text></g><g class="message" data-participant-1="AppContext" data-participant-2="AuthController"><polygon fill="#181818" points="147.5266,177.186,137.5266,181.186,147.5266,185.186,143.5266,181.186" style="stroke:#181818;stroke-width:1;"/><line style="stroke:#181818;stroke-width:1;stroke-dasharray:2.0,2.0;" x1="141.5266" x2="279.1738" y1="181.186" y2="181.186"/><text fill="#000000" font-family="sans-serif" font-size="13" lengthAdjust="spacing" textLength="114.6471" x="153.5266" y="175.377">return AuthService</text></g><g class="message" data-participant-1="AuthController" data-participant-2="AuthController"><line style="stroke:#181818;stroke-width:1;" x1="136.5266" x2="183.5266" y1="207.892" y2="207.892"/><line style="stroke:#181818;stroke-width:1;" x1="183.5266" x2="183.5266" y1="207.892" y2="220.892"/><line style="stroke:#181818;stroke-width:1;" x1="142.5266" x2="183.5266" y1="220.892" y2="220.892"/><polygon fill="#181818" points="152.5266,216.892,142.5266,220.892,152.5266,224.892,148.5266,220.892" style="stroke:#181818;stroke-width:1;"/><text fill="#000000" font-family="sans-serif" font-size="13" lengthAdjust="spacing" textLength="83.9021" x="148.5266" y="202.083">handleLogin()</text></g><g class="message" data-participant-1="AuthController" data-participant-2="AuthService"><polygon fill="#181818" points="420.6659,253.598,430.6659,257.598,420.6659,261.598,424.6659,257.598" style="stroke:#181818;stroke-width:1;"/><line style="stroke:#181818;stroke-width:1;" x1="141.5266" x2="426.6659" y1="257.598" y2="257.598"/><text fill="#000000" font-family="sans-serif" font-size="13" lengthAdjust="spacing" textLength="38.4021" x="148.5266" y="251.789">login()</text></g><g class="message" data-participant-1="AuthService" data-participant-2="DB"><polygon fill="#181818" points="558.06,285.304,568.06,289.304,558.06,293.304,562.06,289.304" style="stroke:#181818;stroke-width:1;"/><line style="stroke:#181818;stroke-width:1;" x1="442.6659" x2="564.06" y1="289.304" y2="289.304"/><text fill="#000000" font-family="sans-serif" font-size="13" lengthAdjust="spacing" textLength="58.0581" x="449.6659" y="283.495">selectBy()</text></g><g class="message" data-participant-1="DB" data-participant-2="AuthService"><polygon fill="#181818" points="448.6659,317.01,438.6659,321.01,448.6659,325.01,444.6659,321.01" style="stroke:#181818;stroke-width:1;"/><line style="stroke:#181818;stroke-width:1;stroke-dasharray:2.0,2.0;" x1="442.6659" x2="574.06" y1="321.01" y2="321.01"/><text fill="#000000" font-family="sans-serif" font-size="13" lengthAdjust="spacing" textLength="28.431" x="454.6659" y="315.201">User</text></g><g class="message" data-participant-1="AuthService" data-participant-2="AuthController"><polygon fill="#181818" points="152.5266,348.716,142.5266,352.716,152.5266,356.716,148.5266,352.716" style="stroke:#181818;stroke-width:1;"/><line style="stroke:#181818;stroke-width:1;stroke-dasharray:2.0,2.0;" x1="146.5266" x2="431.6659" y1="352.716" y2="352.716"/><text fill="#000000" font-family="sans-serif" font-size="13" lengthAdjust="spacing" textLength="49.738" x="158.5266" y="346.907">boolean</text></g><path d="M10,367.716 L72.303,367.716 L72.303,377.4221 L62.303,387.4221 L10,387.4221 L10,367.716" fill="#EEEEEE" style="stroke:#000000;stroke-width:1.5;"/><rect fill="none" height="305.924" style="stroke:#000000;stroke-width:1.5;" width="663.9957" x="10" y="367.716"/><text fill="#000000" font-family="sans-serif" font-size="13" font-weight="bold" lengthAdjust="spacing" textLength="17.303" x="25" y="382.6131">alt</text><text fill="#000000" font-family="sans-serif" font-size="11" font-weight="bold" lengthAdjust="spacing" textLength="30.6898" x="87.303" y="381.475">[true]</text><g class="message" data-participant-1="AuthService" data-participant-2="AppContext"><polygon fill="#181818" points="296.1738,407.1281,286.1738,411.1281,296.1738,415.1281,292.1738,411.1281" style="stroke:#181818;stroke-width:1;"/><line style="stroke:#181818;stroke-width:1;" x1="290.1738" x2="426.6659" y1="411.1281" y2="411.1281"/><text fill="#000000" font-family="sans-serif" font-size="13" lengthAdjust="spacing" textLength="128.4921" x="302.1738" y="405.3191">setCurrentUser(user)</text></g><g class="message" data-participant-1="AuthService" data-participant-2="AuthService"><line style="stroke:#181818;stroke-width:1;" x1="437.6659" x2="479.6659" y1="472.8341" y2="472.8341"/><line style="stroke:#181818;stroke-width:1;" x1="479.6659" x2="479.6659" y1="472.8341" y2="485.8341"/><line style="stroke:#181818;stroke-width:1;" x1="438.6659" x2="479.6659" y1="485.8341" y2="485.8341"/><polygon fill="#181818" points="448.6659,481.8341,438.6659,485.8341,448.6659,489.8341,444.6659,485.8341" style="stroke:#181818;stroke-width:1;"/><text fill="#000000" font-family="sans-serif" font-size="13" lengthAdjust="spacing" textLength="108.3941" x="444.6659" y="467.0251">saveSession(user)</text></g><g class="message" data-participant-1="AuthController" data-participant-2="View"><polygon fill="#181818" points="629.5398,513.5401,639.5398,517.5401,629.5398,521.5401,633.5398,517.5401" style="stroke:#181818;stroke-width:1;"/><line style="stroke:#181818;stroke-width:1;" x1="141.5266" x2="635.5398" y1="517.5401" y2="517.5401"/><text fill="#000000" font-family="sans-serif" font-size="13" lengthAdjust="spacing" textLength="117.5721" x="148.5266" y="511.7311">ViewLoader(MENU)</text></g><line style="stroke:#000000;stroke-width:1;stroke-dasharray:2.0,2.0;" x1="10" x2="673.9957" y1="526.5401" y2="526.5401"/><text fill="#000000" font-family="sans-serif" font-size="11" font-weight="bold" lengthAdjust="spacing" textLength="33.4948" x="15" y="538.299">[false]</text><g class="message" data-participant-1="AuthController" data-participant-2="View"><polygon fill="#181818" points="629.5398,562.228,639.5398,566.228,629.5398,570.228,633.5398,566.228" style="stroke:#181818;stroke-width:1;"/><line style="stroke:#181818;stroke-width:1;" x1="136.5266" x2="635.5398" y1="566.228" y2="566.228"/><text fill="#000000" font-family="sans-serif" font-size="13" lengthAdjust="spacing" textLength="79.4951" x="143.5266" y="560.419">showDialog()</text></g><g class="message" data-participant-1="View" data-participant-2="Utente"><polygon fill="#181818" points="61.3929,593.934,51.3929,597.934,61.3929,601.934,57.3929,597.934" style="stroke:#181818;stroke-width:1;"/><line style="stroke:#181818;stroke-width:1;stroke-dasharray:2.0,2.0;" x1="55.3929" x2="645.5398" y1="597.934" y2="597.934"/><text fill="#000000" font-family="sans-serif" font-size="13" lengthAdjust="spacing" textLength="129.5841" x="67.3929" y="592.125">Dialog("Login fallito")</text></g><path d="M141,640.934 L141,667.934 L392,667.934 L392,650.934 L382,640.934 L141,640.934" fill="#FEFFDD" style="stroke:#181818;stroke-width:0.5;"/><path d="M382,640.934 L382,650.934 L392,650.934 L382,640.934" fill="#FEFFDD" style="stroke:#181818;stroke-width:0.5;"/><text fill="#000000" font-family="sans-serif" font-size="13" lengthAdjust="spacing" textLength="230.2302" x="147" y="659.831">Mostra messaggio di errore all'utente</text><!--SRC=[VLHDRzim3BtxLn3POSaXm81Y6913WQNfhUsboEwipJe2LCcWwAJxzwCSfv5YUJxO5Z_UUo8fOIsUOI_aXAeEMKnjEdG2ltivF7WdxAqbpbrT5ptqAPECL-AZgQbgKF0D0y5YD_uj00Fijbd67qEdgi9Qp165BYg-reFxR8Jr_R243HWNY4se2NhzSVX1GD1X22VFJLNbkcFULQvcjoI9pkNgofRiAibOHu0SSWDCqhFBDqmbe9AQMx03kiRIas-Do-JaST_kxdxzVFmn0pYgK3HRmhc8B1apv8jDONTRHGjagPRjNmMy9ciJA_Mk9znxxKTQ20rCov88oSbALNdptXAwMG2q0i8zLQ3FZVIiuO7aeMVM8Ohobd5cLaDI4JTtN1iPxUKMt_2lxvE5ikEHNYa4urr2FMtYEDlny-InKQ7FZo_xrOHtJkfmL6w21njPFOJlgE__CqCu-DFEeCxFiaYRt0NHEwJ5petdSmDZycAOv4XfZVZ56Sjv3M7J7WJyUmakFiy-22DyQBcmROs7nW0nUoPGiE_z-NQ8aUIQ0N9Q0_WQvs8nd5uGC-MStsxYEM_s7m00]--></g></svg>