<svg xmlns="http://www.w3.org/2000/svg" xmlns:xlink="http://www.w3.org/1999/xlink" contentStyleType="text/css" data-diagram-type="SEQUENCE" height="939px" preserveAspectRatio="none" style="width:695px;height:939px;background:#FFFFFF;" version="1.1" viewBox="0 0 695 939" width="695px" zoomAndPan="magnify"><defs/><g><g><title>Utente</title><rect fill="#FFFFFF" height="751.3962" style="stroke:#181818;stroke-width:1;" width="10" x="40.3929" y="94.0679"/></g><g><title>AuthController</title><rect fill="#FFFFFF" height="695.9842" style="stroke:#181818;stroke-width:1;" width="10" x="131.5266" y="149.4799"/></g><g><title>AuthController</title><rect fill="#3375E0" height="510.1601" style="stroke:#181818;stroke-width:1;" width="10" x="136.5266" y="220.892"/></g><g><title>AppContext</title><rect fill="#FFFFFF" height="31.706" style="stroke:#181818;stroke-width:1;" width="10" x="289.6638" y="149.4799"/></g><g><title>AppContext</title><rect fill="#FFFFFF" height="30" style="stroke:#181818;stroke-width:1;" width="10" x="289.6638" y="575.9521"/></g><g><title>AuthService</title><rect fill="#FFFFFF" height="95.118" style="stroke:#181818;stroke-width:1;" width="10" x="442.1559" y="422.4221"/></g><g><title>AuthService</title><rect fill="#3375E0" height="63.412" style="stroke:#181818;stroke-width:1;" width="10" x="447.1559" y="422.4221"/></g><g><title>AuthService</title><rect fill="#FFFFFF" height="106.412" style="stroke:#181818;stroke-width:1;" width="10" x="442.1559" y="575.9521"/></g><g><title>Database</title><rect fill="#FFFFFF" height="31.706" style="stroke:#181818;stroke-width:1;" width="10" x="584.55" y="454.1281"/></g><g><title>View</title><rect fill="#FFFFFF" height="752.3962" style="stroke:#181818;stroke-width:1;" width="10" x="651.0298" y="94.0679"/></g><g><title>View</title><rect fill="#3375E0" height="30" style="stroke:#181818;stroke-width:1;" width="10" x="656.0298" y="316.01"/></g><g><title>View</title><rect fill="#FFFFFF" height="164.0999" style="stroke:#181818;stroke-width:1;" width="10" x="656.0298" y="682.3642"/></g><g><title>View</title><rect fill="#3375E0" height="30" style="stroke:#181818;stroke-width:1;" width="10" x="661.0298" y="762.7581"/></g><rect fill="none" height="150.8241" style="stroke:#000000;stroke-width:1.5;" width="678.4857" x="10" y="240.892"/><rect fill="none" height="305.924" style="stroke:#000000;stroke-width:1.5;" width="678.4857" x="10" y="532.5401"/><rect fill="#FFA500" height="148.0999" style="stroke:none;stroke-width:1;" width="678.4857" x="10" y="690.3642"/><g><title>Utente</title><rect fill="#000000" fill-opacity="0.00000" height="771.3962" width="8" x="41.3929" y="84.0679"/><line style="stroke:#181818;stroke-width:0.5;stroke-dasharray:5.0,5.0;" x1="45" x2="45" y1="84.0679" y2="855.4641"/></g><g><title>AuthController</title><rect fill="#000000" fill-opacity="0.00000" height="771.3962" width="8" x="132.5266" y="84.0679"/><line style="stroke:#181818;stroke-width:0.5;stroke-dasharray:5.0,5.0;" x1="135.7858" x2="135.7858" y1="84.0679" y2="855.4641"/></g><g><title>AppContext</title><rect fill="#000000" fill-opacity="0.00000" height="771.3962" width="8" x="290.6638" y="84.0679"/><line style="stroke:#181818;stroke-width:0.5;stroke-dasharray:5.0,5.0;" x1="293.8909" x2="293.8909" y1="84.0679" y2="855.4641"/></g><g><title>AuthService</title><rect fill="#000000" fill-opacity="0.00000" height="771.3962" width="8" x="443.1559" y="84.0679"/><line style="stroke:#181818;stroke-width:0.5;stroke-dasharray:5.0,5.0;" x1="447.152" x2="447.152" y1="84.0679" y2="855.4641"/></g><g><title>Database</title><rect fill="#000000" fill-opacity="0.00000" height="771.3962" width="8" x="585.55" y="84.0679"/><line style="stroke:#181818;stroke-width:0.5;stroke-dasharray:5.0,5.0;" x1="589.5261" x2="589.5261" y1="84.0679" y2="855.4641"/></g><g><title>View</title><rect fill="#000000" fill-opacity="0.00000" height="771.3962" width="8" x="652.0298" y="84.0679"/><line style="stroke:#181818;stroke-width:0.5;stroke-dasharray:5.0,5.0;" x1="655.5739" x2="655.5739" y1="84.0679" y2="855.4641"/></g><g class="participant participant-head" data-participant="Utente"><text fill="#000000" font-family="sans-serif" font-size="14" lengthAdjust="spacing" textLength="44.7858" x="20" y="79.9659">Utente</text><ellipse cx="45.3929" cy="13.5" fill="#E2E2F0" rx="8" ry="8" style="stroke:#181818;stroke-width:0.5;"/><path d="M45.3929,21.5 L45.3929,48.5 M32.3929,29.5 L58.3929,29.5 M45.3929,48.5 L32.3929,63.5 M45.3929,48.5 L58.3929,63.5" fill="none" style="stroke:#181818;stroke-width:0.5;"/></g><g class="participant participant-tail" data-participant="Utente"><text fill="#000000" font-family="sans-serif" font-size="14" lengthAdjust="spacing" textLength="44.7858" x="20" y="869.4301">Utente</text><ellipse cx="45.3929" cy="882.032" fill="#E2E2F0" rx="8" ry="8" style="stroke:#181818;stroke-width:0.5;"/><path d="M45.3929,890.032 L45.3929,917.032 M32.3929,898.032 L58.3929,898.032 M45.3929,917.032 L32.3929,932.032 M45.3929,917.032 L58.3929,932.032" fill="none" style="stroke:#181818;stroke-width:0.5;"/></g><g class="participant participant-head" data-participant="AuthController"><rect fill="#E2E2F0" height="33.0679" rx="2.5" ry="2.5" style="stroke:#181818;stroke-width:0.5;" width="111.4816" x="80.7858" y="50"/><text fill="#000000" font-family="sans-serif" font-size="14" lengthAdjust="spacing" textLength="97.4816" x="87.7858" y="71.9659">AuthController</text></g><g class="participant participant-tail" data-participant="AuthController"><rect fill="#E2E2F0" height="33.0679" rx="2.5" ry="2.5" style="stroke:#181818;stroke-width:0.5;" width="111.4816" x="80.7858" y="854.4641"/><text fill="#000000" font-family="sans-serif" font-size="14" lengthAdjust="spacing" textLength="97.4816" x="87.7858" y="876.4301">AuthController</text></g><g class="participant participant-head" data-participant="AppContext"><rect fill="#E2E2F0" height="33.0679" rx="2.5" ry="2.5" style="stroke:#181818;stroke-width:0.5;" width="91.5457" x="248.8909" y="50"/><text fill="#000000" font-family="sans-serif" font-size="14" lengthAdjust="spacing" textLength="77.5457" x="255.8909" y="71.9659">AppContext</text></g><g class="participant participant-tail" data-participant="AppContext"><rect fill="#E2E2F0" height="33.0679" rx="2.5" ry="2.5" style="stroke:#181818;stroke-width:0.5;" width="91.5457" x="248.8909" y="854.4641"/><text fill="#000000" font-family="sans-serif" font-size="14" lengthAdjust="spacing" textLength="77.5457" x="255.8909" y="876.4301">AppContext</text></g><g class="participant participant-head" data-participant="AuthService"><rect fill="#E2E2F0" height="33.0679" rx="2.5" ry="2.5" style="stroke:#181818;stroke-width:0.5;" width="92.0077" x="401.152" y="50"/><text fill="#000000" font-family="sans-serif" font-size="14" lengthAdjust="spacing" textLength="78.0077" x="408.152" y="71.9659">AuthService</text></g><g class="participant participant-tail" data-participant="AuthService"><rect fill="#E2E2F0" height="33.0679" rx="2.5" ry="2.5" style="stroke:#181818;stroke-width:0.5;" width="92.0077" x="401.152" y="854.4641"/><text fill="#000000" font-family="sans-serif" font-size="14" lengthAdjust="spacing" textLength="78.0077" x="408.152" y="876.4301">AuthService</text></g><g class="participant participant-head" data-participant="DB"><text fill="#000000" font-family="sans-serif" font-size="14" lengthAdjust="spacing" textLength="62.0478" x="555.5261" y="79.9659">Database</text><path d="M571.55,29 C571.55,19 589.55,19 589.55,19 C589.55,19 607.55,19 607.55,29 L607.55,55 C607.55,65 589.55,65 589.55,65 C589.55,65 571.55,65 571.55,55 L571.55,29" fill="#E2E2F0" style="stroke:#181818;stroke-width:1.5;"/><path d="M571.55,29 C571.55,39 589.55,39 589.55,39 C589.55,39 607.55,39 607.55,29" fill="none" style="stroke:#181818;stroke-width:1.5;"/></g><g class="participant participant-tail" data-participant="DB"><text fill="#000000" font-family="sans-serif" font-size="14" lengthAdjust="spacing" textLength="62.0478" x="555.5261" y="869.4301">Database</text><path d="M571.55,883.532 C571.55,873.532 589.55,873.532 589.55,873.532 C589.55,873.532 607.55,873.532 607.55,883.532 L607.55,909.532 C607.55,919.532 589.55,919.532 589.55,919.532 C589.55,919.532 571.55,919.532 571.55,909.532 L571.55,883.532" fill="#E2E2F0" style="stroke:#181818;stroke-width:1.5;"/><path d="M571.55,883.532 C571.55,893.532 589.55,893.532 589.55,893.532 C589.55,893.532 607.55,893.532 607.55,883.532" fill="none" style="stroke:#181818;stroke-width:1.5;"/></g><g class="participant participant-head" data-participant="View"><rect fill="#E2E2F0" height="33.0679" rx="2.5" ry="2.5" style="stroke:#181818;stroke-width:0.5;" width="44.9119" x="633.5739" y="50"/><text fill="#000000" font-family="sans-serif" font-size="14" lengthAdjust="spacing" textLength="30.9119" x="640.5739" y="71.9659">View</text></g><g class="participant participant-tail" data-participant="View"><rect fill="#E2E2F0" height="33.0679" rx="2.5" ry="2.5" style="stroke:#181818;stroke-width:0.5;" width="44.9119" x="633.5739" y="854.4641"/><text fill="#000000" font-family="sans-serif" font-size="14" lengthAdjust="spacing" textLength="30.9119" x="640.5739" y="876.4301">View</text></g><g><title>Utente</title><rect fill="#FFFFFF" height="751.3962" style="stroke:#181818;stroke-width:1;" width="10" x="40.3929" y="94.0679"/></g><g><title>AuthController</title><rect fill="#FFFFFF" height="695.9842" style="stroke:#181818;stroke-width:1;" width="10" x="131.5266" y="149.4799"/></g><g><title>AuthController</title><rect fill="#3375E0" height="510.1601" style="stroke:#181818;stroke-width:1;" width="10" x="136.5266" y="220.892"/></g><g><title>AppContext</title><rect fill="#FFFFFF" height="31.706" style="stroke:#181818;stroke-width:1;" width="10" x="289.6638" y="149.4799"/></g><g><title>AppContext</title><rect fill="#FFFFFF" height="30" style="stroke:#181818;stroke-width:1;" width="10" x="289.6638" y="575.9521"/></g><g><title>AuthService</title><rect fill="#FFFFFF" height="95.118" style="stroke:#181818;stroke-width:1;" width="10" x="442.1559" y="422.4221"/></g><g><title>AuthService</title><rect fill="#3375E0" height="63.412" style="stroke:#181818;stroke-width:1;" width="10" x="447.1559" y="422.4221"/></g><g><title>AuthService</title><rect fill="#FFFFFF" height="106.412" style="stroke:#181818;stroke-width:1;" width="10" x="442.1559" y="575.9521"/></g><g><title>Database</title><rect fill="#FFFFFF" height="31.706" style="stroke:#181818;stroke-width:1;" width="10" x="584.55" y="454.1281"/></g><g><title>View</title><rect fill="#FFFFFF" height="752.3962" style="stroke:#181818;stroke-width:1;" width="10" x="651.0298" y="94.0679"/></g><g><title>View</title><rect fill="#3375E0" height="30" style="stroke:#181818;stroke-width:1;" width="10" x="656.0298" y="316.01"/></g><g><title>View</title><rect fill="#FFFFFF" height="164.0999" style="stroke:#181818;stroke-width:1;" width="10" x="656.0298" y="682.3642"/></g><g><title>View</title><rect fill="#3375E0" height="30" style="stroke:#181818;stroke-width:1;" width="10" x="661.0298" y="762.7581"/></g><g class="message" data-participant-1="Utente" data-participant-2="View"><polygon fill="#181818" points="639.0298,113.7739,649.0298,117.7739,639.0298,121.7739,643.0298,117.7739" style="stroke:#181818;stroke-width:1;"/><line style="stroke:#181818;stroke-width:1;" x1="50.3929" x2="645.0298" y1="117.7739" y2="117.7739"/><text fill="#000000" font-family="sans-serif" font-size="13" lengthAdjust="spacing" textLength="191.9061" x="57.3929" y="111.9649">inserisce username e password</text></g><g class="message" data-participant-1="AuthController" data-participant-2="AppContext"><polygon fill="#181818" points="277.6638,145.4799,287.6638,149.4799,277.6638,153.4799,281.6638,149.4799" style="stroke:#181818;stroke-width:1;"/><line style="stroke:#181818;stroke-width:1;" x1="141.5266" x2="283.6638" y1="149.4799" y2="149.4799"/><text fill="#000000" font-family="sans-serif" font-size="13" lengthAdjust="spacing" textLength="100.2561" x="148.5266" y="143.6709">getAuthService()</text></g><g class="message" data-participant-1="AppContext" data-participant-2="AuthController"><polygon fill="#181818" points="152.5266,177.186,142.5266,181.186,152.5266,185.186,148.5266,181.186" style="stroke:#181818;stroke-width:1;"/><line style="stroke:#181818;stroke-width:1;stroke-dasharray:2.0,2.0;" x1="146.5266" x2="293.6638" y1="181.186" y2="181.186"/><text fill="#000000" font-family="sans-serif" font-size="13" lengthAdjust="spacing" textLength="114.6471" x="158.5266" y="175.377">return AuthService</text></g><g class="message" data-participant-1="AuthController" data-participant-2="AuthController"><line style="stroke:#181818;stroke-width:1;" x1="141.5266" x2="188.5266" y1="207.892" y2="207.892"/><line style="stroke:#181818;stroke-width:1;" x1="188.5266" x2="188.5266" y1="207.892" y2="220.892"/><line style="stroke:#181818;stroke-width:1;" x1="147.5266" x2="188.5266" y1="220.892" y2="220.892"/><polygon fill="#181818" points="157.5266,216.892,147.5266,220.892,157.5266,224.892,153.5266,220.892" style="stroke:#181818;stroke-width:1;"/><text fill="#000000" font-family="sans-serif" font-size="13" lengthAdjust="spacing" textLength="124.1371" x="153.5266" y="202.083">handleRegistration()</text></g><path d="M10,240.892 L76.983,240.892 L76.983,250.598 L66.983,260.598 L10,260.598 L10,240.892" fill="#EEEEEE" style="stroke:#000000;stroke-width:1.5;"/><rect fill="none" height="150.8241" style="stroke:#000000;stroke-width:1.5;" width="678.4857" x="10" y="240.892"/><text fill="#000000" font-family="sans-serif" font-size="13" font-weight="bold" lengthAdjust="spacing" textLength="21.983" x="25" y="255.789">opt</text><text fill="#000000" font-family="sans-serif" font-size="11" font-weight="bold" lengthAdjust="spacing" textLength="85.4584" x="91.983" y="254.6509">[dati non validi]</text><g class="message" data-participant-1="AuthController" data-participant-2="View"><polygon fill="#181818" points="639.0298,280.304,649.0298,284.304,639.0298,288.304,643.0298,284.304" style="stroke:#181818;stroke-width:1;"/><line style="stroke:#181818;stroke-width:1;" x1="146.5266" x2="645.0298" y1="284.304" y2="284.304"/><text fill="#000000" font-family="sans-serif" font-size="13" lengthAdjust="spacing" textLength="79.4951" x="153.5266" y="278.495">showDialog()</text></g><g class="message" data-participant-1="View" data-participant-2="Utente"><polygon fill="#181818" points="61.3929,312.01,51.3929,316.01,61.3929,320.01,57.3929,316.01" style="stroke:#181818;stroke-width:1;"/><line style="stroke:#181818;stroke-width:1;stroke-dasharray:2.0,2.0;" x1="55.3929" x2="655.0298" y1="316.01" y2="316.01"/><text fill="#000000" font-family="sans-serif" font-size="13" lengthAdjust="spacing" textLength="257.4652" x="67.3929" y="310.201">Dialog("Username o password non validi")</text></g><path d="M151,359.01 L151,386.01 L402,386.01 L402,369.01 L392,359.01 L151,359.01" fill="#FEFFDD" style="stroke:#181818;stroke-width:0.5;"/><path d="M392,359.01 L392,369.01 L402,369.01 L392,359.01" fill="#FEFFDD" style="stroke:#181818;stroke-width:0.5;"/><text fill="#000000" font-family="sans-serif" font-size="13" lengthAdjust="spacing" textLength="230.2302" x="157" y="377.907">Mostra messaggio di errore all'utente</text><g class="message" data-participant-1="AuthController" data-participant-2="AuthService"><polygon fill="#181818" points="435.1559,418.4221,445.1559,422.4221,435.1559,426.4221,439.1559,422.4221" style="stroke:#181818;stroke-width:1;"/><line style="stroke:#181818;stroke-width:1;" x1="146.5266" x2="441.1559" y1="422.4221" y2="422.4221"/><text fill="#000000" font-family="sans-serif" font-size="13" lengthAdjust="spacing" textLength="55.4711" x="153.5266" y="416.6131">register()</text></g><g class="message" data-participant-1="AuthService" data-participant-2="DB"><polygon fill="#181818" points="572.55,450.1281,582.55,454.1281,572.55,458.1281,576.55,454.1281" style="stroke:#181818;stroke-width:1;"/><line style="stroke:#181818;stroke-width:1;" x1="457.1559" x2="578.55" y1="454.1281" y2="454.1281"/><text fill="#000000" font-family="sans-serif" font-size="13" lengthAdjust="spacing" textLength="58.0581" x="464.1559" y="448.3191">selectBy()</text></g><g class="message" data-participant-1="DB" data-participant-2="AuthService"><polygon fill="#181818" points="463.1559,481.8341,453.1559,485.8341,463.1559,489.8341,459.1559,485.8341" style="stroke:#181818;stroke-width:1;"/><line style="stroke:#181818;stroke-width:1;stroke-dasharray:2.0,2.0;" x1="457.1559" x2="588.55" y1="485.8341" y2="485.8341"/><text fill="#000000" font-family="sans-serif" font-size="13" lengthAdjust="spacing" textLength="28.431" x="469.1559" y="480.0251">User</text></g><g class="message" data-participant-1="AuthService" data-participant-2="AuthController"><polygon fill="#181818" points="157.5266,513.5401,147.5266,517.5401,157.5266,521.5401,153.5266,517.5401" style="stroke:#181818;stroke-width:1;"/><line style="stroke:#181818;stroke-width:1;stroke-dasharray:2.0,2.0;" x1="151.5266" x2="446.1559" y1="517.5401" y2="517.5401"/><text fill="#000000" font-family="sans-serif" font-size="13" lengthAdjust="spacing" textLength="49.738" x="163.5266" y="511.7311">boolean</text></g><path d="M10,532.5401 L72.303,532.5401 L72.303,542.2461 L62.303,552.2461 L10,552.2461 L10,532.5401" fill="#EEEEEE" style="stroke:#000000;stroke-width:1.5;"/><rect fill="none" height="305.924" style="stroke:#000000;stroke-width:1.5;" width="678.4857" x="10" y="532.5401"/><text fill="#000000" font-family="sans-serif" font-size="13" font-weight="bold" lengthAdjust="spacing" textLength="17.303" x="25" y="547.4371">alt</text><text fill="#000000" font-family="sans-serif" font-size="11" font-weight="bold" lengthAdjust="spacing" textLength="30.6898" x="87.303" y="546.299">[true]</text><g class="message" data-participant-1="AuthService" data-participant-2="AppContext"><polygon fill="#181818" points="310.6638,571.9521,300.6638,575.9521,310.6638,579.9521,306.6638,575.9521" style="stroke:#181818;stroke-width:1;"/><line style="stroke:#181818;stroke-width:1;" x1="304.6638" x2="441.1559" y1="575.9521" y2="575.9521"/><text fill="#000000" font-family="sans-serif" font-size="13" lengthAdjust="spacing" textLength="128.4921" x="316.6638" y="570.1431">setCurrentUser(user)</text></g><g class="message" data-participant-1="AuthService" data-participant-2="AuthService"><line style="stroke:#181818;stroke-width:1;" x1="452.1559" x2="494.1559" y1="637.6582" y2="637.6582"/><line style="stroke:#181818;stroke-width:1;" x1="494.1559" x2="494.1559" y1="637.6582" y2="650.6582"/><line style="stroke:#181818;stroke-width:1;" x1="453.1559" x2="494.1559" y1="650.6582" y2="650.6582"/><polygon fill="#181818" points="463.1559,646.6582,453.1559,650.6582,463.1559,654.6582,459.1559,650.6582" style="stroke:#181818;stroke-width:1;"/><text fill="#000000" font-family="sans-serif" font-size="13" lengthAdjust="spacing" textLength="108.3941" x="459.1559" y="631.8492">saveSession(user)</text></g><g class="message" data-participant-1="AuthController" data-participant-2="View"><polygon fill="#181818" points="644.0298,678.3642,654.0298,682.3642,644.0298,686.3642,648.0298,682.3642" style="stroke:#181818;stroke-width:1;"/><line style="stroke:#181818;stroke-width:1;" x1="146.5266" x2="650.0298" y1="682.3642" y2="682.3642"/><text fill="#000000" font-family="sans-serif" font-size="13" lengthAdjust="spacing" textLength="117.5721" x="153.5266" y="676.5552">ViewLoader(MENU)</text></g><line style="stroke:#000000;stroke-width:1;stroke-dasharray:2.0,2.0;" x1="10" x2="688.4857" y1="691.3642" y2="691.3642"/><text fill="#000000" font-family="sans-serif" font-size="11" font-weight="bold" lengthAdjust="spacing" textLength="33.4948" x="15" y="703.1231">[false]</text><g class="message" data-participant-1="AuthController" data-participant-2="View"><polygon fill="#181818" points="644.0298,727.0521,654.0298,731.0521,644.0298,735.0521,648.0298,731.0521" style="stroke:#181818;stroke-width:1;"/><line style="stroke:#181818;stroke-width:1;" x1="141.5266" x2="650.0298" y1="731.0521" y2="731.0521"/><text fill="#000000" font-family="sans-serif" font-size="13" lengthAdjust="spacing" textLength="79.4951" x="148.5266" y="725.2431">showDialog()</text></g><g class="message" data-participant-1="View" data-participant-2="Utente"><polygon fill="#181818" points="61.3929,758.7581,51.3929,762.7581,61.3929,766.7581,57.3929,762.7581" style="stroke:#181818;stroke-width:1;"/><line style="stroke:#181818;stroke-width:1;stroke-dasharray:2.0,2.0;" x1="55.3929" x2="660.0298" y1="762.7581" y2="762.7581"/><text fill="#000000" font-family="sans-serif" font-size="13" lengthAdjust="spacing" textLength="177.9961" x="67.3929" y="756.9491">Dialog("Registrazione fallita")</text></g><path d="M146,805.7581 L146,832.7581 L397,832.7581 L397,815.7581 L387,805.7581 L146,805.7581" fill="#FEFFDD" style="stroke:#181818;stroke-width:0.5;"/><path d="M387,805.7581 L387,815.7581 L397,815.7581 L387,805.7581" fill="#FEFFDD" style="stroke:#181818;stroke-width:0.5;"/><text fill="#000000" font-family="sans-serif" font-size="13" lengthAdjust="spacing" textLength="230.2302" x="152" y="824.6551">Mostra messaggio di errore all'utente</text><!--SRC=[jLHDRzim3BthLn3fOUqXm81Y6913WQNfRTsXHNPdRTOHe4e6HITjV_qasuabVsod-M9Bb1uV7_cCXJY6lP0LKZMow4BNQ0L-D7AuTrRO6KESX-ewHkXT9ZUUYO-w85MYu0jwWjMk_re1UjXjink_DPsKmaBq4OMwvMNLS-fUiBvhmx01RJsnzWL14puilX4GrEZzoN6fLCuxtXleXjiLISBp-cR8Doeu2Gpb9b3hY9pdsW2JD6np9MWEQ8xc6Eo0jZJqH9NsmYZQsMMwS7Lx-_tRmrUbN2qGrDTWdOKZ6brg1U6P9kprz0TtscaqhWhmyMIx7ylhfTz07rxjpuAxY-19cbLtFMldXLUCM1TsMLS70VSwrXlwvz75Qk6DlCUgqWvA3SJic02D-T9qKn5FaYrRo7QHoDoEKGYgVuertuI-Ssqxe_R4GPWSwzpSkSqC_RmNe7VRA3OPAcJxaI46LwWGNK_oHxtJ0Ge7qt5AYEJ9vgRfnJb3Q1S1q0W8DtGPbeHwvY1FSjymXpP4UjVHXAF6fxXvO330g6UZI8AmlaiM8JiUwJdCHdJ3a7fnkEFhfyCo47ry-BM_cUHTejeEqUnWcV1NktACjY9unR3wEuEflqRfHnvOTj_vJ_0PQczJ6otOc-v_MYitTEReMTSjoBjSTXBfYlu3]--></g></svg>