<svg xmlns="http://www.w3.org/2000/svg" xmlns:xlink="http://www.w3.org/1999/xlink" contentStyleType="text/css" data-diagram-type="SEQUENCE" height="1322px" preserveAspectRatio="none" style="width:646px;height:1322px;background:#FFFFFF;" version="1.1" viewBox="0 0 646 1322" width="646px" zoomAndPan="magnify"><defs/><g><g><title>Amministratore</title><rect fill="#FFFFFF" height="1135.8503" style="stroke:#181818;stroke-width:1;" width="10" x="54.7998" y="94.0679"/></g><g><title>UserPanelController</title><rect fill="#FFFFFF" height="525.8661" style="stroke:#181818;stroke-width:1;" width="10" x="193.2394" y="157.4799"/></g><g><title>UserPanelController</title><rect fill="#3375E0" height="37.706" style="stroke:#181818;stroke-width:1;" width="10" x="198.2394" y="194.186"/></g><g><title>UserPanelController</title><rect fill="#3375E0" height="389.0421" style="stroke:#181818;stroke-width:1;" width="10" x="198.2394" y="270.598"/></g><g><title>UserPanelController</title><rect fill="#3375E0" height="63.412" style="stroke:#181818;stroke-width:1;" width="10" x="203.2394" y="340.304"/></g><g><title>UserPanelController</title><rect fill="#FFFFFF" height="506.8661" style="stroke:#181818;stroke-width:1;" width="10" x="193.2394" y="723.0521"/></g><g><title>UserPanelController</title><rect fill="#3375E0" height="63.412" style="stroke:#181818;stroke-width:1;" width="10" x="198.2394" y="909.5822"/></g><g><title>UserPanelService</title><rect fill="#FFFFFF" height="66.706" style="stroke:#181818;stroke-width:1;" width="10" x="378.8095" y="233.892"/></g><g><title>UserPanelService</title><rect fill="#3375E0" height="255.924" style="stroke:#181818;stroke-width:1;" width="10" x="378.8095" y="403.716"/></g><g><title>UserPanelService</title><rect fill="#3375E0" height="256.924" style="stroke:#181818;stroke-width:1;" width="10" x="378.8095" y="972.9942"/></g><g><title>Database/DAO</title><rect fill="#FFFFFF" height="30" style="stroke:#181818;stroke-width:1;" width="10" x="529.2636" y="270.598"/></g><g><title>Database/DAO</title><rect fill="#FFFFFF" height="217.218" style="stroke:#181818;stroke-width:1;" width="10" x="529.2636" y="435.4221"/></g><g><title>Database/DAO</title><rect fill="#FFFFFF" height="217.218" style="stroke:#181818;stroke-width:1;" width="10" x="529.2636" y="1004.7002"/></g><g><title>View</title><rect fill="#FFFFFF" height="1135.8503" style="stroke:#181818;stroke-width:1;" width="10" x="613.3974" y="94.0679"/></g><rect fill="none" height="292.336" style="stroke:#000000;stroke-width:1.5;" width="491.3418" x="114.5996" y="360.304"/><rect fill="none" height="163.512" style="stroke:#000000;stroke-width:1.5;" width="286.0347" x="309.9067" y="482.1281"/><rect fill="#FFA500" height="80.3939" style="stroke:none;stroke-width:1;" width="286.0347" x="309.9067" y="565.2461"/><rect fill="none" height="96.118" style="stroke:#000000;stroke-width:1.5;" width="286.0347" x="309.9067" y="774.7581"/><rect fill="none" height="292.336" style="stroke:#000000;stroke-width:1.5;" width="491.3418" x="114.5996" y="929.5822"/><rect fill="none" height="163.512" style="stroke:#000000;stroke-width:1.5;" width="286.0347" x="309.9067" y="1051.4062"/><rect fill="#FFA500" height="80.3939" style="stroke:none;stroke-width:1;" width="286.0347" x="309.9067" y="1134.5243"/><g><title>Amministratore</title><rect fill="#000000" fill-opacity="0.00000" height="1154.8503" width="8" x="55.7998" y="84.0679"/><line style="stroke:#181818;stroke-width:0.5;stroke-dasharray:5.0,5.0;" x1="59" x2="59" y1="84.0679" y2="1238.9182"/></g><g><title>UserPanelController</title><rect fill="#000000" fill-opacity="0.00000" height="1154.8503" width="8" x="194.2394" y="84.0679"/><line style="stroke:#181818;stroke-width:0.5;stroke-dasharray:5.0,5.0;" x1="197.5996" x2="197.5996" y1="84.0679" y2="1238.9182"/></g><g><title>UserPanelService</title><rect fill="#000000" fill-opacity="0.00000" height="1154.8503" width="8" x="379.8095" y="84.0679"/><line style="stroke:#181818;stroke-width:0.5;stroke-dasharray:5.0,5.0;" x1="382.9067" x2="382.9067" y1="84.0679" y2="1238.9182"/></g><g><title>Database/DAO</title><rect fill="#000000" fill-opacity="0.00000" height="1154.8503" width="8" x="530.2636" y="84.0679"/><line style="stroke:#181818;stroke-width:0.5;stroke-dasharray:5.0,5.0;" x1="533.5858" x2="533.5858" y1="84.0679" y2="1238.9182"/></g><g><title>View</title><rect fill="#000000" fill-opacity="0.00000" height="1154.8503" width="8" x="614.3974" y="84.0679"/><line style="stroke:#181818;stroke-width:0.5;stroke-dasharray:5.0,5.0;" x1="617.9414" x2="617.9414" y1="84.0679" y2="1238.9182"/></g><g class="participant participant-head" data-participant="Amministratore"><text fill="#000000" font-family="sans-serif" font-size="14" lengthAdjust="spacing" textLength="103.5996" x="5" y="79.9659">Amministratore</text><ellipse cx="59.7998" cy="13.5" fill="#E2E2F0" rx="8" ry="8" style="stroke:#181818;stroke-width:0.5;"/><path d="M59.7998,21.5 L59.7998,48.5 M46.7998,29.5 L72.7998,29.5 M59.7998,48.5 L46.7998,63.5 M59.7998,48.5 L72.7998,63.5" fill="none" style="stroke:#181818;stroke-width:0.5;"/></g><g class="participant participant-tail" data-participant="Amministratore"><text fill="#000000" font-family="sans-serif" font-size="14" lengthAdjust="spacing" textLength="103.5996" x="5" y="1252.8841">Amministratore</text><ellipse cx="59.7998" cy="1265.4861" fill="#E2E2F0" rx="8" ry="8" style="stroke:#181818;stroke-width:0.5;"/><path d="M59.7998,1273.4861 L59.7998,1300.4861 M46.7998,1281.4861 L72.7998,1281.4861 M59.7998,1300.4861 L46.7998,1315.4861 M59.7998,1300.4861 L72.7998,1315.4861" fill="none" style="stroke:#181818;stroke-width:0.5;"/></g><g class="participant participant-head" data-participant="UserPanelController"><rect fill="#E2E2F0" height="33.0679" rx="2.5" ry="2.5" style="stroke:#181818;stroke-width:0.5;" width="147.2795" x="124.5996" y="50"/><text fill="#000000" font-family="sans-serif" font-size="14" lengthAdjust="spacing" textLength="133.2795" x="131.5996" y="71.9659">UserPanelController</text></g><g class="participant participant-tail" data-participant="UserPanelController"><rect fill="#E2E2F0" height="33.0679" rx="2.5" ry="2.5" style="stroke:#181818;stroke-width:0.5;" width="147.2795" x="124.5996" y="1237.9182"/><text fill="#000000" font-family="sans-serif" font-size="14" lengthAdjust="spacing" textLength="133.2795" x="131.5996" y="1259.8841">UserPanelController</text></g><g class="participant participant-head" data-participant="UserPanelService"><rect fill="#E2E2F0" height="33.0679" rx="2.5" ry="2.5" style="stroke:#181818;stroke-width:0.5;" width="127.8056" x="319.9067" y="50"/><text fill="#000000" font-family="sans-serif" font-size="14" lengthAdjust="spacing" textLength="113.8056" x="326.9067" y="71.9659">UserPanelService</text></g><g class="participant participant-tail" data-participant="UserPanelService"><rect fill="#E2E2F0" height="33.0679" rx="2.5" ry="2.5" style="stroke:#181818;stroke-width:0.5;" width="127.8056" x="319.9067" y="1237.9182"/><text fill="#000000" font-family="sans-serif" font-size="14" lengthAdjust="spacing" textLength="113.8056" x="326.9067" y="1259.8841">UserPanelService</text></g><g class="participant participant-head" data-participant="DB"><text fill="#000000" font-family="sans-serif" font-size="14" lengthAdjust="spacing" textLength="97.3556" x="482.5858" y="79.9659">Database/DAO</text><path d="M516.2636,29 C516.2636,19 534.2636,19 534.2636,19 C534.2636,19 552.2636,19 552.2636,29 L552.2636,55 C552.2636,65 534.2636,65 534.2636,65 C534.2636,65 516.2636,65 516.2636,55 L516.2636,29" fill="#E2E2F0" style="stroke:#181818;stroke-width:1.5;"/><path d="M516.2636,29 C516.2636,39 534.2636,39 534.2636,39 C534.2636,39 552.2636,39 552.2636,29" fill="none" style="stroke:#181818;stroke-width:1.5;"/></g><g class="participant participant-tail" data-participant="DB"><text fill="#000000" font-family="sans-serif" font-size="14" lengthAdjust="spacing" textLength="97.3556" x="482.5858" y="1252.8841">Database/DAO</text><path d="M516.2636,1266.9861 C516.2636,1256.9861 534.2636,1256.9861 534.2636,1256.9861 C534.2636,1256.9861 552.2636,1256.9861 552.2636,1266.9861 L552.2636,1292.9861 C552.2636,1302.9861 534.2636,1302.9861 534.2636,1302.9861 C534.2636,1302.9861 516.2636,1302.9861 516.2636,1292.9861 L516.2636,1266.9861" fill="#E2E2F0" style="stroke:#181818;stroke-width:1.5;"/><path d="M516.2636,1266.9861 C516.2636,1276.9861 534.2636,1276.9861 534.2636,1276.9861 C534.2636,1276.9861 552.2636,1276.9861 552.2636,1266.9861" fill="none" style="stroke:#181818;stroke-width:1.5;"/></g><g class="participant participant-head" data-participant="View"><rect fill="#E2E2F0" height="33.0679" rx="2.5" ry="2.5" style="stroke:#181818;stroke-width:0.5;" width="44.9119" x="595.9414" y="50"/><text fill="#000000" font-family="sans-serif" font-size="14" lengthAdjust="spacing" textLength="30.9119" x="602.9414" y="71.9659">View</text></g><g class="participant participant-tail" data-participant="View"><rect fill="#E2E2F0" height="33.0679" rx="2.5" ry="2.5" style="stroke:#181818;stroke-width:0.5;" width="44.9119" x="595.9414" y="1237.9182"/><text fill="#000000" font-family="sans-serif" font-size="14" lengthAdjust="spacing" textLength="30.9119" x="602.9414" y="1259.8841">View</text></g><g><title>Amministratore</title><rect fill="#FFFFFF" height="1135.8503" style="stroke:#181818;stroke-width:1;" width="10" x="54.7998" y="94.0679"/></g><g><title>UserPanelController</title><rect fill="#FFFFFF" height="525.8661" style="stroke:#181818;stroke-width:1;" width="10" x="193.2394" y="157.4799"/></g><g><title>UserPanelController</title><rect fill="#3375E0" height="37.706" style="stroke:#181818;stroke-width:1;" width="10" x="198.2394" y="194.186"/></g><g><title>UserPanelController</title><rect fill="#3375E0" height="389.0421" style="stroke:#181818;stroke-width:1;" width="10" x="198.2394" y="270.598"/></g><g><title>UserPanelController</title><rect fill="#3375E0" height="63.412" style="stroke:#181818;stroke-width:1;" width="10" x="203.2394" y="340.304"/></g><g><title>UserPanelController</title><rect fill="#FFFFFF" height="506.8661" style="stroke:#181818;stroke-width:1;" width="10" x="193.2394" y="723.0521"/></g><g><title>UserPanelController</title><rect fill="#3375E0" height="63.412" style="stroke:#181818;stroke-width:1;" width="10" x="198.2394" y="909.5822"/></g><g><title>UserPanelService</title><rect fill="#FFFFFF" height="66.706" style="stroke:#181818;stroke-width:1;" width="10" x="378.8095" y="233.892"/></g><g><title>UserPanelService</title><rect fill="#3375E0" height="255.924" style="stroke:#181818;stroke-width:1;" width="10" x="378.8095" y="403.716"/></g><g><title>UserPanelService</title><rect fill="#3375E0" height="256.924" style="stroke:#181818;stroke-width:1;" width="10" x="378.8095" y="972.9942"/></g><g><title>Database/DAO</title><rect fill="#FFFFFF" height="30" style="stroke:#181818;stroke-width:1;" width="10" x="529.2636" y="270.598"/></g><g><title>Database/DAO</title><rect fill="#FFFFFF" height="217.218" style="stroke:#181818;stroke-width:1;" width="10" x="529.2636" y="435.4221"/></g><g><title>Database/DAO</title><rect fill="#FFFFFF" height="217.218" style="stroke:#181818;stroke-width:1;" width="10" x="529.2636" y="1004.7002"/></g><g><title>View</title><rect fill="#FFFFFF" height="1135.8503" style="stroke:#181818;stroke-width:1;" width="10" x="613.3974" y="94.0679"/></g><g class="message" data-participant-1="Amministratore" data-participant-2="View"><polygon fill="#181818" points="601.3974,113.7739,611.3974,117.7739,601.3974,121.7739,605.3974,117.7739" style="stroke:#181818;stroke-width:1;"/><line style="stroke:#181818;stroke-width:1;" x1="64.7998" x2="607.3974" y1="117.7739" y2="117.7739"/><text fill="#000000" font-family="sans-serif" font-size="13" lengthAdjust="spacing" textLength="222.0532" x="71.7998" y="111.9649">"Inserisce stopwords manualmente"</text></g><g class="message" data-participant-1="UserPanelController" data-participant-2="UserPanelController"><line style="stroke:#181818;stroke-width:1;" x1="198.2394" x2="245.2394" y1="144.4799" y2="144.4799"/><line style="stroke:#181818;stroke-width:1;" x1="245.2394" x2="245.2394" y1="144.4799" y2="157.4799"/><line style="stroke:#181818;stroke-width:1;" x1="204.2394" x2="245.2394" y1="157.4799" y2="157.4799"/><polygon fill="#181818" points="214.2394,153.4799,204.2394,157.4799,214.2394,161.4799,210.2394,157.4799" style="stroke:#181818;stroke-width:1;"/><text fill="#000000" font-family="sans-serif" font-size="13" lengthAdjust="spacing" textLength="117.0781" x="210.2394" y="138.6709">handleStopWords()</text></g><g class="message" data-participant-1="UserPanelController" data-participant-2="UserPanelService"><polygon fill="#181818" points="371.8095,190.186,381.8095,194.186,371.8095,198.186,375.8095,194.186" style="stroke:#181818;stroke-width:1;"/><line style="stroke:#181818;stroke-width:1;" x1="208.2394" x2="377.8095" y1="194.186" y2="194.186"/><text fill="#000000" font-family="sans-serif" font-size="13" lengthAdjust="spacing" textLength="98.3191" x="215.2394" y="188.377">addStopWords()</text></g><g class="message" data-participant-1="UserPanelService" data-participant-2="UserPanelService"><line style="stroke:#181818;stroke-width:1;" x1="383.8095" x2="430.8095" y1="220.892" y2="220.892"/><line style="stroke:#181818;stroke-width:1;" x1="430.8095" x2="430.8095" y1="220.892" y2="233.892"/><line style="stroke:#181818;stroke-width:1;" x1="389.8095" x2="430.8095" y1="233.892" y2="233.892"/><polygon fill="#181818" points="399.8095,229.892,389.8095,233.892,399.8095,237.892,395.8095,233.892" style="stroke:#181818;stroke-width:1;"/><text fill="#000000" font-family="sans-serif" font-size="13" lengthAdjust="spacing" textLength="113.5811" x="395.8095" y="215.083">stopWordsParser()</text></g><g class="message" data-participant-1="UserPanelService" data-participant-2="DB"><polygon fill="#181818" points="517.2636,266.598,527.2636,270.598,517.2636,274.598,521.2636,270.598" style="stroke:#181818;stroke-width:1;"/><line style="stroke:#181818;stroke-width:1;" x1="388.8095" x2="523.2636" y1="270.598" y2="270.598"/><text fill="#000000" font-family="sans-serif" font-size="13" lengthAdjust="spacing" textLength="42.8091" x="395.8095" y="264.789">insert()</text></g><g class="message" data-participant-1="UserPanelController" data-participant-2="UserPanelController"><line style="stroke:#181818;stroke-width:1;" x1="208.2394" x2="255.2394" y1="327.304" y2="327.304"/><line style="stroke:#181818;stroke-width:1;" x1="255.2394" x2="255.2394" y1="327.304" y2="340.304"/><line style="stroke:#181818;stroke-width:1;" x1="214.2394" x2="255.2394" y1="340.304" y2="340.304"/><polygon fill="#181818" points="224.2394,336.304,214.2394,340.304,224.2394,344.304,220.2394,340.304" style="stroke:#181818;stroke-width:1;"/><text fill="#000000" font-family="sans-serif" font-size="13" lengthAdjust="spacing" textLength="141.5701" x="220.2394" y="321.495">recalculateStopWords()</text></g><path d="M114.5996,360.304 L187.9396,360.304 L187.9396,370.01 L177.9396,380.01 L114.5996,380.01 L114.5996,360.304" fill="#EEEEEE" style="stroke:#000000;stroke-width:1.5;"/><rect fill="none" height="292.336" style="stroke:#000000;stroke-width:1.5;" width="491.3418" x="114.5996" y="360.304"/><text fill="#000000" font-family="sans-serif" font-size="13" font-weight="bold" lengthAdjust="spacing" textLength="28.34" x="129.5996" y="375.201">loop</text><text fill="#000000" font-family="sans-serif" font-size="11" font-weight="bold" lengthAdjust="spacing" textLength="110.9012" x="202.9396" y="374.0629">[for each document]</text><g class="message" data-participant-1="UserPanelController" data-participant-2="UserPanelService"><polygon fill="#181818" points="366.8095,399.716,376.8095,403.716,366.8095,407.716,370.8095,403.716" style="stroke:#181818;stroke-width:1;"/><line style="stroke:#181818;stroke-width:1;" x1="208.2394" x2="372.8095" y1="403.716" y2="403.716"/><text fill="#000000" font-family="sans-serif" font-size="13" lengthAdjust="spacing" textLength="84.5131" x="215.2394" y="397.907">updateWDM()</text></g><g class="message" data-participant-1="UserPanelService" data-participant-2="DB"><polygon fill="#181818" points="517.2636,431.4221,527.2636,435.4221,517.2636,439.4221,521.2636,435.4221" style="stroke:#181818;stroke-width:1;"/><line style="stroke:#181818;stroke-width:1;" x1="388.8095" x2="523.2636" y1="435.4221" y2="435.4221"/><text fill="#000000" font-family="sans-serif" font-size="13" lengthAdjust="spacing" textLength="58.0581" x="395.8095" y="429.6131">selectBy()</text></g><g class="message" data-participant-1="DB" data-participant-2="UserPanelService"><polygon fill="#181818" points="399.8095,463.1281,389.8095,467.1281,399.8095,471.1281,395.8095,467.1281" style="stroke:#181818;stroke-width:1;"/><line style="stroke:#181818;stroke-width:1;stroke-dasharray:2.0,2.0;" x1="393.8095" x2="528.2636" y1="467.1281" y2="467.1281"/><text fill="#000000" font-family="sans-serif" font-size="13" lengthAdjust="spacing" textLength="33.371" x="405.8095" y="461.3191">WDM</text></g><path d="M309.9067,482.1281 L372.2097,482.1281 L372.2097,491.8341 L362.2097,501.8341 L309.9067,501.8341 L309.9067,482.1281" fill="#EEEEEE" style="stroke:#000000;stroke-width:1.5;"/><rect fill="none" height="163.512" style="stroke:#000000;stroke-width:1.5;" width="286.0347" x="309.9067" y="482.1281"/><text fill="#000000" font-family="sans-serif" font-size="13" font-weight="bold" lengthAdjust="spacing" textLength="17.303" x="324.9067" y="497.0251">alt</text><text fill="#000000" font-family="sans-serif" font-size="11" font-weight="bold" lengthAdjust="spacing" textLength="107.9092" x="387.2097" y="495.887">[WDM gi&#225; presente]</text><g class="message" data-participant-1="UserPanelService" data-participant-2="DB"><polygon fill="#181818" points="517.2636,521.5401,527.2636,525.5401,517.2636,529.5401,521.2636,525.5401" style="stroke:#181818;stroke-width:1;"/><line style="stroke:#181818;stroke-width:1;" x1="388.8095" x2="523.2636" y1="525.5401" y2="525.5401"/><text fill="#000000" font-family="sans-serif" font-size="13" lengthAdjust="spacing" textLength="116.4541" x="395.8095" y="519.7311">DocumentUpdate()</text></g><g class="message" data-participant-1="UserPanelService" data-participant-2="DB"><polygon fill="#181818" points="517.2636,553.2461,527.2636,557.2461,517.2636,561.2461,521.2636,557.2461" style="stroke:#181818;stroke-width:1;"/><line style="stroke:#181818;stroke-width:1;" x1="388.8095" x2="523.2636" y1="557.2461" y2="557.2461"/><text fill="#000000" font-family="sans-serif" font-size="13" lengthAdjust="spacing" textLength="85.9821" x="395.8095" y="551.4371">WDMUpdate()</text></g><line style="stroke:#000000;stroke-width:1;stroke-dasharray:2.0,2.0;" x1="309.9067" x2="595.9414" y1="566.2461" y2="566.2461"/><text fill="#000000" font-family="sans-serif" font-size="11" font-weight="bold" lengthAdjust="spacing" textLength="29.2158" x="314.9067" y="578.005">[else]</text><g class="message" data-participant-1="UserPanelService" data-participant-2="DB"><polygon fill="#181818" points="517.2636,601.934,527.2636,605.934,517.2636,609.934,521.2636,605.934" style="stroke:#181818;stroke-width:1;"/><line style="stroke:#181818;stroke-width:1;" x1="388.8095" x2="523.2636" y1="605.934" y2="605.934"/><text fill="#000000" font-family="sans-serif" font-size="13" lengthAdjust="spacing" textLength="107.7051" x="395.8095" y="600.125">DocumentInsert()</text></g><g class="message" data-participant-1="UserPanelService" data-participant-2="DB"><polygon fill="#181818" points="517.2636,633.6401,527.2636,637.6401,517.2636,641.6401,521.2636,637.6401" style="stroke:#181818;stroke-width:1;"/><line style="stroke:#181818;stroke-width:1;" x1="388.8095" x2="523.2636" y1="637.6401" y2="637.6401"/><text fill="#000000" font-family="sans-serif" font-size="13" lengthAdjust="spacing" textLength="77.2331" x="395.8095" y="631.831">WDMInsert()</text></g><g class="message" data-participant-1="Amministratore" data-participant-2="View"><polygon fill="#181818" points="601.3974,679.3461,611.3974,683.3461,601.3974,687.3461,605.3974,683.3461" style="stroke:#181818;stroke-width:1;"/><line style="stroke:#181818;stroke-width:1;" x1="64.7998" x2="607.3974" y1="683.3461" y2="683.3461"/><text fill="#000000" font-family="sans-serif" font-size="13" lengthAdjust="spacing" textLength="152.8281" x="71.7998" y="677.5371">"Carica file di stopwords"</text></g><g class="message" data-participant-1="UserPanelController" data-participant-2="UserPanelController"><line style="stroke:#181818;stroke-width:1;" x1="198.2394" x2="245.2394" y1="710.0521" y2="710.0521"/><line style="stroke:#181818;stroke-width:1;" x1="245.2394" x2="245.2394" y1="710.0521" y2="723.0521"/><line style="stroke:#181818;stroke-width:1;" x1="204.2394" x2="245.2394" y1="723.0521" y2="723.0521"/><polygon fill="#181818" points="214.2394,719.0521,204.2394,723.0521,214.2394,727.0521,210.2394,723.0521" style="stroke:#181818;stroke-width:1;"/><text fill="#000000" font-family="sans-serif" font-size="13" lengthAdjust="spacing" textLength="117.0781" x="210.2394" y="704.2431">handleStopWords()</text></g><g class="message" data-participant-1="UserPanelController" data-participant-2="UserPanelService"><polygon fill="#181818" points="371.8095,755.7581,381.8095,759.7581,371.8095,763.7581,375.8095,759.7581" style="stroke:#181818;stroke-width:1;"/><line style="stroke:#181818;stroke-width:1;" x1="203.2394" x2="377.8095" y1="759.7581" y2="759.7581"/><text fill="#000000" font-family="sans-serif" font-size="13" lengthAdjust="spacing" textLength="151.2422" x="210.2394" y="753.9491">addStopWordsFromFile()</text></g><path d="M309.9067,774.7581 L383.2467,774.7581 L383.2467,784.4641 L373.2467,794.4641 L309.9067,794.4641 L309.9067,774.7581" fill="#EEEEEE" style="stroke:#000000;stroke-width:1.5;"/><rect fill="none" height="96.118" style="stroke:#000000;stroke-width:1.5;" width="286.0347" x="309.9067" y="774.7581"/><text fill="#000000" font-family="sans-serif" font-size="13" font-weight="bold" lengthAdjust="spacing" textLength="28.34" x="324.9067" y="789.6551">loop</text><text fill="#000000" font-family="sans-serif" font-size="11" font-weight="bold" lengthAdjust="spacing" textLength="75.3165" x="398.2467" y="788.517">[for each line]</text><g class="message" data-participant-1="UserPanelService" data-participant-2="UserPanelService"><line style="stroke:#181818;stroke-width:1;" x1="383.8095" x2="425.8095" y1="818.1701" y2="818.1701"/><line style="stroke:#181818;stroke-width:1;" x1="425.8095" x2="425.8095" y1="818.1701" y2="831.1701"/><line style="stroke:#181818;stroke-width:1;" x1="384.8095" x2="425.8095" y1="831.1701" y2="831.1701"/><polygon fill="#181818" points="394.8095,827.1701,384.8095,831.1701,394.8095,835.1701,390.8095,831.1701" style="stroke:#181818;stroke-width:1;"/><text fill="#000000" font-family="sans-serif" font-size="13" lengthAdjust="spacing" textLength="113.5811" x="390.8095" y="812.3611">stopWordsParser()</text></g><g class="message" data-participant-1="UserPanelService" data-participant-2="DB"><polygon fill="#181818" points="522.2636,858.8762,532.2636,862.8762,522.2636,866.8762,526.2636,862.8762" style="stroke:#181818;stroke-width:1;"/><line style="stroke:#181818;stroke-width:1;" x1="383.8095" x2="528.2636" y1="862.8762" y2="862.8762"/><text fill="#000000" font-family="sans-serif" font-size="13" lengthAdjust="spacing" textLength="42.8091" x="390.8095" y="857.0671">insert()</text></g><g class="message" data-participant-1="UserPanelController" data-participant-2="UserPanelController"><line style="stroke:#181818;stroke-width:1;" x1="203.2394" x2="250.2394" y1="896.5822" y2="896.5822"/><line style="stroke:#181818;stroke-width:1;" x1="250.2394" x2="250.2394" y1="896.5822" y2="909.5822"/><line style="stroke:#181818;stroke-width:1;" x1="209.2394" x2="250.2394" y1="909.5822" y2="909.5822"/><polygon fill="#181818" points="219.2394,905.5822,209.2394,909.5822,219.2394,913.5822,215.2394,909.5822" style="stroke:#181818;stroke-width:1;"/><text fill="#000000" font-family="sans-serif" font-size="13" lengthAdjust="spacing" textLength="141.5701" x="215.2394" y="890.7732">recalculateStopWords()</text></g><path d="M114.5996,929.5822 L187.9396,929.5822 L187.9396,939.2882 L177.9396,949.2882 L114.5996,949.2882 L114.5996,929.5822" fill="#EEEEEE" style="stroke:#000000;stroke-width:1.5;"/><rect fill="none" height="292.336" style="stroke:#000000;stroke-width:1.5;" width="491.3418" x="114.5996" y="929.5822"/><text fill="#000000" font-family="sans-serif" font-size="13" font-weight="bold" lengthAdjust="spacing" textLength="28.34" x="129.5996" y="944.4792">loop</text><text fill="#000000" font-family="sans-serif" font-size="11" font-weight="bold" lengthAdjust="spacing" textLength="110.9012" x="202.9396" y="943.3411">[for each document]</text><g class="message" data-participant-1="UserPanelController" data-participant-2="UserPanelService"><polygon fill="#181818" points="366.8095,968.9942,376.8095,972.9942,366.8095,976.9942,370.8095,972.9942" style="stroke:#181818;stroke-width:1;"/><line style="stroke:#181818;stroke-width:1;" x1="203.2394" x2="372.8095" y1="972.9942" y2="972.9942"/><text fill="#000000" font-family="sans-serif" font-size="13" lengthAdjust="spacing" textLength="84.5131" x="210.2394" y="967.1852">updateWDM()</text></g><g class="message" data-participant-1="UserPanelService" data-participant-2="DB"><polygon fill="#181818" points="517.2636,1000.7002,527.2636,1004.7002,517.2636,1008.7002,521.2636,1004.7002" style="stroke:#181818;stroke-width:1;"/><line style="stroke:#181818;stroke-width:1;" x1="388.8095" x2="523.2636" y1="1004.7002" y2="1004.7002"/><text fill="#000000" font-family="sans-serif" font-size="13" lengthAdjust="spacing" textLength="58.0581" x="395.8095" y="998.8912">selectBy()</text></g><g class="message" data-participant-1="DB" data-participant-2="UserPanelService"><polygon fill="#181818" points="399.8095,1032.4062,389.8095,1036.4062,399.8095,1040.4062,395.8095,1036.4062" style="stroke:#181818;stroke-width:1;"/><line style="stroke:#181818;stroke-width:1;stroke-dasharray:2.0,2.0;" x1="393.8095" x2="528.2636" y1="1036.4062" y2="1036.4062"/><text fill="#000000" font-family="sans-serif" font-size="13" lengthAdjust="spacing" textLength="33.371" x="405.8095" y="1030.5972">WDM</text></g><path d="M309.9067,1051.4062 L372.2097,1051.4062 L372.2097,1061.1123 L362.2097,1071.1123 L309.9067,1071.1123 L309.9067,1051.4062" fill="#EEEEEE" style="stroke:#000000;stroke-width:1.5;"/><rect fill="none" height="163.512" style="stroke:#000000;stroke-width:1.5;" width="286.0347" x="309.9067" y="1051.4062"/><text fill="#000000" font-family="sans-serif" font-size="13" font-weight="bold" lengthAdjust="spacing" textLength="17.303" x="324.9067" y="1066.3032">alt</text><text fill="#000000" font-family="sans-serif" font-size="11" font-weight="bold" lengthAdjust="spacing" textLength="107.9092" x="387.2097" y="1065.1651">[WDM gi&#225; presente]</text><g class="message" data-participant-1="UserPanelService" data-participant-2="DB"><polygon fill="#181818" points="517.2636,1090.8183,527.2636,1094.8183,517.2636,1098.8183,521.2636,1094.8183" style="stroke:#181818;stroke-width:1;"/><line style="stroke:#181818;stroke-width:1;" x1="388.8095" x2="523.2636" y1="1094.8183" y2="1094.8183"/><text fill="#000000" font-family="sans-serif" font-size="13" lengthAdjust="spacing" textLength="116.4541" x="395.8095" y="1089.0093">DocumentUpdate()</text></g><g class="message" data-participant-1="UserPanelService" data-participant-2="DB"><polygon fill="#181818" points="517.2636,1122.5243,527.2636,1126.5243,517.2636,1130.5243,521.2636,1126.5243" style="stroke:#181818;stroke-width:1;"/><line style="stroke:#181818;stroke-width:1;" x1="388.8095" x2="523.2636" y1="1126.5243" y2="1126.5243"/><text fill="#000000" font-family="sans-serif" font-size="13" lengthAdjust="spacing" textLength="85.9821" x="395.8095" y="1120.7153">WDMUpdate()</text></g><line style="stroke:#000000;stroke-width:1;stroke-dasharray:2.0,2.0;" x1="309.9067" x2="595.9414" y1="1135.5243" y2="1135.5243"/><text fill="#000000" font-family="sans-serif" font-size="11" font-weight="bold" lengthAdjust="spacing" textLength="29.2158" x="314.9067" y="1147.2832">[else]</text><g class="message" data-participant-1="UserPanelService" data-participant-2="DB"><polygon fill="#181818" points="517.2636,1171.2122,527.2636,1175.2122,517.2636,1179.2122,521.2636,1175.2122" style="stroke:#181818;stroke-width:1;"/><line style="stroke:#181818;stroke-width:1;" x1="388.8095" x2="523.2636" y1="1175.2122" y2="1175.2122"/><text fill="#000000" font-family="sans-serif" font-size="13" lengthAdjust="spacing" textLength="107.7051" x="395.8095" y="1169.4032">DocumentInsert()</text></g><g class="message" data-participant-1="UserPanelService" data-participant-2="DB"><polygon fill="#181818" points="517.2636,1202.9182,527.2636,1206.9182,517.2636,1210.9182,521.2636,1206.9182" style="stroke:#181818;stroke-width:1;"/><line style="stroke:#181818;stroke-width:1;" x1="388.8095" x2="523.2636" y1="1206.9182" y2="1206.9182"/><text fill="#000000" font-family="sans-serif" font-size="13" lengthAdjust="spacing" textLength="77.2331" x="395.8095" y="1201.1092">WDMInsert()</text></g><!--SRC=[xLJ1IiGm4BttAuPwqOCeB2BiGN2jmXv4GTJpc8mQI9EIP1K_ns_nnvpKrctNxBQ2WWVtj9bCtdipRpeeWdLmN9RAA1ySyeco2brGGbLe0bnxSfTeI9zO4vpLcbpw_ehSanAKIGnuXvuWBvf_UyNnHGxeePZrdjueUiuo544zOQ1L4P_nEgr_2Rj7THYcaCyDAr1U4FXWgsVhf8SIpG9rIIPGdYKgYEzJuIayef6QhXZfDY9jxonrf3en2Dvq1QOevLXKs9fC3WzEzpleBKmIkYwy1hv4nxSCdsMIDWh_Ujdwb-8iPioYOgD3LplxsQ7XKvAr1GR-ZIex9dxBD4S2jLXe1kxsEE9eQokuvn5dOOyWhLZ4gVXPBKiZ5XLFFzqMvmtxW0bf5IrSKiAgAPuqYJ1xQGYxPiGpv-ocfRB8xEE93l403-hj5If7FdurcqcBfetNTRaDzTfi1kybakRbi6KTcWUg3tLq5E6y7S715qpQIoOZLntX5iLeFpBWsARvNh-YJj0fWN2lD85KopsL3z7zwkuQFzRTtNNcR7d6XJ1w_zlIogmVcr5BQwEXdzkdTV9_bVolah-rIju1]--></g></svg>