<svg xmlns="http://www.w3.org/2000/svg" xmlns:xlink="http://www.w3.org/1999/xlink" contentStyleType="text/css" data-diagram-type="CLASS" height="362.4px" preserveAspectRatio="none" style="width:1555px;height:362px;background:#FFFFFF;" version="1.1" viewBox="0 0 1555 362" width="1555.8px" zoomAndPan="magnify"><defs/><g><!--cluster db--><g class="cluster" data-entity="db" data-source-line="1" data-uid="ent0002" id="cluster_db"><path d="M5.1,3.9612 L16.3176,3.9612 A2.25,2.25 0 0 1 17.8176,5.4612 L22.0176,19.0019 L1550.1,19.0019 A1.5,1.5 0 0 1 1551.6,20.5019 L1551.6,357.2772 A1.5,1.5 0 0 1 1550.1,358.7772 L5.1,358.7772 A1.5,1.5 0 0 1 3.6,357.2772 L3.6,5.4612 A1.5,1.5 0 0 1 5.1,3.9612" fill="none" style="stroke:#000000;stroke-width:0.9;"/><line style="stroke:#000000;stroke-width:0.9;" x1="3.6" x2="22.0176" y1="19.0019" y2="19.0019"/><text fill="#000000" font-family="sans-serif" font-size="8.4" font-weight="bold" lengthAdjust="spacing" textLength="10.6176" x="6" y="14.1408">db</text></g><!--cluster contracts--><g class="cluster" data-entity="contracts" data-source-line="2" data-uid="ent0003" id="cluster_contracts"><path d="M19.5,39.9792 L59.773,39.9792 A2.25,2.25 0 0 1 61.273,41.4792 L65.473,55.0199 L572.7,55.0199 A1.5,1.5 0 0 1 574.2,56.5199 L574.2,321.2592 A1.5,1.5 0 0 1 572.7,322.7592 L19.5,322.7592 A1.5,1.5 0 0 1 18,321.2592 L18,41.4792 A1.5,1.5 0 0 1 19.5,39.9792" fill="none" style="stroke:#000000;stroke-width:0.9;"/><line style="stroke:#000000;stroke-width:0.9;" x1="18" x2="65.473" y1="55.0199" y2="55.0199"/><text fill="#000000" font-family="sans-serif" font-size="8.4" font-weight="bold" lengthAdjust="spacing" textLength="39.673" x="20.4" y="50.1588">contracts</text></g><!--cluster exceptions--><g class="cluster" data-entity="exceptions" data-source-line="89" data-uid="ent0016" id="cluster_exceptions"><path d="M590.1,61.1652 L636.3118,61.1652 A2.25,2.25 0 0 1 637.8118,62.6652 L642.0118,76.2059 L897.3,76.2059 A1.5,1.5 0 0 1 898.8,77.7059 L898.8,132.3072 A1.5,1.5 0 0 1 897.3,133.8072 L590.1,133.8072 A1.5,1.5 0 0 1 588.6,132.3072 L588.6,62.6652 A1.5,1.5 0 0 1 590.1,61.1652" fill="none" style="stroke:#000000;stroke-width:0.9;"/><line style="stroke:#000000;stroke-width:0.9;" x1="588.6" x2="642.0118" y1="76.2059" y2="76.2059"/><text fill="#000000" font-family="sans-serif" font-size="8.4" font-weight="bold" lengthAdjust="spacing" textLength="45.6118" x="591" y="71.3448">exceptions</text></g><!--class JDBCDocumentDAO--><g class="entity" data-entity="JDBCDocumentDAO" data-source-line="30" data-uid="ent0010" id="entity_JDBCDocumentDAO"><rect fill="#F1F1F1" height="108.8853" rx="1.5" ry="1.5" style="stroke:#181818;stroke-width:0.3;" width="166.1274" x="910.536" y="49.6452"/><ellipse cx="951.7967" cy="59.2452" fill="#ADD1B2" rx="6.6" ry="6.6" style="stroke:#181818;stroke-width:0.6;"/><path d="M951.4779,63.3983 Q950.4279,63.3983 949.7435,62.9577 Q949.0685,62.5077 948.731,61.7014 Q948.4029,60.8858 948.4029,59.8077 Q948.4029,58.5889 948.7967,57.7171 Q949.1904,56.8452 949.9592,56.3764 Q950.7279,55.9077 951.8529,55.9077 Q952.3873,55.9077 952.7904,56.0202 Q953.1935,56.1233 953.606,56.3296 L953.1185,57.5389 Q952.7435,57.3514 952.4154,57.2764 Q952.0967,57.2014 951.806,57.2014 Q951.1029,57.2014 950.681,57.5202 Q950.2592,57.8389 950.081,58.4108 Q949.9029,58.9827 949.9029,59.7421 Q949.9029,60.9514 950.3342,61.5327 Q950.7654,62.1046 951.7217,62.1046 Q952.0779,62.1046 952.4529,62.0108 Q952.8279,61.9171 953.3248,61.6921 L953.3248,63.0233 Q952.8842,63.2108 952.406,63.3046 Q951.9373,63.3983 951.4779,63.3983 Z " fill="#000000"/><text fill="#000000" font-family="sans-serif" font-size="8.4" lengthAdjust="spacing" textLength="78.5061" x="964.0967" y="62.5044">JDBCDocumentDAO</text><line style="stroke:#181818;stroke-width:0.3;" x1="911.136" x2="1076.0634" y1="68.8452" y2="68.8452"/><line style="stroke:#181818;stroke-width:0.3;" x1="911.136" x2="1076.0634" y1="73.6452" y2="73.6452"/><ellipse cx="917.136" cy="82.6656" fill="#84BE84" rx="1.8" ry="1.8" style="stroke:#038048;stroke-width:0.6;"/><text fill="#000000" font-family="sans-serif" font-size="8.4" lengthAdjust="spacing" textLength="130.8127" x="922.536" y="85.0248">JDBCDocumentDAO(Connection):</text><ellipse cx="917.136" cy="94.1063" fill="#84BE84" rx="1.8" ry="1.8" style="stroke:#038048;stroke-width:0.6;"/><text fill="#000000" font-family="sans-serif" font-size="8.4" lengthAdjust="spacing" textLength="91.988" x="922.536" y="96.4655">delete(Document): void</text><ellipse cx="917.136" cy="105.5471" fill="#84BE84" rx="1.8" ry="1.8" style="stroke:#038048;stroke-width:0.6;"/><text fill="#000000" font-family="sans-serif" font-size="8.4" lengthAdjust="spacing" textLength="72.8109" x="922.536" y="107.9063">isEmpty(): boolean</text><ellipse cx="917.136" cy="116.9878" fill="#84BE84" rx="1.8" ry="1.8" style="stroke:#038048;stroke-width:0.6;"/><text fill="#000000" font-family="sans-serif" font-size="8.4" lengthAdjust="spacing" textLength="95.4152" x="922.536" y="119.347">update(Document): void</text><ellipse cx="917.136" cy="128.4286" fill="#84BE84" rx="1.8" ry="1.8" style="stroke:#038048;stroke-width:0.6;"/><text fill="#000000" font-family="sans-serif" font-size="8.4" lengthAdjust="spacing" textLength="106.394" x="922.536" y="130.7878">selectAll(): List&lt;Document&gt;</text><ellipse cx="917.136" cy="139.8693" fill="#84BE84" rx="1.8" ry="1.8" style="stroke:#038048;stroke-width:0.6;"/><text fill="#000000" font-family="sans-serif" font-size="8.4" lengthAdjust="spacing" textLength="90.0308" x="922.536" y="142.2285">insert(Document): void</text><ellipse cx="917.136" cy="151.3101" fill="#84BE84" rx="1.8" ry="1.8" style="stroke:#038048;stroke-width:0.6;"/><text fill="#000000" font-family="sans-serif" font-size="8.4" lengthAdjust="spacing" textLength="150.5274" x="922.536" y="153.6693">selectBy(String): Optional&lt;Document&gt;</text></g><!--class JDBCGameReportDAO--><g class="entity" data-entity="JDBCGameReportDAO" data-source-line="39" data-uid="ent0011" id="entity_JDBCGameReportDAO"><rect fill="#F1F1F1" height="154.6483" rx="1.5" ry="1.5" style="stroke:#181818;stroke-width:0.3;" width="279.1238" x="1097.64" y="26.7612"/><ellipse cx="1190.9595" cy="36.3612" fill="#ADD1B2" rx="6.6" ry="6.6" style="stroke:#181818;stroke-width:0.6;"/><path d="M1190.6407,40.5143 Q1189.5907,40.5143 1188.9063,40.0737 Q1188.2313,39.6237 1187.8938,38.8174 Q1187.5657,38.0018 1187.5657,36.9237 Q1187.5657,35.7049 1187.9595,34.8331 Q1188.3532,33.9612 1189.122,33.4924 Q1189.8907,33.0237 1191.0157,33.0237 Q1191.5501,33.0237 1191.9532,33.1362 Q1192.3563,33.2393 1192.7688,33.4456 L1192.2813,34.6549 Q1191.9063,34.4674 1191.5782,34.3924 Q1191.2595,34.3174 1190.9688,34.3174 Q1190.2657,34.3174 1189.8438,34.6362 Q1189.422,34.9549 1189.2438,35.5268 Q1189.0657,36.0987 1189.0657,36.8581 Q1189.0657,38.0674 1189.497,38.6487 Q1189.9282,39.2206 1190.8845,39.2206 Q1191.2407,39.2206 1191.6157,39.1268 Q1191.9907,39.0331 1192.4876,38.8081 L1192.4876,40.1393 Q1192.047,40.3268 1191.5688,40.4206 Q1191.1001,40.5143 1190.6407,40.5143 Z " fill="#000000"/><text fill="#000000" font-family="sans-serif" font-size="8.4" lengthAdjust="spacing" textLength="87.3849" x="1203.2595" y="39.6204">JDBCGameReportDAO</text><line style="stroke:#181818;stroke-width:0.3;" x1="1098.24" x2="1376.1638" y1="45.9612" y2="45.9612"/><rect fill="none" height="3.6" style="stroke:#C82930;stroke-width:0.6;" width="3.6" x="1102.44" y="53.1816"/><text fill="#000000" font-family="sans-serif" font-size="8.4" lengthAdjust="spacing" textLength="122.0935" x="1109.64" y="57.3408">documentDAO: DocumentDAO</text><rect fill="none" height="3.6" style="stroke:#C82930;stroke-width:0.6;" width="3.6" x="1102.44" y="64.6223"/><text fill="#000000" font-family="sans-serif" font-size="8.4" lengthAdjust="spacing" textLength="76.3473" x="1109.64" y="68.7815">userDAO: UserDAO</text><line style="stroke:#181818;stroke-width:0.3;" x1="1098.24" x2="1376.1638" y1="73.6427" y2="73.6427"/><ellipse cx="1104.24" cy="82.6631" fill="#84BE84" rx="1.8" ry="1.8" style="stroke:#038048;stroke-width:0.6;"/><text fill="#000000" font-family="sans-serif" font-size="8.4" lengthAdjust="spacing" textLength="263.5238" x="1109.64" y="85.0223">JDBCGameReportDAO(Connection, DAO&lt;Document&gt;, DAO&lt;User&gt;):</text><ellipse cx="1104.24" cy="94.1038" fill="#84BE84" rx="1.8" ry="1.8" style="stroke:#038048;stroke-width:0.6;"/><text fill="#000000" font-family="sans-serif" font-size="8.4" lengthAdjust="spacing" textLength="202.792" x="1109.64" y="96.463">selectBy(User, Timestamp): Optional&lt;GameReport&gt;</text><rect fill="#F24D5C" height="3.6" style="stroke:#C82930;stroke-width:0.6;" width="3.6" x="1102.44" y="103.7446"/><text fill="#000000" font-family="sans-serif" font-size="8.4" lengthAdjust="spacing" textLength="112.0304" x="1109.64" y="107.9038">preFormatTime(long): String</text><ellipse cx="1104.24" cy="116.9853" fill="#84BE84" rx="1.8" ry="1.8" style="stroke:#038048;stroke-width:0.6;"/><text fill="#000000" font-family="sans-serif" font-size="8.4" lengthAdjust="spacing" textLength="100.8668" x="1109.64" y="119.3445">delete(GameReport): void</text><ellipse cx="1104.24" cy="128.4261" fill="#84BE84" rx="1.8" ry="1.8" style="stroke:#038048;stroke-width:0.6;"/><text fill="#000000" font-family="sans-serif" font-size="8.4" lengthAdjust="spacing" textLength="190.8137" x="1109.64" y="130.7853">selectWhere(String, Object[]): List&lt;GameReport&gt;</text><ellipse cx="1104.24" cy="139.8668" fill="#84BE84" rx="1.8" ry="1.8" style="stroke:#038048;stroke-width:0.6;"/><text fill="#000000" font-family="sans-serif" font-size="8.4" lengthAdjust="spacing" textLength="104.294" x="1109.64" y="142.226">update(GameReport): void</text><ellipse cx="1104.24" cy="151.3076" fill="#84BE84" rx="1.8" ry="1.8" style="stroke:#038048;stroke-width:0.6;"/><text fill="#000000" font-family="sans-serif" font-size="8.4" lengthAdjust="spacing" textLength="115.2727" x="1109.64" y="153.6668">selectAll(): List&lt;GameReport&gt;</text><rect fill="#F24D5C" height="3.6" style="stroke:#C82930;stroke-width:0.6;" width="3.6" x="1102.44" y="160.9483"/><text fill="#000000" font-family="sans-serif" font-size="8.4" lengthAdjust="spacing" textLength="183.7997" x="1109.64" y="165.1075">selectBase(String, Object[]): List&lt;GameReport&gt;</text><ellipse cx="1104.24" cy="174.1891" fill="#84BE84" rx="1.8" ry="1.8" style="stroke:#038048;stroke-width:0.6;"/><text fill="#000000" font-family="sans-serif" font-size="8.4" lengthAdjust="spacing" textLength="98.9096" x="1109.64" y="176.5483">insert(GameReport): void</text></g><!--class JDBCStopWordDAO--><g class="entity" data-entity="JDBCStopWordDAO" data-source-line="52" data-uid="ent0012" id="entity_JDBCStopWordDAO"><rect fill="#F1F1F1" height="97.4445" rx="1.5" ry="1.5" style="stroke:#181818;stroke-width:0.3;" width="144.5815" x="1397.712" y="55.3632"/><ellipse cx="1429.1153" cy="64.9632" fill="#ADD1B2" rx="6.6" ry="6.6" style="stroke:#181818;stroke-width:0.6;"/><path d="M1428.7965,69.1163 Q1427.7465,69.1163 1427.0622,68.6757 Q1426.3872,68.2257 1426.0497,67.4194 Q1425.7215,66.6038 1425.7215,65.5257 Q1425.7215,64.3069 1426.1153,63.4351 Q1426.509,62.5632 1427.2778,62.0944 Q1428.0465,61.6257 1429.1715,61.6257 Q1429.7059,61.6257 1430.109,61.7382 Q1430.5122,61.8413 1430.9247,62.0476 L1430.4372,63.2569 Q1430.0622,63.0694 1429.734,62.9944 Q1429.4153,62.9194 1429.1247,62.9194 Q1428.4215,62.9194 1427.9997,63.2382 Q1427.5778,63.5569 1427.3997,64.1288 Q1427.2215,64.7007 1427.2215,65.4601 Q1427.2215,66.6694 1427.6528,67.2507 Q1428.084,67.8226 1429.0403,67.8226 Q1429.3965,67.8226 1429.7715,67.7288 Q1430.1465,67.6351 1430.6434,67.4101 L1430.6434,68.7413 Q1430.2028,68.9288 1429.7247,69.0226 Q1429.2559,69.1163 1428.7965,69.1163 Z " fill="#000000"/><text fill="#000000" font-family="sans-serif" font-size="8.4" lengthAdjust="spacing" textLength="76.6749" x="1441.4153" y="68.2224">JDBCStopWordDAO</text><line style="stroke:#181818;stroke-width:0.3;" x1="1398.312" x2="1541.6935" y1="74.5632" y2="74.5632"/><line style="stroke:#181818;stroke-width:0.3;" x1="1398.312" x2="1541.6935" y1="79.3632" y2="79.3632"/><ellipse cx="1404.312" cy="88.3836" fill="#84BE84" rx="1.8" ry="1.8" style="stroke:#038048;stroke-width:0.6;"/><text fill="#000000" font-family="sans-serif" font-size="8.4" lengthAdjust="spacing" textLength="128.9815" x="1409.712" y="90.7428">JDBCStopWordDAO(Connection):</text><ellipse cx="1404.312" cy="99.8243" fill="#84BE84" rx="1.8" ry="1.8" style="stroke:#038048;stroke-width:0.6;"/><text fill="#000000" font-family="sans-serif" font-size="8.4" lengthAdjust="spacing" textLength="72.8109" x="1409.712" y="102.1835">isEmpty(): boolean</text><ellipse cx="1404.312" cy="111.2651" fill="#84BE84" rx="1.8" ry="1.8" style="stroke:#038048;stroke-width:0.6;"/><text fill="#000000" font-family="sans-serif" font-size="8.4" lengthAdjust="spacing" textLength="77.8005" x="1409.712" y="113.6243">update(String): void</text><ellipse cx="1404.312" cy="122.7058" fill="#84BE84" rx="1.8" ry="1.8" style="stroke:#038048;stroke-width:0.6;"/><text fill="#000000" font-family="sans-serif" font-size="8.4" lengthAdjust="spacing" textLength="87.5361" x="1409.712" y="125.065">selectAll(): Set&lt;String&gt;</text><ellipse cx="1404.312" cy="134.1466" fill="#84BE84" rx="1.8" ry="1.8" style="stroke:#038048;stroke-width:0.6;"/><text fill="#000000" font-family="sans-serif" font-size="8.4" lengthAdjust="spacing" textLength="72.4161" x="1409.712" y="136.5058">insert(String): void</text><ellipse cx="1404.312" cy="145.5873" fill="#84BE84" rx="1.8" ry="1.8" style="stroke:#038048;stroke-width:0.6;"/><text fill="#000000" font-family="sans-serif" font-size="8.4" lengthAdjust="spacing" textLength="74.3733" x="1409.712" y="147.9465">delete(String): void</text></g><!--class JDBCUserDAO--><g class="entity" data-entity="JDBCUserDAO" data-source-line="60" data-uid="ent0013" id="entity_JDBCUserDAO"><rect fill="#F1F1F1" height="108.8853" rx="1.5" ry="1.5" style="stroke:#181818;stroke-width:0.3;" width="143.2459" x="921.978" y="228.8532"/><ellipse cx="963.2387" cy="238.4532" fill="#ADD1B2" rx="6.6" ry="6.6" style="stroke:#181818;stroke-width:0.6;"/><path d="M962.9199,242.6063 Q961.8699,242.6063 961.1855,242.1657 Q960.5105,241.7157 960.173,240.9094 Q959.8449,240.0938 959.8449,239.0157 Q959.8449,237.7969 960.2387,236.9251 Q960.6324,236.0532 961.4012,235.5844 Q962.1699,235.1157 963.2949,235.1157 Q963.8293,235.1157 964.2324,235.2282 Q964.6355,235.3313 965.048,235.5376 L964.5605,236.7469 Q964.1855,236.5594 963.8574,236.4844 Q963.5387,236.4094 963.248,236.4094 Q962.5449,236.4094 962.123,236.7282 Q961.7012,237.0469 961.523,237.6188 Q961.3449,238.1907 961.3449,238.9501 Q961.3449,240.1594 961.7762,240.7407 Q962.2074,241.3126 963.1637,241.3126 Q963.5199,241.3126 963.8949,241.2188 Q964.2699,241.1251 964.7668,240.9001 L964.7668,242.2313 Q964.3262,242.4188 963.848,242.5126 Q963.3793,242.6063 962.9199,242.6063 Z " fill="#000000"/><text fill="#000000" font-family="sans-serif" font-size="8.4" lengthAdjust="spacing" textLength="55.6246" x="975.5387" y="241.7124">JDBCUserDAO</text><line style="stroke:#181818;stroke-width:0.3;" x1="922.578" x2="1064.6239" y1="248.0532" y2="248.0532"/><line style="stroke:#181818;stroke-width:0.3;" x1="922.578" x2="1064.6239" y1="252.8532" y2="252.8532"/><ellipse cx="928.578" cy="261.8736" fill="#84BE84" rx="1.8" ry="1.8" style="stroke:#038048;stroke-width:0.6;"/><text fill="#000000" font-family="sans-serif" font-size="8.4" lengthAdjust="spacing" textLength="107.9312" x="933.978" y="264.2328">JDBCUserDAO(Connection):</text><ellipse cx="928.578" cy="273.3143" fill="#84BE84" rx="1.8" ry="1.8" style="stroke:#038048;stroke-width:0.6;"/><text fill="#000000" font-family="sans-serif" font-size="8.4" lengthAdjust="spacing" textLength="67.1493" x="933.978" y="275.6735">insert(User): void</text><ellipse cx="928.578" cy="284.7551" fill="#84BE84" rx="1.8" ry="1.8" style="stroke:#038048;stroke-width:0.6;"/><text fill="#000000" font-family="sans-serif" font-size="8.4" lengthAdjust="spacing" textLength="69.1065" x="933.978" y="287.1143">delete(User): void</text><ellipse cx="928.578" cy="296.1958" fill="#84BE84" rx="1.8" ry="1.8" style="stroke:#038048;stroke-width:0.6;"/><text fill="#000000" font-family="sans-serif" font-size="8.4" lengthAdjust="spacing" textLength="72.5337" x="933.978" y="298.555">update(User): void</text><ellipse cx="928.578" cy="307.6366" fill="#84BE84" rx="1.8" ry="1.8" style="stroke:#038048;stroke-width:0.6;"/><text fill="#000000" font-family="sans-serif" font-size="8.4" lengthAdjust="spacing" textLength="83.5125" x="933.978" y="309.9958">selectAll(): List&lt;User&gt;</text><ellipse cx="928.578" cy="319.0773" fill="#84BE84" rx="1.8" ry="1.8" style="stroke:#038048;stroke-width:0.6;"/><text fill="#000000" font-family="sans-serif" font-size="8.4" lengthAdjust="spacing" textLength="127.6459" x="933.978" y="321.4365">selectBy(String): Optional&lt;User&gt;</text><ellipse cx="928.578" cy="330.5181" fill="#84BE84" rx="1.8" ry="1.8" style="stroke:#038048;stroke-width:0.6;"/><text fill="#000000" font-family="sans-serif" font-size="8.4" lengthAdjust="spacing" textLength="72.8109" x="933.978" y="332.8773">isEmpty(): boolean</text></g><!--class JDBCWdmDAO--><g class="entity" data-entity="JDBCWdmDAO" data-source-line="69" data-uid="ent0014" id="entity_JDBCWdmDAO"><rect fill="#F1F1F1" height="131.7668" rx="1.5" ry="1.5" style="stroke:#181818;stroke-width:0.3;" width="189.7397" x="1085.928" y="217.4112"/><ellipse cx="1149.205" cy="227.0112" fill="#ADD1B2" rx="6.6" ry="6.6" style="stroke:#181818;stroke-width:0.6;"/><path d="M1148.8862,231.1643 Q1147.8362,231.1643 1147.1518,230.7237 Q1146.4768,230.2737 1146.1393,229.4674 Q1145.8112,228.6518 1145.8112,227.5737 Q1145.8112,226.3549 1146.205,225.4831 Q1146.5987,224.6112 1147.3675,224.1424 Q1148.1362,223.6737 1149.2612,223.6737 Q1149.7956,223.6737 1150.1987,223.7862 Q1150.6018,223.8893 1151.0143,224.0956 L1150.5268,225.3049 Q1150.1518,225.1174 1149.8237,225.0424 Q1149.505,224.9674 1149.2143,224.9674 Q1148.5112,224.9674 1148.0893,225.2862 Q1147.6675,225.6049 1147.4893,226.1768 Q1147.3112,226.7487 1147.3112,227.5081 Q1147.3112,228.7174 1147.7425,229.2987 Q1148.1737,229.8706 1149.13,229.8706 Q1149.4862,229.8706 1149.8612,229.7768 Q1150.2362,229.6831 1150.7331,229.4581 L1150.7331,230.7893 Q1150.2925,230.9768 1149.8143,231.0706 Q1149.3456,231.1643 1148.8862,231.1643 Z " fill="#000000"/><text fill="#000000" font-family="sans-serif" font-size="8.4" lengthAdjust="spacing" textLength="58.0858" x="1161.505" y="230.2704">JDBCWdmDAO</text><line style="stroke:#181818;stroke-width:0.3;" x1="1086.528" x2="1275.0677" y1="236.6112" y2="236.6112"/><rect fill="none" height="3.6" style="stroke:#C82930;stroke-width:0.6;" width="3.6" x="1090.728" y="243.8316"/><text fill="#000000" font-family="sans-serif" font-size="8.4" lengthAdjust="spacing" textLength="122.0935" x="1097.928" y="247.9908">documentDAO: DocumentDAO</text><line style="stroke:#181818;stroke-width:0.3;" x1="1086.528" x2="1275.0677" y1="252.8519" y2="252.8519"/><ellipse cx="1092.528" cy="261.8723" fill="#84BE84" rx="1.8" ry="1.8" style="stroke:#038048;stroke-width:0.6;"/><text fill="#000000" font-family="sans-serif" font-size="8.4" lengthAdjust="spacing" textLength="174.1397" x="1097.928" y="264.2315">JDBCWdmDAO(Connection, DocumentDAO):</text><rect fill="#F24D5C" height="3.6" style="stroke:#C82930;stroke-width:0.6;" width="3.6" x="1090.728" y="271.5131"/><text fill="#000000" font-family="sans-serif" font-size="8.4" lengthAdjust="spacing" textLength="155.2314" x="1097.928" y="275.6723">selectBase(String, Object[]): List&lt;WDM&gt;</text><ellipse cx="1092.528" cy="284.7538" fill="#84BE84" rx="1.8" ry="1.8" style="stroke:#038048;stroke-width:0.6;"/><text fill="#000000" font-family="sans-serif" font-size="8.4" lengthAdjust="spacing" textLength="148.4526" x="1097.928" y="287.113">selectBy(Document): Optional&lt;WDM&gt;</text><ellipse cx="1092.528" cy="296.1946" fill="#84BE84" rx="1.8" ry="1.8" style="stroke:#038048;stroke-width:0.6;"/><text fill="#000000" font-family="sans-serif" font-size="8.4" lengthAdjust="spacing" textLength="70.3413" x="1097.928" y="298.5538">insert(WDM): void</text><ellipse cx="1092.528" cy="307.6353" fill="#84BE84" rx="1.8" ry="1.8" style="stroke:#038048;stroke-width:0.6;"/><text fill="#000000" font-family="sans-serif" font-size="8.4" lengthAdjust="spacing" textLength="162.2454" x="1097.928" y="309.9945">selectWhere(String, Object[]): List&lt;WDM&gt;</text><ellipse cx="1092.528" cy="319.0761" fill="#84BE84" rx="1.8" ry="1.8" style="stroke:#038048;stroke-width:0.6;"/><text fill="#000000" font-family="sans-serif" font-size="8.4" lengthAdjust="spacing" textLength="72.2985" x="1097.928" y="321.4353">delete(WDM): void</text><ellipse cx="1092.528" cy="330.5168" fill="#84BE84" rx="1.8" ry="1.8" style="stroke:#038048;stroke-width:0.6;"/><text fill="#000000" font-family="sans-serif" font-size="8.4" lengthAdjust="spacing" textLength="75.7257" x="1097.928" y="332.876">update(WDM): void</text><ellipse cx="1092.528" cy="341.9576" fill="#84BE84" rx="1.8" ry="1.8" style="stroke:#038048;stroke-width:0.6;"/><text fill="#000000" font-family="sans-serif" font-size="8.4" lengthAdjust="spacing" textLength="86.7044" x="1097.928" y="344.3168">selectAll(): List&lt;WDM&gt;</text></g><!--class JdbcDAO--><g class="entity" data-entity="JdbcDAO" data-source-line="80" data-uid="ent0015" id="entity_JdbcDAO"><rect fill="#F1F1F1" height="97.4445" rx="1.5" ry="1.5" style="stroke:#181818;stroke-width:0.3;" width="237.9639" x="1296.42" y="234.5712"/><ellipse cx="1393.7456" cy="244.1712" fill="#A9DCDF" rx="6.6" ry="6.6" style="stroke:#181818;stroke-width:0.6;"/><path d="M1390.8487,247.6212 L1392.855,240.3087 L1394.7394,240.3087 L1396.7644,247.6212 L1395.2831,247.6212 L1394.8425,245.8118 L1392.7331,245.8118 L1392.2831,247.6212 L1390.8487,247.6212 Z M1393.4925,242.7931 L1393.0425,244.5931 L1394.5519,244.5931 L1394.1206,242.7931 Q1394.0362,242.4462 1393.9612,242.1181 Q1393.8862,241.7806 1393.8019,241.4337 Q1393.7362,241.7806 1393.6519,242.1181 Q1393.5675,242.4462 1393.4925,242.7931 Z " fill="#000000"/><text fill="#000000" font-family="sans-serif" font-size="8.4" font-style="italic" lengthAdjust="spacing" textLength="32.2055" x="1406.0456" y="247.4304">JdbcDAO</text><rect fill="#FFFFFF" height="11.0065" style="stroke:#181818;stroke-width:0.6;stroke-dasharray:1.2,1.2;" width="4.8072" x="1531.3767" y="232.7712"/><text fill="#000000" font-family="sans-serif" font-size="7.2" font-style="italic" lengthAdjust="spacing" textLength="3.6072" x="1531.9767" y="241.068">T</text><line style="stroke:#181818;stroke-width:0.3;" x1="1297.02" x2="1533.7839" y1="253.7712" y2="253.7712"/><polygon fill="none" points="1303.02,259.7916,1305.42,262.1916,1303.02,264.5916,1300.62,262.1916" style="stroke:#B38D22;stroke-width:0.6;"/><text fill="#000000" font-family="sans-serif" font-size="8.4" lengthAdjust="spacing" textLength="93.1892" x="1308.42" y="265.1508">connection: Connection</text><line style="stroke:#181818;stroke-width:0.3;" x1="1297.02" x2="1533.7839" y1="270.0119" y2="270.0119"/><polygon fill="#FFFF44" points="1303.02,276.0323,1305.42,278.4323,1303.02,280.8323,1300.62,278.4323" style="stroke:#B38D22;stroke-width:0.6;"/><text fill="#000000" font-family="sans-serif" font-size="8.4" lengthAdjust="spacing" textLength="87.0237" x="1308.42" y="281.3915">JdbcDAO(Connection):</text><polygon fill="#FFFF44" points="1303.02,287.4731,1305.42,289.8731,1303.02,292.2731,1300.62,289.8731" style="stroke:#B38D22;stroke-width:0.6;"/><text fill="#000000" font-family="sans-serif" font-size="8.4" lengthAdjust="spacing" textLength="146.2434" x="1308.42" y="292.8323">executeUpdate(String, Object[]): long</text><polygon fill="#FFFF44" points="1303.02,298.9138,1305.42,301.3138,1303.02,303.7138,1300.62,301.3138" style="stroke:#B38D22;stroke-width:0.6;"/><text fill="#000000" font-family="sans-serif" font-size="8.4" lengthAdjust="spacing" textLength="222.3639" x="1308.42" y="304.273">executeQuery(String, Callback&lt;ResultSet, R&gt;, Object[]): R</text><polygon fill="#FFFF44" points="1303.02,310.3546,1305.42,312.7546,1303.02,315.1546,1300.62,312.7546" style="stroke:#B38D22;stroke-width:0.6;"/><text fill="#000000" font-family="sans-serif" font-size="8.4" lengthAdjust="spacing" textLength="186.7061" x="1308.42" y="315.7138">executeQuery(String, Callback&lt;ResultSet, R&gt;): R</text><polygon fill="#FFFF44" points="1303.02,321.7953,1305.42,324.1953,1303.02,326.5953,1300.62,324.1953" style="stroke:#B38D22;stroke-width:0.6;"/><text fill="#000000" font-family="sans-serif" font-size="8.4" lengthAdjust="spacing" textLength="96.4484" x="1308.42" y="327.1545">isEmpty(String): boolean</text></g><!--class DAO--><g class="entity" data-entity="DAO" data-source-line="3" data-uid="ent0004" id="entity_DAO"><rect fill="#F1F1F1" height="82.6102" rx="1.5" ry="1.5" style="stroke:#181818;stroke-width:0.3;" width="110.7548" x="27.42" y="62.7792"/><ellipse cx="60.9549" cy="76.4028" fill="#B4A7E5" rx="6.6" ry="6.6" style="stroke:#181818;stroke-width:0.6;"/><path d="M58.5736,80.3028 L58.5736,79.2809 L59.9892,79.1215 L59.9892,74.1997 L58.5736,74.0403 L58.5736,73.0184 L62.858,73.0184 L62.858,74.0403 L61.4049,74.1997 L61.4049,79.1215 L62.858,79.2809 L62.858,80.3028 L58.5736,80.3028 Z " fill="#000000"/><text fill="#000000" font-family="sans-serif" font-size="7.2" font-style="italic" lengthAdjust="spacing" textLength="34.9778" x="72.0549" y="73.476">&#171;interface&#187;</text><text fill="#000000" font-family="sans-serif" font-size="8.4" font-style="italic" lengthAdjust="spacing" textLength="16.3799" x="81.3538" y="84.5652">DAO</text><rect fill="#FFFFFF" height="11.0065" style="stroke:#181818;stroke-width:0.6;stroke-dasharray:1.2,1.2;" width="4.8072" x="135.1676" y="60.9792"/><text fill="#000000" font-family="sans-serif" font-size="7.2" font-style="italic" lengthAdjust="spacing" textLength="3.6072" x="135.7676" y="69.276">T</text><line style="stroke:#181818;stroke-width:0.3;" x1="28.02" x2="137.5748" y1="90.0264" y2="90.0264"/><line style="stroke:#181818;stroke-width:0.3;" x1="28.02" x2="137.5748" y1="94.8264" y2="94.8264"/><ellipse cx="34.02" cy="103.8468" fill="#84BE84" rx="1.8" ry="1.8" style="stroke:#038048;stroke-width:0.6;"/><text fill="#000000" font-family="sans-serif" font-size="8.4" lengthAdjust="spacing" textLength="53.449" x="39.42" y="106.206">insert(T): void</text><ellipse cx="34.02" cy="115.2875" fill="#84BE84" rx="1.8" ry="1.8" style="stroke:#038048;stroke-width:0.6;"/><text fill="#000000" font-family="sans-serif" font-size="8.4" lengthAdjust="spacing" textLength="55.4062" x="39.42" y="117.6467">delete(T): void</text><ellipse cx="34.02" cy="126.7283" fill="#84BE84" rx="1.8" ry="1.8" style="stroke:#038048;stroke-width:0.6;"/><text fill="#000000" font-family="sans-serif" font-size="8.4" lengthAdjust="spacing" textLength="95.1548" x="39.42" y="129.0875">selectAll(): Collection&lt;T&gt;</text><ellipse cx="34.02" cy="138.169" fill="#84BE84" rx="1.8" ry="1.8" style="stroke:#038048;stroke-width:0.6;"/><text fill="#000000" font-family="sans-serif" font-size="8.4" lengthAdjust="spacing" textLength="58.8334" x="39.42" y="140.5282">update(T): void</text></g><!--class DocumentDAO--><g class="entity" data-entity="DocumentDAO" data-source-line="9" data-uid="ent0005" id="entity_DocumentDAO"><rect fill="#F1F1F1" height="59.7287" rx="1.5" ry="1.5" style="stroke:#181818;stroke-width:0.3;" width="166.1274" x="159.336" y="74.2212"/><ellipse cx="212.5624" cy="87.8448" fill="#B4A7E5" rx="6.6" ry="6.6" style="stroke:#181818;stroke-width:0.6;"/><path d="M210.1812,91.7448 L210.1812,90.7229 L211.5968,90.5635 L211.5968,85.6417 L210.1812,85.4823 L210.1812,84.4604 L214.4655,84.4604 L214.4655,85.4823 L213.0124,85.6417 L213.0124,90.5635 L214.4655,90.7229 L214.4655,91.7448 L210.1812,91.7448 Z " fill="#000000"/><text fill="#000000" font-family="sans-serif" font-size="7.2" font-style="italic" lengthAdjust="spacing" textLength="34.9778" x="234.6608" y="84.918">&#171;interface&#187;</text><text fill="#000000" font-family="sans-serif" font-size="8.4" font-style="italic" lengthAdjust="spacing" textLength="54.5746" x="224.8624" y="96.0072">DocumentDAO</text><line style="stroke:#181818;stroke-width:0.3;" x1="159.936" x2="324.8634" y1="101.4684" y2="101.4684"/><line style="stroke:#181818;stroke-width:0.3;" x1="159.936" x2="324.8634" y1="106.2684" y2="106.2684"/><ellipse cx="165.936" cy="115.2888" fill="#84BE84" rx="1.8" ry="1.8" style="stroke:#038048;stroke-width:0.6;"/><text fill="#000000" font-family="sans-serif" font-size="8.4" lengthAdjust="spacing" textLength="72.8109" x="171.336" y="117.648">isEmpty(): boolean</text><ellipse cx="165.936" cy="126.7295" fill="#84BE84" rx="1.8" ry="1.8" style="stroke:#038048;stroke-width:0.6;"/><text fill="#000000" font-family="sans-serif" font-size="8.4" lengthAdjust="spacing" textLength="150.5274" x="171.336" y="129.0887">selectBy(String): Optional&lt;Document&gt;</text></g><!--class GameReportDAO--><g class="entity" data-entity="GameReportDAO" data-source-line="13" data-uid="ent0006" id="entity_GameReportDAO"><rect fill="#F1F1F1" height="48.288" rx="1.5" ry="1.5" style="stroke:#181818;stroke-width:0.3;" width="218.392" x="346.206" y="79.9452"/><ellipse cx="421.2933" cy="93.5688" fill="#B4A7E5" rx="6.6" ry="6.6" style="stroke:#181818;stroke-width:0.6;"/><path d="M418.9121,97.4688 L418.9121,96.4469 L420.3277,96.2875 L420.3277,91.3657 L418.9121,91.2063 L418.9121,90.1844 L423.1965,90.1844 L423.1965,91.2063 L421.7433,91.3657 L421.7433,96.2875 L423.1965,96.4469 L423.1965,97.4688 L418.9121,97.4688 Z " fill="#000000"/><text fill="#000000" font-family="sans-serif" font-size="7.2" font-style="italic" lengthAdjust="spacing" textLength="34.9778" x="447.6631" y="90.642">&#171;interface&#187;</text><text fill="#000000" font-family="sans-serif" font-size="8.4" font-style="italic" lengthAdjust="spacing" textLength="63.1174" x="433.5933" y="101.7312">GameReportDAO</text><line style="stroke:#181818;stroke-width:0.3;" x1="346.806" x2="563.998" y1="107.1924" y2="107.1924"/><line style="stroke:#181818;stroke-width:0.3;" x1="346.806" x2="563.998" y1="111.9924" y2="111.9924"/><ellipse cx="352.806" cy="121.0128" fill="#84BE84" rx="1.8" ry="1.8" style="stroke:#038048;stroke-width:0.6;"/><text fill="#000000" font-family="sans-serif" font-size="8.4" lengthAdjust="spacing" textLength="202.792" x="358.206" y="123.372">selectBy(User, Timestamp): Optional&lt;GameReport&gt;</text></g><!--class StopWordDAO--><g class="entity" data-entity="StopWordDAO" data-source-line="16" data-uid="ent0007" id="entity_StopWordDAO"><rect fill="#F1F1F1" height="59.7287" rx="1.5" ry="1.5" style="stroke:#181818;stroke-width:0.3;" width="103.1361" x="31.23" y="253.4292"/><ellipse cx="54.0928" cy="267.0528" fill="#B4A7E5" rx="6.6" ry="6.6" style="stroke:#181818;stroke-width:0.6;"/><path d="M51.7116,270.9528 L51.7116,269.9309 L53.1272,269.7715 L53.1272,264.8497 L51.7116,264.6903 L51.7116,263.6684 L55.9959,263.6684 L55.9959,264.6903 L54.5428,264.8497 L54.5428,269.7715 L55.9959,269.9309 L55.9959,270.9528 L51.7116,270.9528 Z " fill="#000000"/><text fill="#000000" font-family="sans-serif" font-size="7.2" font-style="italic" lengthAdjust="spacing" textLength="34.9778" x="74.6494" y="264.126">&#171;interface&#187;</text><text fill="#000000" font-family="sans-serif" font-size="8.4" font-style="italic" lengthAdjust="spacing" textLength="53.1298" x="65.5734" y="275.2152">StopWordDAO</text><line style="stroke:#181818;stroke-width:0.3;" x1="31.83" x2="133.7661" y1="280.6764" y2="280.6764"/><line style="stroke:#181818;stroke-width:0.3;" x1="31.83" x2="133.7661" y1="285.4764" y2="285.4764"/><ellipse cx="37.83" cy="294.4968" fill="#84BE84" rx="1.8" ry="1.8" style="stroke:#038048;stroke-width:0.6;"/><text fill="#000000" font-family="sans-serif" font-size="8.4" lengthAdjust="spacing" textLength="87.5361" x="43.23" y="296.856">selectAll(): Set&lt;String&gt;</text><ellipse cx="37.83" cy="305.9375" fill="#84BE84" rx="1.8" ry="1.8" style="stroke:#038048;stroke-width:0.6;"/><text fill="#000000" font-family="sans-serif" font-size="8.4" lengthAdjust="spacing" textLength="72.8109" x="43.23" y="308.2967">isEmpty(): boolean</text></g><!--class WdmDAO--><g class="entity" data-entity="WdmDAO" data-source-line="21" data-uid="ent0008" id="entity_WdmDAO"><rect fill="#F1F1F1" height="48.288" rx="1.5" ry="1.5" style="stroke:#181818;stroke-width:0.3;" width="164.0526" x="155.574" y="259.1472"/><ellipse cx="217.1584" cy="272.7708" fill="#B4A7E5" rx="6.6" ry="6.6" style="stroke:#181818;stroke-width:0.6;"/><path d="M214.7771,276.6708 L214.7771,275.6489 L216.1927,275.4895 L216.1927,270.5677 L214.7771,270.4083 L214.7771,269.3864 L219.0615,269.3864 L219.0615,270.4083 L217.6084,270.5677 L217.6084,275.4895 L219.0615,275.6489 L219.0615,276.6708 L214.7771,276.6708 Z " fill="#000000"/><text fill="#000000" font-family="sans-serif" font-size="7.2" font-style="italic" lengthAdjust="spacing" textLength="34.9778" x="229.8614" y="269.844">&#171;interface&#187;</text><text fill="#000000" font-family="sans-serif" font-size="8.4" font-style="italic" lengthAdjust="spacing" textLength="35.7839" x="229.4584" y="280.9332">WdmDAO</text><line style="stroke:#181818;stroke-width:0.3;" x1="156.174" x2="319.0266" y1="286.3944" y2="286.3944"/><line style="stroke:#181818;stroke-width:0.3;" x1="156.174" x2="319.0266" y1="291.1944" y2="291.1944"/><ellipse cx="162.174" cy="300.2148" fill="#84BE84" rx="1.8" ry="1.8" style="stroke:#038048;stroke-width:0.6;"/><text fill="#000000" font-family="sans-serif" font-size="8.4" lengthAdjust="spacing" textLength="148.4526" x="167.574" y="302.574">selectBy(Document): Optional&lt;WDM&gt;</text></g><!--class UserDAO--><g class="entity" data-entity="UserDAO" data-source-line="25" data-uid="ent0009" id="entity_UserDAO"><rect fill="#F1F1F1" height="48.288" rx="1.5" ry="1.5" style="stroke:#181818;stroke-width:0.3;" width="143.2459" x="340.578" y="259.1472"/><ellipse cx="393.0358" cy="272.7708" fill="#B4A7E5" rx="6.6" ry="6.6" style="stroke:#181818;stroke-width:0.6;"/><path d="M390.6546,276.6708 L390.6546,275.6489 L392.0702,275.4895 L392.0702,270.5677 L390.6546,270.4083 L390.6546,269.3864 L394.9389,269.3864 L394.9389,270.4083 L393.4858,270.5677 L393.4858,275.4895 L394.9389,275.6489 L394.9389,276.6708 L390.6546,276.6708 Z " fill="#000000"/><text fill="#000000" font-family="sans-serif" font-size="7.2" font-style="italic" lengthAdjust="spacing" textLength="34.9778" x="404.462" y="269.844">&#171;interface&#187;</text><text fill="#000000" font-family="sans-serif" font-size="8.4" font-style="italic" lengthAdjust="spacing" textLength="33.2303" x="405.3358" y="280.9332">UserDAO</text><line style="stroke:#181818;stroke-width:0.3;" x1="341.178" x2="483.2239" y1="286.3944" y2="286.3944"/><line style="stroke:#181818;stroke-width:0.3;" x1="341.178" x2="483.2239" y1="291.1944" y2="291.1944"/><ellipse cx="347.178" cy="300.2148" fill="#84BE84" rx="1.8" ry="1.8" style="stroke:#038048;stroke-width:0.6;"/><text fill="#000000" font-family="sans-serif" font-size="8.4" lengthAdjust="spacing" textLength="127.6459" x="352.578" y="302.574">selectBy(String): Optional&lt;User&gt;</text></g><!--class QueryFailedException--><g class="entity" data-entity="QueryFailedException" data-source-line="90" data-uid="ent0017" id="entity_QueryFailedException"><rect fill="#F1F1F1" height="40.2408" rx="1.5" ry="1.5" style="stroke:#181818;stroke-width:0.3;" width="132.6031" x="598.5" y="83.9652"/><ellipse cx="619.7979" cy="93.5652" fill="#D94321" rx="6.6" ry="6.6" style="stroke:#181818;stroke-width:0.6;"/><path d="M617.0042,97.4652 L619.1885,93.7152 L617.1448,90.1808 L618.6542,90.1808 L619.8542,92.4777 L621.0448,90.1808 L622.5729,90.1808 L620.5292,93.7058 L622.7135,97.4652 L621.1573,97.4652 L619.8448,94.9339 L618.5135,97.4652 L617.0042,97.4652 Z " fill="#000000"/><text fill="#000000" font-family="sans-serif" font-size="8.4" lengthAdjust="spacing" textLength="86.0745" x="630.9308" y="96.8244">QueryFailedException</text><line style="stroke:#181818;stroke-width:0.3;" x1="599.1" x2="730.5031" y1="103.1652" y2="103.1652"/><line style="stroke:#181818;stroke-width:0.3;" x1="599.1" x2="730.5031" y1="107.9652" y2="107.9652"/><ellipse cx="605.1" cy="116.9856" fill="#84BE84" rx="1.8" ry="1.8" style="stroke:#038048;stroke-width:0.6;"/><text fill="#000000" font-family="sans-serif" font-size="8.4" lengthAdjust="spacing" textLength="117.0031" x="610.5" y="119.3448">QueryFailedException(String):</text></g><!--class UpdateFailedException--><g class="entity" data-entity="UpdateFailedException" data-source-line="93" data-uid="ent0018" id="entity_UpdateFailedException"><rect fill="#F1F1F1" height="40.2408" rx="1.5" ry="1.5" style="stroke:#181818;stroke-width:0.3;" width="137.3155" x="752.142" y="83.9652"/><ellipse cx="773.4399" cy="93.5652" fill="#D94321" rx="6.6" ry="6.6" style="stroke:#181818;stroke-width:0.6;"/><path d="M770.6462,97.4652 L772.8305,93.7152 L770.7868,90.1808 L772.2962,90.1808 L773.4962,92.4777 L774.6868,90.1808 L776.2149,90.1808 L774.1712,93.7058 L776.3555,97.4652 L774.7993,97.4652 L773.4868,94.9339 L772.1555,97.4652 L770.6462,97.4652 Z " fill="#000000"/><text fill="#000000" font-family="sans-serif" font-size="8.4" lengthAdjust="spacing" textLength="90.7869" x="784.5728" y="96.8244">UpdateFailedException</text><line style="stroke:#181818;stroke-width:0.3;" x1="752.742" x2="888.8575" y1="103.1652" y2="103.1652"/><line style="stroke:#181818;stroke-width:0.3;" x1="752.742" x2="888.8575" y1="107.9652" y2="107.9652"/><ellipse cx="758.742" cy="116.9856" fill="#84BE84" rx="1.8" ry="1.8" style="stroke:#038048;stroke-width:0.6;"/><text fill="#000000" font-family="sans-serif" font-size="8.4" lengthAdjust="spacing" textLength="121.7155" x="764.142" y="119.3448">UpdateFailedException(String):</text></g><!--SRC=[fLPTRvim57tFhx3KbrHD_q24aDgadJHjYfQaoiEq1mEt7Pl129kfqPJ_FXj_O8EXHECX2iVNv_gU-u4hdFx6Ru2o1FrT8F5K6aXfoMkSSgRnlEHGl-8KqFPX5nrZ54KE5iVQx4w036g-FDwkqH-QPnhDW027Fie4cl87GfO2tr0Ytt9Q2dfjq5GPxc-xzCz3qwQ0aejpZH-AFHKLFqit2QK4SEcTuF6yFF0wBz_4-gwIHy0aChnnqEidNC0UAbfF-hNqBqAK5Jhc1J2EYyhrqp65FHquhKwqpZxseuKy08zKEF5q-9T5pzKfAsP5OwHnmpXjlyPXLXdxBDfX3kHMLnNDdHBC6FgyVTouoJTyFNoveMMf2kjsxPUZ4uTJbQF5eginlCjBmPUSyLu1sSwOsZwx43i5_49qDV1M71LMRGjRLlNQAgtrkKTP9z_QRJ2ztAYCharg_wFQxr5LmpEj2yob_PBGDdYbWf-jRcj8kjDFg46hjqAxv9V0llymkUYxjScS9dNJEJovZXUpQ_pgAWZxxIVNxNqtjGuUAk-FAjZMs5Z0WH6YZXtQgTCpNEf7OmQ16ud6Wb4ebz8Yw72ueCCRBWopsKsMcGDeOehwKUeXwWQf8By5kwQQstKpoiqEuRd3sgeiaEkxog7HEHdGw9ICqBiPSJuWyXSdhBs066Mp9DKt3wNiZO66fNCZRoyQalSAyrylmZka3OSNjnUysEGCycs_DL2VhUa64vA8UrAq1zOGBffbXVQnHx6_Vh-porIQhSV0LzjSrE0zXJQjJEaY7ukXrl4ppWbaJnRi3E-21jQljRi4g9L-Kzn1Yp7oo-Bo3m00]--></g></svg>