<svg xmlns="http://www.w3.org/2000/svg" xmlns:xlink="http://www.w3.org/1999/xlink" contentStyleType="text/css" data-diagram-type="CLASS" height="827px" preserveAspectRatio="none" style="width:2575px;height:827px;background:#FFFFFF;" version="1.1" viewBox="0 0 2575 827" width="2575px" zoomAndPan="magnify"><defs/><g><!--cluster db--><g class="cluster" data-entity="db" data-source-line="1" data-uid="ent0002" id="cluster_db"><path d="M8.5,6.602 L27.1959,6.602 A3.75,3.75 0 0 1 29.6959,9.102 L36.6959,31.6699 L2565.5,31.6699 A2.5,2.5 0 0 1 2568,34.1699 L2568,817.872 A2.5,2.5 0 0 1 2565.5,820.372 L8.5,820.372 A2.5,2.5 0 0 1 6,817.872 L6,9.102 A2.5,2.5 0 0 1 8.5,6.602" fill="none" style="stroke:#000000;stroke-width:1.5;"/><line style="stroke:#000000;stroke-width:1.5;" x1="6" x2="36.6959" y1="31.6699" y2="31.6699"/><text fill="#000000" font-family="sans-serif" font-size="14" font-weight="bold" lengthAdjust="spacing" textLength="17.6959" x="10" y="23.5679">db</text></g><!--cluster contracts--><g class="cluster" data-entity="contracts" data-source-line="9" data-uid="ent0004" id="cluster_contracts"><path d="M32.5,66.642 L99.6217,66.642 A3.75,3.75 0 0 1 102.1217,69.142 L109.1217,91.7099 L939.5,91.7099 A2.5,2.5 0 0 1 942,94.2099 L942,776.912 A2.5,2.5 0 0 1 939.5,779.412 L32.5,779.412 A2.5,2.5 0 0 1 30,776.912 L30,69.142 A2.5,2.5 0 0 1 32.5,66.642" fill="none" style="stroke:#000000;stroke-width:1.5;"/><line style="stroke:#000000;stroke-width:1.5;" x1="30" x2="109.1217" y1="91.7099" y2="91.7099"/><text fill="#000000" font-family="sans-serif" font-size="14" font-weight="bold" lengthAdjust="spacing" textLength="66.1217" x="34" y="83.6079">contracts</text></g><!--cluster exceptions--><g class="cluster" data-entity="exceptions" data-source-line="100" data-uid="ent0018" id="cluster_exceptions"><path d="M968.5,101.942 L1045.5197,101.942 A3.75,3.75 0 0 1 1048.0197,104.442 L1055.0197,127.0099 L1480.5,127.0099 A2.5,2.5 0 0 1 1483,129.5099 L1483,220.512 A2.5,2.5 0 0 1 1480.5,223.012 L968.5,223.012 A2.5,2.5 0 0 1 966,220.512 L966,104.442 A2.5,2.5 0 0 1 968.5,101.942" fill="none" style="stroke:#000000;stroke-width:1.5;"/><line style="stroke:#000000;stroke-width:1.5;" x1="966" x2="1055.0197" y1="127.0099" y2="127.0099"/><text fill="#000000" font-family="sans-serif" font-size="14" font-weight="bold" lengthAdjust="spacing" textLength="76.0197" x="970" y="118.9079">exceptions</text></g><!--class JdbcRepository--><g class="entity" data-entity="JdbcRepository" data-source-line="2" data-uid="ent0003" id="entity_JdbcRepository"><rect fill="#F1F1F1" height="143.3396" rx="2.5" ry="2.5" style="stroke:#181818;stroke-width:0.5;" width="236.9512" x="1502.52" y="101.812"/><ellipse cx="1567.6408" cy="117.812" fill="#ADD1B2" rx="11" ry="11" style="stroke:#181818;stroke-width:1;"/><path d="M1567.1095,124.7339 Q1565.3595,124.7339 1564.2189,123.9995 Q1563.0939,123.2495 1562.5314,121.9057 Q1561.9845,120.5464 1561.9845,118.7495 Q1561.9845,116.7182 1562.6408,115.2651 Q1563.297,113.812 1564.5783,113.0307 Q1565.8595,112.2495 1567.7345,112.2495 Q1568.6252,112.2495 1569.297,112.437 Q1569.9689,112.6089 1570.6564,112.9526 L1569.8439,114.9682 Q1569.2189,114.6557 1568.672,114.5307 Q1568.1408,114.4057 1567.6564,114.4057 Q1566.4845,114.4057 1565.7814,114.937 Q1565.0783,115.4682 1564.7814,116.4214 Q1564.4845,117.3745 1564.4845,118.6401 Q1564.4845,120.6557 1565.2033,121.6245 Q1565.922,122.5776 1567.5158,122.5776 Q1568.1095,122.5776 1568.7345,122.4214 Q1569.3595,122.2651 1570.1877,121.8901 L1570.1877,124.1089 Q1569.4533,124.4214 1568.6564,124.5776 Q1567.8752,124.7339 1567.1095,124.7339 Z " fill="#000000"/><text fill="#000000" font-family="sans-serif" font-size="14" lengthAdjust="spacing" textLength="98.2096" x="1588.1408" y="123.244">JdbcRepository</text><line style="stroke:#181818;stroke-width:0.5;" x1="1503.52" x2="1738.4712" y1="133.812" y2="133.812"/><rect fill="none" height="6" style="stroke:#C82930;stroke-width:1;" width="6" x="1510.52" y="145.8459"/><text fill="#000000" font-family="sans-serif" font-size="14" lengthAdjust="spacing" textLength="210.9512" x="1522.52" y="152.7779">daos: Map&lt;String, JdbcDAO&lt;?&gt;&gt;</text><rect fill="none" height="6" style="stroke:#C82930;stroke-width:1;" width="6" x="1510.52" y="164.9139"/><text fill="#000000" font-family="sans-serif" font-size="14" lengthAdjust="spacing" textLength="114.9115" x="1522.52" y="171.8458">conn: Connection</text><line style="stroke:#181818;stroke-width:0.5;" x1="1503.52" x2="1738.4712" y1="179.9478" y2="179.9478"/><ellipse cx="1513.52" cy="194.9818" fill="#84BE84" rx="3" ry="3" style="stroke:#038048;stroke-width:1;"/><text fill="#000000" font-family="sans-serif" font-size="14" lengthAdjust="spacing" textLength="110.3616" x="1522.52" y="198.9138">JdbcRepository():</text><ellipse cx="1513.52" cy="214.0497" fill="#84BE84" rx="3" ry="3" style="stroke:#038048;stroke-width:1;"/><text fill="#000000" font-family="sans-serif" font-size="14" lengthAdjust="spacing" textLength="144.7314" x="1522.52" y="217.9817">getDAO(String): TDAO</text><ellipse cx="1513.52" cy="233.1176" fill="#84BE84" rx="3" ry="3" style="stroke:#038048;stroke-width:1;"/><text fill="#000000" font-family="sans-serif" font-size="14" lengthAdjust="spacing" textLength="76.9997" x="1522.52" y="237.0496">close(): void</text></g><!--class JDBCDocumentDAO--><g class="entity" data-entity="JDBCDocumentDAO" data-source-line="41" data-uid="ent0012" id="entity_JDBCDocumentDAO"><rect fill="#F1F1F1" height="181.4754" rx="2.5" ry="2.5" style="stroke:#181818;stroke-width:0.5;" width="276.879" x="1774.56" y="82.742"/><ellipse cx="1843.3278" cy="98.742" fill="#ADD1B2" rx="11" ry="11" style="stroke:#181818;stroke-width:1;"/><path d="M1842.7965,105.6639 Q1841.0465,105.6639 1839.9059,104.9295 Q1838.7809,104.1795 1838.2184,102.8357 Q1837.6715,101.4764 1837.6715,99.6795 Q1837.6715,97.6482 1838.3278,96.1951 Q1838.984,94.742 1840.2653,93.9607 Q1841.5465,93.1795 1843.4215,93.1795 Q1844.3121,93.1795 1844.984,93.367 Q1845.6559,93.5389 1846.3434,93.8826 L1845.5309,95.8982 Q1844.9059,95.5857 1844.359,95.4607 Q1843.8278,95.3357 1843.3434,95.3357 Q1842.1715,95.3357 1841.4684,95.867 Q1840.7653,96.3982 1840.4684,97.3514 Q1840.1715,98.3045 1840.1715,99.5701 Q1840.1715,101.5857 1840.8903,102.5545 Q1841.609,103.5076 1843.2028,103.5076 Q1843.7965,103.5076 1844.4215,103.3514 Q1845.0465,103.1951 1845.8746,102.8201 L1845.8746,105.0389 Q1845.1403,105.3514 1844.3434,105.5076 Q1843.5621,105.6639 1842.7965,105.6639 Z " fill="#000000"/><text fill="#000000" font-family="sans-serif" font-size="14" lengthAdjust="spacing" textLength="130.8435" x="1863.8278" y="104.174">JDBCDocumentDAO</text><line style="stroke:#181818;stroke-width:0.5;" x1="1775.56" x2="2050.439" y1="114.742" y2="114.742"/><line style="stroke:#181818;stroke-width:0.5;" x1="1775.56" x2="2050.439" y1="122.742" y2="122.742"/><ellipse cx="1785.56" cy="137.7759" fill="#84BE84" rx="3" ry="3" style="stroke:#038048;stroke-width:1;"/><text fill="#000000" font-family="sans-serif" font-size="14" lengthAdjust="spacing" textLength="218.0211" x="1794.56" y="141.7079">JDBCDocumentDAO(Connection):</text><ellipse cx="1785.56" cy="156.8439" fill="#84BE84" rx="3" ry="3" style="stroke:#038048;stroke-width:1;"/><text fill="#000000" font-family="sans-serif" font-size="14" lengthAdjust="spacing" textLength="153.3134" x="1794.56" y="160.7758">delete(Document): void</text><ellipse cx="1785.56" cy="175.9118" fill="#84BE84" rx="3" ry="3" style="stroke:#038048;stroke-width:1;"/><text fill="#000000" font-family="sans-serif" font-size="14" lengthAdjust="spacing" textLength="121.3515" x="1794.56" y="179.8438">isEmpty(): boolean</text><ellipse cx="1785.56" cy="194.9797" fill="#84BE84" rx="3" ry="3" style="stroke:#038048;stroke-width:1;"/><text fill="#000000" font-family="sans-serif" font-size="14" lengthAdjust="spacing" textLength="159.0254" x="1794.56" y="198.9117">update(Document): void</text><ellipse cx="1785.56" cy="214.0476" fill="#84BE84" rx="3" ry="3" style="stroke:#038048;stroke-width:1;"/><text fill="#000000" font-family="sans-serif" font-size="14" lengthAdjust="spacing" textLength="177.3233" x="1794.56" y="217.9796">selectAll(): List&lt;Document&gt;</text><ellipse cx="1785.56" cy="233.1155" fill="#84BE84" rx="3" ry="3" style="stroke:#038048;stroke-width:1;"/><text fill="#000000" font-family="sans-serif" font-size="14" lengthAdjust="spacing" textLength="150.0514" x="1794.56" y="237.0475">insert(Document): void</text><ellipse cx="1785.56" cy="252.1834" fill="#84BE84" rx="3" ry="3" style="stroke:#038048;stroke-width:1;"/><text fill="#000000" font-family="sans-serif" font-size="14" lengthAdjust="spacing" textLength="250.879" x="1794.56" y="256.1154">selectBy(String): Optional&lt;Document&gt;</text></g><!--class JDBCGameReportDAO--><g class="entity" data-entity="JDBCGameReportDAO" data-source-line="50" data-uid="ent0013" id="entity_JDBCGameReportDAO"><rect fill="#F1F1F1" height="257.7471" rx="2.5" ry="2.5" style="stroke:#181818;stroke-width:0.5;" width="465.2063" x="2086.4" y="44.602"/><ellipse cx="2241.9324" cy="60.602" fill="#ADD1B2" rx="11" ry="11" style="stroke:#181818;stroke-width:1;"/><path d="M2241.4012,67.5239 Q2239.6512,67.5239 2238.5106,66.7895 Q2237.3856,66.0395 2236.8231,64.6957 Q2236.2762,63.3364 2236.2762,61.5395 Q2236.2762,59.5082 2236.9324,58.0551 Q2237.5887,56.602 2238.8699,55.8207 Q2240.1512,55.0395 2242.0262,55.0395 Q2242.9168,55.0395 2243.5887,55.227 Q2244.2606,55.3989 2244.9481,55.7426 L2244.1356,57.7582 Q2243.5106,57.4457 2242.9637,57.3207 Q2242.4324,57.1957 2241.9481,57.1957 Q2240.7762,57.1957 2240.0731,57.727 Q2239.3699,58.2582 2239.0731,59.2114 Q2238.7762,60.1645 2238.7762,61.4301 Q2238.7762,63.4457 2239.4949,64.4145 Q2240.2137,65.3676 2241.8074,65.3676 Q2242.4012,65.3676 2243.0262,65.2114 Q2243.6512,65.0551 2244.4793,64.6801 L2244.4793,66.8989 Q2243.7449,67.2114 2242.9481,67.3676 Q2242.1668,67.5239 2241.4012,67.5239 Z " fill="#000000"/><text fill="#000000" font-family="sans-serif" font-size="14" lengthAdjust="spacing" textLength="145.6414" x="2262.4324" y="66.034">JDBCGameReportDAO</text><line style="stroke:#181818;stroke-width:0.5;" x1="2087.4" x2="2550.6063" y1="76.602" y2="76.602"/><rect fill="none" height="6" style="stroke:#C82930;stroke-width:1;" width="6" x="2094.4" y="88.6359"/><text fill="#000000" font-family="sans-serif" font-size="14" lengthAdjust="spacing" textLength="203.4892" x="2106.4" y="95.5679">documentDAO: DocumentDAO</text><rect fill="none" height="6" style="stroke:#C82930;stroke-width:1;" width="6" x="2094.4" y="107.7039"/><text fill="#000000" font-family="sans-serif" font-size="14" lengthAdjust="spacing" textLength="127.2455" x="2106.4" y="114.6358">userDAO: UserDAO</text><line style="stroke:#181818;stroke-width:0.5;" x1="2087.4" x2="2550.6063" y1="122.7378" y2="122.7378"/><ellipse cx="2097.4" cy="137.7718" fill="#84BE84" rx="3" ry="3" style="stroke:#038048;stroke-width:1;"/><text fill="#000000" font-family="sans-serif" font-size="14" lengthAdjust="spacing" textLength="439.2063" x="2106.4" y="141.7038">JDBCGameReportDAO(Connection, DAO&lt;Document&gt;, DAO&lt;User&gt;):</text><ellipse cx="2097.4" cy="156.8397" fill="#84BE84" rx="3" ry="3" style="stroke:#038048;stroke-width:1;"/><text fill="#000000" font-family="sans-serif" font-size="14" lengthAdjust="spacing" textLength="337.9867" x="2106.4" y="160.7717">selectBy(User, Timestamp): Optional&lt;GameReport&gt;</text><rect fill="#F24D5C" height="6" style="stroke:#C82930;stroke-width:1;" width="6" x="2094.4" y="172.9076"/><text fill="#000000" font-family="sans-serif" font-size="14" lengthAdjust="spacing" textLength="186.7173" x="2106.4" y="179.8396">preFormatTime(long): String</text><ellipse cx="2097.4" cy="194.9755" fill="#84BE84" rx="3" ry="3" style="stroke:#038048;stroke-width:1;"/><text fill="#000000" font-family="sans-serif" font-size="14" lengthAdjust="spacing" textLength="168.1113" x="2106.4" y="198.9075">delete(GameReport): void</text><ellipse cx="2097.4" cy="214.0434" fill="#84BE84" rx="3" ry="3" style="stroke:#038048;stroke-width:1;"/><text fill="#000000" font-family="sans-serif" font-size="14" lengthAdjust="spacing" textLength="318.0228" x="2106.4" y="217.9754">selectWhere(String, Object[]): List&lt;GameReport&gt;</text><ellipse cx="2097.4" cy="233.1114" fill="#84BE84" rx="3" ry="3" style="stroke:#038048;stroke-width:1;"/><text fill="#000000" font-family="sans-serif" font-size="14" lengthAdjust="spacing" textLength="173.8233" x="2106.4" y="237.0433">update(GameReport): void</text><ellipse cx="2097.4" cy="252.1793" fill="#84BE84" rx="3" ry="3" style="stroke:#038048;stroke-width:1;"/><text fill="#000000" font-family="sans-serif" font-size="14" lengthAdjust="spacing" textLength="192.1212" x="2106.4" y="256.1113">selectAll(): List&lt;GameReport&gt;</text><rect fill="#F24D5C" height="6" style="stroke:#C82930;stroke-width:1;" width="6" x="2094.4" y="268.2472"/><text fill="#000000" font-family="sans-serif" font-size="14" lengthAdjust="spacing" textLength="306.3328" x="2106.4" y="275.1792">selectBase(String, Object[]): List&lt;GameReport&gt;</text><ellipse cx="2097.4" cy="290.3151" fill="#84BE84" rx="3" ry="3" style="stroke:#038048;stroke-width:1;"/><text fill="#000000" font-family="sans-serif" font-size="14" lengthAdjust="spacing" textLength="164.8494" x="2106.4" y="294.2471">insert(GameReport): void</text></g><!--class JDBCStopWordDAO--><g class="entity" data-entity="JDBCStopWordDAO" data-source-line="63" data-uid="ent0014" id="entity_JDBCStopWordDAO"><rect fill="#F1F1F1" height="162.4075" rx="2.5" ry="2.5" style="stroke:#181818;stroke-width:0.5;" width="240.9692" x="1500.52" y="390.952"/><ellipse cx="1552.8588" cy="406.952" fill="#ADD1B2" rx="11" ry="11" style="stroke:#181818;stroke-width:1;"/><path d="M1552.3276,413.8739 Q1550.5776,413.8739 1549.4369,413.1395 Q1548.3119,412.3895 1547.7494,411.0457 Q1547.2026,409.6864 1547.2026,407.8895 Q1547.2026,405.8582 1547.8588,404.4051 Q1548.5151,402.952 1549.7963,402.1707 Q1551.0776,401.3895 1552.9526,401.3895 Q1553.8432,401.3895 1554.5151,401.577 Q1555.1869,401.7489 1555.8744,402.0926 L1555.0619,404.1082 Q1554.4369,403.7957 1553.8901,403.6707 Q1553.3588,403.5457 1552.8744,403.5457 Q1551.7026,403.5457 1550.9994,404.077 Q1550.2963,404.6082 1549.9994,405.5614 Q1549.7026,406.5145 1549.7026,407.7801 Q1549.7026,409.7957 1550.4213,410.7645 Q1551.1401,411.7176 1552.7338,411.7176 Q1553.3276,411.7176 1553.9526,411.5614 Q1554.5776,411.4051 1555.4057,411.0301 L1555.4057,413.2489 Q1554.6713,413.5614 1553.8744,413.7176 Q1553.0932,413.8739 1552.3276,413.8739 Z " fill="#000000"/><text fill="#000000" font-family="sans-serif" font-size="14" lengthAdjust="spacing" textLength="127.7915" x="1573.3588" y="412.384">JDBCStopWordDAO</text><line style="stroke:#181818;stroke-width:0.5;" x1="1501.52" x2="1740.4892" y1="422.952" y2="422.952"/><line style="stroke:#181818;stroke-width:0.5;" x1="1501.52" x2="1740.4892" y1="430.952" y2="430.952"/><ellipse cx="1511.52" cy="445.9859" fill="#84BE84" rx="3" ry="3" style="stroke:#038048;stroke-width:1;"/><text fill="#000000" font-family="sans-serif" font-size="14" lengthAdjust="spacing" textLength="214.9692" x="1520.52" y="449.9179">JDBCStopWordDAO(Connection):</text><ellipse cx="1511.52" cy="465.0539" fill="#84BE84" rx="3" ry="3" style="stroke:#038048;stroke-width:1;"/><text fill="#000000" font-family="sans-serif" font-size="14" lengthAdjust="spacing" textLength="121.3515" x="1520.52" y="468.9858">isEmpty(): boolean</text><ellipse cx="1511.52" cy="484.1218" fill="#84BE84" rx="3" ry="3" style="stroke:#038048;stroke-width:1;"/><text fill="#000000" font-family="sans-serif" font-size="14" lengthAdjust="spacing" textLength="129.6675" x="1520.52" y="488.0538">update(String): void</text><ellipse cx="1511.52" cy="503.1897" fill="#84BE84" rx="3" ry="3" style="stroke:#038048;stroke-width:1;"/><text fill="#000000" font-family="sans-serif" font-size="14" lengthAdjust="spacing" textLength="145.8934" x="1520.52" y="507.1217">selectAll(): Set&lt;String&gt;</text><ellipse cx="1511.52" cy="522.2576" fill="#84BE84" rx="3" ry="3" style="stroke:#038048;stroke-width:1;"/><text fill="#000000" font-family="sans-serif" font-size="14" lengthAdjust="spacing" textLength="120.6935" x="1520.52" y="526.1896">insert(String): void</text><ellipse cx="1511.52" cy="541.3255" fill="#84BE84" rx="3" ry="3" style="stroke:#038048;stroke-width:1;"/><text fill="#000000" font-family="sans-serif" font-size="14" lengthAdjust="spacing" textLength="123.9555" x="1520.52" y="545.2575">delete(String): void</text></g><!--class JDBCUserDAO--><g class="entity" data-entity="JDBCUserDAO" data-source-line="71" data-uid="ent0015" id="entity_JDBCUserDAO"><rect fill="#F1F1F1" height="181.4754" rx="2.5" ry="2.5" style="stroke:#181818;stroke-width:0.5;" width="238.7432" x="1776.63" y="381.422"/><ellipse cx="1845.3978" cy="397.422" fill="#ADD1B2" rx="11" ry="11" style="stroke:#181818;stroke-width:1;"/><path d="M1844.8665,404.3439 Q1843.1165,404.3439 1841.9759,403.6095 Q1840.8509,402.8595 1840.2884,401.5157 Q1839.7415,400.1564 1839.7415,398.3595 Q1839.7415,396.3282 1840.3978,394.8751 Q1841.054,393.422 1842.3353,392.6407 Q1843.6165,391.8595 1845.4915,391.8595 Q1846.3821,391.8595 1847.054,392.047 Q1847.7259,392.2189 1848.4134,392.5626 L1847.6009,394.5782 Q1846.9759,394.2657 1846.429,394.1407 Q1845.8978,394.0157 1845.4134,394.0157 Q1844.2415,394.0157 1843.5384,394.547 Q1842.8353,395.0782 1842.5384,396.0314 Q1842.2415,396.9845 1842.2415,398.2501 Q1842.2415,400.2657 1842.9603,401.2345 Q1843.679,402.1876 1845.2728,402.1876 Q1845.8665,402.1876 1846.4915,402.0314 Q1847.1165,401.8751 1847.9446,401.5001 L1847.9446,403.7189 Q1847.2103,404.0314 1846.4134,404.1876 Q1845.6321,404.3439 1844.8665,404.3439 Z " fill="#000000"/><text fill="#000000" font-family="sans-serif" font-size="14" lengthAdjust="spacing" textLength="92.7076" x="1865.8978" y="402.854">JDBCUserDAO</text><line style="stroke:#181818;stroke-width:0.5;" x1="1777.63" x2="2014.3732" y1="413.422" y2="413.422"/><line style="stroke:#181818;stroke-width:0.5;" x1="1777.63" x2="2014.3732" y1="421.422" y2="421.422"/><ellipse cx="1787.63" cy="436.4559" fill="#84BE84" rx="3" ry="3" style="stroke:#038048;stroke-width:1;"/><text fill="#000000" font-family="sans-serif" font-size="14" lengthAdjust="spacing" textLength="179.8853" x="1796.63" y="440.3879">JDBCUserDAO(Connection):</text><ellipse cx="1787.63" cy="455.5239" fill="#84BE84" rx="3" ry="3" style="stroke:#038048;stroke-width:1;"/><text fill="#000000" font-family="sans-serif" font-size="14" lengthAdjust="spacing" textLength="111.9156" x="1796.63" y="459.4558">insert(User): void</text><ellipse cx="1787.63" cy="474.5918" fill="#84BE84" rx="3" ry="3" style="stroke:#038048;stroke-width:1;"/><text fill="#000000" font-family="sans-serif" font-size="14" lengthAdjust="spacing" textLength="115.1776" x="1796.63" y="478.5238">delete(User): void</text><ellipse cx="1787.63" cy="493.6597" fill="#84BE84" rx="3" ry="3" style="stroke:#038048;stroke-width:1;"/><text fill="#000000" font-family="sans-serif" font-size="14" lengthAdjust="spacing" textLength="120.8895" x="1796.63" y="497.5917">update(User): void</text><ellipse cx="1787.63" cy="512.7276" fill="#84BE84" rx="3" ry="3" style="stroke:#038048;stroke-width:1;"/><text fill="#000000" font-family="sans-serif" font-size="14" lengthAdjust="spacing" textLength="139.1875" x="1796.63" y="516.6596">selectAll(): List&lt;User&gt;</text><ellipse cx="1787.63" cy="531.7955" fill="#84BE84" rx="3" ry="3" style="stroke:#038048;stroke-width:1;"/><text fill="#000000" font-family="sans-serif" font-size="14" lengthAdjust="spacing" textLength="212.7432" x="1796.63" y="535.7275">selectBy(String): Optional&lt;User&gt;</text><ellipse cx="1787.63" cy="550.8634" fill="#84BE84" rx="3" ry="3" style="stroke:#038048;stroke-width:1;"/><text fill="#000000" font-family="sans-serif" font-size="14" lengthAdjust="spacing" textLength="121.3515" x="1796.63" y="554.7954">isEmpty(): boolean</text></g><!--class JDBCWdmDAO--><g class="entity" data-entity="JDBCWdmDAO" data-source-line="80" data-uid="ent0016" id="entity_JDBCWdmDAO"><rect fill="#F1F1F1" height="219.6113" rx="2.5" ry="2.5" style="stroke:#181818;stroke-width:0.5;" width="316.2328" x="2049.88" y="362.352"/><ellipse cx="2155.3416" cy="378.352" fill="#ADD1B2" rx="11" ry="11" style="stroke:#181818;stroke-width:1;"/><path d="M2154.8104,385.2739 Q2153.0604,385.2739 2151.9197,384.5395 Q2150.7947,383.7895 2150.2322,382.4457 Q2149.6854,381.0864 2149.6854,379.2895 Q2149.6854,377.2582 2150.3416,375.8051 Q2150.9979,374.352 2152.2791,373.5707 Q2153.5604,372.7895 2155.4354,372.7895 Q2156.326,372.7895 2156.9979,372.977 Q2157.6697,373.1489 2158.3572,373.4926 L2157.5447,375.5082 Q2156.9197,375.1957 2156.3729,375.0707 Q2155.8416,374.9457 2155.3572,374.9457 Q2154.1854,374.9457 2153.4822,375.477 Q2152.7791,376.0082 2152.4822,376.9614 Q2152.1854,377.9145 2152.1854,379.1801 Q2152.1854,381.1957 2152.9041,382.1645 Q2153.6229,383.1176 2155.2166,383.1176 Q2155.8104,383.1176 2156.4354,382.9614 Q2157.0604,382.8051 2157.8885,382.4301 L2157.8885,384.6489 Q2157.1541,384.9614 2156.3572,385.1176 Q2155.576,385.2739 2154.8104,385.2739 Z " fill="#000000"/><text fill="#000000" font-family="sans-serif" font-size="14" lengthAdjust="spacing" textLength="96.8096" x="2175.8416" y="383.784">JDBCWdmDAO</text><line style="stroke:#181818;stroke-width:0.5;" x1="2050.88" x2="2365.1128" y1="394.352" y2="394.352"/><rect fill="none" height="6" style="stroke:#C82930;stroke-width:1;" width="6" x="2057.88" y="406.3859"/><text fill="#000000" font-family="sans-serif" font-size="14" lengthAdjust="spacing" textLength="203.4892" x="2069.88" y="413.3179">documentDAO: DocumentDAO</text><line style="stroke:#181818;stroke-width:0.5;" x1="2050.88" x2="2365.1128" y1="421.4199" y2="421.4199"/><ellipse cx="2060.88" cy="436.4539" fill="#84BE84" rx="3" ry="3" style="stroke:#038048;stroke-width:1;"/><text fill="#000000" font-family="sans-serif" font-size="14" lengthAdjust="spacing" textLength="290.2328" x="2069.88" y="440.3858">JDBCWdmDAO(Connection, DocumentDAO):</text><rect fill="#F24D5C" height="6" style="stroke:#C82930;stroke-width:1;" width="6" x="2057.88" y="452.5218"/><text fill="#000000" font-family="sans-serif" font-size="14" lengthAdjust="spacing" textLength="258.719" x="2069.88" y="459.4538">selectBase(String, Object[]): List&lt;WDM&gt;</text><ellipse cx="2060.88" cy="474.5897" fill="#84BE84" rx="3" ry="3" style="stroke:#038048;stroke-width:1;"/><text fill="#000000" font-family="sans-serif" font-size="14" lengthAdjust="spacing" textLength="247.421" x="2069.88" y="478.5217">selectBy(Document): Optional&lt;WDM&gt;</text><ellipse cx="2060.88" cy="493.6576" fill="#84BE84" rx="3" ry="3" style="stroke:#038048;stroke-width:1;"/><text fill="#000000" font-family="sans-serif" font-size="14" lengthAdjust="spacing" textLength="117.2355" x="2069.88" y="497.5896">insert(WDM): void</text><ellipse cx="2060.88" cy="512.7255" fill="#84BE84" rx="3" ry="3" style="stroke:#038048;stroke-width:1;"/><text fill="#000000" font-family="sans-serif" font-size="14" lengthAdjust="spacing" textLength="270.4089" x="2069.88" y="516.6575">selectWhere(String, Object[]): List&lt;WDM&gt;</text><ellipse cx="2060.88" cy="531.7934" fill="#84BE84" rx="3" ry="3" style="stroke:#038048;stroke-width:1;"/><text fill="#000000" font-family="sans-serif" font-size="14" lengthAdjust="spacing" textLength="120.4975" x="2069.88" y="535.7254">delete(WDM): void</text><ellipse cx="2060.88" cy="550.8614" fill="#84BE84" rx="3" ry="3" style="stroke:#038048;stroke-width:1;"/><text fill="#000000" font-family="sans-serif" font-size="14" lengthAdjust="spacing" textLength="126.2095" x="2069.88" y="554.7933">update(WDM): void</text><ellipse cx="2060.88" cy="569.9293" fill="#84BE84" rx="3" ry="3" style="stroke:#038048;stroke-width:1;"/><text fill="#000000" font-family="sans-serif" font-size="14" lengthAdjust="spacing" textLength="144.5074" x="2069.88" y="573.8613">selectAll(): List&lt;WDM&gt;</text></g><!--class JdbcDAO--><g class="entity" data-entity="JdbcDAO" data-source-line="91" data-uid="ent0017" id="entity_JdbcDAO"><rect fill="#F1F1F1" height="162.4075" rx="2.5" ry="2.5" style="stroke:#181818;stroke-width:0.5;" width="396.6066" x="1422.7" y="641.962"/><ellipse cx="1584.9094" cy="657.962" fill="#A9DCDF" rx="11" ry="11" style="stroke:#181818;stroke-width:1;"/><path d="M1580.0812,663.712 L1583.425,651.5245 L1586.5656,651.5245 L1589.9406,663.712 L1587.4719,663.712 L1586.7375,660.6964 L1583.2219,660.6964 L1582.4719,663.712 L1580.0812,663.712 Z M1584.4875,655.6651 L1583.7375,658.6651 L1586.2531,658.6651 L1585.5344,655.6651 Q1585.3937,655.087 1585.2687,654.5401 Q1585.1437,653.9776 1585.0031,653.3995 Q1584.8937,653.9776 1584.7531,654.5401 Q1584.6125,655.087 1584.4875,655.6651 Z " fill="#000000"/><text fill="#000000" font-family="sans-serif" font-size="14" font-style="italic" lengthAdjust="spacing" textLength="53.6758" x="1605.4094" y="663.394">JdbcDAO</text><rect fill="#FFFFFF" height="18.3441" style="stroke:#181818;stroke-width:1;stroke-dasharray:2,2;" width="8.012" x="1814.2945" y="638.962"/><text fill="#000000" font-family="sans-serif" font-size="12" font-style="italic" lengthAdjust="spacing" textLength="6.012" x="1815.2945" y="652.7901">T</text><line style="stroke:#181818;stroke-width:0.5;" x1="1423.7" x2="1818.3066" y1="673.962" y2="673.962"/><polygon fill="none" points="1433.7,683.9959,1437.7,687.9959,1433.7,691.9959,1429.7,687.9959" style="stroke:#B38D22;stroke-width:1;"/><text fill="#000000" font-family="sans-serif" font-size="14" lengthAdjust="spacing" textLength="155.3154" x="1442.7" y="692.9279">connection: Connection</text><line style="stroke:#181818;stroke-width:0.5;" x1="1423.7" x2="1818.3066" y1="701.0299" y2="701.0299"/><polygon fill="#FFFF44" points="1433.7,711.0639,1437.7,715.0639,1433.7,719.0639,1429.7,715.0639" style="stroke:#B38D22;stroke-width:1;"/><text fill="#000000" font-family="sans-serif" font-size="14" lengthAdjust="spacing" textLength="145.0394" x="1442.7" y="719.9958">JdbcDAO(Connection):</text><polygon fill="#FFFF44" points="1433.7,730.1318,1437.7,734.1318,1433.7,738.1318,1429.7,734.1318" style="stroke:#B38D22;stroke-width:1;"/><text fill="#000000" font-family="sans-serif" font-size="14" lengthAdjust="spacing" textLength="243.7391" x="1442.7" y="739.0638">executeUpdate(String, Object[]): long</text><polygon fill="#FFFF44" points="1433.7,749.1997,1437.7,753.1997,1433.7,757.1997,1429.7,753.1997" style="stroke:#B38D22;stroke-width:1;"/><text fill="#000000" font-family="sans-serif" font-size="14" lengthAdjust="spacing" textLength="370.6066" x="1442.7" y="758.1317">executeQuery(String, Callback&lt;ResultSet, R&gt;, Object[]): R</text><polygon fill="#FFFF44" points="1433.7,768.2676,1437.7,772.2676,1433.7,776.2676,1429.7,772.2676" style="stroke:#B38D22;stroke-width:1;"/><text fill="#000000" font-family="sans-serif" font-size="14" lengthAdjust="spacing" textLength="311.1768" x="1442.7" y="777.1996">executeQuery(String, Callback&lt;ResultSet, R&gt;): R</text><polygon fill="#FFFF44" points="1433.7,787.3355,1437.7,791.3355,1433.7,795.3355,1429.7,791.3355" style="stroke:#B38D22;stroke-width:1;"/><text fill="#000000" font-family="sans-serif" font-size="14" lengthAdjust="spacing" textLength="160.7474" x="1442.7" y="796.2675">isEmpty(String): boolean</text></g><!--class Repository--><g class="entity" data-entity="Repository" data-source-line="10" data-uid="ent0005" id="entity_Repository"><rect fill="#F1F1F1" height="99.5479" rx="2.5" ry="2.5" style="stroke:#181818;stroke-width:0.5;" width="170.7314" x="142.63" y="123.702"/><ellipse cx="191.0978" cy="146.408" fill="#B4A7E5" rx="11" ry="11" style="stroke:#181818;stroke-width:1;"/><path d="M187.1291,152.908 L187.1291,151.2049 L189.4885,150.9392 L189.4885,142.7361 L187.1291,142.4705 L187.1291,140.7674 L194.2697,140.7674 L194.2697,142.4705 L191.8478,142.7361 L191.8478,150.9392 L194.2697,151.2049 L194.2697,152.908 L187.1291,152.908 Z " fill="#000000"/><text fill="#000000" font-family="sans-serif" font-size="12" font-style="italic" lengthAdjust="spacing" textLength="58.2964" x="215.0975" y="141.5301">&#171;interface&#187;</text><text fill="#000000" font-family="sans-serif" font-size="14" font-style="italic" lengthAdjust="spacing" textLength="65.2958" x="211.5978" y="160.012">Repository</text><line style="stroke:#181818;stroke-width:0.5;" x1="143.63" x2="312.3614" y1="169.114" y2="169.114"/><line style="stroke:#181818;stroke-width:0.5;" x1="143.63" x2="312.3614" y1="177.114" y2="177.114"/><ellipse cx="153.63" cy="192.148" fill="#84BE84" rx="3" ry="3" style="stroke:#038048;stroke-width:1;"/><text fill="#000000" font-family="sans-serif" font-size="14" lengthAdjust="spacing" textLength="144.7314" x="162.63" y="196.0799">getDAO(String): TDAO</text><ellipse cx="153.63" cy="211.2159" fill="#84BE84" rx="3" ry="3" style="stroke:#038048;stroke-width:1;"/><text fill="#000000" font-family="sans-serif" font-size="14" lengthAdjust="spacing" textLength="76.9997" x="162.63" y="215.1479">close(): void</text></g><!--class DAO--><g class="entity" data-entity="DAO" data-source-line="14" data-uid="ent0006" id="entity_DAO"><rect fill="#F1F1F1" height="137.6837" rx="2.5" ry="2.5" style="stroke:#181818;stroke-width:0.5;" width="184.5914" x="348.7" y="104.642"/><ellipse cx="404.5915" cy="127.348" fill="#B4A7E5" rx="11" ry="11" style="stroke:#181818;stroke-width:1;"/><path d="M400.6227,133.848 L400.6227,132.1449 L402.9821,131.8792 L402.9821,123.6761 L400.6227,123.4105 L400.6227,121.7074 L407.7633,121.7074 L407.7633,123.4105 L405.3415,123.6761 L405.3415,131.8792 L407.7633,132.1449 L407.7633,133.848 L400.6227,133.848 Z " fill="#000000"/><text fill="#000000" font-family="sans-serif" font-size="12" font-style="italic" lengthAdjust="spacing" textLength="58.2964" x="423.0915" y="122.4701">&#171;interface&#187;</text><text fill="#000000" font-family="sans-serif" font-size="14" font-style="italic" lengthAdjust="spacing" textLength="27.2999" x="438.5897" y="140.952">DAO</text><rect fill="#FFFFFF" height="18.3441" style="stroke:#181818;stroke-width:1;stroke-dasharray:2,2;" width="8.012" x="528.2793" y="101.642"/><text fill="#000000" font-family="sans-serif" font-size="12" font-style="italic" lengthAdjust="spacing" textLength="6.012" x="529.2793" y="115.4701">T</text><line style="stroke:#181818;stroke-width:0.5;" x1="349.7" x2="532.2914" y1="150.054" y2="150.054"/><line style="stroke:#181818;stroke-width:0.5;" x1="349.7" x2="532.2914" y1="158.054" y2="158.054"/><ellipse cx="359.7" cy="173.088" fill="#84BE84" rx="3" ry="3" style="stroke:#038048;stroke-width:1;"/><text fill="#000000" font-family="sans-serif" font-size="14" lengthAdjust="spacing" textLength="89.0816" x="368.7" y="177.0199">insert(T): void</text><ellipse cx="359.7" cy="192.1559" fill="#84BE84" rx="3" ry="3" style="stroke:#038048;stroke-width:1;"/><text fill="#000000" font-family="sans-serif" font-size="14" lengthAdjust="spacing" textLength="92.3436" x="368.7" y="196.0879">delete(T): void</text><ellipse cx="359.7" cy="211.2238" fill="#84BE84" rx="3" ry="3" style="stroke:#038048;stroke-width:1;"/><text fill="#000000" font-family="sans-serif" font-size="14" lengthAdjust="spacing" textLength="158.5914" x="368.7" y="215.1558">selectAll(): Collection&lt;T&gt;</text><ellipse cx="359.7" cy="230.2917" fill="#84BE84" rx="3" ry="3" style="stroke:#038048;stroke-width:1;"/><text fill="#000000" font-family="sans-serif" font-size="14" lengthAdjust="spacing" textLength="98.0556" x="368.7" y="234.2237">update(T): void</text></g><!--class DocumentDAO--><g class="entity" data-entity="DocumentDAO" data-source-line="20" data-uid="ent0007" id="entity_DocumentDAO"><rect fill="#F1F1F1" height="99.5479" rx="2.5" ry="2.5" style="stroke:#181818;stroke-width:0.5;" width="276.879" x="568.56" y="123.702"/><ellipse cx="657.2707" cy="146.408" fill="#B4A7E5" rx="11" ry="11" style="stroke:#181818;stroke-width:1;"/><path d="M653.3019,152.908 L653.3019,151.2049 L655.6613,150.9392 L655.6613,142.7361 L653.3019,142.4705 L653.3019,140.7674 L660.4425,140.7674 L660.4425,142.4705 L658.0207,142.7361 L658.0207,150.9392 L660.4425,151.2049 L660.4425,152.908 L653.3019,152.908 Z " fill="#000000"/><text fill="#000000" font-family="sans-serif" font-size="12" font-style="italic" lengthAdjust="spacing" textLength="58.2964" x="694.1013" y="141.5301">&#171;interface&#187;</text><text fill="#000000" font-family="sans-serif" font-size="14" font-style="italic" lengthAdjust="spacing" textLength="90.9577" x="677.7707" y="160.012">DocumentDAO</text><line style="stroke:#181818;stroke-width:0.5;" x1="569.56" x2="844.439" y1="169.114" y2="169.114"/><line style="stroke:#181818;stroke-width:0.5;" x1="569.56" x2="844.439" y1="177.114" y2="177.114"/><ellipse cx="579.56" cy="192.148" fill="#84BE84" rx="3" ry="3" style="stroke:#038048;stroke-width:1;"/><text fill="#000000" font-family="sans-serif" font-size="14" lengthAdjust="spacing" textLength="121.3515" x="588.56" y="196.0799">isEmpty(): boolean</text><ellipse cx="579.56" cy="211.2159" fill="#84BE84" rx="3" ry="3" style="stroke:#038048;stroke-width:1;"/><text fill="#000000" font-family="sans-serif" font-size="14" lengthAdjust="spacing" textLength="250.879" x="588.56" y="215.1479">selectBy(String): Optional&lt;Document&gt;</text></g><!--class GameReportDAO--><g class="entity" data-entity="GameReportDAO" data-source-line="24" data-uid="ent0008" id="entity_GameReportDAO"><rect fill="#F1F1F1" height="80.4799" rx="2.5" ry="2.5" style="stroke:#181818;stroke-width:0.5;" width="363.9867" x="46.01" y="431.922"/><ellipse cx="171.1555" cy="454.628" fill="#B4A7E5" rx="11" ry="11" style="stroke:#181818;stroke-width:1;"/><path d="M167.1868,461.128 L167.1868,459.4249 L169.5462,459.1592 L169.5462,450.9561 L167.1868,450.6905 L167.1868,448.9874 L174.3274,448.9874 L174.3274,450.6905 L171.9055,450.9561 L171.9055,459.1592 L174.3274,459.4249 L174.3274,461.128 L167.1868,461.128 Z " fill="#000000"/><text fill="#000000" font-family="sans-serif" font-size="12" font-style="italic" lengthAdjust="spacing" textLength="58.2964" x="215.1051" y="449.7501">&#171;interface&#187;</text><text fill="#000000" font-family="sans-serif" font-size="14" font-style="italic" lengthAdjust="spacing" textLength="105.1956" x="191.6555" y="468.232">GameReportDAO</text><line style="stroke:#181818;stroke-width:0.5;" x1="47.01" x2="408.9967" y1="477.334" y2="477.334"/><line style="stroke:#181818;stroke-width:0.5;" x1="47.01" x2="408.9967" y1="485.334" y2="485.334"/><ellipse cx="57.01" cy="500.368" fill="#84BE84" rx="3" ry="3" style="stroke:#038048;stroke-width:1;"/><text fill="#000000" font-family="sans-serif" font-size="14" lengthAdjust="spacing" textLength="337.9867" x="66.01" y="504.2999">selectBy(User, Timestamp): Optional&lt;GameReport&gt;</text></g><!--class StopWordDAO--><g class="entity" data-entity="StopWordDAO" data-source-line="27" data-uid="ent0009" id="entity_StopWordDAO"><rect fill="#F1F1F1" height="99.5479" rx="2.5" ry="2.5" style="stroke:#181818;stroke-width:0.5;" width="171.8934" x="445.05" y="422.382"/><ellipse cx="483.1547" cy="445.088" fill="#B4A7E5" rx="11" ry="11" style="stroke:#181818;stroke-width:1;"/><path d="M479.1859,451.588 L479.1859,449.8849 L481.5453,449.6192 L481.5453,441.4161 L479.1859,441.1505 L479.1859,439.4474 L486.3266,439.4474 L486.3266,441.1505 L483.9047,441.4161 L483.9047,449.6192 L486.3266,449.8849 L486.3266,451.588 L479.1859,451.588 Z " fill="#000000"/><text fill="#000000" font-family="sans-serif" font-size="12" font-style="italic" lengthAdjust="spacing" textLength="58.2964" x="517.4157" y="440.2101">&#171;interface&#187;</text><text fill="#000000" font-family="sans-serif" font-size="14" font-style="italic" lengthAdjust="spacing" textLength="88.5497" x="502.2891" y="458.692">StopWordDAO</text><line style="stroke:#181818;stroke-width:0.5;" x1="446.05" x2="615.9434" y1="467.794" y2="467.794"/><line style="stroke:#181818;stroke-width:0.5;" x1="446.05" x2="615.9434" y1="475.794" y2="475.794"/><ellipse cx="456.05" cy="490.828" fill="#84BE84" rx="3" ry="3" style="stroke:#038048;stroke-width:1;"/><text fill="#000000" font-family="sans-serif" font-size="14" lengthAdjust="spacing" textLength="145.8934" x="465.05" y="494.7599">selectAll(): Set&lt;String&gt;</text><ellipse cx="456.05" cy="509.8959" fill="#84BE84" rx="3" ry="3" style="stroke:#038048;stroke-width:1;"/><text fill="#000000" font-family="sans-serif" font-size="14" lengthAdjust="spacing" textLength="121.3515" x="465.05" y="513.8279">isEmpty(): boolean</text></g><!--class WdmDAO--><g class="entity" data-entity="WdmDAO" data-source-line="32" data-uid="ent0010" id="entity_WdmDAO"><rect fill="#F1F1F1" height="80.4799" rx="2.5" ry="2.5" style="stroke:#181818;stroke-width:0.5;" width="273.421" x="652.29" y="431.922"/><ellipse cx="754.9306" cy="454.628" fill="#B4A7E5" rx="11" ry="11" style="stroke:#181818;stroke-width:1;"/><path d="M750.9619,461.128 L750.9619,459.4249 L753.3212,459.1592 L753.3212,450.9561 L750.9619,450.6905 L750.9619,448.9874 L758.1025,448.9874 L758.1025,450.6905 L755.6806,450.9561 L755.6806,459.1592 L758.1025,459.4249 L758.1025,461.128 L750.9619,461.128 Z " fill="#000000"/><text fill="#000000" font-family="sans-serif" font-size="12" font-style="italic" lengthAdjust="spacing" textLength="58.2964" x="776.1023" y="449.7501">&#171;interface&#187;</text><text fill="#000000" font-family="sans-serif" font-size="14" font-style="italic" lengthAdjust="spacing" textLength="59.6398" x="775.4306" y="468.232">WdmDAO</text><line style="stroke:#181818;stroke-width:0.5;" x1="653.29" x2="924.711" y1="477.334" y2="477.334"/><line style="stroke:#181818;stroke-width:0.5;" x1="653.29" x2="924.711" y1="485.334" y2="485.334"/><ellipse cx="663.29" cy="500.368" fill="#84BE84" rx="3" ry="3" style="stroke:#038048;stroke-width:1;"/><text fill="#000000" font-family="sans-serif" font-size="14" lengthAdjust="spacing" textLength="247.421" x="672.29" y="504.2999">selectBy(Document): Optional&lt;WDM&gt;</text></g><!--class UserDAO--><g class="entity" data-entity="UserDAO" data-source-line="36" data-uid="ent0011" id="entity_UserDAO"><rect fill="#F1F1F1" height="80.4799" rx="2.5" ry="2.5" style="stroke:#181818;stroke-width:0.5;" width="238.7432" x="108.63" y="682.932"/><ellipse cx="196.0597" cy="705.638" fill="#B4A7E5" rx="11" ry="11" style="stroke:#181818;stroke-width:1;"/><path d="M192.0909,712.138 L192.0909,710.4349 L194.4503,710.1692 L194.4503,701.9661 L192.0909,701.7005 L192.0909,699.9974 L199.2316,699.9974 L199.2316,701.7005 L196.8097,701.9661 L196.8097,710.1692 L199.2316,710.4349 L199.2316,712.138 L192.0909,712.138 Z " fill="#000000"/><text fill="#000000" font-family="sans-serif" font-size="12" font-style="italic" lengthAdjust="spacing" textLength="58.2964" x="215.1034" y="700.7601">&#171;interface&#187;</text><text fill="#000000" font-family="sans-serif" font-size="14" font-style="italic" lengthAdjust="spacing" textLength="55.3838" x="216.5597" y="719.242">UserDAO</text><line style="stroke:#181818;stroke-width:0.5;" x1="109.63" x2="346.3732" y1="728.344" y2="728.344"/><line style="stroke:#181818;stroke-width:0.5;" x1="109.63" x2="346.3732" y1="736.344" y2="736.344"/><ellipse cx="119.63" cy="751.378" fill="#84BE84" rx="3" ry="3" style="stroke:#038048;stroke-width:1;"/><text fill="#000000" font-family="sans-serif" font-size="14" lengthAdjust="spacing" textLength="212.7432" x="128.63" y="755.3099">selectBy(String): Optional&lt;User&gt;</text></g><!--class QueryFailedException--><g class="entity" data-entity="QueryFailedException" data-source-line="101" data-uid="ent0019" id="entity_QueryFailedException"><rect fill="#F1F1F1" height="67.0679" rx="2.5" ry="2.5" style="stroke:#181818;stroke-width:0.5;" width="221.0052" x="982.5" y="139.942"/><ellipse cx="1017.9965" cy="155.942" fill="#D94321" rx="11" ry="11" style="stroke:#181818;stroke-width:1;"/><path d="M1013.3403,162.442 L1016.9809,156.192 L1013.5746,150.3014 L1016.0903,150.3014 L1018.0903,154.1295 L1020.0746,150.3014 L1022.6215,150.3014 L1019.2153,156.1764 L1022.8559,162.442 L1020.2621,162.442 L1018.0746,158.2232 L1015.8559,162.442 L1013.3403,162.442 Z " fill="#000000"/><text fill="#000000" font-family="sans-serif" font-size="14" lengthAdjust="spacing" textLength="143.4574" x="1036.5513" y="161.374">QueryFailedException</text><line style="stroke:#181818;stroke-width:0.5;" x1="983.5" x2="1202.5052" y1="171.942" y2="171.942"/><line style="stroke:#181818;stroke-width:0.5;" x1="983.5" x2="1202.5052" y1="179.942" y2="179.942"/><ellipse cx="993.5" cy="194.9759" fill="#84BE84" rx="3" ry="3" style="stroke:#038048;stroke-width:1;"/><text fill="#000000" font-family="sans-serif" font-size="14" lengthAdjust="spacing" textLength="195.0052" x="1002.5" y="198.9079">QueryFailedException(String):</text></g><!--class UpdateFailedException--><g class="entity" data-entity="UpdateFailedException" data-source-line="104" data-uid="ent0020" id="entity_UpdateFailedException"><rect fill="#F1F1F1" height="67.0679" rx="2.5" ry="2.5" style="stroke:#181818;stroke-width:0.5;" width="228.8592" x="1238.57" y="139.942"/><ellipse cx="1274.0665" cy="155.942" fill="#D94321" rx="11" ry="11" style="stroke:#181818;stroke-width:1;"/><path d="M1269.4103,162.442 L1273.0509,156.192 L1269.6446,150.3014 L1272.1603,150.3014 L1274.1603,154.1295 L1276.1446,150.3014 L1278.6915,150.3014 L1275.2853,156.1764 L1278.9259,162.442 L1276.3321,162.442 L1274.1446,158.2232 L1271.9259,162.442 L1269.4103,162.442 Z " fill="#000000"/><text fill="#000000" font-family="sans-serif" font-size="14" lengthAdjust="spacing" textLength="151.3114" x="1292.6213" y="161.374">UpdateFailedException</text><line style="stroke:#181818;stroke-width:0.5;" x1="1239.57" x2="1466.4292" y1="171.942" y2="171.942"/><line style="stroke:#181818;stroke-width:0.5;" x1="1239.57" x2="1466.4292" y1="179.942" y2="179.942"/><ellipse cx="1249.57" cy="194.9759" fill="#84BE84" rx="3" ry="3" style="stroke:#038048;stroke-width:1;"/><text fill="#000000" font-family="sans-serif" font-size="14" lengthAdjust="spacing" textLength="202.8592" x="1258.57" y="198.9079">UpdateFailedException(String):</text></g><!--SRC=[fLRDZfim4BxdAIpbmYhP5q28QZVPhLHr5JN9AeUg1mEpAQt129jgeohlNWF6Fs1Oed90OZpppSytCxZ0yMzy1fH4wEy2YIScc37q9OdYFHIKfPoM5tcqweczEx-HtwC4K-QZ5rm41rwc-NdTQ6uVTi6dC9GwCSrp7st46sAUqbn2de4BFQ-rk_FHKNp9evXG1i89-aFJf95TctSXOnQ8lCGnPpA-xabp3kKRZW4PAGI18G_3dib475fb64_tj75f_3hpOpZYSoM434hk7Kse5Kg008U-b0bfp1y8gHrlA25jzGIyLAYA1FVD1l7GkCeWhpCS3uezPGMlIKKHfGHmRaNmUD6rsHLr29W47MxezFePPr0pK4xwLV2leYXhT4mpO1ndXUb78xaz7JWjJhHCFlOZ2ta0Bbird4x_kkYvEYNPh6owqfXfdBOleHkrpdqMx923sjIiYiIMSxnzt9Zagq6svPuUIpdJgXsDF8ok76qMsOrkAuk2hodZlGPIap5bFhiHTGNiHZHhO9qOLLWt8wnGsy-cqdhdwVBvve39uwfbrE-e_OzklqT52S-qp32lzJr2c-JRAjXiQLDNwKu_eGIlMz6xw9UGVV_HST5tgyYS1ZNf74OkyyNi5h-o2zn- - -IQiszIQyXTxVrH1wiU6qlOiKBQi5sMafxXKJ-RRX6OcKYPCulMPQtXT3WyaEaD3uPiwiqoSm5DR54xIxb4pIHRaJs2UgZcJjsCTbDBUEwoLbKMajkdoe2Hd0nW92KZy2OZnW-aVkE8DHSWuz8cRnvjPPUTQDWwo-O-ree6jx8bWdU8AmwlvYnOkTKxoDRzLa5vKQeRJ4Waxcd17bX5k1YMDTg75iJ-Tdl3gkiqrO-EltPtKOJt61fQcRxrAHbg73_Zb43of8HQSULKK7uNzXtGXcxhDuNjr1W35sbT_m40]--></g></svg>