<svg xmlns="http://www.w3.org/2000/svg" xmlns:xlink="http://www.w3.org/1999/xlink" contentStyleType="text/css" data-diagram-type="CLASS" height="1081px" preserveAspectRatio="none" style="width:1117px;height:1081px;background:#FFFFFF;" version="1.1" viewBox="0 0 1117 1081" width="1117px" zoomAndPan="magnify"><defs/><g><!--cluster controllers--><g class="cluster" data-entity="controllers" data-source-line="1" data-uid="ent0002" id="cluster_controllers"><path d="M8.5,6.602 L85.6457,6.602 A3.75,3.75 0 0 1 88.1457,9.102 L95.1457,31.6699 L1107.5,31.6699 A2.5,2.5 0 0 1 1110,34.1699 L1110,1072.162 A2.5,2.5 0 0 1 1107.5,1074.662 L8.5,1074.662 A2.5,2.5 0 0 1 6,1072.162 L6,9.102 A2.5,2.5 0 0 1 8.5,6.602" fill="none" style="stroke:#000000;stroke-width:1.5;"/><line style="stroke:#000000;stroke-width:1.5;" x1="6" x2="95.1457" y1="31.6699" y2="31.6699"/><text fill="#000000" font-family="sans-serif" font-size="14" font-weight="bold" lengthAdjust="spacing" textLength="76.1457" x="10" y="23.5679">controllers</text></g><!--class AuthController--><g class="entity" data-entity="AuthController" data-source-line="2" data-uid="ent0003" id="entity_AuthController"><rect fill="#F1F1F1" height="181.4754" rx="2.5" ry="2.5" style="stroke:#181818;stroke-width:0.5;" width="303.101" x="22.45" y="349.692"/><ellipse cx="121.0097" cy="365.692" fill="#ADD1B2" rx="11" ry="11" style="stroke:#181818;stroke-width:1;"/><path d="M120.4784,372.6139 Q118.7284,372.6139 117.5878,371.8795 Q116.4628,371.1295 115.9003,369.7857 Q115.3534,368.4264 115.3534,366.6295 Q115.3534,364.5982 116.0097,363.1451 Q116.6659,361.692 117.9472,360.9107 Q119.2284,360.1295 121.1034,360.1295 Q121.994,360.1295 122.6659,360.317 Q123.3378,360.4889 124.0253,360.8326 L123.2128,362.8482 Q122.5878,362.5357 122.0409,362.4107 Q121.5097,362.2857 121.0253,362.2857 Q119.8534,362.2857 119.1503,362.817 Q118.4472,363.3482 118.1503,364.3014 Q117.8534,365.2545 117.8534,366.5201 Q117.8534,368.5357 118.5722,369.5045 Q119.2909,370.4576 120.8847,370.4576 Q121.4784,370.4576 122.1034,370.3014 Q122.7284,370.1451 123.5565,369.7701 L123.5565,371.9889 Q122.8222,372.3014 122.0253,372.4576 Q121.244,372.6139 120.4784,372.6139 Z " fill="#000000"/><text fill="#000000" font-family="sans-serif" font-size="14" lengthAdjust="spacing" textLength="97.4816" x="141.5097" y="371.124">AuthController</text><line style="stroke:#181818;stroke-width:0.5;" x1="23.45" x2="324.551" y1="381.692" y2="381.692"/><rect fill="none" height="6" style="stroke:#C82930;stroke-width:1;" width="6" x="30.45" y="393.7259"/><text fill="#000000" font-family="sans-serif" font-size="14" lengthAdjust="spacing" textLength="162.3154" x="42.45" y="400.6579">authService: AuthService</text><rect fill="none" height="6" style="stroke:#C82930;stroke-width:1;" width="6" x="30.45" y="412.7939"/><text fill="#000000" font-family="sans-serif" font-size="14" lengthAdjust="spacing" textLength="181.4673" x="42.45" y="419.7258">passwordPF: PasswordField</text><line style="stroke:#181818;stroke-width:0.5;" x1="23.45" x2="324.551" y1="427.8278" y2="427.8278"/><ellipse cx="33.45" cy="442.8618" fill="#84BE84" rx="3" ry="3" style="stroke:#038048;stroke-width:1;"/><text fill="#000000" font-family="sans-serif" font-size="14" lengthAdjust="spacing" textLength="187.1793" x="42.45" y="446.7938">AuthController(AppContext):</text><rect fill="#F24D5C" height="6" style="stroke:#C82930;stroke-width:1;" width="6" x="30.45" y="458.9297"/><text fill="#000000" font-family="sans-serif" font-size="14" lengthAdjust="spacing" textLength="97.6916" x="42.45" y="465.8617">initialize(): void</text><ellipse cx="33.45" cy="480.9976" fill="#84BE84" rx="3" ry="3" style="stroke:#038048;stroke-width:1;"/><text fill="#000000" font-family="sans-serif" font-size="14" lengthAdjust="spacing" textLength="226.3091" x="42.45" y="484.9296">handleLoginBtn(ActionEvent): void</text><ellipse cx="33.45" cy="500.0655" fill="#84BE84" rx="3" ry="3" style="stroke:#038048;stroke-width:1;"/><text fill="#000000" font-family="sans-serif" font-size="14" lengthAdjust="spacing" textLength="277.101" x="42.45" y="503.9975">showDialog(AlertType, String, String): void</text><ellipse cx="33.45" cy="519.1334" fill="#84BE84" rx="3" ry="3" style="stroke:#038048;stroke-width:1;"/><text fill="#000000" font-family="sans-serif" font-size="14" lengthAdjust="spacing" textLength="243.893" x="42.45" y="523.0654">handleRegisterBtn(ActionEvent): void</text></g><!--class GameController--><g class="entity" data-entity="GameController" data-source-line="11" data-uid="ent0004" id="entity_GameController"><rect fill="#F1F1F1" height="791.6488" rx="2.5" ry="2.5" style="stroke:#181818;stroke-width:0.5;" width="432.2084" x="360.9" y="44.602"/><ellipse cx="520.1494" cy="60.602" fill="#ADD1B2" rx="11" ry="11" style="stroke:#181818;stroke-width:1;"/><path d="M519.6182,67.5239 Q517.8682,67.5239 516.7275,66.7895 Q515.6025,66.0395 515.04,64.6957 Q514.4932,63.3364 514.4932,61.5395 Q514.4932,59.5082 515.1494,58.0551 Q515.8057,56.602 517.0869,55.8207 Q518.3682,55.0395 520.2432,55.0395 Q521.1338,55.0395 521.8057,55.227 Q522.4775,55.3989 523.165,55.7426 L522.3525,57.7582 Q521.7275,57.4457 521.1807,57.3207 Q520.6494,57.1957 520.165,57.1957 Q518.9932,57.1957 518.29,57.727 Q517.5869,58.2582 517.29,59.2114 Q516.9932,60.1645 516.9932,61.4301 Q516.9932,63.4457 517.7119,64.4145 Q518.4307,65.3676 520.0244,65.3676 Q520.6182,65.3676 521.2432,65.2114 Q521.8682,65.0551 522.6963,64.6801 L522.6963,66.8989 Q521.9619,67.2114 521.165,67.3676 Q520.3838,67.5239 519.6182,67.5239 Z " fill="#000000"/><text fill="#000000" font-family="sans-serif" font-size="14" lengthAdjust="spacing" textLength="105.2096" x="540.6494" y="66.034">GameController</text><line style="stroke:#181818;stroke-width:0.5;" x1="361.9" x2="792.1084" y1="76.602" y2="76.602"/><rect fill="none" height="6" style="stroke:#C82930;stroke-width:1;" width="6" x="368.9" y="88.6359"/><text fill="#000000" font-family="sans-serif" font-size="14" lengthAdjust="spacing" textLength="227.4571" x="380.9" y="95.5679">minTimeElapsed: BooleanProperty</text><rect fill="none" height="6" style="stroke:#C82930;stroke-width:1;" width="6" x="368.9" y="107.7039"/><text fill="#000000" font-family="sans-serif" font-size="14" lengthAdjust="spacing" textLength="161.3914" x="380.9" y="114.6358">appContext: AppContext</text><rect fill="none" height="6" style="stroke:#C82930;stroke-width:1;" width="6" x="368.9" y="126.7718"/><text fill="#000000" font-family="sans-serif" font-size="14" lengthAdjust="spacing" textLength="287.4749" x="380.9" y="133.7038">domandaRisposte: Map&lt;Question, Integer&gt;</text><rect fill="none" height="6" style="stroke:#C82930;stroke-width:1;" width="6" x="368.9" y="145.8397"/><text fill="#000000" font-family="sans-serif" font-size="14" lengthAdjust="spacing" textLength="263.661" x="380.9" y="152.7717">elapsedSeconds: SimpleIntegerProperty</text><rect fill="none" height="6" style="stroke:#C82930;stroke-width:1;" width="6" x="368.9" y="164.9076"/><text fill="#000000" font-family="sans-serif" font-size="14" lengthAdjust="spacing" textLength="219.1832" x="380.9" y="171.8396">QUESTION_TIME_LIMIT: Duration</text><rect fill="none" height="6" style="stroke:#C82930;stroke-width:1;" width="6" x="368.9" y="183.9755"/><text fill="#000000" font-family="sans-serif" font-size="14" lengthAdjust="spacing" textLength="159.3614" x="380.9" y="190.9075">questionTimer: Timeline</text><rect fill="none" height="6" style="stroke:#C82930;stroke-width:1;" width="6" x="368.9" y="203.0434"/><text fill="#000000" font-family="sans-serif" font-size="14" lengthAdjust="spacing" textLength="308.8108" x="380.9" y="209.9754">documentToTextMap: Map&lt;Document, String&gt;</text><rect fill="none" height="6" style="stroke:#C82930;stroke-width:1;" width="6" x="368.9" y="222.1114"/><text fill="#000000" font-family="sans-serif" font-size="14" lengthAdjust="spacing" textLength="152.7254" x="380.9" y="229.0433">readingTimer: Timeline</text><rect fill="none" height="6" style="stroke:#C82930;stroke-width:1;" width="6" x="368.9" y="241.1793"/><text fill="#000000" font-family="sans-serif" font-size="14" lengthAdjust="spacing" textLength="303.5609" x="380.9" y="248.1113">currentQuestionIndex: SimpleIntegerProperty</text><rect fill="none" height="6" style="stroke:#C82930;stroke-width:1;" width="6" x="368.9" y="260.2472"/><text fill="#000000" font-family="sans-serif" font-size="14" lengthAdjust="spacing" textLength="178.0233" x="380.9" y="267.1792">numeroRisposteSaltate: int</text><rect fill="none" height="6" style="stroke:#C82930;stroke-width:1;" width="6" x="368.9" y="279.3151"/><text fill="#000000" font-family="sans-serif" font-size="14" lengthAdjust="spacing" textLength="223.2151" x="380.9" y="286.2471">questionsReady: BooleanProperty</text><rect fill="none" height="6" style="stroke:#C82930;stroke-width:1;" width="6" x="368.9" y="298.383"/><text fill="#000000" font-family="sans-serif" font-size="14" lengthAdjust="spacing" textLength="311.0648" x="380.9" y="305.315">questionSetupService: Service&lt;List&lt;Question&gt;&gt;</text><rect fill="none" height="6" style="stroke:#C82930;stroke-width:1;" width="6" x="368.9" y="317.4509"/><text fill="#000000" font-family="sans-serif" font-size="14" lengthAdjust="spacing" textLength="177.2813" x="380.9" y="324.3829">gameService: GameService</text><rect fill="none" height="6" style="stroke:#C82930;stroke-width:1;" width="6" x="368.9" y="336.5189"/><text fill="#000000" font-family="sans-serif" font-size="14" lengthAdjust="spacing" textLength="366.4486" x="380.9" y="343.4508">readingSetupService: Service&lt;Map&lt;Document, String&gt;&gt;</text><rect fill="none" height="6" style="stroke:#C82930;stroke-width:1;" width="6" x="368.9" y="355.5868"/><text fill="#000000" font-family="sans-serif" font-size="14" lengthAdjust="spacing" textLength="226.2531" x="380.9" y="362.5188">questionStartTime: LocalDateTime</text><rect fill="none" height="6" style="stroke:#C82930;stroke-width:1;" width="6" x="368.9" y="374.6547"/><text fill="#000000" font-family="sans-serif" font-size="14" lengthAdjust="spacing" textLength="170.4493" x="380.9" y="381.5867">questions: List&lt;Question&gt;</text><rect fill="none" height="6" style="stroke:#C82930;stroke-width:1;" width="6" x="368.9" y="393.7226"/><text fill="#000000" font-family="sans-serif" font-size="14" lengthAdjust="spacing" textLength="312.3388" x="380.9" y="400.6546">currentDocumentIndex: SimpleIntegerProperty</text><rect fill="none" height="6" style="stroke:#C82930;stroke-width:1;" width="6" x="368.9" y="412.7905"/><text fill="#000000" font-family="sans-serif" font-size="14" lengthAdjust="spacing" textLength="187.7953" x="380.9" y="419.7225">numeroRisposteCorrette: int</text><rect fill="none" height="6" style="stroke:#C82930;stroke-width:1;" width="6" x="368.9" y="431.8584"/><text fill="#000000" font-family="sans-serif" font-size="14" lengthAdjust="spacing" textLength="160.9294" x="380.9" y="438.7904">MIN_TIME_FOR_SKIP: int</text><rect fill="none" height="6" style="stroke:#C82930;stroke-width:1;" width="6" x="368.9" y="450.9264"/><text fill="#000000" font-family="sans-serif" font-size="14" lengthAdjust="spacing" textLength="60.2838" x="380.9" y="457.8583">score: int</text><line style="stroke:#181818;stroke-width:0.5;" x1="361.9" x2="792.1084" y1="465.9603" y2="465.9603"/><ellipse cx="371.9" cy="480.9943" fill="#84BE84" rx="3" ry="3" style="stroke:#038048;stroke-width:1;"/><text fill="#000000" font-family="sans-serif" font-size="14" lengthAdjust="spacing" textLength="194.9073" x="380.9" y="484.9263">GameController(AppContext):</text><ellipse cx="371.9" cy="500.0622" fill="#84BE84" rx="3" ry="3" style="stroke:#038048;stroke-width:1;"/><text fill="#000000" font-family="sans-serif" font-size="14" lengthAdjust="spacing" textLength="123.9415" x="380.9" y="503.9942">skipReading(): void</text><rect fill="#F24D5C" height="6" style="stroke:#C82930;stroke-width:1;" width="6" x="368.9" y="516.1301"/><text fill="#000000" font-family="sans-serif" font-size="14" lengthAdjust="spacing" textLength="122.9475" x="380.9" y="523.0621">showReport(): void</text><rect fill="#F24D5C" height="6" style="stroke:#C82930;stroke-width:1;" width="6" x="368.9" y="535.198"/><text fill="#000000" font-family="sans-serif" font-size="14" lengthAdjust="spacing" textLength="140.6295" x="380.9" y="542.13">loadPane(Node): void</text><rect fill="#F24D5C" height="6" style="stroke:#C82930;stroke-width:1;" width="6" x="368.9" y="554.2659"/><text fill="#000000" font-family="sans-serif" font-size="14" lengthAdjust="spacing" textLength="143.9334" x="380.9" y="561.1979">onBackPressed(): void</text><rect fill="#F24D5C" height="6" style="stroke:#C82930;stroke-width:1;" width="6" x="368.9" y="573.3339"/><text fill="#000000" font-family="sans-serif" font-size="14" lengthAdjust="spacing" textLength="187.0953" x="380.9" y="580.2658">populateAnswerTable(): void</text><ellipse cx="371.9" cy="595.4018" fill="#84BE84" rx="3" ry="3" style="stroke:#038048;stroke-width:1;"/><text fill="#000000" font-family="sans-serif" font-size="14" lengthAdjust="spacing" textLength="97.6916" x="380.9" y="599.3338">initialize(): void</text><rect fill="#F24D5C" height="6" style="stroke:#C82930;stroke-width:1;" width="6" x="368.9" y="611.4697"/><text fill="#000000" font-family="sans-serif" font-size="14" lengthAdjust="spacing" textLength="155.7214" x="380.9" y="618.4017">showQuestion(int): void</text><ellipse cx="371.9" cy="633.5376" fill="#84BE84" rx="3" ry="3" style="stroke:#038048;stroke-width:1;"/><text fill="#000000" font-family="sans-serif" font-size="14" lengthAdjust="spacing" textLength="213.8492" x="380.9" y="637.4696">toggleShowAnswers(Event): void</text><rect fill="#F24D5C" height="6" style="stroke:#C82930;stroke-width:1;" width="6" x="368.9" y="649.6055"/><text fill="#000000" font-family="sans-serif" font-size="14" lengthAdjust="spacing" textLength="168.2793" x="380.9" y="656.5375">switchToQuestions(): void</text><ellipse cx="371.9" cy="671.6734" fill="#84BE84" rx="3" ry="3" style="stroke:#038048;stroke-width:1;"/><text fill="#000000" font-family="sans-serif" font-size="14" lengthAdjust="spacing" textLength="190.1192" x="380.9" y="675.6054">handlePlayAgain(Event): void</text><rect fill="#F24D5C" height="6" style="stroke:#C82930;stroke-width:1;" width="6" x="368.9" y="687.7414"/><text fill="#000000" font-family="sans-serif" font-size="14" lengthAdjust="spacing" textLength="149.3234" x="380.9" y="694.6733">setDocument(int): void</text><rect fill="#F24D5C" height="6" style="stroke:#C82930;stroke-width:1;" width="6" x="368.9" y="706.8093"/><text fill="#000000" font-family="sans-serif" font-size="14" lengthAdjust="spacing" textLength="406.2084" x="380.9" y="713.7413">startTimer(Duration, Label, ProgressBar, Runnable): Timeline?</text><ellipse cx="371.9" cy="728.8772" fill="#84BE84" rx="3" ry="3" style="stroke:#038048;stroke-width:1;"/><text fill="#000000" font-family="sans-serif" font-size="14" lengthAdjust="spacing" textLength="252.293" x="380.9" y="732.8092">onDifficultySelected(ActionEvent): void</text><rect fill="#F24D5C" height="6" style="stroke:#C82930;stroke-width:1;" width="6" x="368.9" y="744.9451"/><text fill="#000000" font-family="sans-serif" font-size="14" lengthAdjust="spacing" textLength="257.935" x="380.9" y="751.8771">onChangeDocument(ActionEvent): void</text><ellipse cx="371.9" cy="767.013" fill="#84BE84" rx="3" ry="3" style="stroke:#038048;stroke-width:1;"/><text fill="#000000" font-family="sans-serif" font-size="14" lengthAdjust="spacing" textLength="245.881" x="380.9" y="770.945">handleShowLeaderboard(Event): void</text><ellipse cx="371.9" cy="786.0809" fill="#84BE84" rx="3" ry="3" style="stroke:#038048;stroke-width:1;"/><text fill="#000000" font-family="sans-serif" font-size="14" lengthAdjust="spacing" textLength="181.9293" x="380.9" y="790.0129">handleGoMenu(Event): void</text><ellipse cx="371.9" cy="805.1489" fill="#84BE84" rx="3" ry="3" style="stroke:#038048;stroke-width:1;"/><text fill="#000000" font-family="sans-serif" font-size="14" lengthAdjust="spacing" textLength="126.5315" x="380.9" y="809.0808">saveSession() : void</text><ellipse cx="371.9" cy="824.2168" fill="#84BE84" rx="3" ry="3" style="stroke:#038048;stroke-width:1;"/><text fill="#000000" font-family="sans-serif" font-size="14" lengthAdjust="spacing" textLength="263.213" x="380.9" y="828.1488">restoreSession(GameSessionState): void</text></g><!--class UserPanelController--><g class="entity" data-entity="UserPanelController" data-source-line="52" data-uid="ent0005" id="entity_UserPanelController"><rect fill="#F1F1F1" height="238.6792" rx="2.5" ry="2.5" style="stroke:#181818;stroke-width:0.5;" width="265.2311" x="828.38" y="321.092"/><ellipse cx="890.1058" cy="337.092" fill="#ADD1B2" rx="11" ry="11" style="stroke:#181818;stroke-width:1;"/><path d="M889.5745,344.0139 Q887.8245,344.0139 886.6839,343.2795 Q885.5589,342.5295 884.9964,341.1857 Q884.4495,339.8264 884.4495,338.0295 Q884.4495,335.9982 885.1058,334.5451 Q885.762,333.092 887.0433,332.3107 Q888.3245,331.5295 890.1995,331.5295 Q891.0902,331.5295 891.762,331.717 Q892.4339,331.8889 893.1214,332.2326 L892.3089,334.2482 Q891.6839,333.9357 891.137,333.8107 Q890.6058,333.6857 890.1214,333.6857 Q888.9495,333.6857 888.2464,334.217 Q887.5433,334.7482 887.2464,335.7014 Q886.9495,336.6545 886.9495,337.9201 Q886.9495,339.9357 887.6683,340.9045 Q888.387,341.8576 889.9808,341.8576 Q890.5745,341.8576 891.1995,341.7014 Q891.8245,341.5451 892.6527,341.1701 L892.6527,343.3889 Q891.9183,343.7014 891.1214,343.8576 Q890.3402,344.0139 889.5745,344.0139 Z " fill="#000000"/><text fill="#000000" font-family="sans-serif" font-size="14" lengthAdjust="spacing" textLength="133.2795" x="910.6058" y="342.524">UserPanelController</text><line style="stroke:#181818;stroke-width:0.5;" x1="829.38" x2="1092.6111" y1="353.092" y2="353.092"/><rect fill="none" height="6" style="stroke:#C82930;stroke-width:1;" width="6" x="836.38" y="365.1259"/><text fill="#000000" font-family="sans-serif" font-size="14" lengthAdjust="spacing" textLength="117.1656" x="848.38" y="372.0579">currentUser: User</text><rect fill="none" height="6" style="stroke:#C82930;stroke-width:1;" width="6" x="836.38" y="384.1939"/><text fill="#000000" font-family="sans-serif" font-size="14" lengthAdjust="spacing" textLength="161.3914" x="848.38" y="391.1258">appContext: AppContext</text><rect fill="none" height="6" style="stroke:#C82930;stroke-width:1;" width="6" x="836.38" y="403.2618"/><text fill="#000000" font-family="sans-serif" font-size="14" lengthAdjust="spacing" textLength="166.9213" x="848.38" y="410.1938">service: UserPanelService</text><line style="stroke:#181818;stroke-width:0.5;" x1="829.38" x2="1092.6111" y1="418.2957" y2="418.2957"/><ellipse cx="839.38" cy="433.3297" fill="#84BE84" rx="3" ry="3" style="stroke:#038048;stroke-width:1;"/><text fill="#000000" font-family="sans-serif" font-size="14" lengthAdjust="spacing" textLength="222.9772" x="848.38" y="437.2617">UserPanelController(AppContext):</text><rect fill="#F24D5C" height="6" style="stroke:#C82930;stroke-width:1;" width="6" x="836.38" y="449.3976"/><text fill="#000000" font-family="sans-serif" font-size="14" lengthAdjust="spacing" textLength="239.2311" x="848.38" y="456.3296">handleStopWords(ActionEvent): void</text><rect fill="#F24D5C" height="6" style="stroke:#C82930;stroke-width:1;" width="6" x="836.38" y="468.4655"/><text fill="#000000" font-family="sans-serif" font-size="14" lengthAdjust="spacing" textLength="209.7332" x="848.38" y="475.3975">handleAdmin(ActionEvent): void</text><rect fill="#F24D5C" height="6" style="stroke:#C82930;stroke-width:1;" width="6" x="836.38" y="487.5334"/><text fill="#000000" font-family="sans-serif" font-size="14" lengthAdjust="spacing" textLength="216.6351" x="848.38" y="494.4654">handleGoBack(ActionEvent): void</text><rect fill="#F24D5C" height="6" style="stroke:#C82930;stroke-width:1;" width="6" x="836.38" y="506.6014"/><text fill="#000000" font-family="sans-serif" font-size="14" lengthAdjust="spacing" textLength="239.189" x="848.38" y="513.5333">handleDocumenti(ActionEvent): void</text><rect fill="#F24D5C" height="6" style="stroke:#C82930;stroke-width:1;" width="6" x="836.38" y="525.6693"/><text fill="#000000" font-family="sans-serif" font-size="14" lengthAdjust="spacing" textLength="215.8792" x="848.38" y="532.6013">handleLogOut(ActionEvent): void</text><ellipse cx="839.38" cy="547.7372" fill="#84BE84" rx="3" ry="3" style="stroke:#038048;stroke-width:1;"/><text fill="#000000" font-family="sans-serif" font-size="14" lengthAdjust="spacing" textLength="97.6916" x="848.38" y="551.6692">initialize(): void</text></g><!--class LeaderboardController--><g class="entity" data-entity="LeaderboardController" data-source-line="64" data-uid="ent0006" id="entity_LeaderboardController"><rect fill="#F1F1F1" height="124.2717" rx="2.5" ry="2.5" style="stroke:#181818;stroke-width:0.5;" width="292.475" x="27.76" y="915.322"/><ellipse cx="94.3088" cy="931.322" fill="#ADD1B2" rx="11" ry="11" style="stroke:#181818;stroke-width:1;"/><path d="M93.7775,938.2439 Q92.0275,938.2439 90.8869,937.5095 Q89.7619,936.7595 89.1994,935.4157 Q88.6525,934.0564 88.6525,932.2595 Q88.6525,930.2282 89.3088,928.7751 Q89.965,927.322 91.2463,926.5407 Q92.5275,925.7595 94.4025,925.7595 Q95.2932,925.7595 95.965,925.947 Q96.6369,926.1189 97.3244,926.4626 L96.5119,928.4782 Q95.8869,928.1657 95.34,928.0407 Q94.8088,927.9157 94.3244,927.9157 Q93.1525,927.9157 92.4494,928.447 Q91.7463,928.9782 91.4494,929.9314 Q91.1525,930.8845 91.1525,932.1501 Q91.1525,934.1657 91.8713,935.1345 Q92.59,936.0876 94.1838,936.0876 Q94.7775,936.0876 95.4025,935.9314 Q96.0275,935.7751 96.8557,935.4001 L96.8557,937.6189 Q96.1213,937.9314 95.3244,938.0876 Q94.5432,938.2439 93.7775,938.2439 Z " fill="#000000"/><text fill="#000000" font-family="sans-serif" font-size="14" lengthAdjust="spacing" textLength="150.8774" x="114.8088" y="936.754">LeaderboardController</text><line style="stroke:#181818;stroke-width:0.5;" x1="28.76" x2="319.235" y1="947.322" y2="947.322"/><rect fill="none" height="6" style="stroke:#C82930;stroke-width:1;" width="6" x="35.76" y="959.3559"/><text fill="#000000" font-family="sans-serif" font-size="14" lengthAdjust="spacing" textLength="266.475" x="47.76" y="966.2879">leaderboardService: LeaderboardService</text><line style="stroke:#181818;stroke-width:0.5;" x1="28.76" x2="319.235" y1="974.3899" y2="974.3899"/><ellipse cx="38.76" cy="989.4239" fill="#84BE84" rx="3" ry="3" style="stroke:#038048;stroke-width:1;"/><text fill="#000000" font-family="sans-serif" font-size="14" lengthAdjust="spacing" textLength="240.5751" x="47.76" y="993.3558">LeaderboardController(AppContext):</text><rect fill="#F24D5C" height="6" style="stroke:#C82930;stroke-width:1;" width="6" x="35.76" y="1005.4918"/><text fill="#000000" font-family="sans-serif" font-size="14" lengthAdjust="spacing" textLength="152.2074" x="47.76" y="1012.4238">back(ActionEvent): void</text><ellipse cx="38.76" cy="1027.5597" fill="#84BE84" rx="3" ry="3" style="stroke:#038048;stroke-width:1;"/><text fill="#000000" font-family="sans-serif" font-size="14" lengthAdjust="spacing" textLength="238.713" x="47.76" y="1031.4917">initialize(URL, ResourceBundle): void</text></g><!--class MainMenuController--><g class="entity" data-entity="MainMenuController" data-source-line="70" data-uid="ent0007" id="entity_MainMenuController"><rect fill="#F1F1F1" height="162.4075" rx="2.5" ry="2.5" style="stroke:#181818;stroke-width:0.5;" width="319.3969" x="355.3" y="896.252"/><ellipse cx="442.3027" cy="912.252" fill="#ADD1B2" rx="11" ry="11" style="stroke:#181818;stroke-width:1;"/><path d="M441.7714,919.1739 Q440.0214,919.1739 438.8808,918.4395 Q437.7558,917.6895 437.1933,916.3457 Q436.6464,914.9864 436.6464,913.1895 Q436.6464,911.1582 437.3027,909.7051 Q437.9589,908.252 439.2402,907.4707 Q440.5214,906.6895 442.3964,906.6895 Q443.2871,906.6895 443.9589,906.877 Q444.6308,907.0489 445.3183,907.3926 L444.5058,909.4082 Q443.8808,909.0957 443.3339,908.9707 Q442.8027,908.8457 442.3183,908.8457 Q441.1464,908.8457 440.4433,909.377 Q439.7402,909.9082 439.4433,910.8614 Q439.1464,911.8145 439.1464,913.0801 Q439.1464,915.0957 439.8652,916.0645 Q440.5839,917.0176 442.1777,917.0176 Q442.7714,917.0176 443.3964,916.8614 Q444.0214,916.7051 444.8496,916.3301 L444.8496,918.5489 Q444.1152,918.8614 443.3183,919.0176 Q442.5371,919.1739 441.7714,919.1739 Z " fill="#000000"/><text fill="#000000" font-family="sans-serif" font-size="14" lengthAdjust="spacing" textLength="136.8915" x="462.8027" y="917.684">MainMenuController</text><line style="stroke:#181818;stroke-width:0.5;" x1="356.3" x2="673.6969" y1="928.252" y2="928.252"/><rect fill="none" height="6" style="stroke:#C82930;stroke-width:1;" width="6" x="363.3" y="940.2859"/><text fill="#000000" font-family="sans-serif" font-size="14" lengthAdjust="spacing" textLength="134.1895" x="375.3" y="947.2179">context: AppContext</text><line style="stroke:#181818;stroke-width:0.5;" x1="356.3" x2="673.6969" y1="955.3199" y2="955.3199"/><ellipse cx="366.3" cy="970.3539" fill="#84BE84" rx="3" ry="3" style="stroke:#038048;stroke-width:1;"/><text fill="#000000" font-family="sans-serif" font-size="14" lengthAdjust="spacing" textLength="226.5891" x="375.3" y="974.2858">MainMenuController(AppContext):</text><rect fill="#F24D5C" height="6" style="stroke:#C82930;stroke-width:1;" width="6" x="363.3" y="986.4218"/><text fill="#000000" font-family="sans-serif" font-size="14" lengthAdjust="spacing" textLength="278.7669" x="375.3" y="993.3538">onUserPanelRequested(MouseEvent): void</text><rect fill="#F24D5C" height="6" style="stroke:#C82930;stroke-width:1;" width="6" x="363.3" y="1005.4897"/><text fill="#000000" font-family="sans-serif" font-size="14" lengthAdjust="spacing" textLength="187.7953" x="375.3" y="1012.4217">playGame(ActionEvent): void</text><rect fill="#F24D5C" height="6" style="stroke:#C82930;stroke-width:1;" width="6" x="363.3" y="1024.5576"/><text fill="#000000" font-family="sans-serif" font-size="14" lengthAdjust="spacing" textLength="293.3969" x="375.3" y="1031.4896">onLeaderboardRequested(ActionEvent): void</text><ellipse cx="366.3" cy="1046.6255" fill="#84BE84" rx="3" ry="3" style="stroke:#038048;stroke-width:1;"/><text fill="#000000" font-family="sans-serif" font-size="14" lengthAdjust="spacing" textLength="238.713" x="375.3" y="1050.5575">initialize(URL, ResourceBundle): void</text></g><!--SRC=[hLLTJzim57tVh_1ZqCeVY11JIm5LQqUN1EqHcUGIhBc-dkt0ked_lklM2KrmoYQjBxLzZw_FFVSZcfVVUGsiHEKCIWd6ijyV6FrAoQrbqyOzNdIsOFeuE4wcMliT_7GdwGvnoZWXSZ1FeeHq1m-RODRa_1bDjRvAsJgihmJ8AjY54avmANv1SfAo9nHLUFcHgqh24ckXPaubqz89L9TFe5mVPn_nUKuUi4wcHD4LMmqJbZiZLDt-npndK0lhm1nn_dAWppNVG4IV_d5CdurGXTZ0fUJQGfMo6Q84hjO6DR7TjYfs5qd4RXsC5Mw8Ci-4rKYKKxRY-knh0zQpdh05OMimvm4D-vToe5HNDcMvs6W90JHuzkljPLuiRhxS5OlLvTroiLeKAPitXdlF0VCZFEIZC2dpVr8ewBYLpOPqAx0WmaHipsuUZjiCjEGCy8gsSLzbOmpTQIDRg0f-7kUlw163hJ0vbuvxVOHo0_8seuUtO-gtg1nSexjY3ekp9TL99_Tv6qbDcU-Wrw-RVg1nZr65peTa7ATg9eLIjiIIopc5vhV3oCZS8zWNittcdyMyGBhl-cgk5g5Ihcwok_ppOdrej2MQ0pHrvdUXixqClTu-tVLi1XgD6nWaychD5IHVi8A-2TMCHjZQWANY7bpJg1j9yaoLVGPJy7ivd2OZOsPFfPKk4SFXuh2k9UI4sRksoPiXGIwUXIiV2spTsEWaMqk-dTPSgAWBw18r9476jX1CqhRcX2tvFSW9enJMNf8PDnEMDKhvs4zUE-jJu81gBXuUHDb8jyr1Gkb8n96nvxM-8D8rT9n6f-y-DY_GaZ8DvXwvgP9Hu3MkG3Knk-LFr47M-ZISi9w9udDKMgrrtskxTUxRVMnYtrggSAeb6HdR4LjiTeSUykXqT-TlfhLjkxrxf3yPWcGEzJVw5jhnBEo1qug-8E-1hj4tntkeDftYFI1zTM-Q8raVwQP3zG_A8Q9_r1hBW7m5TbDq-UOiWE-FQD0ZVPijgLl0OcDAc3K-vB4uLjInlcOZGRmrHMjej51GTHMImMwSKq-kiB4GIOocyU4h_rZJ7WZpwl2_wF7o1m00]--></g></svg>