<svg xmlns="http://www.w3.org/2000/svg" xmlns:xlink="http://www.w3.org/1999/xlink" contentStyleType="text/css" data-diagram-type="CLASS" height="648.6px" preserveAspectRatio="none" style="width:670px;height:648px;background:#FFFFFF;" version="1.1" viewBox="0 0 670 648" width="670.2px" zoomAndPan="magnify"><defs/><g><!--cluster controllers--><g class="cluster" data-entity="controllers" data-source-line="1" data-uid="ent0002" id="cluster_controllers"><path d="M5.1,3.9612 L51.3874,3.9612 A2.25,2.25 0 0 1 52.8874,5.4612 L57.0874,19.0019 L664.5,19.0019 A1.5,1.5 0 0 1 666,20.5019 L666,643.2972 A1.5,1.5 0 0 1 664.5,644.7972 L5.1,644.7972 A1.5,1.5 0 0 1 3.6,643.2972 L3.6,5.4612 A1.5,1.5 0 0 1 5.1,3.9612" fill="none" style="stroke:#000000;stroke-width:0.9;"/><line style="stroke:#000000;stroke-width:0.9;" x1="3.6" x2="57.0874" y1="19.0019" y2="19.0019"/><text fill="#000000" font-family="sans-serif" font-size="8.4" font-weight="bold" lengthAdjust="spacing" textLength="45.6874" x="6" y="14.1408">controllers</text></g><!--class AuthController--><g class="entity" data-entity="AuthController" data-source-line="2" data-uid="ent0003" id="entity_AuthController"><rect fill="#F1F1F1" height="108.8853" rx="1.5" ry="1.5" style="stroke:#181818;stroke-width:0.3;" width="181.8606" x="13.47" y="209.8152"/><ellipse cx="72.6058" cy="219.4152" fill="#ADD1B2" rx="6.6" ry="6.6" style="stroke:#181818;stroke-width:0.6;"/><path d="M72.287,223.5683 Q71.237,223.5683 70.5527,223.1277 Q69.8777,222.6777 69.5402,221.8714 Q69.212,221.0558 69.212,219.9777 Q69.212,218.7589 69.6058,217.8871 Q69.9995,217.0152 70.7683,216.5464 Q71.537,216.0777 72.662,216.0777 Q73.1964,216.0777 73.5995,216.1902 Q74.0027,216.2933 74.4152,216.4996 L73.9277,217.7089 Q73.5527,217.5214 73.2245,217.4464 Q72.9058,217.3714 72.6152,217.3714 Q71.912,217.3714 71.4902,217.6902 Q71.0683,218.0089 70.8902,218.5808 Q70.712,219.1527 70.712,219.9121 Q70.712,221.1214 71.1433,221.7027 Q71.5745,222.2746 72.5308,222.2746 Q72.887,222.2746 73.262,222.1808 Q73.637,222.0871 74.1339,221.8621 L74.1339,223.1933 Q73.6933,223.3808 73.2152,223.4746 Q72.7464,223.5683 72.287,223.5683 Z " fill="#000000"/><text fill="#000000" font-family="sans-serif" font-size="8.4" lengthAdjust="spacing" textLength="58.489" x="84.9058" y="222.6744">AuthController</text><line style="stroke:#181818;stroke-width:0.3;" x1="14.07" x2="194.7306" y1="229.0152" y2="229.0152"/><rect fill="none" height="3.6" style="stroke:#C82930;stroke-width:0.6;" width="3.6" x="18.27" y="236.2356"/><text fill="#000000" font-family="sans-serif" font-size="8.4" lengthAdjust="spacing" textLength="97.3892" x="25.47" y="240.3948">authService: AuthService</text><rect fill="none" height="3.6" style="stroke:#C82930;stroke-width:0.6;" width="3.6" x="18.27" y="247.6763"/><text fill="#000000" font-family="sans-serif" font-size="8.4" lengthAdjust="spacing" textLength="108.8804" x="25.47" y="251.8355">passwordPF: PasswordField</text><line style="stroke:#181818;stroke-width:0.3;" x1="14.07" x2="194.7306" y1="256.6967" y2="256.6967"/><ellipse cx="20.07" cy="265.7171" fill="#84BE84" rx="1.8" ry="1.8" style="stroke:#038048;stroke-width:0.6;"/><text fill="#000000" font-family="sans-serif" font-size="8.4" lengthAdjust="spacing" textLength="112.3076" x="25.47" y="268.0763">AuthController(AppContext):</text><rect fill="#F24D5C" height="3.6" style="stroke:#C82930;stroke-width:0.6;" width="3.6" x="18.27" y="275.3578"/><text fill="#000000" font-family="sans-serif" font-size="8.4" lengthAdjust="spacing" textLength="58.615" x="25.47" y="279.517">initialize(): void</text><ellipse cx="20.07" cy="288.5986" fill="#84BE84" rx="1.8" ry="1.8" style="stroke:#038048;stroke-width:0.6;"/><text fill="#000000" font-family="sans-serif" font-size="8.4" lengthAdjust="spacing" textLength="135.7855" x="25.47" y="290.9578">handleLoginBtn(ActionEvent): void</text><ellipse cx="20.07" cy="300.0393" fill="#84BE84" rx="1.8" ry="1.8" style="stroke:#038048;stroke-width:0.6;"/><text fill="#000000" font-family="sans-serif" font-size="8.4" lengthAdjust="spacing" textLength="166.2606" x="25.47" y="302.3985">showDialog(AlertType, String, String): void</text><ellipse cx="20.07" cy="311.4801" fill="#84BE84" rx="1.8" ry="1.8" style="stroke:#038048;stroke-width:0.6;"/><text fill="#000000" font-family="sans-serif" font-size="8.4" lengthAdjust="spacing" textLength="146.3358" x="25.47" y="313.8393">handleRegisterBtn(ActionEvent): void</text></g><!--class GameController--><g class="entity" data-entity="GameController" data-source-line="11" data-uid="ent0004" id="entity_GameController"><rect fill="#F1F1F1" height="474.9893" rx="1.5" ry="1.5" style="stroke:#181818;stroke-width:0.3;" width="259.3251" x="216.54" y="26.7612"/><ellipse cx="312.0897" cy="36.3612" fill="#ADD1B2" rx="6.6" ry="6.6" style="stroke:#181818;stroke-width:0.6;"/><path d="M311.7709,40.5143 Q310.7209,40.5143 310.0365,40.0737 Q309.3615,39.6237 309.024,38.8174 Q308.6959,38.0018 308.6959,36.9237 Q308.6959,35.7049 309.0897,34.8331 Q309.4834,33.9612 310.2522,33.4924 Q311.0209,33.0237 312.1459,33.0237 Q312.6803,33.0237 313.0834,33.1362 Q313.4865,33.2393 313.899,33.4456 L313.4115,34.6549 Q313.0365,34.4674 312.7084,34.3924 Q312.3897,34.3174 312.099,34.3174 Q311.3959,34.3174 310.974,34.6362 Q310.5522,34.9549 310.374,35.5268 Q310.1959,36.0987 310.1959,36.8581 Q310.1959,38.0674 310.6272,38.6487 Q311.0584,39.2206 312.0147,39.2206 Q312.3709,39.2206 312.7459,39.1268 Q313.1209,39.0331 313.6178,38.8081 L313.6178,40.1393 Q313.1772,40.3268 312.699,40.4206 Q312.2303,40.5143 311.7709,40.5143 Z " fill="#000000"/><text fill="#000000" font-family="sans-serif" font-size="8.4" lengthAdjust="spacing" textLength="63.1258" x="324.3897" y="39.6204">GameController</text><line style="stroke:#181818;stroke-width:0.3;" x1="217.14" x2="475.2651" y1="45.9612" y2="45.9612"/><rect fill="none" height="3.6" style="stroke:#C82930;stroke-width:0.6;" width="3.6" x="221.34" y="53.1816"/><text fill="#000000" font-family="sans-serif" font-size="8.4" lengthAdjust="spacing" textLength="136.4743" x="228.54" y="57.3408">minTimeElapsed: BooleanProperty</text><rect fill="none" height="3.6" style="stroke:#C82930;stroke-width:0.6;" width="3.6" x="221.34" y="64.6223"/><text fill="#000000" font-family="sans-serif" font-size="8.4" lengthAdjust="spacing" textLength="96.8348" x="228.54" y="68.7815">appContext: AppContext</text><rect fill="none" height="3.6" style="stroke:#C82930;stroke-width:0.6;" width="3.6" x="221.34" y="76.0631"/><text fill="#000000" font-family="sans-serif" font-size="8.4" lengthAdjust="spacing" textLength="172.4849" x="228.54" y="80.2223">domandaRisposte: Map&lt;Question, Integer&gt;</text><rect fill="none" height="3.6" style="stroke:#C82930;stroke-width:0.6;" width="3.6" x="221.34" y="87.5038"/><text fill="#000000" font-family="sans-serif" font-size="8.4" lengthAdjust="spacing" textLength="158.1966" x="228.54" y="91.663">elapsedSeconds: SimpleIntegerProperty</text><rect fill="none" height="3.6" style="stroke:#C82930;stroke-width:0.6;" width="3.6" x="221.34" y="98.9446"/><text fill="#000000" font-family="sans-serif" font-size="8.4" lengthAdjust="spacing" textLength="131.5099" x="228.54" y="103.1038">QUESTION_TIME_LIMIT: Duration</text><rect fill="none" height="3.6" style="stroke:#C82930;stroke-width:0.6;" width="3.6" x="221.34" y="110.3853"/><text fill="#000000" font-family="sans-serif" font-size="8.4" lengthAdjust="spacing" textLength="95.6168" x="228.54" y="114.5445">questionTimer: Timeline</text><rect fill="none" height="3.6" style="stroke:#C82930;stroke-width:0.6;" width="3.6" x="221.34" y="121.8261"/><text fill="#000000" font-family="sans-serif" font-size="8.4" lengthAdjust="spacing" textLength="185.2865" x="228.54" y="125.9853">documentToTextMap: Map&lt;Document, String&gt;</text><rect fill="none" height="3.6" style="stroke:#C82930;stroke-width:0.6;" width="3.6" x="221.34" y="133.2668"/><text fill="#000000" font-family="sans-serif" font-size="8.4" lengthAdjust="spacing" textLength="91.6352" x="228.54" y="137.426">readingTimer: Timeline</text><rect fill="none" height="3.6" style="stroke:#C82930;stroke-width:0.6;" width="3.6" x="221.34" y="144.7076"/><text fill="#000000" font-family="sans-serif" font-size="8.4" lengthAdjust="spacing" textLength="182.1365" x="228.54" y="148.8668">currentQuestionIndex: SimpleIntegerProperty</text><rect fill="none" height="3.6" style="stroke:#C82930;stroke-width:0.6;" width="3.6" x="221.34" y="156.1483"/><text fill="#000000" font-family="sans-serif" font-size="8.4" lengthAdjust="spacing" textLength="106.814" x="228.54" y="160.3075">numeroRisposteSaltate: int</text><rect fill="none" height="3.6" style="stroke:#C82930;stroke-width:0.6;" width="3.6" x="221.34" y="167.5891"/><text fill="#000000" font-family="sans-serif" font-size="8.4" lengthAdjust="spacing" textLength="133.9291" x="228.54" y="171.7483">questionsReady: BooleanProperty</text><rect fill="none" height="3.6" style="stroke:#C82930;stroke-width:0.6;" width="3.6" x="221.34" y="179.0298"/><text fill="#000000" font-family="sans-serif" font-size="8.4" lengthAdjust="spacing" textLength="186.6389" x="228.54" y="183.189">questionSetupService: Service&lt;List&lt;Question&gt;&gt;</text><rect fill="none" height="3.6" style="stroke:#C82930;stroke-width:0.6;" width="3.6" x="221.34" y="190.4706"/><text fill="#000000" font-family="sans-serif" font-size="8.4" lengthAdjust="spacing" textLength="106.3688" x="228.54" y="194.6298">gameService: GameService</text><rect fill="none" height="3.6" style="stroke:#C82930;stroke-width:0.6;" width="3.6" x="221.34" y="201.9113"/><text fill="#000000" font-family="sans-serif" font-size="8.4" lengthAdjust="spacing" textLength="219.8692" x="228.54" y="206.0705">readingSetupService: Service&lt;Map&lt;Document, String&gt;&gt;</text><rect fill="none" height="3.6" style="stroke:#C82930;stroke-width:0.6;" width="3.6" x="221.34" y="213.3521"/><text fill="#000000" font-family="sans-serif" font-size="8.4" lengthAdjust="spacing" textLength="135.7519" x="228.54" y="217.5113">questionStartTime: LocalDateTime</text><rect fill="none" height="3.6" style="stroke:#C82930;stroke-width:0.6;" width="3.6" x="221.34" y="224.7928"/><text fill="#000000" font-family="sans-serif" font-size="8.4" lengthAdjust="spacing" textLength="102.2696" x="228.54" y="228.952">questions: List&lt;Question&gt;</text><rect fill="none" height="3.6" style="stroke:#C82930;stroke-width:0.6;" width="3.6" x="221.34" y="236.2336"/><text fill="#000000" font-family="sans-serif" font-size="8.4" lengthAdjust="spacing" textLength="187.4033" x="228.54" y="240.3928">currentDocumentIndex: SimpleIntegerProperty</text><rect fill="none" height="3.6" style="stroke:#C82930;stroke-width:0.6;" width="3.6" x="221.34" y="247.6743"/><text fill="#000000" font-family="sans-serif" font-size="8.4" lengthAdjust="spacing" textLength="112.6772" x="228.54" y="251.8335">numeroRisposteCorrette: int</text><rect fill="none" height="3.6" style="stroke:#C82930;stroke-width:0.6;" width="3.6" x="221.34" y="259.1151"/><text fill="#000000" font-family="sans-serif" font-size="8.4" lengthAdjust="spacing" textLength="96.5576" x="228.54" y="263.2743">MIN_TIME_FOR_SKIP: int</text><rect fill="none" height="3.6" style="stroke:#C82930;stroke-width:0.6;" width="3.6" x="221.34" y="270.5558"/><text fill="#000000" font-family="sans-serif" font-size="8.4" lengthAdjust="spacing" textLength="36.1703" x="228.54" y="274.715">score: int</text><line style="stroke:#181818;stroke-width:0.3;" x1="217.14" x2="475.2651" y1="279.5762" y2="279.5762"/><ellipse cx="223.14" cy="288.5966" fill="#84BE84" rx="1.8" ry="1.8" style="stroke:#038048;stroke-width:0.6;"/><text fill="#000000" font-family="sans-serif" font-size="8.4" lengthAdjust="spacing" textLength="116.9444" x="228.54" y="290.9558">GameController(AppContext):</text><ellipse cx="223.14" cy="300.0373" fill="#84BE84" rx="1.8" ry="1.8" style="stroke:#038048;stroke-width:0.6;"/><text fill="#000000" font-family="sans-serif" font-size="8.4" lengthAdjust="spacing" textLength="74.3649" x="228.54" y="302.3965">skipReading(): void</text><rect fill="#F24D5C" height="3.6" style="stroke:#C82930;stroke-width:0.6;" width="3.6" x="221.34" y="309.6781"/><text fill="#000000" font-family="sans-serif" font-size="8.4" lengthAdjust="spacing" textLength="73.7685" x="228.54" y="313.8373">showReport(): void</text><rect fill="#F24D5C" height="3.6" style="stroke:#C82930;stroke-width:0.6;" width="3.6" x="221.34" y="321.1188"/><text fill="#000000" font-family="sans-serif" font-size="8.4" lengthAdjust="spacing" textLength="84.3777" x="228.54" y="325.278">loadPane(Node): void</text><rect fill="#F24D5C" height="3.6" style="stroke:#C82930;stroke-width:0.6;" width="3.6" x="221.34" y="332.5596"/><text fill="#000000" font-family="sans-serif" font-size="8.4" lengthAdjust="spacing" textLength="86.3601" x="228.54" y="336.7188">onBackPressed(): void</text><rect fill="#F24D5C" height="3.6" style="stroke:#C82930;stroke-width:0.6;" width="3.6" x="221.34" y="344.0003"/><text fill="#000000" font-family="sans-serif" font-size="8.4" lengthAdjust="spacing" textLength="112.2572" x="228.54" y="348.1595">populateAnswerTable(): void</text><ellipse cx="223.14" cy="357.2411" fill="#84BE84" rx="1.8" ry="1.8" style="stroke:#038048;stroke-width:0.6;"/><text fill="#000000" font-family="sans-serif" font-size="8.4" lengthAdjust="spacing" textLength="58.615" x="228.54" y="359.6003">initialize(): void</text><rect fill="#F24D5C" height="3.6" style="stroke:#C82930;stroke-width:0.6;" width="3.6" x="221.34" y="366.8818"/><text fill="#000000" font-family="sans-serif" font-size="8.4" lengthAdjust="spacing" textLength="93.4328" x="228.54" y="371.041">showQuestion(int): void</text><ellipse cx="223.14" cy="380.1226" fill="#84BE84" rx="1.8" ry="1.8" style="stroke:#038048;stroke-width:0.6;"/><text fill="#000000" font-family="sans-serif" font-size="8.4" lengthAdjust="spacing" textLength="128.3095" x="228.54" y="382.4818">toggleShowAnswers(Event): void</text><rect fill="#F24D5C" height="3.6" style="stroke:#C82930;stroke-width:0.6;" width="3.6" x="221.34" y="389.7633"/><text fill="#000000" font-family="sans-serif" font-size="8.4" lengthAdjust="spacing" textLength="100.9676" x="228.54" y="393.9225">switchToQuestions(): void</text><ellipse cx="223.14" cy="403.0041" fill="#84BE84" rx="1.8" ry="1.8" style="stroke:#038048;stroke-width:0.6;"/><text fill="#000000" font-family="sans-serif" font-size="8.4" lengthAdjust="spacing" textLength="114.0715" x="228.54" y="405.3633">handlePlayAgain(Event): void</text><rect fill="#F24D5C" height="3.6" style="stroke:#C82930;stroke-width:0.6;" width="3.6" x="221.34" y="412.6448"/><text fill="#000000" font-family="sans-serif" font-size="8.4" lengthAdjust="spacing" textLength="89.594" x="228.54" y="416.804">setDocument(int): void</text><rect fill="#F24D5C" height="3.6" style="stroke:#C82930;stroke-width:0.6;" width="3.6" x="221.34" y="424.0856"/><text fill="#000000" font-family="sans-serif" font-size="8.4" lengthAdjust="spacing" textLength="243.7251" x="228.54" y="428.2448">startTimer(Duration, Label, ProgressBar, Runnable): Timeline?</text><ellipse cx="223.14" cy="437.3263" fill="#84BE84" rx="1.8" ry="1.8" style="stroke:#038048;stroke-width:0.6;"/><text fill="#000000" font-family="sans-serif" font-size="8.4" lengthAdjust="spacing" textLength="151.3758" x="228.54" y="439.6855">onDifficultySelected(ActionEvent): void</text><rect fill="#F24D5C" height="3.6" style="stroke:#C82930;stroke-width:0.6;" width="3.6" x="221.34" y="446.9671"/><text fill="#000000" font-family="sans-serif" font-size="8.4" lengthAdjust="spacing" textLength="154.761" x="228.54" y="451.1263">onChangeDocument(ActionEvent): void</text><ellipse cx="223.14" cy="460.2078" fill="#84BE84" rx="1.8" ry="1.8" style="stroke:#038048;stroke-width:0.6;"/><text fill="#000000" font-family="sans-serif" font-size="8.4" lengthAdjust="spacing" textLength="147.5286" x="228.54" y="462.567">handleShowLeaderboard(Event): void</text><ellipse cx="223.14" cy="471.6486" fill="#84BE84" rx="1.8" ry="1.8" style="stroke:#038048;stroke-width:0.6;"/><text fill="#000000" font-family="sans-serif" font-size="8.4" lengthAdjust="spacing" textLength="109.1576" x="228.54" y="474.0078">handleGoMenu(Event): void</text><ellipse cx="223.14" cy="483.0893" fill="#84BE84" rx="1.8" ry="1.8" style="stroke:#038048;stroke-width:0.6;"/><text fill="#000000" font-family="sans-serif" font-size="8.4" lengthAdjust="spacing" textLength="75.9189" x="228.54" y="485.4485">saveSession() : void</text><ellipse cx="223.14" cy="494.5301" fill="#84BE84" rx="1.8" ry="1.8" style="stroke:#038048;stroke-width:0.6;"/><text fill="#000000" font-family="sans-serif" font-size="8.4" lengthAdjust="spacing" textLength="157.9278" x="228.54" y="496.8893">restoreSession(GameSessionState): void</text></g><!--class UserPanelController--><g class="entity" data-entity="UserPanelController" data-source-line="52" data-uid="ent0005" id="entity_UserPanelController"><rect fill="#F1F1F1" height="143.2075" rx="1.5" ry="1.5" style="stroke:#181818;stroke-width:0.3;" width="159.1386" x="497.028" y="192.6552"/><ellipse cx="534.0635" cy="202.2552" fill="#ADD1B2" rx="6.6" ry="6.6" style="stroke:#181818;stroke-width:0.6;"/><path d="M533.7447,206.4083 Q532.6947,206.4083 532.0104,205.9677 Q531.3354,205.5177 530.9979,204.7114 Q530.6697,203.8958 530.6697,202.8177 Q530.6697,201.5989 531.0635,200.7271 Q531.4572,199.8552 532.226,199.3864 Q532.9947,198.9177 534.1197,198.9177 Q534.6541,198.9177 535.0572,199.0302 Q535.4604,199.1333 535.8729,199.3396 L535.3854,200.5489 Q535.0104,200.3614 534.6822,200.2864 Q534.3635,200.2114 534.0729,200.2114 Q533.3697,200.2114 532.9479,200.5302 Q532.526,200.8489 532.3479,201.4208 Q532.1697,201.9927 532.1697,202.7521 Q532.1697,203.9614 532.601,204.5427 Q533.0322,205.1146 533.9885,205.1146 Q534.3447,205.1146 534.7197,205.0208 Q535.0947,204.9271 535.5916,204.7021 L535.5916,206.0333 Q535.151,206.2208 534.6729,206.3146 Q534.2041,206.4083 533.7447,206.4083 Z " fill="#000000"/><text fill="#000000" font-family="sans-serif" font-size="8.4" lengthAdjust="spacing" textLength="79.9677" x="546.3635" y="205.5144">UserPanelController</text><line style="stroke:#181818;stroke-width:0.3;" x1="497.628" x2="655.5666" y1="211.8552" y2="211.8552"/><rect fill="none" height="3.6" style="stroke:#C82930;stroke-width:0.6;" width="3.6" x="501.828" y="219.0756"/><text fill="#000000" font-family="sans-serif" font-size="8.4" lengthAdjust="spacing" textLength="70.2993" x="509.028" y="223.2348">currentUser: User</text><rect fill="none" height="3.6" style="stroke:#C82930;stroke-width:0.6;" width="3.6" x="501.828" y="230.5163"/><text fill="#000000" font-family="sans-serif" font-size="8.4" lengthAdjust="spacing" textLength="96.8348" x="509.028" y="234.6755">appContext: AppContext</text><rect fill="none" height="3.6" style="stroke:#C82930;stroke-width:0.6;" width="3.6" x="501.828" y="241.9571"/><text fill="#000000" font-family="sans-serif" font-size="8.4" lengthAdjust="spacing" textLength="100.1528" x="509.028" y="246.1163">service: UserPanelService</text><line style="stroke:#181818;stroke-width:0.3;" x1="497.628" x2="655.5666" y1="250.9774" y2="250.9774"/><ellipse cx="503.628" cy="259.9978" fill="#84BE84" rx="1.8" ry="1.8" style="stroke:#038048;stroke-width:0.6;"/><text fill="#000000" font-family="sans-serif" font-size="8.4" lengthAdjust="spacing" textLength="133.7863" x="509.028" y="262.357">UserPanelController(AppContext):</text><rect fill="#F24D5C" height="3.6" style="stroke:#C82930;stroke-width:0.6;" width="3.6" x="501.828" y="269.6386"/><text fill="#000000" font-family="sans-serif" font-size="8.4" lengthAdjust="spacing" textLength="143.5386" x="509.028" y="273.7978">handleStopWords(ActionEvent): void</text><rect fill="#F24D5C" height="3.6" style="stroke:#C82930;stroke-width:0.6;" width="3.6" x="501.828" y="281.0793"/><text fill="#000000" font-family="sans-serif" font-size="8.4" lengthAdjust="spacing" textLength="125.8399" x="509.028" y="285.2385">handleAdmin(ActionEvent): void</text><rect fill="#F24D5C" height="3.6" style="stroke:#C82930;stroke-width:0.6;" width="3.6" x="501.828" y="292.5201"/><text fill="#000000" font-family="sans-serif" font-size="8.4" lengthAdjust="spacing" textLength="129.9811" x="509.028" y="296.6793">handleGoBack(ActionEvent): void</text><rect fill="#F24D5C" height="3.6" style="stroke:#C82930;stroke-width:0.6;" width="3.6" x="501.828" y="303.9608"/><text fill="#000000" font-family="sans-serif" font-size="8.4" lengthAdjust="spacing" textLength="143.5134" x="509.028" y="308.12">handleDocumenti(ActionEvent): void</text><rect fill="#F24D5C" height="3.6" style="stroke:#C82930;stroke-width:0.6;" width="3.6" x="501.828" y="315.4016"/><text fill="#000000" font-family="sans-serif" font-size="8.4" lengthAdjust="spacing" textLength="129.5275" x="509.028" y="319.5608">handleLogOut(ActionEvent): void</text><ellipse cx="503.628" cy="328.6423" fill="#84BE84" rx="1.8" ry="1.8" style="stroke:#038048;stroke-width:0.6;"/><text fill="#000000" font-family="sans-serif" font-size="8.4" lengthAdjust="spacing" textLength="58.615" x="509.028" y="331.0015">initialize(): void</text></g><!--class LeaderboardController--><g class="entity" data-entity="LeaderboardController" data-source-line="64" data-uid="ent0006" id="entity_LeaderboardController"><rect fill="#F1F1F1" height="74.563" rx="1.5" ry="1.5" style="stroke:#181818;stroke-width:0.3;" width="175.485" x="16.656" y="549.1932"/><ellipse cx="56.5853" cy="558.7932" fill="#ADD1B2" rx="6.6" ry="6.6" style="stroke:#181818;stroke-width:0.6;"/><path d="M56.2665,562.9463 Q55.2165,562.9463 54.5321,562.5057 Q53.8571,562.0557 53.5196,561.2494 Q53.1915,560.4338 53.1915,559.3557 Q53.1915,558.1369 53.5853,557.2651 Q53.979,556.3932 54.7478,555.9244 Q55.5165,555.4557 56.6415,555.4557 Q57.1759,555.4557 57.579,555.5682 Q57.9821,555.6713 58.3946,555.8776 L57.9071,557.0869 Q57.5321,556.8994 57.204,556.8244 Q56.8853,556.7494 56.5946,556.7494 Q55.8915,556.7494 55.4696,557.0682 Q55.0478,557.3869 54.8696,557.9588 Q54.6915,558.5307 54.6915,559.2901 Q54.6915,560.4994 55.1228,561.0807 Q55.554,561.6526 56.5103,561.6526 Q56.8665,561.6526 57.2415,561.5588 Q57.6165,561.4651 58.1134,561.2401 L58.1134,562.5713 Q57.6728,562.7588 57.1946,562.8526 Q56.7259,562.9463 56.2665,562.9463 Z " fill="#000000"/><text fill="#000000" font-family="sans-serif" font-size="8.4" lengthAdjust="spacing" textLength="90.5265" x="68.8853" y="562.0524">LeaderboardController</text><line style="stroke:#181818;stroke-width:0.3;" x1="17.256" x2="191.541" y1="568.3932" y2="568.3932"/><rect fill="none" height="3.6" style="stroke:#C82930;stroke-width:0.6;" width="3.6" x="21.456" y="575.6136"/><text fill="#000000" font-family="sans-serif" font-size="8.4" lengthAdjust="spacing" textLength="159.885" x="28.656" y="579.7728">leaderboardService: LeaderboardService</text><line style="stroke:#181818;stroke-width:0.3;" x1="17.256" x2="191.541" y1="584.6339" y2="584.6339"/><ellipse cx="23.256" cy="593.6543" fill="#84BE84" rx="1.8" ry="1.8" style="stroke:#038048;stroke-width:0.6;"/><text fill="#000000" font-family="sans-serif" font-size="8.4" lengthAdjust="spacing" textLength="144.3451" x="28.656" y="596.0135">LeaderboardController(AppContext):</text><rect fill="#F24D5C" height="3.6" style="stroke:#C82930;stroke-width:0.6;" width="3.6" x="21.456" y="603.2951"/><text fill="#000000" font-family="sans-serif" font-size="8.4" lengthAdjust="spacing" textLength="91.3244" x="28.656" y="607.4543">back(ActionEvent): void</text><ellipse cx="23.256" cy="616.5358" fill="#84BE84" rx="1.8" ry="1.8" style="stroke:#038048;stroke-width:0.6;"/><text fill="#000000" font-family="sans-serif" font-size="8.4" lengthAdjust="spacing" textLength="143.2278" x="28.656" y="618.895">initialize(URL, ResourceBundle): void</text></g><!--class MainMenuController--><g class="entity" data-entity="MainMenuController" data-source-line="70" data-uid="ent0007" id="entity_MainMenuController"><rect fill="#F1F1F1" height="97.4445" rx="1.5" ry="1.5" style="stroke:#181818;stroke-width:0.3;" width="191.6381" x="213.18" y="537.7512"/><ellipse cx="265.3816" cy="547.3512" fill="#ADD1B2" rx="6.6" ry="6.6" style="stroke:#181818;stroke-width:0.6;"/><path d="M265.0629,551.5043 Q264.0129,551.5043 263.3285,551.0637 Q262.6535,550.6137 262.316,549.8074 Q261.9879,548.9918 261.9879,547.9137 Q261.9879,546.6949 262.3816,545.8231 Q262.7754,544.9512 263.5441,544.4824 Q264.3129,544.0137 265.4379,544.0137 Q265.9722,544.0137 266.3754,544.1262 Q266.7785,544.2293 267.191,544.4356 L266.7035,545.6449 Q266.3285,545.4574 266.0004,545.3824 Q265.6816,545.3074 265.391,545.3074 Q264.6879,545.3074 264.266,545.6262 Q263.8441,545.9449 263.666,546.5168 Q263.4879,547.0887 263.4879,547.8481 Q263.4879,549.0574 263.9191,549.6387 Q264.3504,550.2106 265.3066,550.2106 Q265.6629,550.2106 266.0379,550.1168 Q266.4129,550.0231 266.9097,549.7981 L266.9097,551.1293 Q266.4691,551.3168 265.991,551.4106 Q265.5222,551.5043 265.0629,551.5043 Z " fill="#000000"/><text fill="#000000" font-family="sans-serif" font-size="8.4" lengthAdjust="spacing" textLength="82.1349" x="277.6816" y="550.6104">MainMenuController</text><line style="stroke:#181818;stroke-width:0.3;" x1="213.78" x2="404.2181" y1="556.9512" y2="556.9512"/><rect fill="none" height="3.6" style="stroke:#C82930;stroke-width:0.6;" width="3.6" x="217.98" y="564.1716"/><text fill="#000000" font-family="sans-serif" font-size="8.4" lengthAdjust="spacing" textLength="80.5137" x="225.18" y="568.3308">context: AppContext</text><line style="stroke:#181818;stroke-width:0.3;" x1="213.78" x2="404.2181" y1="573.1919" y2="573.1919"/><ellipse cx="219.78" cy="582.2123" fill="#84BE84" rx="1.8" ry="1.8" style="stroke:#038048;stroke-width:0.6;"/><text fill="#000000" font-family="sans-serif" font-size="8.4" lengthAdjust="spacing" textLength="135.9535" x="225.18" y="584.5715">MainMenuController(AppContext):</text><rect fill="#F24D5C" height="3.6" style="stroke:#C82930;stroke-width:0.6;" width="3.6" x="217.98" y="591.8531"/><text fill="#000000" font-family="sans-serif" font-size="8.4" lengthAdjust="spacing" textLength="167.2601" x="225.18" y="596.0123">onUserPanelRequested(MouseEvent): void</text><rect fill="#F24D5C" height="3.6" style="stroke:#C82930;stroke-width:0.6;" width="3.6" x="217.98" y="603.2938"/><text fill="#000000" font-family="sans-serif" font-size="8.4" lengthAdjust="spacing" textLength="112.6772" x="225.18" y="607.453">playGame(ActionEvent): void</text><rect fill="#F24D5C" height="3.6" style="stroke:#C82930;stroke-width:0.6;" width="3.6" x="217.98" y="614.7346"/><text fill="#000000" font-family="sans-serif" font-size="8.4" lengthAdjust="spacing" textLength="176.0381" x="225.18" y="618.8938">onLeaderboardRequested(ActionEvent): void</text><ellipse cx="219.78" cy="627.9753" fill="#84BE84" rx="1.8" ry="1.8" style="stroke:#038048;stroke-width:0.6;"/><text fill="#000000" font-family="sans-serif" font-size="8.4" lengthAdjust="spacing" textLength="143.2278" x="225.18" y="630.3345">initialize(URL, ResourceBundle): void</text></g><!--SRC=[hLLTJzim57tVh_1ZqCeVY11JIm5LQqUN1EqHcUGIhBc-dkt0ked_lklM2KrmoYQjBxLzZw_FFVSZcfVVUGsiHEKCIWd6ijyV6FrAoQrbqyOzNdIsOFeuE4wcMliT_7GdwGvnoZWXSZ1FeeHq1m-RODRa_1bDjRvAsJgihmJ8AjY54avmANv1SfAo9nHLUFcHgqh24ckXPaubqz89L9TFe5mVPn_nUKuUi4wcHD4LMmqJbZiZLDt-npndK0lhm1nn_dAWppNVG4IV_d5CdurGXTZ0fUJQGfMo6Q84hjO6DR7TjYfs5qd4RXsC5Mw8Ci-4rKYKKxRY-knh0zQpdh05OMimvm4D-vToe5HNDcMvs6W90JHuzkljPLuiRhxS5OlLvTroiLeKAPitXdlF0VCZFEIZC2dpVr8ewBYLpOPqAx0WmaHipsuUZjiCjEGCy8gsSLzbOmpTQIDRg0f-7kUlw163hJ0vbuvxVOHo0_8seuUtO-gtg1nSexjY3ekp9TL99_Tv6qbDcU-Wrw-RVg1nZr65peTa7ATg9eLIjiIIopc5vhV3oCZS8zWNittcdyMyGBhl-cgk5g5Ihcwok_ppOdrej2MQ0pHrvdUXixqClTu-tVLi1XgD6nWaychD5IHVi8A-2TMCHjZQWANY7bpJg1j9yaoLVGPJy7ivd2OZOsPFfPKk4SFXuh2k9UI4sRksoPiXGIwUXIiV2spTsEWaMqk-dTPSgAWBw18r9476jX1CqhRcX2tvFSW9enJMNf8PDnEMDKhvs4zUE-jJu81gBXuUHDb8jyr1Gkb8n96nvxM-8D8rT9n6f-y-DY_GaZ8DvXwvgP9Hu3MkG3Knk-LFr47M-ZISi9w9udDKMgrrtskxTUxRVMnYtrggSAeb6HdR4LjiTeSUykXqT-TlfhLjkxrxf3yPWcGEzJVw5jhnBEo1qug-8E-1hj4tntkeDftYFI1zTM-Q8raVwQP3zG_A8Q9_r1hBW7m5TbDq-UOiWE-FQD0ZVPijgLl0OcDAc3K-vB4uLjInlcOZGRmrHMjej51GTHMImMwSKq-kiB4GIOocyU4h_rZJ7WZpwl2_wF7o1m00]--></g></svg>